<?xml version="1.0" encoding="UTF-8"?><svg xmlns="http://www.w3.org/2000/svg" viewBox="0 0 32.12 27.02"><defs><style>.d{fill:#ff979f;}</style></defs><g id="a"/><g id="b"><g id="c"><g><path class="d" d="M13.77,11.92c-.49-2.56-2.43-4.91-4.98-5.47s-5.5,1.01-6.11,3.54c-.53,2.2,.66,4.44,2.04,6.24,2.36,3.09,5.4,5.66,8.84,7.47,.94,.49,1.96,.94,3.01,.84,1.23-.11,2.27-.94,3.2-1.76,1.86-1.63,3.62-3.36,5.29-5.18,1.87-2.04,3.67-4.28,4.34-6.97s-.08-5.9-2.42-7.38c-2.33-1.47-5.52-.79-7.71,.89s-3.59,4.15-4.94,6.55"/><path d="M16.18,11.26c-.69-3.16-2.94-5.96-6.04-7.02-2.81-.96-6.12-.11-8.16,2.05-5.53,5.84,1.82,13.58,6.47,17.11,2.72,2.07,6.43,4.61,9.96,3.24,1.62-.63,2.9-1.85,4.17-3,1.37-1.25,2.68-2.55,3.94-3.91,2.31-2.48,4.68-5.33,5.37-8.75,.6-2.99,.03-6.31-2.1-8.6-2.64-2.83-6.83-2.93-10.15-1.35-3.52,1.67-5.63,5.16-7.46,8.42-1.58,2.81,2.74,5.33,4.32,2.52,1.1-1.96,2.2-4.01,3.91-5.52,1.25-1.1,3.26-1.96,4.91-1.26,1.4,.6,1.86,2.34,1.81,3.72-.07,1.99-1.24,3.85-2.47,5.35-1.6,1.97-3.43,3.78-5.29,5.51-.76,.7-1.63,1.73-2.61,2.14-.92,.38-1.89-.33-2.68-.77-2.06-1.17-3.92-2.61-5.57-4.31-1.38-1.42-3.33-3.43-3.47-5.52-.1-1.58,1.49-2.63,2.93-2.47,1.83,.21,3,2.02,3.37,3.74,.69,3.14,5.51,1.81,4.82-1.33h0Z"/></g></g></g></svg>