<?xml version="1.0" encoding="UTF-8"?><svg xmlns="http://www.w3.org/2000/svg" viewBox="0 0 473.84 683.45"><defs><style>.d{fill:#fff;}.e{fill:#eae4dc;}.f{fill:#ef4545;}.g{fill:#f7baba;}.h{fill:none;stroke:#000;stroke-linecap:round;stroke-miterlimit:10;stroke-width:4px;}.i{fill:#ff979f;}.j{fill:#f9cbcd;}</style></defs><g id="a"/><g id="b"><g id="c"><g><g><g><path class="i" d="M430.73,176.17c1.53-2.12,1.91-5.13,.57-7.37s-4.5-3.32-6.77-2.02c-1.96,1.13-2.78,3.53-3.15,5.76-.64,3.84-.42,7.81,.62,11.56,.28,1.02,.66,2.07,1.45,2.77,.93,.82,2.24,1.01,3.48,1.13,2.46,.23,4.93,.34,7.4,.31,2.77-.03,5.63-.26,8.05-1.61s4.24-4.1,3.72-6.81c-.52-2.7-3.21-4.56-5.93-5.01s-5.48,.23-8.16,.89"/><path d="M432.89,177.44c1.89-2.77,2.34-6.55,.75-9.57-1.37-2.6-4.35-4.29-7.28-4.13-7.62,.42-8.29,10.58-7.66,16.25,.38,3.38,.98,7.97,4.42,9.63,1.48,.72,3.12,.83,4.73,.97,1.85,.15,3.7,.23,5.55,.23,3.47,0,7.14-.21,10.24-1.96,2.73-1.54,4.81-4.39,5.03-7.56,.24-3.51-2.14-6.59-5.24-7.99-3.91-1.76-8.08-.94-12.08,.05-3.12,.77-1.8,5.6,1.33,4.82,2.29-.57,4.79-1.29,7.17-.83,1.45,.28,3.09,1.09,3.67,2.54,.63,1.57-.48,3.28-1.7,4.22-1.62,1.24-3.84,1.55-5.81,1.65-2.55,.14-5.13,.05-7.68-.14-.88-.07-2.15-.02-2.96-.46-.71-.39-.87-1.45-1.06-2.17-.67-2.58-.89-5.23-.71-7.89,.12-1.79,.32-4.09,1.5-5.55,.99-1.21,2.7-1.03,3.75,.12,1.36,1.5,.76,3.74-.27,5.24-.76,1.12-.21,2.77,.9,3.42,1.24,.72,2.66,.22,3.42-.9h0Z"/></g><g><path class="i" d="M455.89,131.5c1.53-2.12,1.91-5.13,.57-7.37s-4.5-3.32-6.77-2.02c-1.96,1.13-2.78,3.53-3.15,5.76-.64,3.84-.42,7.81,.62,11.56,.28,1.02,.66,2.07,1.45,2.77,.93,.82,2.24,1.01,3.48,1.13,2.46,.23,4.93,.34,7.4,.31,2.77-.03,5.63-.26,8.05-1.61s4.24-4.1,3.72-6.81c-.52-2.7-3.21-4.56-5.93-5.01s-5.48,.23-8.16,.89"/><path d="M458.05,132.76c1.89-2.77,2.34-6.55,.75-9.57-1.37-2.6-4.35-4.29-7.28-4.13-7.62,.42-8.29,10.58-7.66,16.25,.38,3.38,.98,7.97,4.42,9.63,1.48,.72,3.12,.83,4.73,.97,1.85,.15,3.7,.23,5.55,.23,3.47,0,7.14-.21,10.24-1.96,2.73-1.54,4.81-4.39,5.03-7.56,.24-3.51-2.14-6.59-5.24-7.99-3.91-1.76-8.08-.94-12.08,.05-3.12,.77-1.8,5.6,1.33,4.82,2.29-.57,4.79-1.29,7.17-.83,1.45,.28,3.09,1.09,3.67,2.54,.63,1.57-.48,3.28-1.7,4.22-1.62,1.24-3.84,1.55-5.81,1.65-2.55,.14-5.13,.05-7.68-.14-.88-.07-2.15-.02-2.96-.46-.71-.39-.87-1.45-1.06-2.17-.67-2.58-.89-5.23-.71-7.89,.12-1.79,.32-4.09,1.5-5.55,.99-1.21,2.7-1.03,3.75,.12,1.36,1.5,.76,3.74-.27,5.24-.76,1.12-.21,2.77,.9,3.42,1.24,.72,2.66,.22,3.42-.9h0Z"/></g><g><path class="i" d="M402.59,131c-.49-2.56-2.43-4.91-4.98-5.47s-5.5,1.01-6.11,3.54c-.53,2.2,.66,4.44,2.04,6.24,2.36,3.09,5.4,5.66,8.84,7.47,.94,.49,1.96,.94,3.01,.84,1.23-.11,2.27-.94,3.2-1.76,1.86-1.63,3.62-3.36,5.29-5.18,1.87-2.04,3.67-4.28,4.34-6.97s-.08-5.9-2.42-7.38c-2.33-1.47-5.52-.79-7.71,.89s-3.59,4.15-4.94,6.55"/><path d="M405,130.34c-.69-3.16-2.94-5.96-6.04-7.02-2.81-.96-6.12-.11-8.16,2.05-5.53,5.84,1.82,13.58,6.47,17.11,2.72,2.07,6.43,4.61,9.96,3.24,1.62-.63,2.9-1.85,4.17-3,1.37-1.25,2.68-2.55,3.94-3.91,2.31-2.48,4.68-5.33,5.37-8.75,.6-2.99,.03-6.31-2.1-8.6-2.64-2.83-6.83-2.93-10.15-1.35-3.52,1.67-5.63,5.16-7.46,8.42-1.58,2.81,2.74,5.33,4.32,2.52,1.1-1.96,2.2-4.01,3.91-5.52,1.25-1.1,3.26-1.96,4.91-1.26,1.4,.6,1.86,2.34,1.81,3.72-.07,1.99-1.24,3.85-2.47,5.35-1.6,1.97-3.43,3.78-5.29,5.51-.76,.7-1.63,1.73-2.61,2.14-.92,.38-1.89-.33-2.68-.77-2.06-1.17-3.92-2.61-5.57-4.31-1.38-1.42-3.33-3.43-3.47-5.52-.1-1.58,1.49-2.63,2.93-2.47,1.83,.21,3,2.02,3.37,3.74,.69,3.14,5.51,1.81,4.82-1.33h0Z"/></g></g><g><path class="i" d="M53.98,151.06c-5.66-13.32-9.68-24.68-5.45-38.53,2.2-7.22,9.99-14.78,17.38-13.27,5.33,1.09,7.92,2.9,11.79,9.01,12.87,20.25,10.41,46.58,4.09,69.76-.57,2.1-1.18,4.29-2.68,5.88-1.67,1.78-4.13,2.53-6.51,3.07-25.31,5.75-51.47-9.68-65.96-30.05-5.02-7.06-6.09-18.07-.01-24.24,6.05-6.14,11.66-5.61,20.06-3.66,11.72,2.73,20.62,13.52,27.28,22.02"/><path d="M56.14,149.8c-4.48-10.56-8.61-21.81-6.04-33.41,1.07-4.83,3.25-9.2,7.27-12.26,1.64-1.25,3.61-2.28,5.68-2.52,1.9-.21,3.93,.33,5.68,1.05,1.35,.55,2.73,1.6,3.9,2.88,1.65,1.82,2.97,3.96,4.19,6.09,2.63,4.58,4.5,9.53,5.73,14.66,2.48,10.31,2.35,21.15,.92,31.6-.75,5.49-1.88,10.93-3.24,16.3-.62,2.43-1.02,5.43-2.51,7.51-1.38,1.93-3.97,2.48-6.15,2.96-9.74,2.13-19.86,.84-29.13-2.63s-18.17-9.5-25.35-16.66c-6.31-6.29-13.19-14.07-12-23.65,.55-4.41,3.22-8.07,7.11-10.18,3.64-1.97,7.87-1.37,11.89-.52,4.97,1.06,9.33,3.01,13.38,6.11s7.26,6.6,10.41,10.33c1.49,1.76,2.92,3.56,4.34,5.37,.83,1.06,2.66,.87,3.54,0,1.05-1.05,.84-2.47,0-3.54-6.7-8.53-14.13-17.3-24.47-21.42-2.48-.99-5.1-1.57-7.72-2.04s-5.08-.78-7.62-.51c-5.25,.56-9.98,3.6-12.96,7.94s-3.47,9.94-2.58,15.02c.95,5.44,3.84,9.83,7.23,14.05,7.07,8.79,16.07,16.24,26.16,21.32s21.16,7.84,32.32,6.85c5.51-.49,12.58-1.28,15.92-6.28,1.69-2.53,2.28-5.8,3.01-8.71s1.36-5.65,1.92-8.49c2.35-11.89,3.35-24.12,1.55-36.16-.86-5.78-2.47-11.39-4.84-16.73-1.18-2.66-2.57-5.23-4.16-7.67-1.38-2.12-2.9-4.27-4.85-5.91-3.62-3.04-8.78-4.61-13.45-3.68-5.43,1.08-10.04,5.41-12.84,10.01-3.18,5.24-4.22,11.94-4.09,17.99s1.71,12.37,3.83,18.22c1.13,3.12,2.41,6.18,3.71,9.24,.53,1.24,2.36,1.52,3.42,.9,1.29-.75,1.43-2.17,.9-3.42h0Z"/></g><g><g><path class="d" d="M105.53,383.84c-10.92,16.76-18.55,35.68-25.96,54.53-21.46,54.6-42.07,113.37-32.41,171.72,1.34,8.08,3.38,16.34,8.22,22.7,7.14,9.38,19.05,12.92,30.31,13.71,18.65,1.32,38.32-3.25,55.51,4.64,9.75,4.48,17.67,12.58,27.05,17.87,18.53,10.46,41.4,8.93,60.86,.65,16.18-6.88,33.1-18.35,49.6-12.43,7.61,2.73,13.67,8.84,20.4,13.52,18.65,12.97,43.7,14.54,63.63,3.98,8.59-4.55,16.16-11.1,24.7-15.77s18.79-7.34,27.68-3.5c6.88,2.97,14.76,9.52,20.56,4.56,1.75-1.5,2.75-3.77,3.59-6,6.75-17.92,7.02-38.55,.74-56.67-3.01-8.69-7.44-16.73-11.04-25.17-5.3-12.39-8.79-25.56-12.27-38.67-8.76-33.01-17.51-66.02-26.27-99.03-7.75-29.23-17.39-61.19-41.66-76.82-11.65-7.5-25.36-10.22-38.79-12.42h0c-33.46-5.47-67.28-8.48-101.12-9-23.39-.36-52.55-4.31-71.63,13.08-11.6,10.58-22.89,21.01-31.68,34.5Z"/><path d="M104.02,382.96c-12.01,18.53-20.03,39.27-28.02,59.75-8.31,21.3-16.21,42.8-22.26,64.86-5.96,21.71-10.12,44.06-10.71,66.61-.29,11.18,.34,22.37,1.98,33.44,1.45,9.79,3.6,20.12,10.27,27.81,13.13,15.15,35.48,13.14,53.47,12.73,10.64-.24,21.7-.02,31.56,4.49,9.3,4.24,16.68,11.6,25.34,16.87,17.17,10.45,38.49,10.58,57.18,4.38,9.9-3.28,18.92-8.63,28.58-12.48s19.83-6.06,29.34-1.43c8.88,4.33,15.64,11.96,24.47,16.46,8.38,4.27,17.68,6.65,27.08,6.95s18.58-1.45,27.11-5.13c9.61-4.16,17.57-11.09,26.5-16.41s19.93-8.99,29.89-4.16c6.79,3.3,16.61,10.17,22.67,1.83,2.9-4,4.2-9.59,5.35-14.31,1.25-5.11,2.02-10.36,2.32-15.61,.61-10.57-.71-21.33-4-31.4-3.46-10.57-9.1-20.23-13.15-30.56-4.14-10.55-7.12-21.51-10.03-32.45-6.15-23.14-12.28-46.29-18.42-69.43-5.3-19.99-9.92-40.35-16.81-59.87-5.77-16.36-13.68-32.91-27.04-44.46-15.84-13.7-37-16.6-56.99-19.55-23.43-3.45-47.04-5.73-70.7-6.79-10.43-.47-20.86-.57-31.29-.94-8.95-.32-17.94-.59-26.86,.27s-17.09,2.68-24.78,6.65c-8.49,4.38-15.38,11.67-22.14,18.29-7.37,7.21-14.22,14.94-19.89,23.57-1.24,1.89,1.79,3.64,3.02,1.77,5.76-8.77,12.8-16.53,20.32-23.82,6.79-6.58,13.55-13.62,22.23-17.66,15.72-7.32,34.08-6.06,50.94-5.47,10.52,.37,21.03,.46,31.55,.98,11.62,.57,23.22,1.43,34.8,2.59s23.08,2.59,34.56,4.33c10.1,1.53,20.31,3.03,30.08,6.07,9.2,2.87,17.71,7.39,24.74,14.03,6.19,5.85,11.1,12.89,15.13,20.36,8.46,15.72,13.19,33.16,17.74,50.32,6.02,22.68,12.03,45.36,18.05,68.04,2.92,11.02,5.83,22.04,8.77,33.06s5.82,21.4,9.92,31.7,9.51,19.55,12.88,29.88,4.5,20.41,3.86,30.82c-.33,5.3-1.17,10.55-2.51,15.68-.64,2.46-1.4,4.89-2.28,7.28s-1.79,4.86-3.91,6.26c-3.72,2.45-8.71-.5-12.07-2.27-4.02-2.11-7.89-4.19-12.45-4.78-21.13-2.77-35.78,17.17-53.92,23.99-17.67,6.64-38.06,4.46-53.9-5.82-8.03-5.21-14.79-12.69-24.27-15.35-9.24-2.59-18.81-.17-27.44,3.35-9.42,3.83-18.27,9.02-27.95,12.23-9.34,3.1-19.22,4.62-29.06,3.92s-19.15-3.81-27.38-9.19c-8.23-5.39-15.52-12.29-24.66-16.2-19.34-8.26-40.43-1.67-60.5-4.93-8.71-1.41-17.44-4.83-23.12-11.88-6.39-7.93-7.98-18.98-9.23-28.77-2.81-21.98-1.43-44.32,2.52-66.07,3.95-21.75,10.35-42.99,17.7-63.82,7.34-20.8,15.15-41.65,24.28-61.74,4.26-9.36,9-18.5,14.6-27.14,1.23-1.9-1.8-3.65-3.02-1.77Z"/></g><g><path class="f" d="M240.31,74.65c2.22-9.33,4.55-19,9.93-27.09,5.07-7.64,12.89-12.26,21.76-14.19,8.23-1.79,18.81-2.33,23.74,5.87,1.96,3.26,2.88,7.11,3.18,10.88,.32,3.9-.59,8.54,1.87,11.92,1.44,1.98,3.65,2.27,5.51,3.63,1.29,.95,1.81,2.54,1.88,4.08,.18,4.52-1.91,10.5-5.98,11.61-25.16,6.85-55.28,15.28-62.28,17.72-9.68,.06-38.7,.72-74.42,1.43-2.29,.05-1.19-4.5-.74-6.74,.51-2.52,1.93-4.09,3.24-6.2,2.96-4.74-.95-8.52-2.99-12.61-3.76-7.55-2.27-16.89,3.8-22.75,6.82-6.59,16.78-5.92,25.49-4.49,8.96,1.47,17.53,4.68,24.83,10.15,6.59,4.94,11.87,11.47,15.49,18.85,.92,1.88,3.29,1.05,3.79-.55,.84,.01,1.66-.43,1.92-1.51Z"/><path d="M238.86,99.47c.91-.05,1.67-.09,2.3-.13-2.68,.54-3.3,.55-2.3,.13Z"/><path d="M239.91,99.08c7-2.44,37.13-10.87,62.28-17.72,4.06-1.11,6.15-7.08,5.98-11.61-.06-1.55-.59-3.14-1.88-4.08-1.86-1.36-4.07-1.65-5.51-3.63-2.45-3.39-1.55-8.02-1.87-11.92-.3-3.77-1.22-7.61-3.18-10.88-4.93-8.2-15.51-7.67-23.74-5.87-8.87,1.93-16.69,6.56-21.76,14.19-5.38,8.1-7.71,17.76-9.93,27.09-.25,1.07-1.07,1.52-1.92,1.51,.15-.48,.14-1.03-.13-1.59-.49-1-1.03-1.98-1.58-2.95,2.06-8.57,4.41-17.27,9.03-24.84,5.21-8.53,13.25-14.33,22.87-16.94,9-2.44,21.06-3.58,28.15,3.77,3,3.11,4.78,7.23,5.69,11.41,.47,2.17,.73,4.4,.83,6.62,.09,2.16-.23,4.48,.36,6.59,.78,2.79,4.06,2.9,5.98,4.68,1.71,1.6,2.55,3.86,2.77,6.14,.56,5.71-1.34,13.14-6.5,14.45-36.66,9.29-55.85,13.96-63.45,15.58-.58,0-1.42,0-2.49,0Z"/><path d="M241.16,99.34c.37-.08,.79-.16,1.24-.26,1.57,.02,1.27,.1-1.24,.26Z"/><path d="M163.75,51.49c2.68-3.39,6.25-5.97,10.3-7.46,4.79-1.77,10.08-1.63,15.09-1.2,10.19,.89,20.3,3.64,28.97,9.18,7.68,4.91,14.09,11.68,18.58,19.59-.15,.64-.31,1.28-.46,1.91-.38,1.58,.92,2.61,2.17,2.63-.51,1.59-2.87,2.43-3.79,.55-3.61-7.39-8.89-13.92-15.49-18.85-7.3-5.46-15.87-8.67-24.83-10.15-8.7-1.43-18.67-2.1-25.49,4.49-6.07,5.86-7.56,15.2-3.8,22.75,2.04,4.09,5.95,7.87,2.99,12.61-1.32,2.11-2.73,3.68-3.24,6.2-.45,2.25-1.56,6.79,.74,6.74,35.73-.71,64.75-1.37,74.42-1.43-.45,.15-.8,.29-1.05,.39-9.18,.49-33,1.47-77.03,3.18-4.58,.18-2.04-8.85-.15-13.07,.45-1,1-1.9,1.65-2.78,.62-.85,1.52-1.74,1.56-2.86,.07-2.2-2.3-4.49-3.28-6.34-4.42-8.31-3.72-18.69,2.14-26.11Z"/><path d="M238.39,76.15c-1.25-.02-2.55-1.05-2.17-2.63,.15-.64,.31-1.28,.46-1.91,.55,.97,1.08,1.95,1.58,2.95,.28,.56,.28,1.11,.13,1.59Z"/><path d="M242.4,99.08c-.45,.1-.87,.18-1.24,.26-.63,.04-1.39,.08-2.3,.13,.25-.1,.61-.24,1.05-.39,1.07,0,1.91,0,2.49,0Z"/></g><g><path class="e" d="M98.4,220.43c1.98-3.72,5.24-6.39,9.44-7.16,4.4-.81,9.09,.45,12.89,2.68,8.01,4.69,12.31,13.79,16.25,21.79,1.21,2.45,4.86,.3,3.66-2.14-4.57-9.27-9.88-19.3-19.31-24.1-.04-8.6,.4-17.2,1.51-25.73,2.08-15.86,6.51-31.56,13.99-45.74,6.7-12.7,15.78-24,26.87-33.14,10.93-9,23.68-15.71,37.07-20.21,14.68-4.93,30.11-7.33,45.56-7.82,18.25-.58,36.68,1.15,54.14,6.68,15.5,4.91,30.03,12.84,42.3,23.53,10.96,9.55,20.05,21.09,26.99,33.85,6.21,11.42,10.69,23.78,13.24,36.54,1.64,8.22,2.41,16.6,1.96,24.98-.48,9.17-2.5,18.1-4.83,26.95-2.18,8.28-4.47,16.54-5.47,25.07-.53,4.48-.67,9.01-.37,13.51,.14,2.15,.42,4.29,.56,6.44,.53,8.18,0,16.42-1.56,24.3-2.06,10.41-5.97,20.4-11.94,29.2-7.32,10.77-17.61,19.11-29.22,24.89-16.4,8.15-34.85,11.06-52.96,12.28-16.93,1.14-34.06,.35-50.64-3.41-13.13-2.98-25.81-7.8-37.41-14.66-9.47-5.6-18.12-12.49-25.71-20.45-6.18-6.48-11.47-13.42-16.12-21.09-1.82-3-3.51-6.07-5.06-9.2-.65-1.31-1.28-2.63-1.87-3.97-.27-.6-.54-1.21-.8-1.82-.06-.14-.09-.2-.1-.24-.01-.03-.04-.09-.1-.23-.1-.25-.21-.5-.31-.75-.89-2.19-1.77-4.43-2.4-6.71-.39-1.41-1.89-1.84-3.11-1.27-10.44,4.93-20.79-3.59-27.28-10.97-3.29-3.74-6.68-7.61-9.11-11.98-2.39-4.31-3.48-9.2-3.86-14.08-.36-4.65-.27-9.39,.12-14.03,.34-4.01,1.07-8.2,2.98-11.79Z"/><path class="e" d="M393.99,239.82c4.7,3.26,5.54,9.97,5.4,15.24-.07,2.75-.55,5.56-1.81,8.03-1.38,2.71-3.57,4.85-5.83,6.82-3.81,3.33-8.31,5.77-12.67,8.34-.33-7.27-1.04-14.51-.18-21.79,.53-4.55,1.49-9.03,2.58-13.48,.03-.03,.05-.05,.08-.07,3.1-3.6,8.1-6.09,12.43-3.09Z"/><path d="M91.02,234.54c-.3,5.5-.28,11.05,.61,16.5,.92,5.64,3.1,10.81,6.46,15.43,3.25,4.47,6.89,8.86,10.85,12.73,6.94,6.78,16.78,11.75,26.34,8.66,1.45,4.27,3.26,8.42,5.26,12.46,3.49,7.05,7.65,13.76,12.4,20.03,6.26,8.27,13.46,15.8,21.57,22.29,9.88,7.9,20.86,14.21,32.62,18.87,14.38,5.7,29.71,8.77,45.11,9.84,9.32,.65,18.68,.56,27.99-.11,10.01-.72,20.08-1.92,29.86-4.22,15.29-3.59,30.08-10.03,42.01-20.39,9.18-7.98,16.18-18.11,20.72-29.37,3.73-9.23,5.72-19.14,6.3-29.07,.1-1.71,.11-3.41,.1-5.11-2.21,.97-4.07-2.44-1.85-3.8,.57-.35,1.14-.69,1.71-1.02-.33-7.27-1.04-14.51-.18-21.79,.53-4.55,1.49-9.03,2.58-13.48-1.79,1.9-4.67-1.04-2.92-3.07,1.24-1.44,2.89-2.8,4.71-3.86,.44-1.64,.87-3.27,1.3-4.91,2.37-9.12,4.29-18.36,4.68-27.8,.61-14.94-2.43-30.1-7.53-44.11-4.89-13.43-11.86-26.03-20.75-37.23-9.74-12.27-21.87-22.62-35.53-30.28-16.08-9.01-34-14.14-52.26-16.14-16.99-1.86-34.39-1.41-51.24,1.45-14.9,2.53-29.5,7.21-42.81,14.43-12.71,6.89-24.14,16.16-33.3,27.36-9.77,11.94-16.9,25.79-21.52,40.49-5.12,16.29-7.17,33.44-7.22,50.48-4.65-1.38-9.75-1.38-14.21,.64-4.36,1.97-7.41,5.81-9.2,10.16-1.81,4.4-2.4,9.23-2.65,13.95Zm4.4-2.33c.34-4.01,1.07-8.2,2.98-11.79,1.98-3.72,5.24-6.39,9.44-7.16,4.4-.81,9.09,.45,12.89,2.68,8.01,4.69,12.31,13.79,16.25,21.79,1.21,2.45,4.86,.3,3.66-2.14-4.57-9.27-9.88-19.3-19.31-24.1-.04-8.6,.4-17.2,1.51-25.73,2.08-15.86,6.51-31.56,13.99-45.74,6.7-12.7,15.78-24,26.87-33.14,10.93-9,23.68-15.71,37.07-20.21,14.68-4.93,30.11-7.33,45.56-7.82,18.25-.58,36.68,1.15,54.14,6.68,15.5,4.91,30.03,12.84,42.3,23.53,10.96,9.55,20.05,21.09,26.99,33.85,6.21,11.42,10.69,23.78,13.24,36.54,1.64,8.22,2.41,16.6,1.96,24.98-.48,9.17-2.5,18.1-4.83,26.95-2.18,8.28-4.47,16.54-5.47,25.07-.53,4.48-.67,9.01-.37,13.51,.14,2.15,.42,4.29,.56,6.44,.53,8.18,0,16.42-1.56,24.3-2.06,10.41-5.97,20.4-11.94,29.2-7.32,10.77-17.61,19.11-29.22,24.89-16.4,8.15-34.85,11.06-52.96,12.28-16.93,1.14-34.06,.35-50.64-3.41-13.13-2.98-25.81-7.8-37.41-14.66-9.47-5.6-18.12-12.49-25.71-20.45-6.18-6.48-11.47-13.42-16.12-21.09-1.82-3-3.51-6.07-5.06-9.2-.65-1.31-1.28-2.63-1.87-3.97-.27-.6-.54-1.21-.8-1.82-.06-.14-.09-.2-.1-.24-.01-.03-.04-.09-.1-.23-.1-.25-.21-.5-.31-.75-.89-2.19-1.77-4.43-2.4-6.71-.39-1.41-1.89-1.84-3.11-1.27-10.44,4.93-20.79-3.59-27.28-10.97-3.29-3.74-6.68-7.61-9.11-11.98-2.39-4.31-3.48-9.2-3.86-14.08-.36-4.65-.27-9.39,.12-14.03Z"/><path d="M391.75,269.91c2.26-1.98,4.45-4.12,5.83-6.82,1.26-2.47,1.74-5.28,1.81-8.03,.14-5.27-.7-11.98-5.4-15.24-4.32-3-9.32-.51-12.43,3.09-.03,.03-.05,.05-.08,.07,.57-2.32,1.18-4.62,1.79-6.93,2.23-1.29,4.73-2.11,7.13-1.91,5.26,.43,9.34,4.35,11.3,9.06,2.04,4.9,2.39,10.76,1.52,15.96-.93,5.58-4.1,9.88-8.26,13.55-4.66,4.12-10.18,7-15.46,10.22-.1,.06-.19,.1-.29,.14-.01-1.61-.06-3.22-.14-4.82,4.35-2.57,8.85-5.01,12.67-8.34Z"/><path d="M378.57,239.91c1.24-1.44,2.89-2.8,4.71-3.86-.61,2.3-1.22,4.61-1.79,6.93-1.79,1.9-4.67-1.04-2.92-3.07Z"/><path d="M377.37,279.28c.57-.35,1.14-.69,1.71-1.02,.07,1.61,.12,3.21,.14,4.82-2.21,.97-4.07-2.44-1.85-3.8Z"/></g><ellipse cx="331.09" cy="231.02" rx="16.33" ry="29.06"/><ellipse cx="222.28" cy="223.48" rx="16.33" ry="29.06"/><path d="M276.59,255.91c2.66-.61,5.29,.16,7.74,1.2,2.29,.97,4.36,2.34,5.84,4.38s2.06,4.54,1.52,6.93c-.5,2.25-2.21,4.18-4.21,5.26-2.7,1.45-5.74,1.45-8.7,.99-1.13-.18-1.76-1.59-1.48-2.61,.33-1.21,1.47-1.66,2.61-1.48,2.2,.35,4.32,.14,6.08-.95,1.32-.82,1.92-2.43,1.54-3.91-.47-1.86-1.81-3.13-3.59-4.12-1.01-.56-1.71-.83-2.83-1.19s-2.31-.66-3.41-.41-2.29-.34-2.61-1.48c-.29-1.07,.36-2.35,1.48-2.61h0Z"/><path class="h" d="M226.86,280.48s3.83,20.19-19.13,16.93"/><path d="M238.07,74.78c-1.9-9.21,1.32-18.55-1.14-27.72-2.17-8.1-7.19-15.12-12.58-21.41-5.78-6.74-11.81-14.16-20.26-17.5-7.92-3.14-16.54-4.33-25.03-3.79-9.62,.61-19,3.6-27.2,8.66-2.33,1.43-4.46-2.23-2.14-3.66C165.1-.11,184.57-2.62,201.81,2.86c4.51,1.43,8.88,3.36,12.59,6.35,3.69,2.98,6.88,6.68,10.07,10.19,5.93,6.53,11.57,13.57,14.94,21.81,1.9,4.64,2.88,9.56,2.85,14.57-.04,5.95-1.32,11.97-.1,17.88,.55,2.66-3.53,3.8-4.09,1.13h0Z"/><path d="M233.35,71.84c.24-5.32-2.51-9.94-5.81-13.91-3.49-4.2-7.42-8.16-11.43-11.85s-8.72-7.15-14.02-9.08c-5.18-1.88-10.67-2.58-16.16-2.62-6.32-.05-12.62,.71-18.86,1.61-2.67,.39-3.82-3.7-1.13-4.09,11.89-1.72,24.5-3.21,36.15,.62,5.78,1.9,10.84,5.15,15.42,9.13s8.95,8.41,12.85,13.05c4.08,4.87,7.53,10.56,7.24,17.13-.12,2.72-4.36,2.73-4.24,0h0Z"/><ellipse class="j" cx="334.97" cy="292.12" rx="26.78" ry="11.37"/><ellipse class="j" cx="195.49" cy="280.75" rx="26.78" ry="11.37"/><g><path class="d" d="M291.88,404.7c20.76-14.4,48.63-14.86,72.89-7.8,19.84,5.78,39.04,16.91,49.66,34.64,5.9,9.85,8.85,21.2,10.64,32.54,2.33,14.79,2.8,29.87,1.39,44.77-1.29,13.61-4.27,27.4-11.65,38.9s-19.8,20.41-33.47,20.79c-8.64,.24-17.33-3.01-23.7-8.87-11.4-10.5-14.57-27.79-26.04-38.21-9.87-8.97-25.37-11.09-37.29-5.11"/><path d="M292.76,406.22c21.89-15.07,50.84-14.46,75.25-6.48,11.98,3.92,23.55,9.83,32.95,18.32,4.65,4.2,8.73,8.99,11.95,14.37,3.76,6.28,6.29,13.18,8.08,20.25,3.81,15.06,4.98,30.94,4.37,46.44-.57,14.41-2.47,29.45-9.05,42.47-5.65,11.17-15.29,20.83-27.64,24.12s-26.22-1.67-34.21-12.13c-7.42-9.72-10.96-21.9-19.28-31.01-8.34-9.13-21.27-13.04-33.34-10.64-2.93,.58-5.75,1.58-8.43,2.91-2.02,1-.25,4.02,1.77,3.02,10.95-5.41,25.16-3.73,34.48,4.23,9.57,8.17,13.28,20.85,20.17,31.01,3.72,5.48,8.4,10.2,14.34,13.24s13.02,4.52,19.8,3.78c12.9-1.4,24.13-9.56,31.39-20.05,8.28-11.98,11.45-26.72,12.82-40.99,1.55-16.16,.89-32.56-1.95-48.55-2.53-14.24-7.41-28.03-17.02-39.07-8.53-9.8-19.77-16.9-31.68-21.89s-25.67-8.24-39.05-8.78c-13.37-.54-26.98,1.62-39.08,7.5-2.93,1.42-5.73,3.07-8.41,4.91-1.84,1.27-.1,4.3,1.77,3.02h0Z"/></g><g><path class="d" d="M170.32,432.83c19.12-17.01,39.55-33.68,63.96-41.36s53.84-4.48,71.43,14.1c8.14,8.6,13.12,19.65,17.6,30.61,12.2,29.86,21.93,61.39,21.68,93.65-.06,7.09-.78,14.68-5.22,20.21-4.64,5.77-12.45,8.08-19.85,8.3-10.87,.32-21.45-3.14-31.91-6.14-10.46-2.99-21.46-5.57-32.13-3.47-10.67,2.1-20.91,10.12-22.23,20.92-.32,2.66-.11,5.38-.71,8-1.89,8.31-10.92,12.63-19.03,15.24-9.03,2.91-19.04,5.12-27.82,1.51-4.36-1.79-8.05-4.89-11.44-8.16-9.54-9.19-17.39-20.13-23.04-32.1"/><path d="M171.56,434.07c13.35-11.88,27.17-23.49,42.9-32.12,14.43-7.92,30.31-12.96,46.89-12.58,15.01,.34,30.31,5.11,41.32,15.63,6.41,6.13,10.95,13.85,14.69,21.82,3.97,8.45,7.33,17.23,10.53,26,6.65,18.28,12.02,37.19,14.23,56.56,.56,4.86,.92,9.74,1.06,14.63,.13,4.47,.21,9.03-.39,13.47-.54,4-1.72,8.12-4.26,11.33s-5.87,5.1-9.54,6.28c-8.68,2.79-18.13,1.37-26.79-.75-9.61-2.35-18.96-5.82-28.77-7.33-8.85-1.36-18.05-1.15-26.22,2.85-6.62,3.24-12.4,8.9-14.56,16.08-1.25,4.15-.39,8.64-1.81,12.72-1.13,3.24-3.72,5.77-6.53,7.63-3.04,2.01-6.42,3.43-9.86,4.59-4.36,1.47-8.86,2.76-13.43,3.34s-9.26,.42-13.62-1.18c-4.17-1.53-7.69-4.43-10.88-7.44-6.53-6.18-12.27-13.19-17.06-20.8-2.34-3.72-4.45-7.58-6.33-11.54-.97-2.03-3.98-.26-3.02,1.77,3.99,8.4,9.02,16.27,14.95,23.44,2.98,3.6,6.18,7.03,9.61,10.2s7.06,5.92,11.38,7.6c8.98,3.5,19.08,1.27,27.92-1.54,7-2.23,14.8-5.46,18.8-12.01,1.02-1.68,1.74-3.57,2.06-5.51,.41-2.5,.25-5.03,.59-7.54,.48-3.56,2.1-6.96,4.4-9.71,5.19-6.22,13-9.54,20.97-10.11,20.51-1.48,39.05,11.05,59.53,10.24,8.15-.32,16.66-3.07,21.58-9.95,5.25-7.32,5.04-17.3,4.8-25.89-.54-20.01-4.76-39.77-10.8-58.8-3.05-9.61-6.57-19.07-10.36-28.41-3.47-8.56-7.11-17.17-12.33-24.84-4.71-6.93-10.68-12.81-17.89-17.12-6.66-3.98-14.13-6.6-21.75-7.97-16.27-2.91-32.97-.49-48.18,5.76-17.07,7.01-32.06,18-46.08,29.85-3.45,2.92-6.85,5.9-10.23,8.9-1.69,1.5,.8,3.97,2.47,2.47h0Z"/></g><g><path class="g" d="M225.68,298.77c.58,11.49,9.55,22.05,20.8,24.47,11.25,2.43,23.77-3.5,29.04-13.73"/><path d="M223.18,298.77c.58,9.92,6.47,19.12,15.11,23.99s19.45,4.46,28.08-.44c4.74-2.69,8.76-6.7,11.3-11.54,1.49-2.85-2.82-5.38-4.32-2.52-3.73,7.12-11.19,12.12-19.2,12.91s-16.2-2.92-21.13-9.55c-2.78-3.73-4.57-8.18-4.84-12.84-.19-3.2-5.19-3.22-5,0h0Z"/></g><path d="M223.41,296.57c25.45,10.7,53.69,14.77,81.14,11.83,7.78-.83,15.49-2.19,23.07-4.12,3.12-.79,1.8-5.61-1.33-4.82-26.15,6.63-53.9,6.46-79.99-.39-7.35-1.93-14.55-4.38-21.55-7.32-1.25-.52-2.75,.56-3.08,1.75-.4,1.44,.5,2.55,1.75,3.08h0Z"/></g></g></g></g></svg>