<?xml version="1.0" encoding="UTF-8"?><svg xmlns="http://www.w3.org/2000/svg" viewBox="0 0 787.64 603.51"><defs><style>.d{fill:#fff;}.e{fill:#f9cbcd;}</style></defs><g id="a"/><g id="b"><g id="c"><g><g><path class="e" d="M8.48,225.81c-16.22,34.55,7.5,81.32,44.95,88.64-29.64,3.3-51.17,33.9-51.11,63.72s17.49,57.39,39.9,77.06c13.18,11.56,28.77,21.22,46.12,23.71,14.63,2.1,29.5-1.01,43.71-5.09,28.21-8.11,55.29-20.15,80.2-35.66-20.09,32.61-15.78,77.02,6.31,108.31,22.09,31.29,59.53,49.8,97.63,53.79s76.7-5.43,111.49-21.46c32.26-14.88,63.01-36.73,79.12-68.4,12.48,37.2,55.87,55.28,95.1,55.95,30,.51,60.64-6.74,85.28-23.86,24.64-17.12,42.64-44.7,44.88-74.62,3.14-41.96-28.11-83.82-69.23-92.74,28.87-10.54,56.94-24.59,79.56-45.39s39.47-48.98,42.34-79.57c4.2-44.67-22.5-88.44-59.76-113.43s-83.41-33.54-128.28-33.91c-19.27-.16-41.56,2.73-51.91,19,2.16-31.78,2.87-67.72-19.34-90.54-16.78-17.24-42.31-22.06-66.2-24.92-40.89-4.9-82.99-6.54-122.66,4.52s-76.94,36.41-94.32,73.75c-14.74-40.23-65.95-60.45-106.31-46.06s-66.7,57.53-67.04,100.38h0c-.15,19.58,6.44,35.64,13.24,53.23-28.69-3.53-60.42,5.38-73.68,33.62Z"/><path class="d" d="M6.32,224.55c-16.65,36.33,7.07,84.23,46.45,92.32l.66-4.91c-20.83,2.56-37.7,17.12-46.55,35.75-9.7,20.44-8.64,43.41,.02,64.03,9.33,22.23,26.28,41.39,46.01,55.03,10.4,7.19,22.18,12.73,34.77,14.59,13.69,2.02,27.53-.35,40.76-3.9,29.97-8.03,58.73-20.78,85.08-37.1l-3.42-3.42c-14.82,24.46-16.69,54.9-8.03,81.85,8.84,27.51,28.59,49.83,53.31,64.36,56.36,33.13,125.96,22.06,181.87-6.15,29.19-14.73,56.47-35.74,71.71-65.29l-4.57-.6c8.67,25.17,30.67,41.78,55.11,50.34,27.51,9.64,58.36,9.64,86.43,2.37,30.06-7.78,57.35-25.41,73.93-52.03,15.04-24.14,19.37-53.64,9.17-80.47-10.85-28.56-35.45-51.81-65.54-58.56v4.82c33.79-12.41,67.1-29.58,91.31-56.87,22.23-25.06,36.16-58.03,32.14-91.9-3.87-32.59-22.08-62.42-46.77-83.59-26.94-23.1-61.45-35.61-96.14-41.1-19.13-3.02-39.12-4.79-58.48-3.46-16.24,1.11-33.47,5.58-42.93,19.93l4.66,1.26c1.68-25.09,2.89-52.33-8.39-75.57-11.88-24.48-36.64-35.26-62.14-39.85-30.43-5.49-62.4-7.7-93.26-5.7-28.9,1.86-57.63,8.31-83.29,22.05-25.52,13.66-47.65,34.22-60.11,60.62l4.57,.6c-13.73-36.62-55.03-56.74-92.79-51.75-42.12,5.57-73.57,42.6-82.62,82.54-2.68,11.83-3.66,24.19-2.09,36.25,1.89,14.58,7.3,28.22,12.57,41.84l2.41-3.16c-29.61-3.49-62.12,6.37-75.84,34.85-1.39,2.89,2.92,5.42,4.32,2.52,13.01-27.02,43.55-35.67,71.52-32.38,1.53,.18,2.96-1.76,2.41-3.16-4.27-11.05-8.73-22.12-11.2-33.74-2.33-10.97-2.48-22.26-.84-33.34,2.9-19.64,11.05-38.69,23.62-54.1,12.37-15.17,29.16-27.06,48.34-31.69,17.55-4.24,36.48-2.26,53.09,4.69,18.88,7.9,35,22.58,42.27,41.96,.68,1.8,3.57,2.72,4.57,.6,22.9-48.54,75.57-73.37,126.67-79.1,30.47-3.42,61.42-1.39,91.74,2.52,24.87,3.2,52.4,9.49,67.28,31.68,15.66,23.35,13.97,54.07,12.17,80.85-.18,2.63,3.39,3.18,4.66,1.26,8.29-12.56,23.9-16.38,38.05-17.41,16.25-1.19,32.95,.02,49.09,2.02,33.7,4.19,67.49,14.62,95.03,35.02,24.95,18.48,44.39,45.7,51.13,76.22,7.19,32.56-3.05,65.5-23.29,91.39-23.85,30.51-59.06,49.29-94.8,62.41-2.14,.79-2.6,4.24,0,4.82,25.52,5.73,46.85,23.82,58.5,47.02,12.27,24.43,11.64,52.55-.7,76.84-26.63,52.43-94.09,72.32-148.66,58.35-26.63-6.82-52.75-22.88-62.1-50.01-.65-1.9-3.52-2.63-4.57-.6-13.04,25.29-35.15,44.07-59.58,57.96-27.11,15.41-57.63,26.41-88.65,30.19-29.41,3.58-59.71,.26-86.73-12.33-25.1-11.7-46.85-30.95-58.49-56.38-12.86-28.12-13-62.39,3.22-89.17,1.28-2.12-1.29-4.74-3.42-3.42-21.57,13.36-44.62,24.2-68.75,32.08-12.46,4.07-25.36,7.89-38.49,8.8s-25.04-1.62-36.45-7.36c-20.24-10.19-37.9-27.63-49.41-47.05-10.97-18.51-16.6-40.93-10.53-62.05s23.26-40.68,46.07-43.49c2.54-.31,3.69-4.29,.66-4.91-35.95-7.38-58.85-51.39-43.46-84.97,1.33-2.9-2.98-5.45-4.32-2.52Z"/></g><path class="d" d="M402.02,463.68c-2.64-5.02-6.08-11.52-2.85-17.08,.57-.99,1.33-1.78,2.31-2.37,.76-.45,1.56-.58,2.56-.54,1.8,.07,3.45,1.05,3.87,2.69,.45,1.75,2.93,2.52,4.18,1.1,3.09-3.5,9.39-6.89,13.76-3.5,1.26,.98,2.29,3.1,2.41,4.66,.09,1.16,.06,1.69-.33,2.7-.22,.58-.76,1.27-1.43,1.68l3.67,2.82c.65-2.09,2.89-3.51,5.03-3.69,2.41-.2,4.55,.99,5.45,3.37s.55,5.11-1.26,6.91c-2.46,2.44-6.4,2.84-9.66,3.29-1.34,.19-2.07,1.9-1.75,3.08,.4,1.44,1.73,1.93,3.08,1.75,3.58-.5,7.37-1.14,10.36-3.33,2.92-2.14,4.6-5.34,4.68-8.97,.07-3.2-1.2-6.59-3.66-8.7-2.6-2.22-6.08-2.87-9.38-2.07-3.59,.87-6.59,3.5-7.7,7.04-.65,2.06,1.85,3.97,3.67,2.82,5.9-3.72,5.26-12.68,.29-16.94-6.31-5.41-15.83-2.05-20.77,3.55l4.18,1.1c-.85-3.32-3.82-5.65-7.14-6.19-3.65-.6-7.22,.67-9.57,3.57s-3.43,6.95-3.05,10.75c.47,4.69,2.58,8.91,4.74,13.02,1.5,2.85,5.81,.33,4.32-2.52h0Z"/><path class="d" d="M627.23,245.94c-5.03-5.37-11.3-10.49-19.05-10.39-6.89,.09-13.25,4.71-13.36,11.99-.05,3.6,1.59,7.06,4.7,8.95l2.52-4.32c-4.73-2.06-10.13-1.36-14.24,1.77s-6.08,8.26-4.85,13.39,5.13,9.28,10.08,10.44c1.57,.37,3.13,.05,4.02-1.41,.77-1.26,.72-2.81,.09-4.11-1.46-3.02-5.11-2.95-7.53-1.17-4.71,3.48-7.24,11.67-2.44,16.11,2.36,2.19,5.9-1.34,3.54-3.54-1.58-1.46-1.29-3.73-.39-5.64,.5-1.07,1.21-2.13,2.15-2.87-.06,.05,.82-.58,.82-.4,0,.04-.44-.06-.46-.13-.03-.08-.14-.2-.18-.3-.18-.48,1.23-1.34,.44-1l1.93-.25c-5-.91-8.59-6.34-7.12-11.18,1.38-4.55,7.41-7.25,11.63-5.41,1.24,.54,2.68,.36,3.42-.9,.69-1.19,.26-2.72-.9-3.42-1.9-1.15-2.55-3.64-2.11-5.79,.56-2.79,2.64-4.69,5.49-5.45,7.32-1.97,13.65,3.61,18.27,8.55,2.2,2.35,5.73-1.19,3.54-3.54h0Z"/><path class="d" d="M193.06,322.67c-.13-.59,.33-.54-.38-.2-.44,.21-1.03,.32-1.47,.33-1.49,.06-2.97-.23-4.39-.67-2.64-.83-5.19-2.51-6.46-5.05-1.15-2.3-.75-4.68,.96-6.61,.82-.94,1.83-1.67,2.91-1.98s1.84-.26,2.84,.33c2.45,1.44,5.03-1.9,3.03-3.93-1.9-1.92-4.45-2.59-6.54-4.19-1.52-1.16-1.63-2.67-.9-4.28,2.45-5.41,9.65-3.88,14.23-2.89l.66-4.91c-.18,.02-.37,.02-.55,0,.18,.04,.18,.04,0,0-.12-.02-.8-.3-.5-.14-.46-.23-.51-.27-.92-.74,.17,.2-.26-.38-.32-.48s-.36-.74-.28-.53c-.1-.26-.18-.53-.24-.8,0,0-.12-.76-.09-.44-.09-1,.03-1.77,.51-2.44,.7-.98,1.81-1.55,2.94-1.84,6.4-1.64,10.84,4.86,13.57,9.63,1.6,2.79,5.92,.28,4.32-2.52-3.45-6.03-8.35-12.23-15.94-12.32-3.18-.04-6.47,1.15-8.52,3.65-1.92,2.33-2.39,5.58-1.36,8.42,1.14,3.14,3.85,5.72,7.37,5.54,2.69-.13,3.55-4.29,.66-4.91-4.03-.87-8.24-1.68-12.32-.7-3.21,.77-6.09,2.89-7.55,5.89s-1.58,6.31,.41,8.96c1.03,1.37,2.42,2.33,3.92,3.14,1.35,.72,2.8,1.32,3.89,2.42l3.03-3.93c-6.68-3.92-14.45,2.62-14.89,9.51-.23,3.54,1.76,7.13,4.38,9.39,2.85,2.46,6.38,3.86,10.1,4.28,3.95,.44,9.78-1.24,8.7-6.35-.66-3.15-5.48-1.81-4.82,1.33h0Z"/><path class="d" d="M384.61,197.05c-.13,.43-.06,.37,.2-.18,.2-.12,.18-.1-.09,.05,.19-.1,.14-.1-.16,0,.2-.03,.13-.03-.19,0-.51,0-1.04-.12-1.36-.25-1.49-.59-2.88-1.67-4-2.79-2.17-2.15-3.88-5.26-3.34-8.41,.4-2.28,2.16-3.87,4.29-4.54,.75-.23,1.03-.3,1.58-.33,.26-.01,.53-.02,.79,0,.17,0,.35,.02,.52,.04-.24-.03-.21-.02,.09,.03,1.1,.26,1.71,.65,2.21,1.39,1.49,2.24,5.53,.9,4.57-1.93-.89-2.62-2.89-4.38-4.1-6.8-.86-1.71-.25-3.28,1.32-4.43,4.57-3.33,10.05,.88,13.68,3.72l3.03-3.93c-.66-.28-.88-.38-1.15-.77,.23,.34-.15-.26-.17-.31-.33-.63,.07,.36-.14-.33-.29-.95-.28-1.58,0-2.58,.22-.77,.72-1.57,1.25-1.93,.91-.62,2.06-.81,3.14-.7,6.86,.73,8.24,9.03,8.61,14.51,.09,1.35,1.08,2.5,2.5,2.5,1.28,0,2.59-1.15,2.5-2.5-.47-6.99-2.13-15.12-9.21-18.34-3.1-1.41-6.81-1.73-9.84,.07-2.5,1.48-3.86,4.22-4.11,7.04-.28,3.03,1.16,6.41,4.08,7.65,1.15,.49,2.42,.44,3.23-.64,.67-.9,.8-2.51-.2-3.28-5.53-4.33-13.04-9.22-19.86-4.41-2.81,1.98-4.62,5.16-3.93,8.66,.31,1.57,1.13,2.98,2.06,4.27,.88,1.21,1.98,2.41,2.47,3.85l4.57-1.93c-3.83-5.77-12.48-4.69-16.52,.31-5.44,6.73-.67,15.92,5.63,20.06,1.73,1.14,3.7,2.02,5.81,2.01,2.29-.01,4.48-1.18,5.06-3.53,.77-3.12-4.05-4.46-4.82-1.33h0Z"/></g></g></g></svg>