<?xml version="1.0" encoding="UTF-8"?><svg xmlns="http://www.w3.org/2000/svg" viewBox="0 0 647.45 578.87"><defs><style>.d{fill:#fff;}.e{fill:#f9cbcd;}</style></defs><g id="a"/><g id="b"><g id="c"><g><g><path class="e" d="M51.68,472.81c-17.31-14.62-33.46-31.5-42.11-52.28-9.5-22.85-9.06-49.1-1.03-72.49,5.82-16.93,16.01-33.07,31.44-42.47,15.43-9.41,36.64-10.76,51.31-.24-21.82-26.57-35.65-59.44-39.32-93.42-1.09-10.05-1.22-20.6,3.02-29.8,5.11-11.09,15.76-18.55,26.07-25.27,20.01-13.05,41.3-25.6,65.06-28.89,23.76-3.28,50.68,4.9,62.8,25.3-4.04-31.34-.07-64.2,14.94-92.11S265.59,10.8,296.95,4.24c11.46-2.4,23.64-2.65,34.66,1.26,28.22,10.01,39.87,42.34,48.02,70.78,24.85-27.65,57.7-48.25,93.65-58.73,16.8-4.9,35.36-7.51,51.5-.79,12.39,5.15,21.99,15.29,29.5,26.27,14.65,21.42,22.69,47.16,22.79,72.98,37.52,5.32,68.24,40.43,68.06,77.77-.19,37.34-31.26,72.16-68.83,77.11,12.88,20.77,22.16,43.7,27.32,67.51,2.76,12.74,4.12,26.92-2.81,38.02-4.5,7.21-11.92,12.12-19.37,16.33-19.15,10.82-40.12,18.51-61.78,22.69,6.72,41.85-4.93,88.32-37.56,115.92-32.63,27.6-87.43,29.74-116.81-1.21-12.89,19.99-35.11,32.74-58.28,39.04-23.17,6.31-47.49,6.85-71.53,7.11-20.38,.22-41.28,.18-60.37-6.84h0c-25.3-9.31-33.7-31.74-52.39-48.14-21.28-18.67-49.09-29.97-71.04-48.51Z"/><path class="d" d="M53.45,471.04c-12.23-10.36-23.91-21.69-32.78-35.13-9.18-13.9-14.61-29.72-15.53-46.38-1.66-30.1,9.92-67.24,37.78-82.78,14.42-8.05,33.25-8.92,47.11,.74,2.5,1.74,4.69-1.89,3.03-3.93-13.05-16-23.28-34.3-30.03-53.82-3.26-9.43-5.73-19.13-7.35-28.98-1.72-10.47-3.15-21.82-.35-32.22,2.67-9.91,9.82-17.31,17.86-23.29,8.05-5.99,16.71-11.33,25.37-16.39,17.69-10.36,37.51-19.28,58.41-19.12,19.18,.15,39.48,7.79,49.8,24.77,1.18,1.94,4.99,1.34,4.66-1.26-5.34-42.5,4.19-88,35.57-118.8,26.74-26.25,76.26-44.49,105.2-11.65,13.26,15.05,19.59,35.24,25.02,54.15,.5,1.73,2.89,2.53,4.18,1.1,23.6-26.11,54-45.81,87.53-56.55,17.2-5.51,36.72-9.58,54.16-2.75,16.4,6.43,27.87,21.93,35.98,36.91,10.02,18.5,15.33,39.32,15.5,60.35,0,.99,.76,2.25,1.84,2.41,28.4,4.21,53.05,25.32,62.35,52.42,9.42,27.44,.17,56.99-20.48,76.73-11.71,11.19-26.56,18.69-42.64,20.91-1.61,.22-2.25,2.44-1.49,3.67,13.74,22.29,24.21,47.59,28.32,73.55,1.93,12.15,1.22,25.24-7.82,34.5-8.74,8.94-21.5,14.6-32.79,19.55-13.73,6.02-28.16,10.4-42.86,13.28-1.43,.28-1.94,1.83-1.75,3.08,5.25,33.38-1.1,69.65-21.5,97.1-19.27,25.94-50.99,39.82-83.16,36.53-17.12-1.75-33.53-8.88-45.53-21.36-1.16-1.21-3.07-.81-3.93,.51-28.01,42.81-85.45,44.57-131.18,44.95-23.54,.19-50.67,.2-70.4-14.59-7.8-5.85-13.96-13.56-20.06-21.08-6.47-7.97-13.11-15.6-21.12-22.07-20.99-16.95-46.22-27.71-66.92-45.05-2.45-2.05-6.01,1.47-3.54,3.54,19.23,16.11,42.21,26.63,62.31,41.49,8.94,6.61,16.48,14.31,23.5,22.89,6.37,7.79,12.54,15.86,20.35,22.29,19.06,15.7,45.08,17.53,68.78,17.61,26.99,.09,54.77,.03,81.07-6.79,24.23-6.28,47.56-19.32,61.51-40.65l-3.93,.51c22.98,23.9,59.87,28.39,90.32,18.02,33.59-11.44,56.38-41.03,65.37-74.64,5.27-19.7,6.01-40.41,2.85-60.52l-1.75,3.08c14-2.74,27.69-6.88,40.84-12.41,12.03-5.06,24.93-10.88,34.8-19.6s13.04-20.45,12.29-33c-.82-13.71-4.85-27.48-9.36-40.37-5.24-14.97-12.11-29.34-20.44-42.84l-1.49,3.67c30.05-4.16,56-26.55,66.22-54.87,10.43-28.9,1.03-60.67-20.51-81.9-12.2-12.02-27.95-20.41-44.95-22.93l1.84,2.41c-.16-19.33-4.51-38.43-12.69-55.93-7.56-16.18-18.59-32.66-34.16-42.08-16.75-10.13-36.96-8.89-55.24-4.19-18.04,4.64-35.49,12.08-51.53,21.52-17.9,10.53-34.17,23.78-48.09,39.19l4.18,1.1c-5.15-17.92-11.12-36.48-22.44-51.57-5.4-7.2-12.02-13.51-20.01-17.75-9.8-5.2-20.95-6.93-31.95-6.09-42.65,3.24-77.89,36.11-92.84,74.77-9.58,24.78-11.66,52.04-8.37,78.27l4.66-1.26c-9.61-15.82-27.07-24.38-45.01-26.63-21.41-2.68-42.43,4.37-61.17,14.25-9.96,5.25-19.54,11.27-28.87,17.56-8.26,5.57-16.49,11.9-21.6,20.63-5.74,9.8-6.19,21.41-5.13,32.44,1.02,10.71,3.05,21.33,6.01,31.67,6.82,23.82,18.56,46.02,34.21,65.2l3.03-3.93c-12.89-8.98-30.03-9.68-44.49-4.26-15.02,5.63-26.63,17.63-34.37,31.42-17.13,30.53-18.75,70.06-1.7,100.92,9.36,16.95,23.26,30.9,37.92,43.33,2.44,2.07,5.99-1.45,3.54-3.54Z"/></g><path class="d" d="M152.03,270.75c4.81-2.83,11.09-6.63,16.76-3.87,2.07,1.01,3.38,2.74,3.4,4.74,0,.97-.19,1.85-.66,2.65-.42,.72-1,1.2-1.73,1.43-1.63,.5-2.65,2.94-1.1,4.18,3.69,2.96,7.35,8.95,4.31,13.56-.98,1.49-2.89,2.52-4.86,2.78-1.46,.19-3.28-.27-4.14-1.48l-2.82,3.67c4.78,1.25,5.6,8.41,1.01,10.46-2.22,.99-4.98,.8-6.8-.7-2.73-2.25-3.33-6.33-3.95-9.59-.25-1.33-1.85-2.08-3.08-1.75-1.39,.38-2,1.74-1.75,3.08,.71,3.76,1.62,7.52,4.07,10.56,2.14,2.65,5.49,4.09,8.88,3.99,3.16-.09,6.41-1.4,8.44-3.89,2.15-2.64,2.77-6.13,1.86-9.4-.99-3.58-3.71-6.63-7.36-7.58-1.97-.52-4.12,1.81-2.82,3.67,4.01,5.73,12.78,4.84,16.91-.33,5.18-6.48,1.45-15.92-4.37-20.58l-1.1,4.18c3.5-1.08,5.57-4.18,5.98-7.72,.44-3.76-1.32-7.15-4.33-9.34-7.39-5.37-16.46-1.04-23.28,2.97-2.77,1.63-.26,5.95,2.52,4.32h0Z"/><path class="d" d="M380.36,485.24c5.1-5.26,10.05-11.81,9.54-19.55-.45-6.8-5.19-13.09-12.49-12.84-3.57,.12-7.03,1.82-8.78,5.02l4.57,1.93c1.8-4.74,.36-10.17-2.87-13.93s-8.77-5.45-13.67-3.82c-4.73,1.57-8.87,5.64-9.68,10.68-.55,3.42,3.04,5.23,5.86,3.58,3.07-1.8,2.39-5.61,.35-7.93-3.7-4.2-11.79-6.13-15.8-1.35-.87,1.03-1.01,2.52,0,3.54,.89,.89,2.66,1.04,3.54,0,1.45-1.73,3.7-1.58,5.79-.72,1.05,.43,2.23,1.15,2.94,2.07,.4,.52,.22,.94,.52,.21,.04-.09,.44-.27,.16-.15-.32,.07-.16,.08,.5,.03,.24,.13,.46,.28,.67,.45l.34,1.26c.65-4.91,6.53-8.41,11.11-7,4.81,1.47,7.09,7.35,5.42,11.75-1.01,2.66,3.23,4.38,4.57,1.93,1.15-2.11,3.65-2.87,5.93-2.47,2.69,.47,4.65,2.43,5.5,5.12,2.31,7.23-2.81,13.77-7.55,18.66-2.24,2.31,1.29,5.85,3.54,3.54h0Z"/><path class="d" d="M318.4,269.63c.59-.13,.54,.33,.2-.38-.21-.44-.32-1.03-.33-1.47-.06-1.49,.23-2.97,.67-4.39,.83-2.64,2.51-5.19,5.05-6.46,2.3-1.15,4.68-.75,6.61,.96,.94,.82,1.67,1.83,1.98,2.91s.26,1.84-.33,2.84c-1.44,2.45,1.9,5.03,3.93,3.03,1.92-1.9,2.59-4.45,4.19-6.54,1.16-1.52,2.67-1.63,4.28-.9,5.41,2.45,3.88,9.65,2.89,14.23l4.91,.66c-.02-.18-.02-.37,0-.55-.04,.18-.04,.18,0,0,.02-.12,.3-.8,.14-.5,.23-.46,.27-.51,.74-.92-.2,.17,.38-.26,.48-.32s.74-.36,.53-.28c.26-.1,.53-.18,.8-.24,0,0,.76-.12,.44-.09,1-.09,1.77,.03,2.44,.51,.98,.7,1.55,1.81,1.84,2.94,1.64,6.4-4.86,10.84-9.63,13.57-2.79,1.6-.28,5.92,2.52,4.32,6.03-3.45,12.23-8.35,12.32-15.94,.04-3.18-1.15-6.47-3.65-8.52-2.33-1.92-5.58-2.39-8.42-1.36-3.14,1.14-5.72,3.85-5.54,7.37,.13,2.69,4.29,3.55,4.91,.66,.87-4.03,1.68-8.24,.7-12.32-.77-3.21-2.89-6.09-5.89-7.55-2.87-1.41-6.31-1.58-8.96,.41-1.37,1.03-2.33,2.42-3.14,3.92-.72,1.35-1.32,2.8-2.42,3.89l3.93,3.03c3.92-6.68-2.62-14.45-9.51-14.89-3.54-.23-7.13,1.76-9.39,4.38-2.46,2.85-3.86,6.38-4.28,10.1-.44,3.95,1.24,9.78,6.35,8.7,3.15-.66,1.81-5.48-1.33-4.82h0Z"/><path class="d" d="M414.16,160.45c-.13,.43-.06,.37,.2-.18,.2-.12,.18-.1-.09,.05,.19-.1,.14-.1-.16,0,.2-.03,.13-.03-.19,0-.51,0-1.04-.12-1.36-.25-1.49-.59-2.88-1.67-4-2.79-2.17-2.15-3.88-5.26-3.34-8.41,.4-2.28,2.16-3.87,4.29-4.54,.75-.23,1.03-.3,1.58-.33,.26-.01,.53-.02,.79,0,.17,0,.35,.02,.52,.04-.24-.03-.21-.02,.09,.03,1.1,.26,1.71,.65,2.21,1.39,1.49,2.24,5.53,.9,4.57-1.93-.89-2.62-2.89-4.38-4.1-6.8-.86-1.71-.25-3.28,1.32-4.43,4.57-3.33,10.05,.88,13.68,3.72l3.03-3.93c-.66-.28-.88-.38-1.15-.77,.23,.34-.15-.26-.17-.31-.33-.63,.07,.36-.14-.33-.29-.95-.28-1.58,0-2.58,.22-.77,.72-1.57,1.25-1.93,.91-.62,2.06-.81,3.14-.7,6.86,.73,8.24,9.03,8.61,14.51,.09,1.35,1.08,2.5,2.5,2.5,1.28,0,2.59-1.15,2.5-2.5-.47-6.99-2.13-15.12-9.21-18.34-3.1-1.41-6.81-1.73-9.84,.07-2.5,1.48-3.86,4.22-4.11,7.04-.28,3.03,1.16,6.41,4.08,7.65,1.15,.49,2.42,.44,3.23-.64,.67-.9,.8-2.51-.2-3.28-5.53-4.33-13.04-9.22-19.86-4.41-2.81,1.98-4.62,5.16-3.93,8.66,.31,1.57,1.13,2.98,2.06,4.27,.88,1.21,1.98,2.41,2.47,3.85l4.57-1.93c-3.83-5.77-12.48-4.69-16.52,.31-5.44,6.73-.67,15.92,5.63,20.06,1.73,1.14,3.7,2.02,5.81,2.01,2.29-.01,4.48-1.18,5.06-3.53,.77-3.12-4.05-4.46-4.82-1.33h0Z"/></g></g></g></svg>