<?xml version="1.0" encoding="UTF-8"?><svg xmlns="http://www.w3.org/2000/svg" viewBox="0 0 89.44 94.1"><defs><style>.d{fill:#ff979f;}</style></defs><g id="a"/><g id="b"><g id="c"><g><path class="d" d="M53.98,54.45c-5.66-13.32-9.68-24.68-5.45-38.53,2.2-7.22,9.99-14.78,17.38-13.27,5.33,1.09,7.92,2.9,11.79,9.01,12.87,20.25,10.41,46.58,4.09,69.76-.57,2.1-1.18,4.29-2.68,5.88-1.67,1.78-4.13,2.53-6.51,3.07-25.31,5.75-51.47-9.68-65.96-30.05-5.02-7.06-6.09-18.07-.01-24.24,6.05-6.14,11.66-5.61,20.06-3.66,11.72,2.73,20.62,13.52,27.28,22.02"/><path d="M56.14,53.19c-4.48-10.56-8.61-21.81-6.04-33.41,1.07-4.83,3.25-9.2,7.27-12.26,1.64-1.25,3.61-2.28,5.68-2.52,1.9-.21,3.93,.33,5.68,1.05,1.35,.55,2.73,1.6,3.9,2.88,1.65,1.82,2.97,3.96,4.19,6.09,2.63,4.58,4.5,9.53,5.73,14.66,2.48,10.31,2.35,21.15,.92,31.6-.75,5.49-1.88,10.93-3.24,16.3-.62,2.43-1.02,5.43-2.51,7.51-1.38,1.93-3.97,2.48-6.15,2.96-9.74,2.13-19.86,.84-29.13-2.63s-18.17-9.5-25.35-16.66c-6.31-6.29-13.19-14.07-12-23.65,.55-4.41,3.22-8.07,7.11-10.18,3.64-1.97,7.87-1.37,11.89-.52,4.97,1.06,9.33,3.01,13.38,6.11s7.26,6.6,10.41,10.33c1.49,1.76,2.92,3.56,4.34,5.37,.83,1.06,2.66,.87,3.54,0,1.05-1.05,.84-2.47,0-3.54-6.7-8.53-14.13-17.3-24.47-21.42-2.48-.99-5.1-1.57-7.72-2.04s-5.08-.78-7.62-.51c-5.25,.56-9.98,3.6-12.96,7.94S-.49,46.6,.4,51.68c.95,5.44,3.84,9.83,7.23,14.05,7.07,8.79,16.07,16.24,26.16,21.32s21.16,7.84,32.32,6.85c5.51-.49,12.58-1.28,15.92-6.28,1.69-2.53,2.28-5.8,3.01-8.71s1.36-5.65,1.92-8.49c2.35-11.89,3.35-24.12,1.55-36.16-.86-5.78-2.47-11.39-4.84-16.73-1.18-2.66-2.57-5.23-4.16-7.67-1.38-2.12-2.9-4.27-4.85-5.91-3.62-3.04-8.78-4.61-13.45-3.68-5.43,1.08-10.04,5.41-12.84,10.01-3.18,5.24-4.22,11.94-4.09,17.99s1.71,12.37,3.83,18.22c1.13,3.12,2.41,6.18,3.71,9.24,.53,1.24,2.36,1.52,3.42,.9,1.29-.75,1.43-2.17,.9-3.42h0Z"/></g></g></g></svg>