<?xml version="1.0" encoding="UTF-8"?><svg xmlns="http://www.w3.org/2000/svg" viewBox="0 0 30.16 27.09"><defs><style>.d{fill:#ff979f;}</style></defs><g id="a"/><g id="b"><g id="c"><g><path class="d" d="M12.21,12.45c1.53-2.12,1.91-5.13,.57-7.37S8.28,1.76,6.02,3.06c-1.96,1.13-2.78,3.53-3.15,5.76-.64,3.84-.42,7.81,.62,11.56,.28,1.02,.66,2.07,1.45,2.77,.93,.82,2.24,1.01,3.48,1.13,2.46,.23,4.93,.34,7.4,.31,2.77-.03,5.63-.26,8.05-1.61s4.24-4.1,3.72-6.81c-.52-2.7-3.21-4.56-5.93-5.01s-5.48,.23-8.16,.89"/><path d="M14.37,13.71c1.89-2.77,2.34-6.55,.75-9.57C13.75,1.54,10.78-.15,7.84,.01,.22,.43-.45,10.59,.18,16.26c.38,3.38,.98,7.97,4.42,9.63,1.48,.72,3.12,.83,4.73,.97,1.85,.15,3.7,.23,5.55,.23,3.47,0,7.14-.21,10.24-1.96,2.73-1.54,4.81-4.39,5.03-7.56,.24-3.51-2.14-6.59-5.24-7.99-3.91-1.76-8.08-.94-12.08,.05-3.12,.77-1.8,5.6,1.33,4.82,2.29-.57,4.79-1.29,7.17-.83,1.45,.28,3.09,1.09,3.67,2.54,.63,1.57-.48,3.28-1.7,4.22-1.62,1.24-3.84,1.55-5.81,1.65-2.55,.14-5.13,.05-7.68-.14-.88-.07-2.15-.02-2.96-.46-.71-.39-.87-1.45-1.06-2.17-.67-2.58-.89-5.23-.71-7.89,.12-1.79,.32-4.09,1.5-5.55,.99-1.21,2.7-1.03,3.75,.12,1.36,1.5,.76,3.74-.27,5.24-.76,1.12-.21,2.77,.9,3.42,1.24,.72,2.66,.22,3.42-.9h0Z"/></g></g></g></svg>