<?xml version="1.0" encoding="UTF-8"?><svg xmlns="http://www.w3.org/2000/svg" viewBox="0 0 1192.4 786.88"><defs><style>.d{fill:#fff;}.e{fill:#f9cbcd;}</style></defs><g id="a"/><g id="b"><g id="c"><g><g><path class="e" d="M468.78,116.6c38.33,23.22,58.16,73.21,46.17,116.4,23.55-23.72,55.78-39.51,89.2-40.14s67.48,14.99,86.19,42.69c-15.22-30.27,19.34-67.48,53.09-64.46s59.53,32.76,71.88,64.31c52.46-34.77,129.7-25.2,172.1,21.32s44.78,124.31,5.3,173.33c27.16,4.01,56.94,9.45,74.24,30.77,17.3,21.32,8.05,62.7-19.39,63.37,34.17,11.89,69.08,24.18,97.32,46.79s49.03,57.93,44.52,93.83c-4.71,37.44-35.94,67.24-70.98,81.27-35.03,14.03-73.69,15.19-111.41,16.17-277.23,7.19-554.46,14.38-831.68,21.56-38.06,.99-79.27,1.04-109.91-21.56h0c-34.02-25.09-43.58-69.19-47.48-108.9-5.11-51.94-5.57-104.61-8.03-156.72C5.9,411.69,.54,326.67,3.45,241.6,5.69,176.09,13.46-48.53,133.52,13.07c7.74,3.97,15.43,8.72,22.3,14.05,6.99,5.42,14.64,18.97,22.65,21.7,10.11,3.45,26.08-6.74,35.91-9.16,13.94-3.43,28.42-5.15,42.78-4.26,49.19,3.04,93.61,41.4,87.48,93.44,34.39-27.97,85-36.87,124.15-12.25Z"/><path class="d" d="M467.52,118.76c37.5,23.19,56.43,71,45.02,113.57-.65,2.41,2.4,4.2,4.18,2.43,23.81-23.66,56.1-39.66,90.12-39.42,31.67,.23,63.19,15.18,81.35,41.46,1.84,2.66,5.7,.39,4.32-2.52-14.28-30,19.49-61.84,48.59-60.84,34.61,1.19,59.98,32.99,71.8,62.62,.56,1.41,2.19,2.46,3.67,1.49,40.19-26.23,94.11-26.98,136.16-4.48s67.09,69.98,65.51,118.54c-.89,27.63-10.06,54.94-27.31,76.67-1.01,1.28-.97,3.87,1.1,4.18,26.33,3.91,62.89,9.2,76.67,35.63,9.55,18.32,4,52.39-21.16,53.6-2.86,.14-3.34,3.98-.66,4.91,42.04,14.63,87.2,30.4,116.33,66.03,13.64,16.69,23.4,37.45,24.24,59.23,.77,20.26-6.78,39.68-19.41,55.34-28.48,35.32-73.75,47.13-117.11,50.6-24.05,1.92-48.25,2.06-72.36,2.69l-78.19,2.03c-103.86,2.69-207.72,5.39-311.59,8.08-103.86,2.69-207.72,5.39-311.59,8.08l-78.19,2.03c-22.65,.59-45.45,1.83-68.08,.11-21.4-1.62-43.13-6.37-61.16-18.53-15.99-10.77-27.46-26.75-34.88-44.36-7.61-18.05-11.38-37.58-13.64-56.96-2.83-24.22-4.16-48.65-5.27-73-2.35-51.68-4.2-103.37-6.68-155.04-3.71-77.26-6.36-154.73-1.48-232,3-47.64,8.04-97.77,26.59-142.22,7.61-18.23,18.59-37.33,36.34-47.32,19.04-10.72,41.17-6.22,59.84,3.02,9.7,4.8,20.31,10.56,27.73,18.58,5.52,5.97,10.33,14.15,17.99,17.65,7.17,3.28,15.65,.27,22.51-2.38,9.17-3.55,17.56-6.81,27.33-8.5,38.74-6.71,81.97,4.41,104.42,38.9,9.77,15.01,13.47,32.49,11.57,50.21-.26,2.41,2.79,2.95,4.27,1.77,34.05-27.26,82.91-35.35,121.12-11.86,2.75,1.69,5.26-2.63,2.52-4.32-40.25-24.74-91.4-16-127.18,12.65l4.27,1.77c3.9-36.23-16.77-68.77-48.79-84.85-16.99-8.53-35.86-12.07-54.81-11.18-11.19,.53-23.18,1.91-33.78,5.67-8.5,3.01-17.92,9.12-27.25,8.53-9.84-.62-15.96-13.07-22.27-19.28-7.57-7.45-17.68-12.99-27.12-17.67C122.52,4.82,111.09,.87,99.21,.11c-19.64-1.26-37.1,7.93-49.57,22.73-14.6,17.33-23,39.4-29.16,60.94-7.1,24.86-11.23,50.53-14.13,76.19C-.94,224.56-.81,290.15,1.13,355c1.6,53.48,4.96,106.87,7.09,160.33s1.99,103.1,9.1,153.96c5.2,37.16,17.86,76.18,50.72,97.83,37.31,24.58,86.2,19.74,128.61,18.64,108.21-2.81,216.41-5.61,324.62-8.42,108.21-2.81,216.41-5.61,324.62-8.42,54.42-1.41,108.84-2.8,163.26-4.23,45.2-1.19,93.89-2.91,133.16-28.11,32.61-20.92,55.66-56.55,48.92-96.36-7.35-43.44-42.82-74.82-80.43-93.59-20.12-10.04-41.39-17.49-62.58-24.86l-.66,4.91c26.75-1.29,35.71-34.12,27.84-55.73-11.64-31.96-52.84-38.99-82.02-43.33l1.1,4.18c31.33-39.48,37.13-95.54,17.33-141.54-20.2-46.94-66.92-75.62-117.28-78.11-28.24-1.4-56.73,5.59-80.48,21.08l3.67,1.49c-10.66-26.72-29.92-52.71-57.97-62.62-25.97-9.18-54.5,1.25-68.78,24.89-7.42,12.28-9.01,26.72-2.79,39.81l4.32-2.52c-18.84-27.28-50.95-43.11-83.87-43.91-35.92-.87-70.32,15.89-95.45,40.85l4.18,2.43c11.99-44.76-7.92-94.86-47.32-119.22-2.74-1.7-5.26,2.63-2.52,4.32Z"/></g><path class="d" d="M252.12,635.24c-2.06-.92-2.27-3.61-1.94-5.81,.43-2.83,1.67-5.65,3.54-7.82s4.27-3.8,7.11-4.31c2.62-.47,5.38,.43,7.48,2,2.34,1.75,3.74,4.34,3.53,7.22l4.27-1.77c-.79-.99-.51-2.8,.38-4.03,.93-1.3,2.67-1.69,4.36-1.16,1.89,.59,3.28,2.16,3.72,4.07,.56,2.43-.31,4.86-1.75,6.81l4.57,1.93c.6-1.56,2.21-2.78,3.92-3.29,2.08-.62,4.07-.54,6.22,.22,1.97,.69,3.57,2.11,4.53,4.2,1.12,2.43,1.1,5.25,.43,7.8-.84,3.16-2.63,5.91-5.11,8.03-1.02,.88-.9,2.63,0,3.54,1.02,1.02,2.51,.88,3.54,0,5.64-4.85,8.85-13.53,5.99-20.68-2.61-6.5-9.68-9.72-16.41-8.06-3.69,.91-6.56,3.39-7.93,6.93-.44,1.15,.39,2.53,1.45,2.95,1.23,.5,2.36,.01,3.12-1.02,2.33-3.17,3.31-7.61,2.04-11.4-1.19-3.56-4.25-6.38-7.98-7.07s-7.36,.79-9.27,4.08-1.61,6.88,.64,9.71c1.47,1.85,4.13,.15,4.27-1.77,.58-8.08-7.56-14.82-15.33-14.31-8.24,.55-14.74,7.86-16.13,15.71-.73,4.14-.16,9.67,4.21,11.63,1.23,.55,2.69,.36,3.42-.9,.63-1.07,.34-2.86-.9-3.42h0Z"/><path class="d" d="M776.92,633.05c-4.65-2.87-10.78-6.54-11.16-12.67-.14-2.31,.59-4.42,2.59-5.54,1.65-.92,3.55-.95,4.77,.26s3.81,.79,4.18-1.1c.85-4.41,3.87-9.57,8.81-10.07,2.07-.21,4.11,.89,5.46,2.48,1.24,1.47,1.82,3.32,1,4.94l4.57,.6c-.56-2.4,.96-4.91,3.09-6.13s4.54-.71,6.27,.98,2.57,4.3,1.78,6.65c-1.04,3.08-4.02,5.27-6.46,7.21-1.06,.84-.88,2.66,0,3.54,1.04,1.04,2.48,.84,3.54,0,2.73-2.17,5.57-4.55,7.08-7.78s1.49-6.76-.1-10.01c-1.39-2.83-4.07-5.16-7.13-5.96-3.42-.89-6.89,.21-9.49,2.51-2.89,2.56-4.27,6.54-3.4,10.31,.47,2.04,3.6,2.5,4.57,.6,3.46-6.79-2.69-14.6-9.8-14.95-7.59-.38-13.31,6.94-14.62,13.75l4.18-1.1c-2.47-2.46-6.21-2.96-9.4-1.7-3.74,1.47-6,4.66-6.45,8.63-1,8.95,6.9,14.73,13.59,18.87,2.74,1.7,5.26-2.63,2.52-4.32h0Z"/><path class="d" d="M487.27,548.7c.59-.13,.54,.33,.2-.38-.21-.44-.32-1.03-.33-1.47-.06-1.49,.23-2.97,.67-4.39,.83-2.64,2.51-5.19,5.05-6.46,2.3-1.15,4.68-.75,6.61,.96,.94,.82,1.67,1.83,1.98,2.91s.26,1.84-.33,2.84c-1.44,2.45,1.9,5.03,3.93,3.03,1.92-1.9,2.59-4.45,4.19-6.54,1.16-1.52,2.67-1.63,4.28-.9,5.41,2.45,3.88,9.65,2.89,14.23l4.91,.66c-.02-.18-.02-.37,0-.55-.04,.18-.04,.18,0,0,.02-.12,.3-.8,.14-.5,.23-.46,.27-.51,.74-.92-.2,.17,.38-.26,.48-.32s.74-.36,.53-.28c.26-.1,.53-.18,.8-.24,0,0,.76-.12,.44-.09,1-.09,1.77,.03,2.44,.51,.98,.7,1.55,1.81,1.84,2.94,1.64,6.4-4.86,10.84-9.63,13.57-2.79,1.6-.28,5.92,2.52,4.32,6.03-3.45,12.23-8.35,12.32-15.94,.04-3.18-1.15-6.47-3.65-8.52-2.33-1.92-5.58-2.39-8.42-1.36-3.14,1.14-5.72,3.85-5.54,7.37,.13,2.69,4.29,3.55,4.91,.66,.87-4.03,1.68-8.24,.7-12.32-.77-3.21-2.89-6.09-5.89-7.55-2.87-1.41-6.31-1.58-8.96,.41-1.37,1.03-2.33,2.42-3.14,3.92-.72,1.35-1.32,2.8-2.42,3.89l3.93,3.03c3.92-6.68-2.62-14.45-9.51-14.89-3.54-.23-7.13,1.76-9.39,4.38-2.46,2.85-3.86,6.38-4.28,10.1-.44,3.95,1.24,9.78,6.35,8.7,3.15-.66,1.81-5.48-1.33-4.82h0Z"/><path class="d" d="M137.03,220.3c.89-7.15-.21-15.19,3.53-21.66,2.56-4.44,8.18-8.21,12.44-4.03,.93,.91,1.55,1.96,1.86,3.14,.08,.33,.08,.18,.09,.61,0,.13-.03,.83,0,.6-.11,.76-.33,1.12-.81,1.78-.73,.99-.27,2.55,.64,3.23,1.08,.8,2.27,.6,3.28-.2,.47-.37,1.56-.5,2.16-.4,1.05,.17,1.85,.58,2.5,1.34,.12,.14,.43,.69,.48,.86,.2,.67,.17,1.38,.14,2.08-.07,1.75-.33,3.52,.16,5.23,.52,1.83,1.78,3.19,3.38,4.17,1.23,.76,2.4,1.26,3.34,2.25,1.49,1.56,2.27,3.87,2.33,5.96,.08,2.61-.75,4.99-2.73,6.78-2.4,2.16,1.15,5.68,3.54,3.54,4.98-4.48,5.5-12.76,1.72-18.16-.99-1.42-2.21-2.62-3.68-3.54-1.28-.81-3.02-1.21-3.19-2.92-.21-2.04,.32-4.04-.05-6.1-.31-1.7-1.3-3.27-2.63-4.35-3.24-2.65-7.7-2.85-11-.26l3.93,3.03c4.77-6.54-2.33-15.23-9.33-15.53-8.49-.36-14.16,8.42-15.59,15.77-1.08,5.54-.81,11.22-1.51,16.8-.17,1.34,1.27,2.5,2.5,2.5,1.49,0,2.33-1.15,2.5-2.5h0Z"/><path class="d" d="M860.07,331.02c-7.21-2.11-15.57-3.38-22.21,1.04-5.56,3.7-8.42,10.61-4.95,16.75,1.78,3.15,4.96,5.32,8.62,5.37v-5c-5.43,.67-9.73,4.32-11.63,9.42s-.39,10.45,3.49,13.91,9.27,4.91,14.03,3.08c3.6-1.39,2.06-6.19-.99-7.16s-5.64,1.79-6.42,4.59c-1.47,5.23,.54,12.61,6.49,13.88,3.14,.67,4.48-4.14,1.33-4.82-1.01-.22-1.59-.59-2.14-1.39-.6-.87-.95-2-1.08-3.02-.16-1.21-.09-2.37,.27-3.49,.03-.1,.43-1,.45-.97-.07-.12-.41,0-.58-.11-.28-.19-.31-.95-.14-1.18l1.49-1.15c-4.41,1.63-10.25-.74-11.68-5.55s2.21-10.42,7.13-11.03c1.34-.17,2.5-1.03,2.5-2.5,0-1.37-1.14-2.48-2.5-2.5-2.27-.03-4.18-1.94-4.88-4.24-.77-2.54,.06-5.08,1.93-7.03,5.29-5.54,13.61-3.99,20.16-2.08,3.09,.91,4.42-3.92,1.33-4.82h0Z"/><path class="d" d="M208.17,435.04c-1.69-7.84-3.77-17.8,2.57-24.21,2.22-2.25,5.13-3.33,8.08-2.56,2.58,.67,5.02,2.63,5.22,5.18h5c-.33-3.45,3.4-7,6.67-5.68,1.45,.58,2.44,1.93,2.87,3.32,.52,1.66,.42,3.07-.56,4.53l4.66,1.26c.1-2.48,2.4-4.42,4.93-5.02,2.7-.63,5.49,.8,7.09,3.27,4.1,6.36,.04,13.8-5.41,17.8-1.09,.8-1.63,2.17-.9,3.42,.63,1.07,2.33,1.7,3.42,.9,6.31-4.63,11.18-12.19,9.09-20.28-.92-3.55-3.16-6.88-6.37-8.74s-6.98-1.92-10.35-.45c-3.69,1.61-6.34,5.03-6.51,9.1-.11,2.63,3.36,3.2,4.66,1.26,3.48-5.19,.74-12.85-4.97-15.06-6.44-2.49-13.97,3.63-13.33,10.37,.13,1.34,1.06,2.5,2.5,2.5,1.27,0,2.61-1.15,2.5-2.5-.56-7.21-8.15-11.59-14.91-10.14-7.71,1.65-11.89,9.82-12.58,17.03-.51,5.38,.67,10.81,1.8,16.04,.68,3.14,5.5,1.81,4.82-1.33h0Z"/></g></g></g></svg>