<?xml version="1.0" encoding="UTF-8"?><svg xmlns="http://www.w3.org/2000/svg" viewBox="0 0 803.12 809.72"><defs><style>.d{fill:#fff;}.e{fill:#f9cbcd;}</style></defs><g id="a"/><g id="b"><g id="c"><g><g><path class="e" d="M15.12,660.45h0c-9.76-16.68-12.51-36.58-12.57-55.9-.09-26,4.6-52.64,18.07-74.87,13.48-22.24,36.72-39.48,62.65-41.37-23.03-31.72-43.65-68.03-42.89-107.22,.78-40.14,24.99-77.66,58.17-100.26s74.27-31.48,114.41-31.23c-11.83-43.98-19.61-92.71,.49-133.58,19.36-39.38,61.37-63.32,104.06-73.51,32.22-7.69,72.22-5.94,90.73,21.54C428.15,24.66,472.65-2.49,516.44,3c43.79,5.48,81.64,46.76,78.61,90.78,34.64-1.94,71.12,6.53,96.99,29.65,25.88,23.11,38.41,62.52,24.36,94.24-2.73,6.15-6.45,12.56-5.12,19.16,1.05,5.21,5.06,9.25,8.89,12.94,36.23,34.9,76.14,73.55,80.12,123.7,4.49,56.58-38.06,104.49-75.41,147.22-3.19,3.65-6.48,7.56-7.34,12.33-1.41,7.82,4,15.01,8.49,21.57,30.64,44.75,26.05,110.38-10.51,150.43-4.72,5.17-9.93,9.99-13.5,16.01-3.23,5.45-4.97,11.64-7.83,17.29-5.56,11-15.17,19.52-25.68,25.97-29.58,18.16-65.73,21.14-100.37,23.27-44.15,2.71-95.74,1.59-122.7-33.49-51.71,28.18-107.55,53.55-166.44,53.16-59.19-.39-101.89-29.59-135.07-75.83-15.33-21.37-30.96-21.59-55.84-26.17-28.61-5.27-57.73-18.74-72.96-44.77Z"/><path class="d" d="M17.28,659.19c-14.05-24.03-14.4-55.72-10.3-82.54,4.1-26.78,15.46-52.81,37.15-69.91,11.25-8.87,24.82-14.76,39.14-15.94,1.69-.14,3.37-2.09,2.16-3.76-27.05-37.38-51.47-82.55-39.2-130.03,11.25-43.56,46.84-76.33,88.06-91.81,25.1-9.43,51.95-13.2,78.69-13.1,1.63,0,2.83-1.6,2.41-3.16-13.01-48.59-21.56-105.18,10.51-148.48,13.62-18.39,32.74-32.16,53.26-41.92,19.97-9.5,42.22-16.19,64.39-17.31,23-1.16,48.68,3.95,62.55,24.09,1,1.44,3.4,1.79,4.32,0,15.63-30.51,45.58-53.64,79.61-59.29,33.39-5.54,67,8.95,86.81,36.27,10.85,14.96,16.86,32.95,15.73,51.49-.08,1.3,1.21,2.57,2.5,2.5,35.77-1.87,74.87,7.06,100.33,33.86,11.7,12.31,19.84,28.03,23.01,44.73,1.54,8.13,1.84,16.59,.62,24.79-1.26,8.47-4.57,15.77-7.86,23.58-3.43,8.15-3.58,15.76,2.14,22.88,5.47,6.81,12.57,12.56,18.79,18.69,12.92,12.72,25.61,25.84,36.57,40.32,21.37,28.23,34.56,61.77,27.37,97.47-7.21,35.82-30.31,66.32-53.34,93.66-5.88,6.98-11.88,13.85-17.89,20.72-5.49,6.28-11.26,12.85-9.69,21.81,1.49,8.48,7.87,15.22,12.18,22.37,4.13,6.86,7.51,14.16,10.07,21.75,10.46,30.91,8.12,66.15-6.54,95.33-3.68,7.32-8.1,14.3-13.3,20.64-5.77,7.03-12.98,12.99-17.66,20.87-4.67,7.86-6.68,16.86-12.15,24.32-5.55,7.58-13.07,13.56-21.05,18.4-32.48,19.67-73.01,21.66-109.99,23.16-31.09,1.26-66.1,.41-92.82-17.66-6.38-4.31-11.92-9.63-16.65-15.69-.69-.88-2.14-.87-3.03-.39-60.87,33.12-133.85,66.36-204.55,47.77-28.04-7.37-52.62-23.39-72.59-44.19-5.12-5.33-9.94-10.93-14.51-16.74s-8.81-12.57-14.32-17.91c-8.86-8.6-19.99-12.58-31.9-14.9-16.84-3.29-33.52-5.62-49.3-12.79-16.23-7.37-30.53-18.5-39.73-33.95-1.65-2.76-5.97-.25-4.32,2.52,16.56,27.78,47.32,41.15,78,46.56,12.83,2.26,26.58,3.65,37.65,11.13,6.31,4.26,10.81,10.14,15.28,16.19,4.57,6.19,9.39,12.2,14.51,17.93,19.28,21.57,43.11,39.01,70.7,48.24,31.88,10.66,66.5,9.65,99.05,2.7,41.96-8.95,81.08-27.85,118.54-48.23l-3.03-.39c20.45,26.19,54.46,33.65,86.05,34.92,17.39,.7,34.81-.33,52.15-1.62,19.38-1.45,38.91-3.66,57.57-9.33,17.64-5.35,35.61-13.95,48.18-27.78,6.41-7.05,9.83-15.05,13.54-23.68,4.18-9.71,11.67-16.29,18.41-24.16,21.19-24.75,31.11-58.13,28.92-90.47-1.09-16.11-5.12-31.98-12.22-46.5-3.97-8.13-9.79-15.05-13.94-23.02-2.49-4.77-3.5-9.85-.86-14.81,2.43-4.56,6.45-8.39,9.83-12.26,24.1-27.6,49.04-56.27,62.77-90.72,6.52-16.37,9.99-34.02,8.81-51.67-1.17-17.52-6.81-34.34-15.22-49.68s-20.13-30.16-32.32-43.48c-6.08-6.65-12.4-13.07-18.81-19.4-3.33-3.29-6.69-6.55-10.05-9.8s-7.21-6.44-10.01-10.27c-6.71-9.19,.56-18.62,3.88-27.6,2.84-7.66,4.25-15.86,4.37-24.03,.26-16.57-4.72-33.13-13.21-47.29-18.81-31.35-54.06-47.47-89.37-51.26-9-.97-18.06-1.14-27.1-.66l2.5,2.5c2.13-35.01-20.19-67.88-50.68-83.71-32.18-16.71-70.57-11.62-100.34,7.91-17.05,11.18-31.15,26.65-40.45,44.81h4.32c-26.77-38.87-85.4-28.44-122.55-13.49-22.17,8.92-43.13,21.88-59.13,39.83-17.12,19.2-26.71,43.08-29.32,68.56-3.19,31.15,3.13,62.61,11.15,92.58l2.41-3.16c-47.77-.18-97.9,12.35-133.47,45.84-15.81,14.89-28.36,33.43-35.46,54-7.59,22-7.84,45.51-1.85,67.93,7.31,27.36,22.46,51.95,38.92,74.69l2.16-3.76c-26.78,2.2-50.15,19.14-64.17,41.57C3.15,552.9-1.34,584.64,.33,614.24c.92,16.44,4.24,33.11,12.64,47.47,1.62,2.78,5.95,.26,4.32-2.52Z"/></g><path class="d" d="M637.48,254.35c-.69,5.41-1.58,12.06-6.77,15.08-1.92,1.12-4.26,1.44-6.13,.1-1.65-1.18-2.43-2.97-1.78-4.75,.7-1.88-1.37-3.49-3.08-3.08-4.42,1.07-10.89,.04-12.83-4.44-.79-1.82-.51-3.97,.37-5.63,.26-.48,.49-.86,.72-1.13,.18-.21,.37-.41,.57-.6-.01,.01,.62-.5,.34-.3,.95-.68,1.54-.8,2.62-.75l-1.26-4.66c-3.6,2.78-9.84,.26-9.26-4.72,.26-2.21,1.85-4.51,3.96-5.39,3.48-1.45,7.53,.76,10.57,2.31,2.86,1.46,5.39-2.85,2.52-4.32-3.73-1.9-7.78-3.83-12.08-3.33-3.43,.4-6.33,2.38-8.18,5.27-1.69,2.65-2.37,6.2-1.34,9.22s3.48,5.3,6.49,6.45c3.17,1.21,7.11,.93,9.84-1.18,1.91-1.47,1.4-4.53-1.26-4.66-7.17-.34-11.68,8.2-9.54,14.47,2.62,7.66,11.96,9.92,19.08,8.2l-3.08-3.08c-1.28,3.45,.28,7.36,3.03,9.61,2.93,2.4,6.78,2.98,10.31,1.59s6.41-4.23,8.08-7.65c1.95-3.97,2.52-8.31,3.08-12.65,.17-1.34-1.27-2.5-2.5-2.5-1.49,0-2.33,1.15-2.5,2.5h0Z"/><path class="d" d="M328.21,303.81c1.05,7.32,3.31,14.86,9.7,19.25,2.83,1.95,6.38,3.01,9.81,2.56s6.08-2.23,8-4.92c2.16-3.02,2.57-6.73,1.09-10.12l-4.32,2.52c2.61,4.27,7.59,6.73,12.57,6.51s9.57-3.21,11.55-8.01c1.93-4.68,1.25-10.28-1.93-14.23-.97-1.2-2.15-2.05-3.78-1.64-1.4,.35-2.51,1.54-2.88,2.93-.88,3.3,1.81,5.73,4.95,5.85,6.24,.24,13.02-5.53,11.62-12.05-.68-3.14-5.5-1.81-4.82,1.33,.45,2.07-1.51,3.8-3.17,4.73-.97,.54-2.14,.99-3.26,1-.13,0-.47-.08-.59-.05-.39,.1-.04-.24,0,.15,.01,.13,.1,.22,.1,.37,.02,.56-2.03,.48-1.45,.6l-1.1-.64c3.42,3.45,3.25,9.95-.65,13.03-3.85,3.04-10.27,1.78-12.82-2.4-.7-1.15-2.24-1.59-3.42-.9-1.28,.75-1.44,2.18-.9,3.42,.89,2.04-.37,4.64-2.12,6.13-2.12,1.81-5.04,1.83-7.54,.83-6.96-2.77-8.84-10.96-9.79-17.59-.19-1.34-1.89-2.07-3.08-1.75-1.44,.39-1.94,1.73-1.75,3.08h0Z"/><path class="d" d="M218.94,534.67c.59-.13,.54,.33,.2-.38-.21-.44-.32-1.03-.33-1.47-.06-1.49,.23-2.97,.67-4.39,.83-2.64,2.51-5.19,5.05-6.46,2.3-1.15,4.68-.75,6.61,.96,.94,.82,1.67,1.83,1.98,2.91s.26,1.84-.33,2.84c-1.44,2.45,1.9,5.03,3.93,3.03,1.92-1.9,2.59-4.45,4.19-6.54,1.16-1.52,2.67-1.63,4.28-.9,5.41,2.45,3.88,9.65,2.89,14.23l4.91,.66c-.02-.18-.02-.37,0-.55-.04,.18-.04,.18,0,0,.02-.12,.3-.8,.14-.5,.23-.46,.27-.51,.74-.92-.2,.17,.38-.26,.48-.32s.74-.36,.53-.28c.26-.1,.53-.18,.8-.24,0,0,.76-.12,.44-.09,1-.09,1.77,.03,2.44,.51,.98,.7,1.55,1.81,1.84,2.94,1.64,6.4-4.86,10.84-9.63,13.57-2.79,1.6-.28,5.92,2.52,4.32,6.03-3.45,12.23-8.35,12.32-15.94,.04-3.18-1.15-6.47-3.65-8.52-2.33-1.92-5.58-2.39-8.42-1.36-3.14,1.14-5.72,3.85-5.54,7.37,.13,2.69,4.29,3.55,4.91,.66,.87-4.03,1.68-8.24,.7-12.32-.77-3.21-2.89-6.09-5.89-7.55-2.87-1.41-6.31-1.58-8.96,.41-1.37,1.03-2.33,2.42-3.14,3.92-.72,1.35-1.32,2.8-2.42,3.89l3.93,3.03c3.92-6.68-2.62-14.45-9.51-14.89-3.54-.23-7.13,1.76-9.39,4.38-2.46,2.85-3.86,6.38-4.28,10.1-.44,3.95,1.24,9.78,6.35,8.7,3.15-.66,1.81-5.48-1.33-4.82h0Z"/><path class="d" d="M499.52,664.95c-.13,.43-.06,.37,.2-.18,.2-.12,.18-.1-.09,.05,.19-.1,.14-.1-.16,0,.2-.03,.13-.03-.19,0-.51,0-1.04-.12-1.36-.25-1.49-.59-2.88-1.67-4-2.79-2.17-2.15-3.88-5.26-3.34-8.41,.4-2.28,2.16-3.87,4.29-4.54,.75-.23,1.03-.3,1.58-.33,.26-.01,.53-.02,.79,0,.17,0,.35,.02,.52,.04-.24-.03-.21-.02,.09,.03,1.1,.26,1.71,.65,2.21,1.39,1.49,2.24,5.53,.9,4.57-1.93-.89-2.62-2.89-4.38-4.1-6.8-.86-1.71-.25-3.28,1.32-4.43,4.57-3.33,10.05,.88,13.68,3.72l3.03-3.93c-.66-.28-.88-.38-1.15-.77,.23,.34-.15-.26-.17-.31-.33-.63,.07,.36-.14-.33-.29-.95-.28-1.58,0-2.58,.22-.77,.72-1.57,1.25-1.93,.91-.62,2.06-.81,3.14-.7,6.86,.73,8.24,9.03,8.61,14.51,.09,1.35,1.08,2.5,2.5,2.5,1.28,0,2.59-1.15,2.5-2.5-.47-6.99-2.13-15.12-9.21-18.34-3.1-1.41-6.81-1.73-9.84,.07-2.5,1.48-3.86,4.22-4.11,7.04-.28,3.03,1.16,6.41,4.08,7.65,1.15,.49,2.42,.44,3.23-.64,.67-.9,.8-2.51-.2-3.28-5.53-4.33-13.04-9.22-19.86-4.41-2.81,1.98-4.62,5.16-3.93,8.66,.31,1.57,1.13,2.98,2.06,4.27,.88,1.21,1.98,2.41,2.47,3.85l4.57-1.93c-3.83-5.77-12.48-4.69-16.52,.31-5.44,6.73-.67,15.92,5.63,20.06,1.73,1.14,3.7,2.02,5.81,2.01,2.29-.01,4.48-1.18,5.06-3.53,.77-3.12-4.05-4.46-4.82-1.33h0Z"/><path class="d" d="M465.45,476.3c-.13,.43-.06,.37,.2-.18,.2-.12,.18-.1-.09,.05,.19-.1,.14-.1-.16,0,.2-.03,.13-.03-.19,0-.51,0-1.04-.12-1.36-.25-1.49-.59-2.88-1.67-4-2.79-2.17-2.15-3.88-5.26-3.34-8.41,.4-2.28,2.16-3.87,4.29-4.54,.75-.23,1.03-.3,1.58-.33,.26-.01,.53-.02,.79,0,.17,0,.35,.02,.52,.04-.24-.03-.21-.02,.09,.03,1.1,.26,1.71,.65,2.21,1.39,1.49,2.24,5.53,.9,4.57-1.93-.89-2.62-2.89-4.38-4.1-6.8-.86-1.71-.25-3.28,1.32-4.43,4.57-3.33,10.05,.88,13.68,3.72l3.03-3.93c-.66-.28-.88-.38-1.15-.77,.23,.34-.15-.26-.17-.31-.33-.63,.07,.36-.14-.33-.29-.95-.28-1.58,0-2.58,.22-.77,.72-1.57,1.25-1.93,.91-.62,2.06-.81,3.14-.7,6.86,.73,8.24,9.03,8.61,14.51,.09,1.35,1.08,2.5,2.5,2.5,1.28,0,2.59-1.15,2.5-2.5-.47-6.99-2.13-15.12-9.21-18.34-3.1-1.41-6.81-1.73-9.84,.07-2.5,1.48-3.86,4.22-4.11,7.04-.28,3.03,1.16,6.41,4.08,7.65,1.15,.49,2.42,.44,3.23-.64,.67-.9,.8-2.51-.2-3.28-5.53-4.33-13.04-9.22-19.86-4.41-2.81,1.98-4.62,5.16-3.93,8.66,.31,1.57,1.13,2.98,2.06,4.27,.88,1.21,1.98,2.41,2.47,3.85l4.57-1.93c-3.83-5.77-12.48-4.69-16.52,.31-5.44,6.73-.67,15.92,5.63,20.06,1.73,1.14,3.7,2.02,5.81,2.01,2.29-.01,4.48-1.18,5.06-3.53,.77-3.12-4.05-4.46-4.82-1.33h0Z"/></g></g></g></svg>