<?xml version="1.0" encoding="UTF-8"?><svg xmlns="http://www.w3.org/2000/svg" viewBox="0 0 58.69 61.49"><defs><style>.d{fill:#abd490;}.e{fill:#9fce80;}.f{fill:#f4b7d6;}.g{fill:#f7eef8;}.h{fill:#f2add0;}</style></defs><g id="a"/><g id="b"><g id="c"><g><g><path class="h" d="M22.4,30.38c3.88-7.8,10.32-13.73,17.18-16.69,4.18-1.81,8.81-2.54,12.36-.31,5.29,3.32,6.48,12.5,4.05,20.12-2.43,7.62-7.64,13.8-13.11,18.8-2.61,2.39-5.35,4.6-8.3,6.07-8.6,4.28-17.54,1.65-25.58-1.45-2.19-.84-4.45-1.78-5.9-3.87-1.73-2.49-2.02-6.2-1.77-9.75,.37-5.43,1.83-10.94,4.22-15.92,2.69-5.6,6.62-10.56,11.28-13.56s10.07-3.91,14.5-1.97c1.84,.8,3.63,2.3,3.96,4.72"/><g><path class="f" d="M34.63,16.66c.1,.09,.29,0,.2-.25l-.36-.11,.15,.36Z"/><path class="f" d="M34.67,14.81c-.29-.22-.73-.34-.87-.01,.43,.07,.34,.2,.82,.32,.15,.23,.08,.47-.05,.47,.12,.06,.06,.39,.29,.48,.18-.39,.01-.86-.39-1.17,.02-.12,.14-.08,.2-.09Z"/><path class="f" d="M10.86,18.42l.15-.11s-.1,.06-.15,.11Z"/><path class="f" d="M2.55,33.27c.03-.13,.01-.19-.01-.2-.01,.12-.02,.22,.01,.2Z"/><path class="f" d="M1.42,36.01l.06-.16c-.05,.06-.08,.12-.06,.16Z"/><path class="f" d="M10.86,18.42l-.38,.28c.06,.1,.21-.13,.38-.28Z"/><path class="f" d="M31.64,12.95c.08,.03,.16,.04,.24,.03l-.2-.07-.04,.04Z"/><path class="f" d="M16.4,13.22l.12-.08c.02-.05,.02-.11,.03-.18l-.15,.25Z"/><path class="f" d="M21.77,10.71c-.13,.03-.1,.31-.11,.44,.04-.13,.12-.21,.22-.27-.01-.05-.05-.11-.11-.17Z"/><path class="f" d="M30.99,11.4l.17,.02-.17-.02Z"/><path class="f" d="M13.03,15.74s-.08-.04-.11-.04c.02,.03,.06,.04,.11,.04Z"/><path class="f" d="M26.93,25.53s-.03-.02-.04-.03c0,.04,.01,.06,.04,.03Z"/><path class="f" d="M22.33,30.35l.03-.09s-.09-.06-.13-.09l.1,.18Z"/><path class="f" d="M.13,41.29v-.02c0-.15-.01-.06,0,.02Z"/><path class="f" d="M37.77,57.85c-.61,.1,.59-.78-.27-.54,.13,.05-.41,.79,.27,.54Z"/><path class="f" d="M31.54,12.85l-.19-.09c.08,.05,.14,.08,.19,.09Z"/><path class="f" d="M37.5,57.31h0l-.09,.02,.09-.02Z"/><path class="f" d="M2.27,53.94c.02-.05,.02-.12,.01-.19-.02,.02-.03,.07-.01,.19Z"/><path class="f" d="M.46,44.52l-.04,.23c.03-.09,.04-.16,.04-.23Z"/><path class="f" d="M6.6,56.78c.11,.07,.13,.13,.3,.16,0-.02-.02-.04-.03-.05-.07,0-.16,0-.27-.11Z"/><path class="f" d="M11.23,58.59s-.04-.06-.07-.08l-.15-.04,.22,.12Z"/><path class="f" d="M37.54,16c-.13-.02-.23-.06-.31-.11,.16,.14-.4,.55,.31,.11Z"/><path class="f" d="M31.72,12.81c-.06,.05-.11,.06-.17,.04l.14,.06s.05-.06,.04-.1Z"/><path class="f" d="M7.71,54.85l.65,.33c-.18-.11-.42-.22-.65-.33Z"/><path class="f" d="M55.48,30.86v-.17c-.02,.06-.02,.12,0,.17Z"/><path class="f" d="M10.48,55.96c.09,.14,.21,.25,.34,.34,.04,0,.08-.01,.11-.04l-.45-.3Z"/><path class="f" d="M37.22,15.89h0Z"/><path class="f" d="M33.5,19.19c.57-.43,.04-.49,.03-.75,.62-.61,.48-.03,.82-.04,.37-.38,.51-.9,.85-1.11,.06,.03,.14,.01,.1,.12,.31-.56,1.4-.91,1.79-1.55,.06,0,.1,.02,.12,.04-.18-.11-.29-.26-.34-.39,.28-.17,.42-.5,.65-.35-.18,.09-.15,.18-.2,.29l.25-.25c.44,.17-.36,.32-.23,.55,.53-.4,1.08-1.04,1.6-1.15,.23,.25-1.02,.62-.28,.59l-.75,.24c.78,.2-.44,.18,.31,.44,.94-.39,.94-.66,1.9-.99,.14-.26-.18-.23-.04-.49,1.23-.86,1.35,.38,2.19-.38,.19-.29,.17-.75,.97-.72l-.15,.43c.94-.19,.41-.68,1.47-.62-.15,.18-.72,.27-.57,.29,.7,.17,.41-.31,.92-.38l.15,.32c.98-.19,2.09-.48,3.21-.39-.08,.09-.27,.18-.04,.31,1.38,.02,2.8,.83,3.59,1.78,.19,0,.37,.05,.55,.09,.08,.08,.06,.24-.07,.2,.28,.42,.15-.12,.4-.03,.23,.19,.15,.38-.04,.32,.22,.09,.41,.29,.65,.48,.24,.19,.47,.43,.67,.7,.44,.51,.71,1.16,.79,1.66-.05-.05-.11-.09-.16-.14,.18,.74,.9,.58,.88,1.37l-.09-.12c.42,1.64,.98,3.52,.59,4.87,.46,.23-.15,1.7,.44,1.82-.36,.98-.39,.7-.73,2.05-.07,.36,.32,.59,.3,1.06l-.31-.03,.22,.67-.42,.26c0,.15,0,.29-.01,.43,.05-.16,.22-.33,.3-.29-.01,.69-.56,1.56-.73,1.53-.07,.52-.1,1.06-.2,1.59-.11-.07-.05-.34-.07-.56,.04,.9-.35,.04-.33,.87,.1-.08,.16,.11,.21,.15-.29,.31-.62,1.13-.79,1.77l-.15-.2c-.51,1.06-.92,2.32-1.59,3.47,.32-.37,.59-.1,.43,.27l-.36-.02c.05,.32,.31-.3,.27,.28-.28,.42-.48,.11-.44-.19-.06,.2-.13,.39-.21,.58-.1-.02-.07-.17-.16-.26,.04,.32-.81,.72-.71,1.21l-.1-.02c-.73,1.11-.99,1.67-1.63,2.56,.21,.19-.1,.49-.11,.89-.57,.58-1.31,1.14-1.93,1.89-.34,.61,.05,.31-.03,.65-.23-.13-.86,.61-.66,.11-.75,.9-.97,1.14-1.87,2.34,.19-.04,.35-.14,.34,0-.16,.22-.51,.36-.57,.25l.03-.07c-.92,1.47-3.3,2.12-3.95,3.37l.04-.07-.87,1.1c-.52,.36,.17-.39-.29-.22-.88,1.26-1.87,1.37-2.7,2.27-.6-.06-1.27,.38-1.99,.83-.71,.46-1.51,.86-2.15,.89l.13,.14c-.22,.3-.4,.04-.62,.08,.08,.12,.38,.04,.23,.19-2.47,1.16-5.45,1.18-8.15,.89-.99-.08-.63,.92-1.88,.37l.39-.3c-2.1,.22-4.17-.62-6.23-.83,.14-.04,.17-.14,.36-.08-.36-.34-1.54-.44-1.61-.26-.3-.12-.02-.19-.18-.35-.37-.26-1.14-.03-1.29-.34-.03-.05,.14-.03,.22-.03-.31,.02-1.25-.45-1.08-.1-.69-.37-1.45-.38-1.98-.75-.49,.15-1.2-.61-1.48-.25,.21-.4-1.13-.83-1.64-.83,.2-.06-.31-.3-.07-.39-.48-.21-.93-.37-.96-.12-.29-.47-.73-.62-1.12-.79-.39-.17-.71-.37-.64-.79-1.17-.8-1.93-2.06-2.37-3.42,.42-.05,.5,1.47,.94,1.23-.62-1.09-1.17-1.82-1.23-3.19,.03-.36,.21,.18,.31,.28-.36-1.33-.14-2.64-.33-3.89,.04,0,.08,.14,.11,.27,0-.25,.09-.57-.11-.55l.04,.24c-.32,.39-.57-1.02-.71-1.08,.55,.47,.25-1.24,.93-.5-.03-.17-.1-.38-.24-.35,.07-.24,.15-.31,.28-.05-.02-.89-.27-.61-.16-1.41,.1,.02,.12,.18,.22,.28-.14-.43-.28-.87-.09-1.53,.05,.05,.14-.02,.11,.19,.16-1.15-.16-2.07,.32-3.3,.33,.47,.24-.39,.62-.37l.06-.7-.25,.22c.16-.58,.04-1.18,.32-1.64l.02,.48,.27-1.11-.33,.57c0-.65-.48-.08-.13-.82-.01,.17,.19-.59,.51-.81h0c0-.32-.03-.66,.22-1.05,.15-.07,.35,.23,.45,.19-.19-.39,.43-1.36,.27-1.83,.02,.15,.2,.23,.26,.21l-.14-.33c.19-.23,.24-.25,.37-.15,.38-.76-.54,.06,.05-.79-.01,.08,.03,.06,0,.23,.52-.88,.68-1.85,1.24-2.61,.46-.06-.3,.76,.13,.63,.54-1.21,.95-2.64,1.74-3.68l-.17,.18c-.35-.45,.75-.66,.92-1.34-.06,.15,.12,.34,.1,.27,.58-.67,.95-1.54,1.7-2.67v.22c.42-.32,.95-.99,1.38-1.35,.02-.21,.26-.43-.02-.43,.88-.36,1.41-.98,1.94-1.59,.53-.61,1.07-1.21,1.89-1.39-.15,.11-.28,.35-.16,.27,.32-.29,.66-.56,1-.84-.21-.14-.22-.02-.55-.02,.06-.21,.32-.51,.6-.67-.43,.44,.2,.31,.48,.29-.07-.04-.04-.15-.09-.2,.79,0-.13-.46,.83-.68v.13c.29-.23,.52-.5,.88-.64,.25,.17-.29,.28-.21,.48,.46-.25,.75-.9,1.3-.84-.18,.16-.48,.28-.66,.44,.61,.09,.62-.01,1-.1h-.04l.88-.15h-.24c.41-.88,1.23-.53,2.01-1.15-.77,.61-.09,.27-.1,.58,.24,.04,.58,.08,.51,.18,.37-.32,.69,.08,1.22-.33,.03,.09,.44-.02,.36,.23,.52-.1-.13-.16-.1-.29,.83-.4,1.91,.35,3.1,.09,1.03,0,1.31-.26,2.3-.09,.25,.27-.37,.23-.37,.24,.44,.32,.82,.42,1.3,.55-.13,.03-.07,.14,.01,.31,.34,.16,.41-.19,.77,.21-.14,.04-.32,.13-.53,.13,.42,.14,.88,.25,1.29,.5-.02,.21-.38,0-.57,0,.45,.23,1.04,.77,1.34,.75-.04-.11-.09-.22-.14-.32,.14,.14-.11,.22-.24,.15-.44-.18-.38-.51-.33-.61,.1,.06,.2,.12,.29,.19,.09-.33-.21-.56-.57-.73-.37-.17-.82-.26-1.11-.44l.46-.22c-.27-.03-.54-.04-.8-.04-.09-.16-.1-.42,.26-.32-.39-.41-.48-.05-.8-.43-.03-.05,0-.06,.04-.06-.18-.02-.35-.05-.52-.06,.12-.05,.02-.31,.29-.14-.81-.54-1.51-.12-1.78-.5h.08c-1.28-.1-.19,.26-1.16,.47-.17-.28-.36-.54-.56-.81l-.15,.29c-.13-.03-.39-.06-.33-.18-.5,.2,.08,.13-.21,.33-.63-.31-1.7,.17-1.89-.28-.2,.26,.61,.11-.03,.35-.25-.5-.75,.17-1.35,.05,.12-.3,.69-.25,.08-.39-.26,.5-1.13,.13-1.59,.36,.08,.35-.98,.44-1.7,.86,0-.14-1.5,.4-2.23,.67v-.06c.03,.39-.69,.71-1.13,1.08-.1-.2-.06-.32,.16-.57l-.46,.28c-.05,.16-.15,.31-.42,.54l-.04-.3c-.6,.42-1.01,1.08-1.83,1.52,.13,.23,1,.11,.38,.83-.12-.08-.29-.24-.14-.45-.05,.07-.16,.27-.32,.33l.15-.42c-.39,.18-.05,.28-.31,.48-.12-.15-.28,.06-.34-.09,.05-.07,.27-.13,.32-.27-.31,.22-.73,.43-.94,.42,.1,.06,.17,.19,0,.4-.51,.5-.34,0-.71,.21-.03,.21-.46,.44-.25,.66-.15,.15-.27,.08-.39,.08-.18,.35-1.15,1.3-.64,1.2l.08-.06-.03,.05h0c-.58,1.08-1.74,1.8-2.34,2.85l-.08-.06c-.32,.65-.85,1.34-.94,1.89-.12,.17-.42,.32-.47,.18-.22,.51-.17,.61-.7,1.21,.13-.56-.23,.09,.17-.55-.43,.57-.65,.63-.78,1.43-.1-.35-.53,.32-.63,.66l.4-.36c-.15,.35-.32,.64-.49,.93l-.22-.31c-1.03,1.14-.5,2.66-1.54,3.42,.07,.44,.45-.67,.57-.25-.3,.59-.99,1.08-1.07,1.28-.49,.81,.16,.97-.26,1.84,.15-.08,.49-.09,.37,.62-.24,.62-.71,.64-.68,.2,.04-.16,.1-.22,.13-.2,.02-.22,.07-.5-.14-.29l.09,.12c-.21,.28-.47,1.17-.59,.91-.03,.52,.12,.26,.29-.08-.41,.78-.37,1.29-.7,2.13,.1-.12,.27-.21,.23-.08-.44,1.23,.09,.61-.05,1.47-.28,.45-.39-.26-.42,.63-.22,.51-.33,.05-.38-.18,.07,.84-.42,1.47-.53,1.93l-.03-.44c.02,.26-.02,.47-.05,.68l.27-.21c-.08,.24-.11,.45-.21,.44,.12,.28,.42-.14,.56,.4-.17,.31,0,1.02-.32,1.1,.22-1.03-.33,.08-.28-.81,.01,.18-.01,.38-.08,.63-.04,.03-.06-.04-.07-.11-.38,.98,.3,.5,.2,1.54-.17-.15-.36,.22-.33,.39,.04-.42,.31-.18,.42,.21-.18,.66,.07,.73,.04,1.08l.08-.4c.17,.14,.13,.47,.18,.94-.14,.04-.09-.42-.15-.26,.3,.52-.33,1.17-.09,1.9-.1,.35-.33,.05-.39,.36,.29,.81-.17,.93,.14,1.79,.2-.29,.13-.32,.46,.25-.14-.46-.26-.93-.36-1.4,.14,.29,.3,.58,.45,.87-.06-.42-.26-.88-.24-1.14,.24,.41,.17,.37,.35,.15-.31,.62,.34,1.11,.23,1.8l-.58,.1c-.03,1.1,.72,1.75,1.19,3.05-.04-.15-.07-.3-.1-.45,.28,.07,.39,.76,.73,1.09-.19,.07-.1,.35-.08,.59,.09-.1,.65,.86,1.04,.66,.08,.21,.17,.42,.27,.62,.82,.83,1.34,.36,2.18,.93-.38,.03-.03,.4-.72,.16,.3,.19,.57,.37,.64,.26,.13,.21,.98,.21,1.18,.5,.17-.02,.29-.19,.63-.03,.02,.05-.04,.09-.04,.09,.04-.09,.6,.1,.38-.22,.73,.96,2.67,.99,3.33,1.78,.7,.19,1.56,.4,2.18,.6-.06,.04-.03,.09-.14,.03,.81,.45,.71-.37,1.63,.13,.41,.46-.57,0-.29,.22-.05,.68,1.23,.26,1.8,.81h-.17c.46,.35,1.34,.07,2.18,.31,0,0-.05,.05-.03,.1,.66-.21,1.78-.09,2.63-.09-.29,.21-.4,.08-.27,.36,.38,.02-.05-.43,.7-.39,.22,.18,.75,.34,.8,.62l-.72-.05c.33,.39,.93,.07,1.3,.17l-.06,.15c1.11,.03,1.14-.38,2.32-.33l-.12-.11c.63-.41,.54,.2,1.17-.11l.22,.39c.43-.12,1.46-.5,2.19-.7-.37,.38-1.25,.59-1.8,.83,.43-.04,1.45-.17,1.64-.4-.16,.07-.37,.18-.54,.14,.49-.34,1.11-.65,1.94-.78,.02,.79,2.17-.33,2.93-.03,1.32-.77,2.86-1.04,4.36-2-.84-.18,.43-.28,.01-.75,.32-.25,.45-.33,.5-.31,.4-.12,.81-.25,1.21-.39,.34-.02-.24,.33-.13,.42,.76-.48,.46,0,1.03-.23-.23-.1,.07-.43,.52-.68l-.74,.21c.79-1,1.17-.24,1.94-1.28l-.18,.4c.43-.49,1.81-1.52,1.94-2.31,.13-.02,.35,0,.17,.22,1.18-.97,2.11-2.67,3.13-3.3l.03,.19c.17-.23,.15-.54,.5-.7,.03,.06,.03,.19,.13,.1,.07-.15,.33-.73,.65-.94l-.1,.35c1.16-.96,1.22-1.96,1.93-2.98,.33,.28,1.19-.53,1.6-.97l.04,.05c1.1-1.36,1.45-2.61,2.14-4.06,.95-.59,1.87-2.84,2.74-4.22-.18,.19-.3-.18-.22-.45,.23-.32,.1-1.08,.46-.88l-.06,.12c.48-.12,.67-.89,.86-1.47l-.47-.26c.32-.31,.52-.73,.67-1.19,.16-.46,.25-.96,.31-1.44,.15-.95,.16-1.82,.58-2.2-.07-.4-.03-.88-.12-1.27l.28,.05c.1-.53,.13-.94,.16-1.38,.04-.44,.04-.91-.02-1.58l.21,.27c.01-.77-.83-.93-.9-1.6l.41-.24c-.11-1.29,.02-2.72-.71-3.89,.07,0,.19,0,.27,.21-.09-.3-.18-.92-.35-1.4-.19-.48-.41-.82-.63-.6,.37-.16-.53-1.31-1.05-1.83l.3-.05c-.66-.33-.69-.32-1.3-.93-.1-.18,.06-.28,.18-.02-.33-.61-.5-.27-.96-.94l.35,.09c-.49-.51-.52-.4-.93-.51-.39-.2-1-.83-.95-1.12-.17,.08-.6,.07-.92-.19,0-.11,.15-.1,.23-.08-.99-.71-1.71-.37-2.4-.83,0-.09-.04-.16-.1-.19,.92,.21,1.62,.52,1.54,.5,.1-.24-.64-.54,.08-.67-.69-.07-1.81,.11-2.51-.1-.03-.03-.06-.06-.09-.1l.08-.02c-.17-.04-.33-.03-.47,0-.23-.07-.38-.1-.61-.11-.08-.23-.88-.13-1.25-.11,.04,.27-.44,.27,.03,.47-.06-.02,.07-.04,.31-.06,.06-.01,.12-.02,.16-.03l-.02,.03c.24-.02,.56-.02,.92,0-.3,.13-.6,.24-1.01,.1l-.48,.47c-.51-.36-1.5-.44-1.68-.65-1.09,.33-2.56,.7-3.03,1.44-.27,.16-.38-.02-.52-.06,.15-.12,.35-.18,.42-.28-.55,.32-1.71,.71-1.69,1.11-.77,.17,.26-.49-.68,0l.08-.16c-1.09,.16-1.76,.78-2.42,1.4-.66,.62-1.32,1.24-2.48,1.58,.16-.05,.23-.08,.3-.05-2.39,1.23-4.1,3.52-6.23,5.05-.58,.48-.47,.69-.63,1.14l-.33-.08-.23,.81c-.49,.99-1.78,1.02-2.18,2.44l.27-.03c-.33,.37-.77,1.37-.92,1.17,0,.06,.09,.25-.1,.36l-.14-.07c-.15,.39-.27,.79-.4,1.18-.57,.76-.48-.45-1.18,.75-.19,.49-.27,1.51-.09,1.39,.1-.18,.33-.42,.48-.36l-.14,.45c.38,.29,.65,.79,1.45-.03l.11-.81,.32-.11c-.11,.19-.2,.38-.29,.57,.35-.22,.3-.51,.32-.8,.14,0,.26-.04,.38-.15v-.88c.2,.02,.13,.48,.48,.1,.02-.41-.53,.07-.33-.49,.38-.2,.47-.01,.55-.47,.13,.01,.15,.13,.1,.3,.08-.4,.5-.88,.42-1.18,.43-.16,.69-1.1,1.03-.8-.01-.16,.14-.74,.34-1.03,0,.83,.85-1.01,1.19-.5-.07-.68,.96-1.42,1.36-2.2,0,.06-.02,.18-.09,.21,.36-.31,.56-.3,.84-.45-.24-.33,.24-.9,.37-1.35,.69-.12,.05,.58,.43,.72-.24-.21,.53-.91,.21-.98,.49-.12,.37-.16,.75-.06-.26-.42,.26-.33,.35-.8,.65-.21,.42,.26,.88-.29,.35-.08-.03,.43-.03,.43Zm14.79-6.34h0c-.14,0-.26-.01-.33-.02l.33,.02Zm1.31,.28c-.16-.05-.35-.1-.56-.16-.02-.11,.05-.19,.18-.15-.09,.04,.21,.18,.38,.31Zm-2.83-2.34c.25-.03,.34,.03,.37,.08-.12,0-.26,0-.44,.03l-.03,.04c.02-.05,.05-.11,.1-.14Z"/><path class="f" d="M46.33,11.17s-.05,.02-.1,.02c.05,.02,.1,.04,.15,.06l.08-.09h-.13Z"/><path class="f" d="M11.03,18.29l-.03,.02s.05-.02,.07-.02c-.02,0-.03,0-.05,0Z"/><polygon class="f" points="55.62 29.32 55.69 29.33 55.65 29.2 55.62 29.32"/><path class="f" d="M17.74,13.9s.06,.02,.12,0c-.01-.01-.06-.01-.12,0Z"/><path class="f" d="M20.79,12.49l.48-.06c-.21,.01-.36,.04-.48,.06Z"/><path class="f" d="M23.28,11.9c.02-.06,.02-.09,.02-.13h0l-.02,.13Z"/><path class="f" d="M2.34,44.39s0,.07,0,.1c.05,.23,.03,.08,0-.1Z"/><path class="f" d="M4.03,32.16c0,.14,0,.28,0,.42,.09-.2,.15-.36,0-.42Z"/><polygon class="f" points="7.64 54.81 7.63 54.81 7.71 54.85 7.64 54.81"/><path class="f" d="M3.85,33.13c.12-.19,.17-.37,.19-.55-.07,.17-.17,.36-.19,.55Z"/><path class="f" d="M33.27,14.24l.06,.09s.03-.02,.04-.02l-.11-.07Z"/><path class="f" d="M33.37,14.31l.11,.07s-.07-.08-.11-.07Z"/><path class="f" d="M33.69,14.54l-.21-.16c.06,.07,.11,.16,.21,.16Z"/><path class="f" d="M30.73,12.41l-.07,.08s.05-.04,.07-.08Z"/><path class="f" d="M29.78,12.11c.23,.09,.5,.38,.82,.45l.06-.06c-.19,.08-.6-.49-.88-.38Z"/><path class="f" d="M25.56,10.37c.31,0,.62,.03,.93,.06-.16-.11-.38-.26,.05-.28-1.19-.33,.24,.22-.98,.22Z"/><path class="f" d="M22.68,10.62c.48-.16-.04-.15-.03-.22-.29,.17-.36,.21,.03,.22Z"/><path class="f" d="M7.06,23.27l-.19-.18c-.17,.34,.08,.05,.19,.18Z"/><polygon class="f" points="6.35 27.27 6.65 27.03 6.52 26.77 6.35 27.27"/><polygon class="f" points="3.74 28.59 3.77 28.42 3.61 29.04 3.74 28.59"/><path class="f" d="M10.32,58.53v-.33c-.25-.04-.43,.28,0,.33Z"/><path class="f" d="M24.87,61.32c.16,.15,.59,.24,.85,.08-.34-.01-.68-.12-.85-.08Z"/><path class="f" d="M57.23,33.65c0,.11,.01,.22,.01,.33l.08-.58-.09,.26Z"/></g></g><g><path class="g" d="M32.4,52.65c-.05-.07-.2-.2-.2-.15l.21,.25v-.11Z"/><path class="g" d="M31.76,52.41c.08,.15,.23,.39,.46,.59-.18-.26-.08-.18-.31-.49,0-.06,.13,.03,.21,.12-.05-.07,.1,0-.03-.16-.22-.14-.27-.11-.18,.1-.06-.04-.11-.11-.15-.16Z"/><path class="g" d="M28.26,54.18l.04,.02s-.03-.02-.04-.02Z"/><path class="g" d="M25.99,54.84s.01-.05,0-.08c0,.03-.02,.05,0,.08Z"/><path class="g" d="M25.51,54.59l.03,.02s-.03-.04-.03-.02Z"/><path class="g" d="M28.26,54.18l-.1-.07c.04,.1,.06,.06,.1,.07Z"/><path class="g" d="M31.88,53.38s-.01-.05-.03-.09c0,.02,0,.04,0,.05l.03,.04Z"/><path class="g" d="M29.06,53.46h.02l-.05-.13,.04,.13Z"/><path class="g" d="M29.69,53.01s.13,.24,.19,.34c-.06-.1-.08-.15-.07-.18l-.12-.16Z"/><path class="g" d="M31,52.64v0Z"/><path class="g" d="M28.54,53.68l-.05-.09s.03,.06,.05,.09Z"/><path class="g" d="M5.79,53.45l.03-.04s-.03,.04-.03,.04Z"/><polygon class="g" points="5.85 51.73 5.87 51.73 5.98 51.61 5.85 51.73"/><path class="g" d="M24.73,54.41h0s0-.02,0,0Z"/><path class="g" d="M18.11,54.8c.05,.26-.16,.31-.08,.6,0-.11,.15-.42,.08-.6Z"/><path class="g" d="M31.84,53.37s-.01,.02-.03,.03c.02,0,.03-.01,.03-.03Z"/><path class="g" d="M18.04,55.39h0v0Z"/><path class="g" d="M23.13,54.83s.02,.09,.03,.12c0-.03-.01-.06-.03-.12Z"/><path class="g" d="M24.42,55.04l-.04-.03s.03,.03,.04,.03Z"/><path class="g" d="M22.52,55.28s-.03-.06-.05-.02v.03s.03-.06,.05-.01Z"/><path class="g" d="M21.84,55.31v.06l.04-.02-.04-.04Z"/><path class="g" d="M7.89,54.56c.02-.08,.05-.16,.08-.24-.08,.18-.21,.2-.08,.24Z"/><path class="g" d="M31.78,53.26c.04,.06,.06,.09,.06,.11v-.03s-.04-.06-.06-.08Z"/><path class="g" d="M22.65,57.49l-.12-.03s.08,.04,.12,.03Z"/><path class="g" d="M13,56.26l-.03,.03s.02,0,.03-.03Z"/><path class="g" d="M22.17,57.52c-.03-.1-.05-.15-.08-.19,0,.02,0,.04-.01,.07l.09,.12Z"/><path class="g" d="M7.97,54.31h0Z"/><path class="g" d="M6.94,54.52c.1,.07,.23-.29,.35-.46,.17-.03-.08,.27-.13,.46,.13-.04,.35-.31,.4-.27-.02,.06-.02,.08-.07,.14,.22-.22,.25,.12,.51-.16,0,.03-.02,.06-.03,.09,.07-.17,.15-.34,.21-.46,.05,.02,.19-.17,.1,.06-.02-.02-.07,.07-.12,.13l.09-.07c-.11,.33-.12,.08-.23,.31,.15-.06,.38-.26,.41-.14-.13,.31-.22,.02-.25,.34l-.05-.17c-.15,.52-.05-.07-.23,.49,.11,.16,.24-.07,.35,.09,.11-.15,.11-.26,.22-.41,.35-.21-.18,.85,.16,.51,.13-.19,.32-.58,.34-.32l-.19,.34c.13,.1,.3-.47,.35-.17-.08,.13-.16,.07-.16,.12-.02,.32,.15-.17,.23-.14l-.11,.32c.18,.01,.44-.15,.63-.14-.04,.09-.11,.18-.11,.29,.28-.08,.46,.21,.61,.47l.18-.25s0,.14-.05,.18c.05,.13,.06-.18,.14-.27,.05,0,0,.18-.05,.25,.23-.19,.58-.37,.64-.03l-.06,.07c.09,.15,.31-.54,.34-.24l-.04,.04c.23,.2,.58,.02,.67,.5,.14-.4,.21,.25,.38-.32,.08,.32,0,.41,.18,.66,.05,.04,.17-.34,.25-.38l-.07,.3,.17-.29-.03,.37,.08-.06s-.02-.15,0-.23c.13-.11,.2,.27,.17,.42l.3-.2c-.03,.12-.08,.15-.13,.22,.2-.28-.05,.32,.14,.07,0-.07,.05-.18,.06-.24,.02,.19,.16,.22,.27,.17l-.06,.2c.17,.09,.4-.02,.6,.02-.05-.11,.03-.47,.1-.49l-.04,.32c.08-.19-.04-.13,.09-.36,.07,.05-.02,.37-.08,.47l.11-.09c-.01,.1-.04,.14-.07,.26,.08-.19,.1,.35,.22,.02v.1c.19,.04,.3-.05,.47-.04,.05-.28,.11-.2,.19-.42,.1,.11,.2,.35,.35,.35,.13-.12,.07-.23,.14-.39-.03,.25,.12,.25,.01,.42,.18-.01,.23-.01,.49-.18,0-.11-.03-.16,0-.24,.05-.04,.07,.12,.05,.24v.02c.29-.34,.46,.83,.74,.32v.02l.23-.25c.09,.06-.08,.18-.03,.35,.28-.39,.35,.1,.57-.16,.06,.77,.52,0,.67,.5v-.18c.07-.17,.06,.11,.09,.15,0-.14-.04-.16,0-.26,.45-.18,.87,.33,1.31,.51,.16,.05,.13-.92,.32-.48l-.07,.33c.34-.38,.68,.03,1-.31-.02,.08-.02,.18-.05,.17,.07,.24,.25,0,.25-.19,.05,.02,.01,.18,.05,.28,.07,.14,.17-.31,.21-.07,0,.04-.02,.08-.03,.1,.04-.12,.21,.02,.16-.25,.13,.13,.23-.13,.33,.03,.05-.31,.22,.14,.21-.3,.02,.45,.24,.35,.3,.13-.02,.14,.08,.14,.06,.33,.09-.01,.16-.1,.13-.33,.21,.52,.28-.46,.44,.22,.24-.26,.46-.46,.67-.59,.05,.45-.25,.08-.18,.54,.2-.21,.27-.61,.51-.54,.07,.05,0,.2-.01,.28,.19-.22,.44-.02,.59-.31,0,.04,0,.09-.02,.13,.04-.02,.1,.05,.06-.15l-.03,.06c-.11-.28,.04-.64,.01-.79,.05,.59,.22,.11,.26,.86,.02-.04,.03-.14,0-.28,.04,.03,.07,.11,.07,.27,.12-.14,.02-.34,.15-.36,.02,.1,0,.14,.02,.26,.02-.2,.04-.41,.16-.35,0,.06,.04,.13,0,.14,.17-.07,.18-.57,.42-.44,.05,.43,.1,.12,.21,.48l.08-.13-.09-.16c.09-.02,.1-.3,.21-.21l-.03,.17,.15-.12-.13-.11c.04-.21-.14-.45,0-.39-.01,.04,.09-.02,.2,.18h0c0-.13,.02-.26,.11-.19,.05,.11,.11,.4,.14,.47-.05-.31,.18-.15,.13-.48,0,.08,.07,.27,.09,.3l-.04-.25c.07,.06,.08,.1,.13,.25,.14,0-.19-.44,.02-.29,0,.02,.01,.06,0,.1,.18,.05,.23-.25,.4-.18,.17,.34-.08,.13,.07,.41,.17-.14,.24-.57,.45-.57l-.05-.02c-.18-.5,.24,.18,.23-.09,0,.05,.09,.28,.07,.23,.16,.02,.21-.23,.32-.47l.03,.13c.12,.08,.22-.03,.33,0-.04-.13,.02-.13-.1-.3,.59,.57,.25-.6,.77-.15-.02,.02,0,.14,.02,.13l.11-.21c-.13-.19-.09-.11-.22-.24-.05-.13-.05-.25-.01-.28,0,.18,.19,.32,.29,.41-.04-.06-.07-.13-.11-.19,.3,.3-.22-.41,.04-.24l.06,.11c.01-.08-.03-.24,.04-.24,.16,.21,.02,.14,.13,.33,.06-.06-.14-.51,.07-.33,.01,.08-.03,.11-.02,.19,.23,.22,.2,.15,.28,.16h0l.2,.04-.08-.05c-.3-.64,.11-.22-.04-.68,.14,.43,.12,.22,.29,.47,.08,.05,.18,.09,.21,.17-.09-.24,.2,.09,.07-.25,.06,.08,.06-.03,.2,.17,.03-.11-.12-.12-.18-.23-.09-.34,.5,.13,.37-.35,.01-.25-.17-.52-.17-.74,.14,.09,.2,.3,.2,.3,.15,.06,.18,0,.17-.14,.04,.07,.1,.12,.19,.19,.03-.06-.2-.29-.05-.24,.06,.09,.16,.23,.21,.33,0-.12-.07-.3-.07-.41,.13,.11,.14,.22,.19,.32,.02-.11,.06-.27-.11-.48l-.1-.03s.17,.16,.19,.21c.09,.21-.14,0-.21-.06v-.08c-.43-.38-.1,.21-.2,.26l-.24-.34,.15,.33c-.09-.07-.25-.23-.25-.31-.19-.11,.05,.16-.15,.02-.03-.02-.04-.04-.04-.06l.03,.14c-.05-.08-.2-.22-.13-.2-.25-.1,.04,.37-.2,.16v-.03c-.06,.22,.17,.25,.29,.61l-.53-.54,.17,.25s-.06,0-.13-.09c.07,.21,.09,.1,.18,.28-.24-.17-.12,.25-.43-.13,.11,.21,.17,.1,.19,.28-.33-.41-.04,.14-.24-.01-.13-.24,0-.16-.19-.31,.22,.4-.18,0-.19,.11,.2,.3-.04,.2-.07,.37-.06-.11-.28-.05-.44-.11l-.03-.05c.17,.32,.04,.32,.01,.43-.11-.19-.14-.27-.15-.38l-.06,.04c.04,.11,.06,.18,.04,.24l-.12-.25c-.07,.06,0,.38-.21,.28,.11,.23,.43,.58,.39,.79-.07-.12-.19-.33-.18-.39,0,.02,.02,.12-.03,.08l-.06-.23c-.1-.06,.06,.19,.01,.19-.09-.17-.1-.11-.16-.25,0-.02,.07,.05,.05-.02-.06,0-.17-.08-.26-.2,.06,.1,.12,.24,.1,.28-.08,.06-.14-.2-.23-.26,.04,.13-.08,.03,.05,.3-.03,.01-.09-.11-.14-.18,.01,.14-.19,.13,0,.39h.02v.03h0c-.03,.34-.38,0-.49,.18l-.04-.09c-.05,.14-.18,.15-.16,.37-.03,.01-.13-.14-.16-.25-.04,.1-.01,.2-.17,.09,0-.19-.08-.13,.03-.15-.12-.04-.2-.19-.2,.1-.06-.25-.18-.27-.2-.19l.13,.15c-.04,.05-.09,.05-.14,.04l-.09-.32c-.31-.32-.11,.77-.47,.17,.02,.24,.15,.12,.19,.4-.1-.01-.34-.44-.36-.43-.17-.14,.03,.5-.13,.41,.05,.11,.16,.41,.09,.54-.1-.01-.25-.45-.22-.55,.02-.02,.04,.02,.05,.06,.02-.05,.04-.11-.03-.22l.02,.12c-.08-.1-.19-.06-.22-.25-.04,.13,.02,.2,.09,.24-.16-.14-.18,.04-.32-.04,.03,.06,.09,.19,.07,.19-.21-.1-.02,.24-.12,.32-.11-.16-.08-.43-.16-.25-.1-.1-.09-.3-.08-.4-.05,.25-.23-.1-.3-.13l.03-.11c-.02,.06-.05,.07-.07,.07l.08,.22s-.07-.03-.09-.12c0,.16,.11,.38,.09,.6-.07-.11-.11,.16-.19-.15,.16,.07-.08-.31,.03-.38-.01,.04-.04,.05-.08,.01-.01-.03,0-.06,0-.08-.18-.25,.01,.36-.13,.38-.02-.18-.1-.32-.11-.28,.05,0,.08,.29,.06,.43-.11-.12-.08,.12-.13,.11l.06,.05c.01,.18-.04,.16-.09,.23-.03-.14,.04-.1,0-.16-.02,.32-.21-.29-.27-.07-.06-.11-.06-.33-.11-.4-.07,.24-.15-.22-.23-.02,.07,.23,.06,.17,.02,.41l.16-.19-.07,.36c.06,0,.1-.17,.14-.13-.03,.2-.03,.14,.03,.33-.13-.34-.13,.23-.25,0l-.08-.59c-.17-.24-.2,.33-.39,.2l.07,.1c0,.24-.11,.05-.15,.15-.02-.2-.06-.26-.1-.38,.02,.15-.13,0-.11,.39l-.1-.25c-.15-.09-.11,.58-.26,.52,.02-.22-.05-.35,.03-.51-.05,0-.09-.03-.08,.11-.04-.12-.11,.27-.16,.09-.01,.09,0,.29-.06,.28,0-.04,0-.1,0-.1,0,.1-.07,.14-.01,.35-.18-.6-.4,.07-.55-.46-.1,.07-.22,.14-.31,.16,0-.06,0-.1,.02-.08-.13-.18-.07,.57-.22,.36-.08-.32,.08-.17,.03-.29-.03-.65-.17,.09-.27-.29l.02-.04c-.07-.22-.18,.25-.3,.2,0,0,0-.06,0-.1-.09,.33-.25,.44-.37,.53,.04-.25,.06-.13,.04-.39-.05,.04,0,.42-.1,.48-.03-.14-.1-.26-.1-.54h.1c-.04-.37-.13,0-.18-.07v-.16c-.14,.04-.16,.44-.32,.4v.12c-.1,.38-.05-.22-.16,.06v-.4c-.07,.09-.23,.37-.35,.44,.08-.29,.21-.43,.3-.6-.06,0-.2,.02-.24,.21,.03-.04,.06-.13,.08-.07-.09,.31-.2,.45-.31,.44,.08-.76-.29-.22-.33-.81-.23,.26-.39-.16-.63-.14,.02,.6-.07,0-.12,.62-.06,.03-.08,.02-.08-.02l-.13-.38c-.02-.18,.07-.13,.08-.26-.11-.06-.02-.26-.08-.43,0,.22-.08,.31-.14,.22l.06,.29c-.21,.3-.08-.53-.29-.23l.08-.18c-.1,.1-.32-.04-.47,.43,0-.07,0-.24,.04-.28-.2-.1-.54,.45-.66,.13l.04-.15s-.11,.27-.14,.11c.01-.06,.04-.14,.02-.16-.03,.05-.14,.24-.18,.15l.07-.16c-.17-.22-.38,.35-.57,.42,.07-.43-.06-.6-.13-.69v-.06c-.21-.1-.45,.29-.71,.41-.05-.5-.42-.28-.59-.59,.02,.09-.07,.33-.12,.37-.03-.1-.2,.27-.11-.12h.02c.04-.38-.08-.3-.16-.33l-.13,.51c-.05-.8-.62,.15-.58-.55-.08,.12-.14,.1-.22,.21l.07-.27c-.12-.1-.18-.16-.37-.13l.09-.19c-.09-.04-.33,.76-.42,.75l.08-.42c-.17-.04-.24-.44-.51-.12,.02-.06,.06-.17,.09-.18-.08-.03-.22-.36-.36,.2,.11-.36-.16-.09-.3,.04l.1-.26c-.18,.32-.21,.41-.35,.47-.01-.04,.05-.22,.06-.14-.04-.17-.15,.23-.2,.06l.09-.16c-.08-.05-.1,.04-.22,.23-.09,.09-.14-.12-.07-.36-.06,.14-.18,.32-.2,.23,.02-.09,.06-.14,.08-.17-.08-.23-.32,.23-.33-.06,.03-.09,.04-.13,.04-.16,.11,.05,.2,.09,.18,.11,.09-.24,.01-.32,.2-.62-.14,.16-.41,.51-.45,.36l.02-.09,.02-.02s-.04-.02-.07,.02c-.01-.05-.02-.09-.04-.1,.07-.2-.06-.15-.1-.17-.1,.26-.14,.2-.17,.44,0-.02,.02-.03,.06-.03,0,0,.02,0,.03-.02v.02s.06,.01,.11,.03c-.09,.12-.17,.22-.16,.05l-.23,.4c.08-.39,.04-.63,.12-.86-.19,.09-.35-.04-.65,.41-.07,.05,.02-.16,.04-.24,.04-.04,.07-.02,.11-.08-.13,.09-.25-.05-.42,.27-.03-.2,.2-.28,.04-.29l.07-.09c.01-.65-.84,.64-.78-.18,0,.05,0,.08-.03,.13-.15-.46-.82-.1-.83-.74-.02-.14-.16,.05-.32,.16l.15-.26-.28,.23c-.27,.12,.22-.76-.21-.47l-.1,.18c-.03-.07-.25-.03-.1-.21-.03,.03-.15,.15-.1,.05l.1-.13-.3,.11c-.03-.17,.41-.48,.29-.61-.09,0-.45,.23-.5,.33,.02,.02,0,.12-.11,.24l-.1,.02c-.31,.35-.67,.67-.74,1.03l.28-.14-.11,.2-.09-.06c-.09,.2,.06,.08,.18,0-.07,.1-.11,.18-.12,.23l.37-.27c-.1,.15-.27,.25-.26,.38,.17-.13,.21-.36,.37-.4-.08,.2-.2,.33-.04,.23-.06,.1-.12,.15-.18,.18,.14-.08,.17,.05,.35-.13-.11,.25,.21,.07-.05,.42,.08-.07,.29-.22,.35-.2-.39,.37,.16,.15-.18,.6,.33-.35,.36-.02,.61-.16-.03,.03-.08,.08-.08,.06,.04,.08-.01,.21-.02,.31,.22-.32,.37-.34,.55-.51-.12,.37-.29,.36-.45,.69,.16-.27,.31-.19,.41-.43-.06,.24,0,.13-.14,.43,.26-.42,.1-.04,.3-.27-.03,.26-.2,.41-.03,.34-.03,.16-.2,.26-.2,.26Zm2.81,.37h0Zm.21,.07s-.05-.03-.09-.04c.03-.09,.07-.18,.09-.17-.03,.06,0,.13,0,.21Zm.27-1.98s.03,.03,.02,.08c-.02,0-.04,0-.06,.01l-.02,.03,.06-.13Z"/><path class="g" d="M10.05,53.31s-.01,.01-.02,.01v.07l.04-.08h-.02Z"/><path class="g" d="M28.31,54.21h0s.02,.01,.03,.03l-.02-.03Z"/><polygon class="g" points="12.73 56.34 12.74 56.27 12.71 56.33 12.73 56.34"/><path class="g" d="M29.8,54.51s.03,.04,.05,.05c-.01-.02-.03-.03-.05-.05Z"/><path class="g" d="M30.28,54.29l.12,.04c-.06-.03-.09-.04-.12-.04Z"/><path class="g" d="M30.7,54.18l-.06-.1h0l.06,.1Z"/><path class="g" d="M24.78,56.89s0,0-.01,.02c-.03,.06,0,.03,.01-.02Z"/><path class="g" d="M26.5,55.81c0,.05,0,.11-.02,.14,.04,.01,.07,0,.02-.14Z"/><polygon class="g" points="22.66 57.49 22.66 57.49 22.65 57.49 22.66 57.49"/><path class="g" d="M26.39,55.97s.07,.02,.09-.02c-.03-.01-.07-.03-.09,.02Z"/><path class="g" d="M32.18,53.15h.02l-.03-.04v.04Z"/><path class="g" d="M32.17,53.11v-.04s-.02,.01,0,.04Z"/><path class="g" d="M32.15,52.99l.02,.08s.03-.02-.02-.08Z"/><path class="g" d="M31.68,53.42l.06,.08s-.03-.04-.06-.08Z"/><path class="g" d="M31.57,53.55s.22,.1,.22,.02l-.05-.07c.08,.13-.25-.11-.17,.05Z"/><path class="g" d="M30.28,52.96h.15c-.08-.08-.19-.18-.16-.24-.32-.17,.17,.18,.01,.24Z"/><path class="g" d="M29.87,53.06c.03-.08-.09-.13-.12-.18,.02,.11,.03,.13,.12,.18Z"/><path class="g" d="M27.42,54.36l-.09-.24c-.03,.05,.04,.09,.09,.24Z"/><polygon class="g" points="27.36 55.79 27.47 55.93 27.41 55.7 27.36 55.79"/><polygon class="g" points="26.46 54.18 26.47 54.14 26.42 54.25 26.46 54.18"/><path class="g" d="M21.95,55.06l.03,.31c.03-.06,.02-.41-.03-.31Z"/><path class="g" d="M19.9,55.37c-.02-.16-.07-.26-.11-.11,.05,.02,.09,.15,.11,.11Z"/><polygon class="g" points="13.84 54 13.9 53.91 13.81 53.97 13.84 54"/></g><g><path class="g" d="M35.2,50.54c.04-.69-.01,.23,0,0h0Z"/><path class="g" d="M35.22,50.81c0-.08,0-.19-.02-.32h0v.14c0,.06,0-.17,0-.11,0,.01,0,0,0,.02,0,.26,.01,.27,0,.06v.22Z"/><path class="g" d="M35.78,51.03h0Z"/><path class="g" d="M35.69,51.06h0Z"/><path class="g" d="M35.65,51.08h0Z"/><path class="g" d="M35.78,51.03h0s0,0,0,0Z"/><path class="g" d="M35.18,50.36h0Z"/><path class="g" d="M35.88,51.4h0l.05,.13-.05-.13Z"/><path class="g" d="M35.84,51.48l-.16-.36,.08,.18,.09,.18Z"/><path class="g" d="M35.41,51.12v0Z"/><path class="g" d="M35.81,51.16h0Z"/><path class="g" d="M33.89,50.48h0Z"/><polygon class="g" points="35.27 50.71 35.28 50.72 35.43 50.76 35.27 50.71"/><path class="g" d="M34.92,51.04l.31,.38-.31-.38Z"/><path class="g" d="M35.18,50.35h0s0-.02,0,0Z"/><polygon class="g" points="35.23 51.42 35.23 51.42 35.25 51.44 35.23 51.42"/><path class="g" d="M35.45,51.02h0Z"/><path class="g" d="M35.64,51.08h0Z"/><path class="g" d="M35.33,50.96s-.04-.02-.02-.01l.03,.02s-.05-.03-.01,0Z"/><path class="g" d="M35.32,50.98l.05,.03h-.01l-.03-.03Z"/><path class="g" d="M33.93,50.82l.24,.06c-.19-.05-.26-.08-.24-.06Z"/><polygon class="g" points="35.18 50.36 35.18 50.35 35.18 50.36 35.18 50.36"/><path class="g" d="M37.25,52.07l-.06,.02s.05,0,.06-.02Z"/><path class="g" d="M33.97,52.41h-.04s0,.01,.04,0Z"/><path class="g" d="M37.16,52.21c-.09-.05-.14-.08-.17-.09l.06,.04,.12,.05Z"/><path class="g" d="M34.18,50.88h0Z"/><path class="g" d="M33.57,50.6s.35,.1,.55,.16c.1,.05-.26-.06-.45-.11,.09,.04,.42,.13,.4,.14l-.15-.04c.28,.09,0,.04,.36,.15l-.09-.02,.49,.13s.22,.07-.01,.01c0,0-.09-.03-.16-.05l.1,.03c-.34-.08-.11-.04-.36-.11,.11,.04,.38,.13,.28,.12-.33-.09-.1-.05-.4-.12l.13,.02c-.51-.14,.03,0-.52-.14-.1,0,.16,.07,.06,.07l.45,.13c.32,.12-.83-.2-.4-.06,.22,.06,.63,.18,.41,.14l-.37-.11s.53,.16,.27,.11c-.14-.04-.12-.05-.16-.06-.3-.06,.21,.07,.2,.08l-.33-.09s.28,.12,.33,.17c-.1-.03-.2-.06-.3-.08,.16,.08-.06,.06-.26,.03l.28,.09s-.13-.03-.18-.05c-.11-.02,.18,.05,.29,.08,.02,.01-.17-.04-.25-.06,.23,.08,.5,.2,.19,.16l-.08-.03c-.12,0,.58,.17,.3,.14l-.05-.02c-.14,.06,.11,.17-.34,.27,.42,.01-.18,.17,.41,.14-.28,.12-.39,.1-.54,.33-.01,.06,.37-.04,.45-.02l-.29,.11c.11-.01,.22-.03,.33-.05l-.32,.19,.1,.02s.1-.1,.18-.14c.15,0-.09,.27-.21,.37,.12,.01,.23,.01,.33,0-.09,.08-.15,.09-.22,.12,.31-.13-.22,.24,.06,.12,.04-.06,.13-.13,.18-.17-.1,.17,0,.25,.1,.23l-.14,.16c.1,.14,.32,.07,.44,.12-.01-.11,.14-.45,.18-.47l-.1,.31c.09-.18,.01-.13,.13-.34,.02,.05-.09,.36-.15,.45l.09-.09c-.03,.09-.05,.14-.1,.26,.08-.19,.02,.35,.15,.02l-.02,.1c.14,.03,.22-.07,.32-.08,.02-.28,.05-.22,.08-.44,.05,.09,.14,.31,.23,.27,.04-.15-.02-.24-.02-.41,.04,.25,.12,.21,.11,.4,.09-.06,.14-.08,.16-.31-.04-.1-.07-.14-.09-.22,0-.04,.07,.09,.11,.21v.03c-.07-.38,.56,.57,.38,.05v.02c-.01-.09-.04-.18-.08-.27,.05,.02,.09,.17,.2,.29-.18-.4,.14-.02,.01-.29,.52,.55,.08-.13,.43,.2l-.12-.13c-.11-.14,.08,.06,.12,.09-.1-.1-.12-.11-.18-.18-.08-.22,.3,.07,.47,.13,.06,.01-.65-.65-.32-.38l.23,.24c-.25-.32,.11-.09-.09-.38,.06,.05,.13,.12,.12,.12,.19,.14,.05-.04-.1-.17,.03,0,.14,.11,.22,.17,.12,.07-.21-.23-.02-.09,.03,.02,.06,.05,.07,.07-.08-.08,.06-.03-.17-.19,.13,.05-.06-.12,.09-.05-.25-.19,.16,.03-.2-.22,.38,.25,.35,.13,.17,0,.11,.08,.13,.05,.29,.16,.01-.03-.05-.1-.26-.2,.51,.2-.34-.29,.3-.02-.18-.2-.31-.33-.39-.43,.43,.12,.02,.1,.47,.24-.15-.16-.51-.28-.39-.35,.07-.02,.19,.05,.26,.07-.16-.13,.07-.21-.18-.3,.04,0,.09,0,.12,.02-.01-.02,.07-.04-.14-.04l.06,.02c-.3,.02-.62-.04-.78-.02,.59-.01,.14-.07,.89-.09-.04,0-.14-.01-.27,0,.04-.02,.12-.03,.27-.03-.12-.05-.33,0-.33-.04,.1-.02,.14-.01,.25-.02-.2,0-.39,.02-.31-.03,.06-.01,.13-.03,.14-.02-.05-.07-.52,.03-.36-.08,.41-.13,.13-.07,.47-.22h-.12l-.16,.09s-.27,.06-.17-.02l.15-.05-.09-.03-.11,.1c-.18,.07-.41,.23-.34,.15,.04-.02,0-.02,.17-.15h0c-.11,.05-.21,.12-.15,.05l.4-.29c-.26,.17-.13-.02-.39,.19l.24-.21-.2,.16c.05-.07,.08-.1,.19-.2,0-.07-.33,.34-.22,.16,.02-.01,.04-.04,.07-.06,.03-.12-.18,.06-.15-.07,.19-.33,.1-.05,.26-.32-.15-.02-.39,.29-.43,.19v.04c-.16,.51,.02-.27-.09-.04,.02-.04,.07-.29,.06-.23-.05-.1-.16,.11-.22,.28v-.14c-.03-.12-.08-.07-.12-.12,0,.14-.01,.12,.03,.31-.1-.38-.14-.26-.14-.14,0,.13,.02,.26-.11-.03,0,0-.02-.12-.03-.12,0,.05,0,.09,0,.14l.13,.29c.04,.13,.07,.23,.07,.23-.04-.15-.14-.35-.19-.46l.08,.2c-.18-.37,.18,.43,.05,.18l-.05-.11c.02,.06,.07,.21,.05,.18-.11-.24-.04-.12-.13-.32,0,.02,.18,.47,.06,.23l-.05-.14c-.14-.28-.11-.21-.14-.25h0l-.08-.11,.04,.07c.28,.64,.03,.13,.2,.55-.17-.4-.1-.23-.23-.5-.04-.07-.09-.16-.12-.23,.1,.22-.09-.17,.05,.16-.04-.09-.01,0-.11-.23,.02,.07,.07,.15,.12,.27,.12,.31-.18-.36,0,.06,.06,.18,.17,.49,.2,.65l-.1-.34c-.05-.14-.04-.11-.02,0l-.05-.19c-.02-.07,.07,.29,.03,.14l-.03-.12,.02,.09v.05l.02,.1-.02-.14v-.02s0-.01,0,.07v.06c.1,.57,.01-.1,.01-.06l.09,.41-.07-.34c.03,.1,.1,.33,.1,.39,.07,.19-.03-.15,.05,.07l.02,.07-.02-.12c.02,.08,.09,.28,.06,.22,.11,.22-.06-.31,.06-.02v.02c0-.14-.09-.29-.21-.63l.3,.69-.11-.28s.02,.03,.07,.14c-.07-.2-.05-.12-.12-.31,.12,.25-.02-.13,.18,.31-.09-.21-.09-.16-.14-.31,.22,.47-.02-.09,.09,.12,.11,.25,.04,.12,.15,.33-.19-.42,.06,.08,.04,0-.15-.33-.05-.15-.08-.26,.05,.11,.11,.17,.17,.29l.02,.06c-.14-.34-.11-.28-.13-.35,.08,.2,.11,.29,.15,.38h0l-.08-.21,.1,.26-.05-.14-.02-.05s0,.03,0-.01l-.12-.39c-.05-.16-.1-.31-.11-.4l.12,.42s-.03-.11,0-.06l.06,.23c.03,.1-.05-.19-.04-.17l.08,.29s-.02-.08,0,0c.02,.07,0-.02,0-.01,0,0,0,0,0-.02v-.04s0,0-.01-.02h0s0-.07,0-.05h0c0-.09,0-.06,0-.03v-.03l.02-.03v.03h-.02v.02h0s-.02,.03-.04,.04c0,0,.01,0,0,0l-.02,.02-.03,.02,.19-.11s-.17,.1-.2,.11h0s0,0,0,0c-.03,.01,0,0-.03,.01h.04s0,.01,0,.01h-.02s0,0,0,0h-.04l-.11-.04h-.04s0-.01-.02-.02h0s0,0-.02-.01h-.02s-.04-.03-.02-.01c.13,.06,.26,.14,.23,.12l-.24-.13c-.07-.04-.02-.01-.02-.01,0,0,0,0-.02-.01h-.02c.05,.02,.09,.04,.01,0,.07,.04,.25,.15,.24,.14l-.08-.05,.3,.18c-.53-.32,.02,.06-.42-.24,.05,.04,.1,.09,.1,.1-.05-.04-.08-.06-.06-.05-.15-.11,.44,.36,.27,.24-.25-.2-.13-.12-.23-.19-.5-.41,.06,.07-.24-.17l-.03-.03c-.17-.14,.18,.17,.13,.15l-.07-.07c.24,.23,.31,.32,.36,.39l-.28-.27s.3,.28,.35,.34l-.4-.36v-.02c-.27-.24,0,.02-.05-.02l-.11-.11s.31,.32,.27,.32l.09,.08c.27,.28-.16-.15,.03,.07l-.28-.27c.06,.07,.25,.29,.29,.35l-.41-.46s0,.04,.14,.18c-.02-.03-.09-.1-.05-.06,.21,.23,.31,.34,.3,.35-.54-.55-.16-.11-.58-.53,.19,.23-.12-.09-.05-.02l.38,.46s.01,.03-.01,0l-.23-.28-.02-.03,.05,.06,.03,.05-.03-.04,.08,.12v-.02l.06,.12s0,0,0,0c.03,.05,.04,.09,.05,.11h0l.04,.14h0v-.05h0v.02s-.02,.05-.04,.07h0s0,0,0,.02h0s-.01,.02-.01,.02h0s-.03,.02,0,.01h.01s.03-.01,.08-.01h.07c.08,0,.17,.02,.37,.06h-.04l.26,.05c.13,.03,.34,.08-.02,0,.37,.09,.04,0-.12-.05l.27,.07c-.34-.1-.44-.13-.53-.17,.04,0,.22,.05,.15,.04,.14,.03-.25-.08-.1-.06l.17,.05s-.07-.03-.27-.09c-.11-.04,.07,0,.32,.06-.15-.04-.34-.1-.27-.09l.18,.05c.19,.03-.3-.12-.04-.06l.16,.04s-.03,.03-.05,.02c.25,.07,.3,.06,.63,.17-.18-.06-.58-.19-.46-.17l.09,.02h.03s0,0-.04-.01c.04,0,.07,.01,.08,0,.21,.05,.12,.01,.13,0-.27-.07-.23-.07-.45-.12,.02,0,.03,.01,.04,.02h0s.01,.02,.01,.03c-.14-.04-.25-.08-.1-.05l-.44-.13,.82,.19c-.15-.06-.09-.08-.59-.23-.06-.02,.15,.03,.23,.05,.05,.02,.04,.02,.11,.04-.13-.05-.04-.05-.4-.15,.16,.03,.33,.1,.27,.06l.11,.03c.58,.11-.89-.31-.15-.16l-.13-.03c.34,.03-.27-.19,.25-.1,.11,.01-.12-.05-.29-.11l.29,.08-.33-.11c-.24-.09,.73,.16,.27,0l-.2-.05s-.11-.06,.12,0c-.04-.01-.2-.06-.1-.03l.15,.04-.25-.1c.12,.01,.6,.17,.64,.15-.06-.03-.44-.15-.54-.17,0,0-.1-.02-.25-.06l-.08-.03c-.45-.12-.91-.25-1.23-.32l.27,.09-.22-.05v-.02c-.22-.05-.04,0,.09,.05l-.24-.06,.42,.13c-.18-.05-.35-.1-.45-.12,.2,.06,.4,.1,.52,.15-.21-.05-.37-.09-.2-.04l-.24-.07c.14,.05,.05,.04,.29,.11-.25-.06,.06,.04-.37-.07,.1,.03,.33,.1,.35,.12-.51-.15-.04,.02-.58-.13,.46,.13,.19,.09,.44,.18-.04-.01-.11-.03-.09-.03-.04,0-.18-.03-.27-.05,.38,.1,.46,.14,.69,.21-.37-.09-.44-.13-.79-.22,.31,.08,.3,.1,.56,.17l-.43-.1c.47,.13,.08,.03,.37,.12-.24-.05-.44-.12-.3-.06-.15-.03-.31-.09-.31-.09Zm.72,.57h0Zm0,.03s.01,0,.01-.01c.09,.02,.19,.05,.18,.05-.06-.02-.12-.03-.2-.04Zm1.9,.45s-.02,0-.07-.01l-.03-.02h-.03l.14,.03Z"/><path class="g" d="M35.83,51.55h-.02l-.06-.02,.08,.02h0Z"/><polygon class="g" points="35.78 51.04 35.78 51.03 35.78 51.04 35.78 51.04"/><polygon class="g" points="33.75 52.27 33.82 52.25 33.76 52.25 33.75 52.27"/><path class="g" d="M35.39,50.22l-.03-.07,.03,.07Z"/><path class="g" d="M35.28,50.2l-.05-.09,.05,.09Z"/><path class="g" d="M35.16,50.1l.05,.11h0l-.05-.11Z"/><path class="g" d="M37.19,51.09s0,0,.01,0c.05,.02,.03,0-.01,0Z"/><path class="g" d="M36.39,50.6s.09-.04,.12-.05c.01-.02,.01-.03-.12,.05Z"/><polygon class="g" points="37.26 52.07 37.25 52.07 37.25 52.07 37.26 52.07"/><path class="g" d="M36.53,50.57s.03-.04-.01-.03c-.01,.02-.03,.04,.01,.03Z"/><polygon class="g" points="35.2 50.46 35.2 50.47 35.2 50.47 35.2 50.46"/><path class="g" d="M35.2,50.47h0Z"/><path class="g" d="M35.2,50.48h0s0-.01,0,0Z"/><path class="g" d="M35.16,50.28h0Z"/><path class="g" d="M35.13,50.19l.03,.08h0l-.03-.08Z"/><path class="g" d="M35.63,51.24l-.06-.06c.05,.1,.11,.23,.11,.26,.16,.28-.1-.22-.05-.19Z"/><path class="g" d="M35.76,51.36c.01,.05,.07,.14,.09,.2-.04-.09-.05-.12-.09-.2Z"/><polygon class="g" points="36.38 50.21 36.45 50.07 36.31 50.25 36.38 50.21"/><polygon class="g" points="35.75 51.01 35.75 51.01 35.75 51.02 35.75 51.01"/><path class="g" d="M35.12,50.83l.26,.18-.26-.18Z"/><path class="g" d="M35.26,51.16c-.11-.11-.19-.17-.09-.06,.02,.01,.11,.09,.09,.06Z"/><polygon class="g" points="35.18 51.73 35.18 51.73 35.18 51.73 35.18 51.73"/></g><g><path class="e" d="M35.4,10.88c.17-1.13,.35-2.29,.87-3.3,.71-1.36,1.97-2.33,3.21-3.24,1.28-.95,2.59-1.89,4.09-2.44s3.21-.69,4.65-.02c.1,.05,.2,.1,.26,.19,.07,.1,.06,.24,.05,.36-.17,1.98-1.84,3.44-3.09,4.99-1.12,1.38-1.97,2.96-3.18,4.26h0c-1.54,1.65-3.61,2.79-5.67,3.66-2.84,1.21-1.43-2.9-1.2-4.45Z"/><g><path class="d" d="M36.06,10.98c-.08-.03-.28-.05-.25,.02l.32,.1-.07-.12Z"/><path class="d" d="M35.38,11.3c.14,.1,.4,.24,.71,.26-.3-.14-.16-.13-.52-.28-.03-.07,.12-.09,.24-.06-.08-.04,.09-.09-.11-.16-.27,.04-.29,.14-.11,.28-.08,0-.16-.03-.22-.05Z"/><path class="d" d="M37.01,15.66l-.05-.02s.04,.02,.05,.02Z"/><path class="d" d="M40.55,13.96s-.01,.06,0,.08c.01-.03,.02-.06,0-.08Z"/><path class="d" d="M41.31,13.87h-.05s.05,.03,.05,0Z"/><path class="d" d="M37.01,15.66l.15,.05c-.02-.11-.08-.05-.15-.05Z"/><path class="d" d="M35.99,12.28s-.04-.05-.07-.07c.01,.02,.02,.04,.02,.06h.05Z"/><path class="d" d="M34.94,16.07l-.03-.02-.1,.09,.14-.07Z"/><path class="d" d="M34.11,14.7s.26-.07,.38-.11c-.11,.03-.17,.03-.19,0-.05,.02-.11,.05-.19,.1Z"/><path class="d" d="M34.82,12.32l-.03-.04,.03,.04Z"/><path class="d" d="M36.08,16.29s0,.08,0,.1c0-.04,0-.07,0-.1Z"/><path class="d" d="M36.94,9.71h-.05s.05,0,.05,0Z"/><polygon class="d" points="35.33 10.87 35.32 10.85 35.17 10.82 35.33 10.87"/><path class="d" d="M42.52,13.34h0s0,.03,0,0Z"/><path class="d" d="M49.18,4.37c-.29,.02-.19-.34-.54-.27,.11,.03,.31,.36,.54,.27Z"/><path class="d" d="M35.95,12.3s0,.03,0,.05c.01-.02,.02-.04,0-.05Z"/><path class="d" d="M48.65,4.1h0Z"/><path class="d" d="M44.34,11.01s-.08-.04-.12-.05c.02,.02,.06,.03,.12,.05Z"/><path class="d" d="M42.67,12.41h.06s-.05,0-.06,0Z"/><path class="d" d="M44.63,9.91s.07,0,.06-.05h-.03s.03,.05-.03,.05Z"/><path class="d" d="M45.24,9.03l-.06-.02v.04l.06-.02Z"/><path class="d" d="M37.92,7.26c-.07-.04-.15-.08-.22-.13,.16,.12,.13,.26,.22,.13Z"/><path class="d" d="M35.84,12.25c.07,.02,.1,.04,.11,.06,0-.01,0-.03,0-.04-.04-.01-.08-.02-.1-.02Z"/><path class="d" d="M42.83,8.62l.13-.12s-.1,.07-.13,.12Z"/><path class="d" d="M43.73,3.06l-.02,.04s.02-.01,.02-.04Z"/><path class="d" d="M43.22,8.06c.1,.03,.17,.04,.22,.03-.01-.02-.02-.04-.05-.06l-.17,.03Z"/><path class="d" d="M37.7,7.12h0Z"/><path class="d" d="M37.74,8.23c.06-.1-.29-.23-.46-.36,0-.19,.27,.08,.46,.13-.04-.13-.28-.38-.22-.43,.05,.03,.08,.03,.13,.09-.18-.26,.17-.26-.03-.59,.03,.01,.06,.03,.08,.05-.16-.1-.3-.22-.4-.31,.04-.06-.09-.25,.1-.11-.03,.03,.04,.09,.08,.16l-.03-.12c.3,.18,.03,.15,.23,.32,0-.17-.11-.49,.04-.5,.26,.22-.08,.26,.23,.36l-.2,.03c.48,.27-.09,.04,.41,.34,.2-.08,.02-.28,.23-.35-.1-.17-.21-.19-.31-.35-.01-.46,.76,.46,.61-.02-.11-.21-.38-.54-.1-.48l.21,.33c.18-.11-.27-.5,.07-.44,.07,.14-.05,.2,0,.22,.3,.14-.06-.23,.02-.3l.23,.25c.14-.18,.19-.53,.36-.74,.05,.09,.08,.2,.19,.25,.16-.33,.59-.39,.97-.41l-.07-.31s.12,.08,.13,.14c.17,.02-.1-.15-.12-.28,.05-.06,.17,.08,.19,.18,.03-.33,.19-.8,.56-.67v.1c.22,0-.16-.61,.13-.47v.06c.39-.1,.61-.56,1.07-.31-.16-.39,.4-.01,.15-.54,.32,.16,.32,.28,.66,.33,.08,0-.06-.38,0-.48l.13,.28v-.35l.19,.31,.05-.11s-.12-.1-.15-.18c.08-.19,.39,.07,.45,.22l.21-.35c.03,.12,0,.18-.02,.27,.06-.35,.13,.3,.18-.02-.04-.06-.04-.18-.06-.24,.13,.15,.29,.11,.39,0l.03,.21c.22,0,.43-.2,.68-.23-.1-.09-.13-.45-.06-.5l.07,.32c.03-.21-.1-.11-.02-.37,.1,.03,.1,.36,.06,.47l.1-.12c.02,.1,0,.15,0,.27,.03-.21,.21,.31,.25-.04v.1c.24,0,.35-.12,.54-.12,.02-.28,.09-.21,.18-.43,.07,.05,.14,.14,.21,.21,.07,.08,.05,.12,.09,.12,.09-.12,.1-.22,.19-.38-.09,.24-.01,.24-.13,.4,.09-.02,.09-.03,.38-.15,.08-.09,.09-.13,.17-.2,.07-.02-.02,.11-.14,.21l-.03,.02c.25-.13,.18,.09-.02,.25-.19,.16-.36,.19-.07,.17h-.03c.1,0,.19,.03,.28,.07-.06,.05-.2-.03-.37,0,.22,.04,.18,.1,.13,.13-.05,.03-.09,0-.02,.19-.74-.19-.24,.56-.79,.52l.15,.09c.11,.15-.13,0-.19,.02,.12,.07,.17,.03,.23,.12-.14,.58-.91,.76-1.45,1.13-.19,.15,.61,.7,.09,.65l-.19-.28c-.01,.62-.68,.76-.72,1.37-.04-.07-.12-.13-.09-.17-.26-.06-.25,.3-.09,.42-.06,.05-.15-.09-.26-.11-.18,0,.09,.39-.13,.3-.04-.02-.05-.07-.05-.1,.05,.12-.21,.24,.06,.35-.21,.07-.1,.35-.31,.38,.2,.25-.3,.17,.05,.44-.37-.27-.48,.05-.36,.26-.09-.11-.17,0-.3-.14-.07,.11-.06,.25,.14,.36-.57-.12,.1,.62-.54,.33,0,.43-.07,.79-.19,1.11-.35-.29,.18-.31-.2-.58-.03,.34,.16,.73-.11,.88-.1,.02-.12-.16-.16-.23-.05,.35-.4,.38-.4,.74-.03-.03-.04-.08-.05-.13-.02,.05-.13,.04,.02,.18v-.08c.27,.15,.29,.59,.38,.71-.34-.49-.3,.08-.7-.56,0,.05,.04,.15,.14,.25-.06,0-.13-.04-.2-.19-.06,.2,.13,.32,0,.43-.06-.08-.06-.13-.13-.23,.07,.2,.13,.41-.04,.43-.03-.05-.09-.1-.06-.13-.17,.18,0,.67-.34,.69-.19-.39-.16-.06-.39-.35l-.05,.17,.15,.11c-.11,.07-.04,.36-.21,.32v-.18l-.17,.19,.19,.04c0,.23,.28,.38,.07,.4,0-.05-.11,.07-.29-.08h0c0,.13,.02,.28-.11,.25-.08-.09-.2-.36-.26-.42,.11,.3-.22,.23-.11,.56-.02-.08-.12-.25-.14-.28l.08,.25c-.09-.04-.12-.07-.19-.21-.18,.05,.29,.38,0,.31,0-.03-.02-.06,0-.11-.24,.02-.29,.35-.53,.34-.23-.3,.11-.16-.1-.41-.22,.2-.32,.68-.62,.73h.07c.2,.51-.3-.13-.33,.16,.02-.05-.08-.29-.07-.23-.11,0-.18,.07-.25,.18-.05,.09-.11,.23-.2,.36v-.14c-.14-.08-.21,.01-.29-.02,0,.15-.06,.15-.02,.35-.14-.38-.2-.23-.36-.06-.14,.16-.39,.35-.3-.07,.03,0,.13-.13,.11-.14-.08,.04-.16,.09-.24,.1-.16,.27-.08,.17-.17,.41-.12,.15-.27,.23-.33,.19,.23-.11,.28-.42,.36-.58-.05,.08-.13,.16-.19,.24,.28-.53-.41,.48-.29,.03l.12-.11c-.1,.01-.26,.09-.26-.02,.25-.26,.15-.04,.36-.23-.04-.05-.57,.22-.31-.08,.08,0,.09,.05,.18,.03,.29-.33,.22-.27,.26-.36h0c.04-.06,.08-.13,.13-.19l-.09,.08c-.36,.16-.39,.09-.4,.03,0-.07,.02-.14-.21-.17,.43,.04,.26-.05,.57-.12,.09-.06,.19-.12,.28-.13-.25,0,.2-.09-.16-.12,.1,0,.02-.06,.26-.05-.07-.06-.17,.02-.3,.02-.16-.06-.05-.15,.05-.21,.1-.1,.19-.21-.01-.38-.15-.26-.46-.36-.58-.61,.17-.04,.34,.13,.34,.13,.16-.09,.16-.18,.07-.31,.08,.04,.15,.03,.27,.02,0-.09-.33-.13-.17-.22,.1,.04,.27,.1,.36,.17-.07-.12-.22-.26-.28-.39,.17,0,.24,.12,.34,.18-.05-.14-.08-.35-.34-.44l-.11,.06s.23,.02,.27,.07c.18,.15-.12,.13-.22,.12l-.04-.09c-.58-.04,.02,.33-.04,.47l-.39-.15,.3,.23c-.11,.01-.35-.01-.39-.1-.22,.07,.12,.13-.12,.18-.04,0-.06,0-.07-.02l.1,.13c-.08-.04-.29-.04-.22-.1-.27,.15,.24,.38-.08,.39l-.02-.02c.09,.3,.3,.08,.61,.35l-.77,.02,.3,.07s-.05,.08-.17,.05c.19,.15,.13,0,.32,.09-.29,.12,.08,.38-.41,.44,.23,.03,.2-.15,.34-.01-.53,.1,.08,.17-.17,.34-.27,.03-.12-.16-.36,.05,.44-.03-.1,.34,0,.46,.34-.15,.16,.21,.33,.34-.12,.06-.06,.5,0,.75l-.05,.04c.28-.25,.34-.02,.52-.03-.13,.18-.2,.24-.33,.27l.13,.08c.1-.08,.17-.1,.27-.1l-.17,.22c.21,.05,.52-.16,.7,0,.08-.26,.07-.66,.34-.93-.05,.18-.11,.43-.18,.48,.03-.02,.1-.12,.12-.07l-.16,.24c.08,.1,.11-.2,.18-.18-.05,.2,.03,.14-.02,.3-.03,.02-.05-.08-.11,0,.09,.04,.18,.14,.2,.28,0-.11,.05-.27,.12-.32,.19-.06,.04,.23,.15,.31,.06-.15,.19-.04,.19-.34,.06-.01,.07,.13,.1,.21,.1-.18,.49-.23,.31-.5h-.03v-.03h.01c.2-.4,.64-.1,.84-.33l.04,.09c.1-.17,.29-.21,.3-.45,.04-.02,.18,.11,.21,.23,.08-.12,.04-.23,.27-.16-.03,.21,.11,.12-.05,.17,.18,0,.29,.13,.31-.19,.07,.25,.26,.22,.29,.12l-.18-.11c.06-.07,.13-.09,.21-.11l.12,.31c.49,.19,.17-.89,.73-.44-.05-.24-.24-.05-.31-.32,.15-.04,.54,.29,.58,.26,.28,.04-.1-.51,.15-.53-.09-.08-.28-.33-.22-.51,.15-.05,.43,.31,.41,.44-.02,.03-.06,0-.08-.03-.02,.06-.04,.14,.08,.21l-.05-.11c.13,.06,.3-.07,.37,.12,.03-.16-.07-.19-.18-.19,.26,.03,.25-.18,.49-.2-.07-.03-.17-.13-.15-.15,.33-.06-.03-.26,.09-.42,.2,.07,.23,.37,.3,.12,.17,.02,.22,.23,.24,.34,0-.3,.37-.11,.49-.15l-.02,.14c.01-.08,.05-.11,.09-.15l-.2-.14c.07,0,.11-.04,.17,.04-.06-.16-.29-.27-.34-.51,.14,.04,.09-.25,.32-.03-.26,.08,.23,.22,.11,.39,0-.06,.04-.09,.12-.1,.03,.02,.04,.05,.04,.08,.37,.05-.16-.34,.02-.5,.1,.15,.27,.2,.28,.15-.08,.07-.24-.18-.27-.34,.21-.01,.05-.19,.11-.24l-.11,.02c-.1-.15-.03-.19,0-.3,.11,.09,0,.14,.07,.15-.14-.3,.42,.03,.38-.24,.14,.02,.25,.22,.36,.22-.05-.29,.32,0,.31-.28-.22-.11-.18-.06-.27-.32l-.08,.36-.13-.38c-.06,.07-.02,.25-.09,.27-.08-.2-.05-.15-.22-.25,.36,.13,0-.33,.29-.29l.46,.38c.35-.02,.02-.51,.31-.65h-.14c-.16-.16,.08-.15,.06-.28,.15,.12,.25,.12,.37,.16-.12-.08,.14-.17-.17-.42l.29,.05c.22-.13-.31-.54-.13-.68,.14,.18,.31,.17,.35,.38,.04-.06,.11-.09,0-.17,.13,.03-.1-.32,.09-.27-.05-.07-.22-.2-.16-.26,.04,.02,.08,.06,.08,.06-.08-.06-.04-.18-.26-.25,.63,.16,.32-.54,.86-.4,.03-.17,.09-.35,.16-.48,.04,.04,.08,.06,.05,.07,.26-.05-.39-.43-.09-.49,.32,.1,.07,.2,.21,.21,.54,.36,.09-.26,.48-.15v.05c.25,.05-.02-.36,.13-.48,0,0,.04,.04,.07,.06-.18-.31-.1-.56-.05-.76,.16,.21,.05,.15,.27,.29,.02-.09-.33-.25-.28-.42,.14,.05,.31,.04,.53,.21l-.09,.12c.32,.17,.12-.16,.22-.18l.11,.11c.12-.21-.18-.47,.01-.65l-.11-.06c-.2-.36,.24,.05,.12-.24l.33,.22c-.01-.13-.08-.5-.03-.67,.17,.26,.15,.51,.21,.71,.06-.07,.18-.26,.07-.43,0,.05,.05,.15-.02,.14-.16-.29-.19-.5-.07-.64,.58,.5,.45-.27,1.01-.04-.03-.45,.5-.53,.67-.96-.6-.13,.04-.12-.52-.37,0-.1,.03-.13,.07-.12,.15-.04,.29-.07,.47-.17,.21-.04,.07,.18,.21,.22,.17-.31,.31-.05,.54-.24-.22-.01-.27-.19-.14-.37-.12,.08-.23,.14-.35,.2-.22-.46,.65-.32,.39-.81l.17,.14c-.04-.12,0-.35-.03-.57-.06-.2-.16-.39-.4-.4,.07-.06,.23-.17,.28-.09,.01-.27-.22-.5-.47-.65-.25-.14-.51-.18-.56-.4l.14-.09c-.11-.03-.34,.14-.35-.03,.05-.05,.14-.1,.1-.13-.09,.02-.4,.1-.48,0l.2-.11c-.44-.36-1,.12-1.34,.17,.07-.44-.22-.62-.37-.7V.01c-.46-.09-.79,.34-1.16,.53-.29-.46-.86-.1-1.3-.27,.08,.06,.07,.34,.01,.39-.11-.06-.16,.36-.26-.03h.03c-.17-.37-.33-.21-.48-.17l.14,.51c-.63-.61-.81,.61-1.26,.06-.03,.16-.13,.2-.15,.36l-.12-.26c-.26,.05-.39,.08-.63,.28l-.04-.21c-.16,.07,.21,.82,.09,.91l-.25-.34c-.25,.15-.71,0-.74,.48-.03-.05-.09-.16-.06-.2-.12,.07-.6,.06-.24,.51-.22-.31-.27,.14-.3,.36l-.14-.24c.1,.37,.15,.45,.06,.63-.06,0-.16-.16-.07-.13-.2-.04,.06,.28-.16,.26l-.05-.18c-.13,.07-.06,.14,0,.35,0,.14-.26,.1-.43-.09,.08,.14,.13,.35,.02,.34-.07-.07-.08-.14-.08-.17-.31,0-.09,.47-.39,.35-.06-.07-.09-.1-.12-.12,.16-.11,.29-.19,.29-.17-.15-.21-.31-.15-.42-.51,.01,.23,.09,.7-.1,.69-.02-.02-.04-.03-.07-.06v-.03s-.06,.04-.06,.09c-.07,0-.11,0-.15,.02-.14-.16-.22,.02-.29,.07,.18,.22,.07,.25,.29,.37-.02,0,0-.04,.03-.08,0-.01,.01-.03,0-.04v.02s.1-.09,.16-.14c.04,.15,.06,.29-.1,.22,.08,.17,.16,.34,.2,.42-.33-.24-.63-.27-.8-.44-.09,.28-.39,.47-.14,.96,0,.1-.16-.06-.24-.1,0-.07,.04-.09,0-.16-.01,.19-.27,.33-.03,.62-.24,.01-.17-.31-.3-.09l-.06-.1c-.39-.03-.36,.3-.32,.59,.03,.3,.07,.57-.4,.58,.06,0,.09,0,.14,.02-.31,.16-.42,.5-.51,.81-.09,.32-.17,.61-.52,.83-.15,.14,.07,.22,.21,.37l-.3-.04,.29,.26c.19,.29-.82,.26-.41,.67h.21c-.06,.1,.06,.36-.17,.31,.03,.02,.2,.07,.09,.1l-.16-.02,.22,.31c-.15,.19-.62-.13-.69,.17,.04,.12,.41,.38,.52,.36,.01-.04,.11-.1,.27-.08l.07,.11c.46,.09,.92,.23,1.28,.04l-.26-.21,.23-.02v.14c.21-.05,.04-.13-.08-.2,.12,0,.21,0,.26-.03l-.41-.23c.18,.01,.34,.13,.46,.04-.19-.11-.42,0-.53-.14,.22-.04,.39,0,.23-.11,.12,0,.19,.04,.24,.09-.13-.11-.02-.22-.26-.31,.27-.03-.01-.28,.42-.18-.1-.05-.31-.21-.31-.29,.48,.25,.09-.26,.63-.08-.43-.21-.12-.37-.31-.61,.03,.02,.1,.06,.07,.07,.07-.07,.21-.05,.31-.07-.37-.15-.4-.31-.59-.48,.39,.04,.4,.24,.75,.35-.3-.12-.22-.29-.48-.37,.25,.02,.13-.02,.44,.08-.43-.23-.04-.1-.28-.3,.27,0,.42,.19,.35,.01,.16,.03,.26,.2,.26,.2Zm1.68-2.92h0l-.05,.06,.05-.06Zm.25-.19s-.08,.04-.12,.07c-.07-.07-.12-.16-.09-.17,.03,.06,.12,.06,.2,.1Zm-1.73-1.13c.02-.06,.07-.03,.11,0-.02,.02-.03,.05-.05,.08l.02,.03s-.06-.09-.07-.12Z"/><path class="d" d="M38.1,4.34s0,.02,0,.03l.06,.03-.04-.08-.02,.02Z"/><path class="d" d="M36.95,15.63h0s-.02-.01-.02-.03l.02,.03Z"/><polygon class="d" points="43.49 3.32 43.46 3.25 43.47 3.32 43.49 3.32"/><path class="d" d="M35.64,14.77s.04-.06,.05-.09c-.01,.02-.03,.05-.05,.09Z"/><path class="d" d="M35.5,14.28l.09-.13c-.05,.06-.08,.1-.09,.13Z"/><path class="d" d="M35.63,13.87l-.12,.03h0l.13-.03Z"/><path class="d" d="M41.3,11.12s0-.01,0-.02c0-.07-.01-.03,0,.02Z"/><path class="d" d="M39.67,13.26c0-.06,0-.12,0-.16-.05,0-.09,.02,0,.16Z"/><polygon class="d" points="42.81 8.63 42.82 8.64 42.83 8.62 42.81 8.63"/><path class="d" d="M39.78,13.04c-.07-.02-.1,.01-.11,.07,.04,0,.1,0,.11-.07Z"/><path class="d" d="M36.13,11.77l.02-.03s-.03,0-.04-.01l.03,.04Z"/><path class="d" d="M36.1,11.73l-.03-.04s0,.03,.03,.04Z"/><path class="d" d="M36.02,11.61l.06,.08s.02-.05-.06-.08Z"/><path class="d" d="M35.84,12.5l.1,.03s-.05-.02-.1-.03Z"/><path class="d" d="M35.82,12.73s.24-.09,.19-.18l-.08-.02c.14,.07-.27,.12-.11,.2Z"/><path class="d" d="M34.42,13.55l.11-.24c-.11,.03-.26,.08-.28-.04-.36,.31,.25-.04,.17,.28Z"/><path class="d" d="M34.22,14.38c-.06-.13-.16,.05-.22,.07,.11,.06,.13,.07,.22-.07Z"/><path class="d" d="M38.41,15.21l.1,.23c.06-.07-.04-.09-.1-.23Z"/><polygon class="d" points="38.54 13.64 38.39 13.54 38.48 13.76 38.54 13.64"/><polygon class="d" points="39.89 14.97 39.87 15.02 39.95 14.87 39.89 14.97"/><path class="d" d="M45.34,9.32l-.27-.16c.02,.08,.3,.29,.27,.16Z"/><path class="d" d="M47.03,6.69c.14,.08,.28,.07,.2-.07-.06,.04-.21,.02-.2,.07Z"/><polygon class="d" points="43.35 .66 43.39 .53 43.28 .66 43.35 .66"/></g></g></g></g></g></svg>