<?xml version="1.0" encoding="UTF-8"?><svg xmlns="http://www.w3.org/2000/svg" viewBox="0 0 55.05 62.43"><defs><style>.d{fill:#ed2056;}.e{fill:#9ac97e;}.f{fill:#ea003d;}.g{fill:#80b76c;}.h{fill:#2b2b2b;}.i{fill:#90c07e;}.j{fill:#80b76b;}</style></defs><g id="a"/><g id="b"><g id="c"><g><g><path class="f" d="M8.27,34.03c-1.79,4.37-1.57,9.68,1.18,13.52,2.64,3.68,7.08,5.52,11.29,7.19l9.14,3.63c4.47,1.77,9.38,3.57,13.98,2.14,3.53-1.1,6.29-4.02,7.83-7.39s1.95-7.13,1.91-10.83c-.12-11.32-4.49-22.54-12.07-30.96-1.48-1.64-3.23-3.26-5.42-3.57-3.06-.43-5.8,1.78-8.09,3.85h0c-4.11,3.71-7.3,7.7-10.85,11.88-3.11,3.65-6.99,5.85-8.9,10.53Z"/><g><path class="d" d="M7.65,33.78c.05,.11,.24,.14,.3-.09l-.24-.28-.07,.37Z"/><path class="d" d="M8.87,32.65c-.02-.31-.1-.72-.46-.72,.14,.39,0,.39,.2,.82-.07,.22-.28,.3-.37,.22,.04,.11-.21,.3-.08,.5,.35-.17,.52-.49,.52-.93,.1-.04,.14,.07,.19,.12Z"/><path class="d" d="M23.68,16.65l-.12,.08s.08-.04,.12-.08Z"/><path class="d" d="M33.92,8.56c-.09,.03-.12,.08-.11,.11,.08-.04,.14-.08,.11-.11Z"/><path class="d" d="M35.91,8.77l-.11-.03s.08,.05,.11,.03Z"/><path class="d" d="M23.68,16.65l.32-.2c-.06-.09-.18,.08-.32,.2Z"/><path class="d" d="M9.95,29.65c-.04,.07-.06,.14-.06,.21,.03-.06,.06-.12,.09-.17l-.03-.04Z"/><path class="d" d="M19.98,21.31l-.07,.08s.02,.1,.04,.16l.03-.24Z"/><path class="d" d="M17.02,24.85c.08-.07-.1-.29-.16-.4,.04,.12,.03,.22-.02,.3,.04,.04,.09,.07,.18,.1Z"/><path class="d" d="M11.5,29.61l-.06,.12,.06-.12Z"/><path class="d" d="M22.15,18.87s.07,.03,.1,.03c-.03-.02-.06-.03-.1-.03Z"/><path class="d" d="M5.82,39.13s.03,0,.05,0c-.03-.03-.05-.04-.05,0Z"/><path class="d" d="M8.34,34.06v.07s.08,.05,.13,.07l-.13-.15Z"/><path class="d" d="M38.89,10.65v-.02c-.11-.04-.06,0,0,.02Z"/><path class="d" d="M52.4,44.63c.27-.42,.29,.71,.6,.08-.11,.05-.41-.61-.6-.08Z"/><path class="d" d="M10.06,29.58c.04-.05,.08-.1,.12-.15-.06,.06-.1,.11-.12,.15Z"/><path class="d" d="M53,44.71h0l.03-.07-.03,.07Z"/><path class="d" d="M44.94,17.77s.04-.1,.05-.15c-.02,.02-.04,.06-.05,.15Z"/><path class="d" d="M40.95,11.89l.09,.16c-.03-.07-.06-.12-.09-.16Z"/><path class="d" d="M47.16,20.73c.03,.1,0,.14,.1,.24,0-.02,.01-.03,.01-.05-.06-.02-.1-.07-.11-.19Z"/><path class="d" d="M48.86,24.19s.02-.06,.02-.09l-.06-.11,.04,.19Z"/><path class="d" d="M10.76,50.7c-.02-.12,0-.22,.02-.32-.08,.19-.6-.17-.02,.32Z"/><path class="d" d="M10.08,29.75c-.04-.06-.04-.11-.01-.17l-.08,.11s.05,.06,.09,.06Z"/><path class="d" d="M49.19,19.82l.26,.59c-.06-.17-.15-.38-.26-.59Z"/><path class="d" d="M37.1,61.86h-.15c.06,.02,.11,.02,.15,0Z"/><path class="d" d="M50.33,22.09c-.04,.15-.04,.28-.02,.41,.03,.01,.06,.03,.1,.04l-.07-.45Z"/><path class="d" d="M10.78,50.38h0Z"/><path class="d" d="M7.42,47.32c.32,.59,.47,.09,.72,.1,.51,.59-.03,.45-.04,.78,.36,.36,.87,.43,1.07,.73-.03,.06,0,.13-.11,.11,.55,.2,1.03,1.12,1.72,1.23,.01,.05,0,.09,0,.12,.05-.2,.17-.35,.27-.44,.21,.18,.53,.16,.45,.41-.12-.11-.2-.05-.3-.04,.1,.04,.19,.08,.29,.11-.02,.44-.38-.16-.54,.03,.51,.3,1.2,.47,1.49,.79-.13,.34-.88-.51-.6,.08l-.45-.52c.07,.74-.3-.29-.29,.46,.66,.65,.91,.49,1.61,1.07,.27-.05,.1-.27,.37-.32,1.23,.37,.41,1.26,1.44,1.32,.32-.08,.6-.43,1.07,.07l-.37,.24c.75,.42,.68-.28,1.36,.33-.21,.08-.65-.17-.56-.07,.39,.52,.46-.02,.86,.16l-.06,.35c.84,.32,1.84,.47,2.77,.78-.09,.07-.28,.11-.11,.29,1.21,.3,2.41,1,3.43,1.63l.53-.11c.1,.04,.13,.19,0,.21,.39,.27,.09-.16,.34-.19,.25,.08,.26,.28,.07,.3,.85,.07,2.34,.35,3.02,.96l-.19,.02c.57,.36,.92-.28,1.39,.2h-.13c1.29,.65,2.87,1,3.77,1.8,.34-.32,1.31,.67,1.59,.14,.71,.54,.44,.57,1.55,1.1,.31,.11,.56-.23,.96-.19l-.06,.3,.6-.19,.2,.42h.39c-.15-.05-.29-.2-.25-.28,.6-.02,1.38,.46,1.38,.61,.48-.01,.97-.07,1.44-.12-.04,.13-.28,.15-.47,.21,.78-.25,.12,.34,.84,.08-.09-.07,.06-.18,.07-.24,.34,.2,1.16,.19,1.75,.05l-.1,.22c1.11-.04,2.29-.44,3.45-.89-.46,.06-.47-.32-.16-.48l.25,.25c.13-.27-.38,.03-.05-.38,.42-.14,.43,.22,.23,.42,.16-.11,.32-.21,.46-.33,.07,.07-.02,.18,0,.31,.12-.28,1.03-.15,1.14-.64l.08,.07c1.06-.65,1.43-1.11,2.16-1.77-.18-.22,.16-.43,.19-.8,.56-.43,1.25-.89,1.74-1.61,.24-.57-.09-.28-.07-.59,.23,.11,.68-.62,.6-.15,.5-.9,.66-1.15,1.01-2.41-.15,.09-.26,.2-.3,.1,.06-.22,.31-.43,.41-.36v.07c.11-.73,.57-1.42,.95-2.14,.38-.71,.71-1.43,.56-2.04v.07c0-.4-.02-.8-.05-1.2,.12-.52,.14,.35,.36-.02-.24-1.31,.3-1.98,.08-3.03,.82-.77,.02-2.82,.44-3.89l-.18,.07c-.18-.27,.09-.34,.12-.55-.14,.04-.15,.31-.25,.14-.33-2.32-.15-4.83-.46-7.24-.14-.88-1.01-.3-.83-1.46l.39,.23c-.77-1.64-.9-3.52-1.78-5.06,.11,.07,.2,.04,.26,.2,.1-.42-.45-1.28-.64-1.21-.07-.26,.14-.12,.18-.31,.01-.4-.61-.75-.47-1.02,.02-.05,.11,.07,.15,.12-.2-.18-.4-1.04-.57-.72-.12-.66-.6-1.09-.67-1.63-.42-.17-.34-1.07-.78-.98,.44-.16-.2-1.18-.58-1.44,.18,.06-.04-.38,.2-.33-.22-.42-.51-.75-.67-.56,.03-1.02-1.23-1.28-.91-2.04-.47-.53-.92-1.03-1.36-1.53-.45-.48-.87-.96-1.27-1.43,.39-.23,.83,1.1,1.19,.78-.83-.88-1.56-1.18-2.2-2.16-.14-.28,.26,.01,.38,.05-.86-.83-1.44-1.79-2.32-2.42,.03-.03,.14,.03,.24,.08-.15-.15-.28-.41-.42-.25l.18,.11c0,.44-1.02-.18-1.16-.09,.68-.17-.65-.83,.27-.98-.13-.07-.33-.12-.4,0-.13-.17-.13-.28,.14-.25-.67-.43-.59-.09-1.14-.53,.06-.08,.2-.02,.33-.07-.41-.07-.8-.13-1.28-.51,.06-.03,.04-.14,.2-.04-.95-.52-1.8-.37-2.89-.71,.4-.4-.38-.18-.43-.55-.22,.03-.45,.07-.66,.11l.27,.18c-.57,0-1.01,.35-1.48,.33l.37-.23c-.34,.08-.66,.2-.98,.32l.59-.02c-.46,.33,.17,.44-.51,.53,.12-.08-.48,.16-.81,.08h0c-.19,.21-.36,.43-.73,.53-.15-.06-.13-.4-.22-.44-.08,.39-1.01,.7-1.07,1.17,.04-.12-.07-.29-.12-.3l-.02,.33c-.24,.07-.29,.06-.35-.09-.59,.39,.46,.24-.33,.59,.04-.06,0-.07,.08-.18-.74,.43-1.15,1.15-1.8,1.56-.42-.13,.44-.51,.03-.58-.78,.79-1.38,1.87-2.19,2.55l.17-.11c.27,.48-.75,.37-.95,.93,.06-.12-.09-.33-.07-.26-.57,.46-.94,1.16-1.56,2.08v-.19c-.39,.23-.82,.78-1.17,1.09,.01,.19-.18,.37,.07,.39-1.53,.55-1.46,2.31-2.77,2.85,.1-.12,.14-.35,.06-.26l-.6,.9c.23,.08,.2-.02,.48-.07,.02,.19-.1,.49-.27,.69,.19-.47-.29-.24-.52-.16,.08,.02,.09,.12,.16,.16-.67,.16,.29,.37-.41,.78l-.07-.11c-.14,.26-.18,.56-.41,.78-.29-.08,.1-.31-.05-.47-.27,.34-.16,.98-.62,1.1,.06-.19,.23-.39,.29-.58-.51,.12-.49,.21-.73,.42l.03-.02-.58,.44,.18-.08c.17,.87-.63,.89-.81,1.71,.19-.8-.1-.26-.27-.51-.19,.07-.45,.2-.46,.08-.07,.41-.54,.26-.63,.85-.08-.06-.27,.24-.39,.01-.27,.36,.19,.05,.25,.17-.27,.71-1.46,.81-1.87,1.84-.49,.74-.37,1.09-.79,1.78-.3,.09-.11-.4-.11-.4-.4,.22-.61,.49-.79,.88-.01-.12-.12-.1-.29-.07-.2,.27,.13,.4-.25,.65-.04-.13-.12-.31-.1-.51-.18,.37-.28,.79-.44,1.18-.2,0-.07-.35-.07-.54-.22,.43-.56,1.09-.4,1.36l.24-.2c-.08,.15-.24-.05-.22-.18,.04-.45,.4-.42,.49-.38l-.11,.27c.63,.08,.59-1,1-1.43l.17,.45c.03-.23,.07-.45,.11-.67,.16-.03,.39,.06,.26,.32,.42-.17,.12-.38,.53-.48,.05,0,.06,.02,.04,.06l.18-.38c.01,.12,.26,.15,.05,.29,.65-.35,.57-1.04,.99-1.01l-.02,.06c.61-.79-.15-.29,.14-1.06l.88,.2-.14-.29c.08-.06,.25-.19,.3-.07,.14-.41-.14-.05-.11-.35,.55-.14,.9-1.03,1.32-.76-.03-.29-.47,.2-.2-.28,.47,.27,.38-.49,.87-.64,.09,.29-.32,.5,.18,.34-.13-.51,.7-.56,.9-.91-.25-.25,.46-.73,.79-1.3,.07,.11,.93-.79,1.42-1.16l.04,.05c-.21-.32,.24-.75,.47-1.14,.16,.16,.17,.27,.09,.52l.27-.32c-.03-.15,.01-.29,.16-.53l.14,.26c.35-.44,.48-1.07,1.09-1.5-.17-.2-.91-.03-.55-.72,.12,.07,.32,.2,.23,.39,.03-.06,.06-.25,.19-.31l-.02,.38c.29-.18-.04-.26,.15-.44,.15,.13,.23-.05,.33,.08-.03,.06-.21,.12-.22,.25,.22-.2,.54-.39,.73-.38-.1-.05-.2-.17-.08-.35,.36-.43,.3,.01,.6-.17-.01-.19,.33-.36,.11-.57,.11-.12,.23-.05,.33-.05,.09-.3,.87-1.03,.42-.99l-.07,.04,.02-.04h0c.42-.9,1.46-1.33,2.01-2.09l.07,.07c.31-.48,.83-.93,.97-1.36,.12-.12,.41-.14,.44,0,.26-.35,.21-.46,.78-.77-.2,.42,.21,0-.23,.39,.46-.32,.66-.28,.91-.88,.02,.32,.52-.04,.67-.27l-.41,.12c.2-.23,.4-.38,.61-.53l.11,.34c1.08-.41,1.12-1.82,2.2-1.71,.11-.35-.58,.18-.52-.18,.45-.25,1.14-.1,1.26-.17,.65-.13,.32-.73,1.02-.86-.12-.08-.33-.35,.16-.63,.51-.11,.71,.33,.45,.49-.1,.04-.17,.02-.17-.02-.14,.08-.31,.19-.09,.26l.02-.13c.26,.03,.86-.09,.75,.13,.3-.17,.11-.22-.15-.23,.59,.07,.9-.13,1.47,.04-.08-.07-.16-.22-.07-.21,.84,.26,.42-.18,1.04-.09,.28,.29-.25,.36,.38,.43,.3,.25-.06,.32-.21,.36,.58-.02,.82,.56,1.04,.76l-.29-.07c.17,.04,.28,.11,.4,.19v-.29c.12,.13,.23,.21,.17,.29,.24-.02,.12-.41,.54-.36,.12,.23,.66,.37,.52,.66-.51-.57-.14,.29-.66-.07,.12,.05,.23,.14,.34,.29,0,.04-.06,.03-.11,.01,.34,.68,.48-.06,1.03,.48-.19,.06-.11,.36,0,.43-.21-.22,.11-.32,.41-.2,.24,.46,.45,.33,.62,.54l-.16-.27c.2-.04,.36,.16,.63,.4-.08,.11-.28-.18-.25-.05,.49,.1,.34,.89,.86,1.18,.07,.27-.24,.23-.16,.45,.57,.33,.22,.67,.77,1.06,.07-.29,0-.28,.47-.07l-.79-.74,.7,.33c-.2-.26-.54-.45-.63-.62,.35,.14,.29,.15,.34-.1,0,.57,.71,.57,.84,1.12l-.48,.34c.26,.76,1.04,.92,1.51,1.82l-.1-.32c.27-.03,.39,.49,.63,.71-.18,.08-.13,.29-.16,.48,.11-.09,.38,.62,.77,.49l.02,.51c.31,.75,.95,.51,1.28,1.22-.3-.1-.25,.28-.64-.1,.13,.22,.21,.44,.34,.38-.03,.19,.58,.5,.53,.8,.13,.06,.33,0,.45,.26-.02,.05-.09,.04-.09,.04,.09-.04,.33,.35,.41,.02-.15,.98,1.02,2.01,.84,2.86,.28,.5,.6,1.1,.81,1.58-.07,0-.09,.03-.11-.06,.1,.72,.69,.2,.78,1.04-.16,.5-.31-.35-.33-.06-.57,.33,.42,.89,.24,1.52l-.08-.11c-.08,.46,.54,.89,.7,1.55,0,0-.07-.01-.1,.02,.47,.34,.78,1.18,1.05,1.79-.3-.13-.21-.25-.43-.07,.11,.27,.38-.19,.6,.36-.08,.22-.12,.66-.37,.78l-.14-.53c-.28,.36,.17,.69,.17,.99h-.16c.22,.81,.64,.74,.76,1.64l.1-.11c.47,.42-.14,.45,.23,.89l-.36,.21c.16,.3,.55,1.08,.69,1.66-.34-.3-.56-.96-.8-1.35,.06,.32,.17,1.08,.39,1.23-.05-.13-.17-.28-.13-.41,.36,.35,.58,.86,.65,1.51-.77-.04-.05,1.71-.62,2.21,.32,1.12-.02,2.26-.03,3.56,.61-.45,0,.38,.62,.33,.03,.31,0,.43-.03,.46l-.43,.91c-.19,.2-.11-.3-.25-.28-.1,.66-.28,.26-.48,.67,.22-.07,.29,.26,.16,.62l.34-.5c.22,.96-.59,.73-.42,1.69l-.14-.32c.05,.49-.32,1.69,.03,2.26-.09,.06-.28,.13-.27-.08-.34,1.05-.26,2.56-.93,3.23l-.1-.14c-.05,.2,.1,.45-.16,.61-.05-.04-.09-.14-.15-.06,0,.12-.03,.61-.25,.8l-.03-.29c-.71,.81-.54,1.61-1.06,2.4-.34-.28-1,.25-1.34,.48l-.03-.05c-.91,.78-1.33,1.62-2.28,2.32-.43-.05-.97,.17-1.59,.33-.61,.17-1.3,.33-1.86,.26,.18,.06,.02,.34-.18,.41-.27-.05-.73,.37-.71-.04h.1c-.22-.38-.75-.25-1.18-.29l-.09,.53c-.56-.41-1.29-.42-2-.46-.7-.04-1.35-.11-1.58-.52-.31,.05-.65-.03-.96,.01l.09-.27c-.74-.3-1.1-.44-2.06-.71l.26-.12c-.52-.2-.94,.53-1.44,.36v-.45c-.93-.34-1.72-1.06-2.79-1.07,.04-.05,.11-.15,.27-.11-.43-.18-1.59-.94-1.65-.34,.13-.36-.95-.42-1.51-.46l.18-.23c-.56,.16-.61,.25-1.23,.1-.13-.09-.04-.26,.12-.12-.41-.32-.46,.1-.98-.26l.28-.08c-.47-.21-.47-.11-.81-.02-.34-.02-.89-.43-.87-.69-.12,.12-.46,.2-.72,.02,0-.1,.12-.12,.18-.12-.74-.5-1.32-.17-1.77-.65,.02-.09,0-.15-.03-.19,.63,.26,1.15,.48,1.09,.48,.09-.24-.41-.49,.14-.65-.49,.01-1.35,.13-1.8-.19-.01-.03-.03-.07-.03-.11h.06c-.11-.08-.22-.1-.33-.09-.14-.1-.23-.17-.38-.24,.02-.22-.54-.35-.78-.46-.09,.27-.4,.08-.18,.43-.03-.04,.06-.01,.23,.05,.04,0,.09,.02,.12,.02l-.03,.02,.64,.25c-.25,.05-.51,.07-.73-.19-.2,.11-.42,.22-.53,.27-.19-.51-.76-1-.75-1.26-.82-.2-1.77-.75-2.48-.55-.24-.05-.16-.26-.19-.38,.14,.02,.28,.11,.38,.08-.48-.11-1.2-.66-1.5-.42-.4-.46,.46-.1-.24-.5l.15-.03c-.47-.7-1.1-.87-1.73-1.16-.63-.27-1.28-.66-1.52-1.58,.04,.12,.06,.18,.02,.24-.5-.87-1.08-1.68-1.55-2.59-.46-.9-.78-1.91-.7-2.91,.01-.56-.23-.58-.44-.9l.29-.15c-.14-.18-.27-.36-.39-.55-.31-.85,.71-1.42,.33-2.48l-.22,.11c.08-.37,.05-1.21,.28-1.11-.03-.04-.18-.16-.05-.29l.16,.02c-.04-.32-.04-.64-.05-.97,.3-.67,.57,.27,.89-.7,.06-.37-.05-1.18-.2-1.09-.06,.15-.23,.34-.39,.3l.05-.37c-.41-.23-.74-.71-1.39,.09,0,.24,.03,.49,.05,.73l-.28,.14,.16-.55c-.3,.24-.18,.5-.12,.75-.13,.02-.24,.09-.32,.21l.27,.75c-.2,.04-.28-.37-.49,.04,.14,.35,.45-.2,.49,.32-.27,.27-.42,.15-.31,.55-.13,.03-.19-.06-.21-.22,.07,.36-.07,.9,.15,1.1-.31,.31-.02,1.13-.46,1.07,.1,.11,.33,.61,.35,.91-.54-.56,0,1.16-.56,1.05,.51,.39,.37,1.52,.81,2.2-.05-.03-.14-.1-.13-.17,.06,.42-.05,.58-.07,.87,.4-.05,.66,.56,1.01,.8-.17,.61-.54-.14-.83,.13,.29-.12,.62,.75,.81,.48-.08,.46,.03,.36-.18,.68,.48-.14,.23,.31,.65,.47,.07,.62-.33,.35,.11,.84,.02,.35-.41-.07-.41-.07Zm12.19,7.78h0l-.27-.09,.28,.09Zm1.09,.43c-.13-.06-.29-.13-.47-.2,0-.11,.08-.18,.18-.13-.08,.04,.15,.19,.28,.33Zm-1.54-2.73c.18,.03,.22,.11,.22,.17-.08-.03-.18-.06-.31-.09l-.03,.02s.07-.08,.12-.1Z"/><path class="d" d="M18.71,53.01s-.04,0-.08-.01c.02,.04,.05,.07,.08,.1l.09-.06-.09-.03Z"/><path class="d" d="M23.53,16.74h.02s-.04,0-.06,0c.02,0,.03,0,.04,0Z"/><polygon class="d" points="35.73 61.71 35.75 61.64 35.63 61.68 35.73 61.71"/><path class="d" d="M18.61,20.96s-.06,0-.11,.02c.02,0,.06,0,.11-.02Z"/><path class="d" d="M16.77,23.04l-.33,.22c.15-.09,.25-.16,.33-.22Z"/><path class="d" d="M15.26,24.47c.02,.05,.04,.08,.06,.11h0l-.06-.11Z"/><path class="d" d="M42.24,10.52s.04,.04,.07,.05c.17,.11,.07,.02-.07-.05Z"/><path class="d" d="M32.44,7.96c.08-.09,.16-.19,.26-.26-.19,.05-.32,.11-.26,.26Z"/><polygon class="d" points="49.16 19.76 49.16 19.76 49.19 19.82 49.16 19.76"/><path class="d" d="M33.18,7.53c-.2,.01-.35,.08-.47,.17,.15-.04,.34-.08,.47-.17Z"/><path class="d" d="M8.75,31.24l-.07,.09s.03,.02,.03,.04l.04-.12Z"/><path class="d" d="M8.71,31.37l-.04,.12s.05-.09,.04-.12Z"/><path class="d" d="M8.6,31.74l.07-.25c-.05,.07-.11,.16-.07,.25Z"/><path class="d" d="M10.66,28.99l-.05-.09s.02,.06,.05,.09Z"/><path class="d" d="M11.24,28.33c-.16,.13-.52,.24-.68,.5l.04,.07c-.02-.2,.62-.32,.63-.57Z"/><path class="d" d="M14.7,26.73l-.58,.43c.17,0,.39-.01,.17,.23,.88-.38-.3-.05,.41-.66Z"/><path class="d" d="M16.42,25.27c-.24,.31,.12,.11,.15,.16,.1-.25,.13-.31-.15-.16Z"/><path class="d" d="M27.16,13.31l.15,.21c.19-.23-.07-.07-.15-.21Z"/><polygon class="d" points="28.55 10.26 28.22 10.33 28.27 10.6 28.55 10.26"/><polygon class="d" points="31.09 10.57 31.01 10.67 31.33 10.33 31.09 10.57"/><path class="d" d="M48.35,23.67l.25-.21c-.14-.16-.47-.04-.25,.21Z"/><path class="d" d="M52.1,34.47c-.13,.15-.18,.49,0,.66-.02-.26,.05-.53,0-.66Z"/><polygon class="d" points="39.19 59.74 39.41 59.65 39 59.7 39.19 59.74"/></g></g><g><path class="g" d="M5.55,19.86h0c-1.88-3.44-3.25-7.16-4.02-11.01-.35-1.71-.35-3.91,1.2-4.71,1.73-.88,3.6,.8,4.87,2.27,.26,.31,.59,.64,.99,.62,.48-.02,.79-.52,.97-.97,.48-1.19,.76-2.5,1.52-3.53s2.27-1.7,3.36-1.01c.98,.63,1.64,2.23,2.74,1.84,.68-.24,.91-1.16,1.58-1.42,.32-.12,.69-.06,1.02,.04,1.82,.55,3.18,2.16,3.8,3.96s.56,3.76,.24,5.63c-1.5,9.04-11.59,20.45-18.26,8.28Z"/><g><path class="i" d="M6.14,19.54c-.1,0-.26,.12-.16,.2l.33-.09-.16-.1Z"/><path class="i" d="M5.99,20.5c.21,.03,.52,.01,.74-.22-.34,.06-.24-.04-.64,.03-.09-.08,0-.22,.11-.27-.09,0-.03-.19-.24-.14-.15,.25-.06,.42,.22,.48-.04,.07-.14,.08-.19,.11Z"/><path class="i" d="M15.41,24.91h-.09s.06,0,.09,0Z"/><path class="i" d="M20.84,20.24s-.01,.09,.01,.11c.01-.05,.02-.1-.01-.11Z"/><path class="i" d="M21.83,19.41l-.06,.05s.07-.02,.06-.05Z"/><path class="i" d="M15.41,24.91c.08,0,.15,0,.22,0-.04-.11-.12-.02-.22,0Z"/><path class="i" d="M7.48,21.3s-.08-.03-.12-.03c.03,.02,.05,.03,.08,.05l.04-.03Z"/><path class="i" d="M12.23,25.87h-.06s-.04,.08-.06,.13l.12-.13Z"/><path class="i" d="M9.65,25.29s.19-.21,.26-.31c-.08,.09-.14,.12-.19,.12-.02,.05-.04,.11-.06,.19Z"/><path class="i" d="M6.91,22.41l-.07-.03,.07,.03Z"/><path class="i" d="M14.11,25.73s.03,.07,.05,.09c0-.03-.03-.06-.05-.09Z"/><path class="i" d="M5.53,16.87l-.05,.02s.05,0,.05-.02Z"/><polygon class="i" points="5.55 19.86 5.49 19.89 5.49 19.89 5.49 19.89 5.49 19.89 5.48 19.89 5.48 19.89 5.47 19.88 5.46 19.87 5.32 19.94 5.4 19.91 5.45 19.9 5.47 19.9 5.48 19.9 5.48 19.89 5.49 19.89 5.49 19.89 5.55 19.86"/><path class="i" d="M23.25,17.58h0c0,.08,.01,.04,0,0Z"/><path class="i" d="M16.98,2.01c.2,.2-.02,.43,.24,.63-.04-.12-.09-.53-.24-.63Z"/><path class="i" d="M7.48,21.37s.04,.04,.06,.07c-.02-.04-.04-.06-.06-.07Z"/><path class="i" d="M17.22,2.64h0l.03,.02-.03-.02Z"/><path class="i" d="M24.86,12.51c-.05,0-.09,.01-.13,.03,.03,0,.07,0,.13-.03Z"/><path class="i" d="M23.3,16.13l.07-.07s-.06,.05-.07,.07Z"/><path class="i" d="M24.78,10.43c.03-.05,.07-.07,.04-.14-.01,0-.03,.01-.04,.02,.04,.03,.05,.07,0,.12Z"/><path class="i" d="M24.82,8.29s-.04,.03-.05,.04l.02,.07,.04-.11Z"/><path class="i" d="M3.35,11.36c-.07,.06-.14,.11-.22,.16,.18-.08,.33,.17,.22-.16Z"/><path class="i" d="M7.36,21.4c.06-.03,.1-.04,.13-.03l-.05-.04s-.07,.04-.08,.07Z"/><path class="i" d="M22.58,10.14l.06-.29c-.03,.08-.05,.18-.06,.29Z"/><path class="i" d="M7.82,8.01h-.1s.07,.02,.1,0Z"/><path class="i" d="M22.63,9c.1-.05,.16-.11,.19-.16-.02-.01-.04-.02-.07-.03l-.12,.19Z"/><path class="i" d="M3.13,11.51h0Z"/><path class="i" d="M4.38,13.26c-.09-.28-.39-.01-.61,0-.21-.3,.21-.24,.35-.41-.16-.18-.53-.24-.57-.4,.05-.03,.07-.07,.15-.05-.35-.14-.21-.66-.65-.82,.03-.03,.05-.05,.08-.06-.17,.09-.34,.15-.48,.18-.05-.13-.29-.18-.07-.29,.01,.08,.11,.06,.19,.08l-.14-.11c.3-.21,.17,.15,.41,.08-.18-.23-.54-.47-.5-.7,.32-.13,.24,.45,.46,.1l-.04,.35c.45-.38,.02,.2,.51-.17-.02-.43-.29-.41-.3-.84-.21-.05-.26,.1-.47,.05-.47-.51,.72-.66,.18-.98-.24-.06-.67-.02-.52-.37l.4,.03c-.05-.41-.59-.12-.41-.57,.16,.05,.18,.27,.21,.21,.25-.3-.25-.14-.28-.34l.33-.09c-.11-.38-.39-.79-.43-1.23,.1,.03,.21,.1,.31,0-.16-.53,.21-1.07,.53-1.18-.06-.08-.12-.16-.18-.26,.02-.02,.13,.04,.16,.1,.15,0-.14-.12-.19-.24,.04-.07,.18,.05,.22,.14-.04-.15,0-.35,.14-.49,.14-.13,.33-.18,.46-.02l-.04,.09c.15,.1,.23-.61,.43-.31l-.05,.04c.44,.18,1.21,.34,1.32,1,.34-.27,.36,.55,.79,.15,.04,.24,.02,.36,.02,.49,0,.06,0,.13,.03,.21,.01,.05,.01,.07,.05,.15l.17,.29c.17,.23,.5,0,.73,.14l-.14,.3c.16,.01,.31,0,.44-.04,0,.17,.03,.33,.06,.5,.09,.02,.18,.04,.26,.05-.1-.06-.17-.26-.13-.34,.19,.04,.38,.2,.57,.34,.18,.15,.36,.27,.37,.35,.35-.08,.69-.25,.93-.51,.03,.13-.11,.25-.22,.38,.4-.54,.22,.29,.55-.26-.08-.02-.05-.2-.07-.26,.28,.04,.7-.42,.83-.92l.12,.23c.23-.35,.4-.95,.5-1.31,.06-.28,.12-.55,.21-.81-.16,.15-.49-.01-.47-.18l.33,.05c-.15-.16-.17,.11-.33-.17,.11-.18,.39,0,.45,.15l-.02-.26c.1,.02,.12,.09,.23,.15-.15-.17,.45-.23,.17-.49l.09,.03c.19-.4,.2-.63,.37-.88-.22-.18-.1-.23-.2-.45,.24-.12,.58-.1,.79-.23,.1-.21-.05-.24-.04-.43,.12,.22,.35,.12,.28,.34,.26-.11,.3-.15,.63-.3,0-.11-.05-.17,0-.25,.08-.02,.12,.14,.07,.25l-.02,.02c.23-.14,.34,.16,.43,.49,.1,.33,.19,.68,.65,.78l-.06-.02c.3,.18,.58,.33,.87,.41,.32,.29-.3,.02-.11,.36,.53,.1,.87,.21,1.25,.27,.36,.05,.75,.02,1.06-.3,.4,.22,.91-.17,1.26-.73l.07-.1s0-.01,0-.02v-.03s0-.04,.02-.05c.02-.03,.06-.02,.11,.06l.03,.06-.06-.18c-.02-.18,.06,.09,.07,.14-.02-.14-.06-.16-.06-.26,.08-.06,.14-.07,.27,0,.21,.08,.41,.22,.58,.38,.35,.32,.6,.73,.85,1.11,.17,.27,.84-.45,.78,.18l-.34,.09c.37,.16,.57,.49,.72,.83,.15,.34,.26,.68,.52,1-.09-.02-.18,0-.2-.07-.19,.21,.13,.55,.32,.52,0,.12-.17,.06-.25,.15-.11,.17,.37,.34,.14,.46-.04,.02-.08-.03-.11-.06,.13,.08,.03,.48,.29,.35-.1,.29,.16,.55,0,.79,.31,.15-.15,.5,.29,.56-.45-.03-.39,.5-.2,.71-.13-.07-.16,.15-.34,.06-.01,.21,.05,.42,.28,.41-.58,.32,.32,.88-.41,.99,.12,.67,.14,1.31,.06,1.92-.42-.15,.14-.65-.33-.74,.03,.58,.32,1.01,.02,1.51-.11,.12-.16-.14-.21-.21,0,.6-.41,1-.38,1.56-.04-.02-.06-.09-.07-.15-.03,.1-.16,.18,.04,.26v-.11c.33-.03,.39,.61,.53,.7-.46-.4-.34,.4-.9-.16,0,.08,.06,.19,.19,.24-.08,.07-.17,.06-.26-.09-.06,.37,.19,.35,.04,.64-.09-.05-.09-.12-.18-.2,.1,.23,.2,.48-.01,.68-.04-.04-.13-.05-.09-.12-.2,.42,.06,.97-.39,1.32-.29-.36-.21,.08-.54-.1-.02,.1-.03,.2-.06,.29h.21c-.14,.2-.04,.54-.26,.64l-.02-.24c-.07,.14-.13,.28-.2,.42l.27-.13c.01,.32,.41,.25,.12,.46,.01-.08-.16,.2-.41,.17h0c.02,.17,.04,.35-.14,.44-.12-.04-.3-.29-.38-.31,.17,.29-.3,.49-.14,.83-.03-.09-.17-.22-.21-.23l.13,.24c-.14,.03-.18,.02-.28-.1-.27,.22,.43,.23,0,.4,0-.04-.03-.05-.02-.13-.35,.23-.43,.69-.79,.86-.34-.2,.17-.29-.14-.43-.32,.41-.51,1.08-.98,1.32l.1-.02c.26,.46-.46,.03-.53,.37,.03-.07-.1-.29-.08-.23-.34,.12-.51,.5-.92,.88v-.15c-.23,0-.52,.16-.74,.19,0,.15-.13,.18,0,.34-.46-.27-.7-.05-.98,.11-.27,.19-.58,.36-.89,.04,.07,0,.16-.13,.1-.13-.16,.06-.32,.11-.48,.13,.03,.23,.06,.14,.17,.33-.07,.13-.22,.23-.36,.22,.25-.14,.02-.37-.06-.5,.01,.07-.03,.15-.03,.22-.22-.43-.1,.48-.44,.13l.04-.12c-.15,.03-.31,.17-.46,.1,0-.27,.18-.09,.23-.31-.2,0-.54,.38-.65,.07,.11-.04,.23,0,.34-.04-.11-.37-.14-.3-.27-.39h.01c-.09-.07-.18-.14-.26-.24l.04,.12c-.5,.52-.52-.09-1.05,.12,.51-.18,.17-.19,.35-.43-.03-.12-.09-.27-.01-.32-.26,.12-.11-.3-.5-.12,.05-.08-.13-.12,.05-.29-.2-.07-.07,.17-.15,.25-.47,.04-.33-.77-.96-.79-.43-.16-.72,0-1.11-.22,.03-.2,.34-.14,.34-.14-.03-.26-.15-.36-.37-.45,.09-.02,.12-.1,.17-.21-.11-.12-.35,.12-.35-.14,.11-.03,.28-.1,.41-.1-.18-.1-.43-.15-.62-.27,.11-.14,.28-.05,.41-.05-.18-.14-.46-.38-.71-.3v.17c-.06-.06,.17-.16,.24-.14,.28,.04,.08,.28,0,.34l-.13-.08c-.39,.44,.41,.43,.54,.67l-.4,.15c.15,.02,.3,.03,.46,.03-.05,.11-.2,.29-.34,.22-.03,.29,.24,.05,.17,.34-.01,.04-.04,.04-.06,.04l.23,.08c-.09,.02-.2,.22-.24,.08,.06,.46,.63,.26,.5,.57h-.04c.47,.27,.26-.18,.78-.16-.12,.24-.23,.48-.33,.73l.24-.19s.1,.13,0,.21c.29-.03,.06-.12,.28-.2,.03,.38,.62,.35,.39,.77,.21-.14-.1-.28,.22-.26-.23,.47,.32,.1,.39,.43-.2,.19-.33-.06-.24,.28,.35-.3,.37,.33,.62,.35,.16-.32,.47,.07,.85,.05-.03,.05,.11,.15,.3,.27,.19,.1,.44,.19,.6,.29l-.02,.06c.12-.34,.45-.24,.7-.31-.02,.22-.07,.3-.22,.39h.24c.06-.1,.14-.16,.29-.19l-.06,.27c.33-.03,.63-.34,1.05-.23-.03-.26-.4-.65-.05-.89,.04,.13,.09,.36,0,.44,.03-.02,.1-.14,.18-.09l-.12,.26c.19,.07,.06-.21,.2-.21,.04,.19,.13,.12,.14,.28-.03,.03-.14-.06-.18,.03,.17,0,.39,.09,.49,.21-.04-.1-.06-.26,.04-.32,.29-.1,.17,.2,.37,.24,.03-.15,.27-.08,.18-.36,.09-.02,.15,.09,.21,.16,.11-.18,.69-.33,.39-.54h-.05l.02-.02h0c.33-.47,1.02-.33,1.38-.73l.05,.08c.2-.25,.51-.45,.55-.74,.07-.05,.28,.02,.32,.13,.13-.21,.08-.31,.43-.4-.06,.28,.16,.06-.1,.25,.28-.13,.45-.06,.5-.48,.09,.26,.38,.07,.43-.08l-.28,.02c.09-.14,.21-.22,.32-.3l.18,.29c.74-.18,.27-1.27,1.07-1.19-.07-.27-.34,.15-.45-.14,.21-.18,.77-.11,.83-.18,.39-.2-.17-.59,.18-.83-.13-.03-.41-.18-.32-.48,.19-.2,.6,0,.58,.21-.03,.06-.08,.07-.11,.04-.02,.1-.05,.22,.12,.21l-.07-.1c.18-.04,.39-.37,.5-.19,.03-.24-.11-.18-.25-.09,.34-.21,.33-.46,.62-.72-.09,.02-.23-.01-.2-.06,.41-.39-.07-.32,.08-.66,.26-.09,.34,.29,.39-.11,.22-.14,.3,.11,.34,.24-.03-.41,.44-.49,.58-.64v.21c0-.12,.04-.2,.08-.28l-.26-.02c.08-.08,.13-.16,.21-.11-.09-.17-.39-.11-.48-.4,.17-.07,.07-.43,.38-.34-.29,.35,.31,.1,.18,.45,0-.08,.04-.16,.13-.24,.04,0,.05,.04,.05,.08,.45-.26-.23-.33-.04-.73,.14,.13,.35,.05,.34-.04-.08,.16-.3-.05-.36-.25,.24-.2,.03-.32,.1-.45l-.13,.13c-.14-.12-.07-.24-.05-.44,.13,.04,.02,.2,.1,.16-.21-.32,.48-.33,.4-.69,.16-.09,.32,.1,.43,.01-.1-.4,.35-.27,.29-.68-.26,.02-.21,.06-.35-.25l-.03,.61-.2-.47c-.06,.16,.02,.4-.05,.48-.12-.23-.08-.19-.29-.18,.41-.11-.03-.51,.27-.7l.56,.19c.37-.34-.07-.8,.2-1.3l-.14,.15c-.21-.13,.05-.33,0-.53,.19,.06,.28-.03,.42-.08-.15-.02,.09-.4-.29-.52l.3-.2c.18-.42-.47-.58-.35-.98,.2,.15,.36-.02,.48,.28,.02-.14,.07-.27-.06-.28,.13-.07-.22-.42-.02-.53-.08-.07-.28-.1-.26-.26,.04-.01,.1,0,.1,0-.1,0-.11-.25-.34-.13,.65-.4,0-1.19,.5-1.59-.09-.31-.18-.68-.24-.96,.06,0,.1-.01,.08,.04,.12-.42-.59-.15-.48-.61,.26-.29,.22,.2,.31,.03,.62-.2-.2-.51,.07-.91l.06,.06c.14-.3-.41-.49-.52-.86,0,0,.06,0,.09-.04-.41-.12-.72-.5-.99-.75,.28-.04,.2,.07,.39-.12-.12-.12-.33,.25-.56,.02,.06-.16,.02-.42,.23-.61l.2,.25c.2-.34-.25-.34-.31-.5l.14-.08c-.36-.36-.66-.1-1-.49l-.04,.12c-.47,.1-.02-.33-.43-.28l.18-.36c-.21-.06-.76-.09-1.08-.18,.3-.17,.73-.08,1.04-.06-.15-.12-.58-.36-.76-.23,.08,0,.22-.02,.25,.07-.37,.14-.68,.13-1.01-.02,.18-.34-.03-.49-.31-.6-.34-.15-.77-.21-.99-.49-.24,.08-.46,.15-.68,.23-.63,.18-1.47,1.03-1.36,.92,.42,.44-.03,.07,.3,.62-.06,.11-.1,.13-.12,.09-.14-.06-.26-.17-.34-.3-.06-.2,.04-.17,0-.32-.09-.03-.08-.3-.09-.48,0,.25-.03,.36-.05,.25,0,.11,0,.22,.03,.34-.1,.17-.13,0-.11-.15,.01-.15,.07-.27-.04-.16,.04-.05,.08-.1,.11-.16-.04,.05-.05,.03-.11,.04-.17-.11-.4-.24-.68-.17,.02-.08,.1-.25,.21-.18-.2-.27-.59-.5-1.05-.69-.48-.2-.95-.27-1.28-.46l.09-.14c-.2,.02-.33,.24-.54,.1,0-.06,.07-.15-.01-.16-.11,.05-.43,.29-.65,.26l.15-.2c-.96,0-1.1,.8-1.51,1.21-.25-.37-.85-.08-1.12,.14l-.04-.05c-.7,.75-.55,1.48-.67,2.19-.31,.11-.48,.45-.63,.79-.07,.17-.14,.36-.22,.52-.06,.11-.08,.08-.15,.08,.07,.03,.29,.2,.31,.28-.08-.03,.16,.42-.13,.05h.01c-.31-.33-.24-.22-.28-.19l.26,.66c-.29-.38-.32-.3-.45-.26-.11,.04-.27-.02-.12-.37-.09,.1-.15,.03-.29,.07l.2-.2c-.22-.32-.39-.57-.88-.9l.22-.07c-.25-.24-.85,.35-1.09,.19l.17-.4c-.46-.33-.91-1.02-1.72-.85,.03-.06,.08-.17,.2-.15-.15-.06-.47-.21-.77-.25-.31-.02-.54,.05-.47,.34,0-.19-.21-.19-.46-.1-.24,.11-.5,.3-.64,.46l-.04-.28c-.19,.46-.14,.54-.44,.85-.1,.03-.2-.13-.05-.15-.36,.1-.06,.35-.43,.53l-.02-.24c-.26,.25-.17,.3-.11,.57-.03,.22-.37,.48-.61,.44,.13,.11,.24,.34,.12,.49-.1,0-.13-.09-.15-.13-.35,.48,.14,.82-.18,1.12-.09,0-.14,.02-.17,.04,.04-.41,.14-.74,.15-.71-.25-.06-.37,.3-.66-.06,.12,.36,.49,.85,.37,1.16-.03,.01-.05,.03-.09,.04l-.03-.03c-.03,.07,0,.14,.04,.21-.04,.1-.07,.17-.07,.27-.21,.05-.1,.39-.09,.55,.28-.04,.25,.17,.47-.04-.02,.03-.04-.03-.06-.13-.01-.02-.02-.05-.03-.06h.03c-.02-.09-.03-.23-.04-.38,.15,.12,.27,.24,.13,.42l.47,.17c-.37,.24-.52,.68-.75,.78,.24,.47,.31,1.03,.89,1.2,.09,.11-.11,.17-.19,.24-.07-.06-.08-.15-.16-.17,.19,.22,.22,.72,.6,.69-.08,.35-.37-.09-.21,.32l-.12-.03c-.35,1,1.26,1.09,.82,2.21,.02-.08,.04-.11,.09-.15,0,1.14,1.01,2,.92,3.18,.02,.32,.25,.26,.49,.36l-.25,.18,.45,.15c.41,.3-.36,1.02,.32,1.33l.15-.15c.05,.2,.39,.53,.16,.6,.04,0,.22-.03,.16,.08l-.14,.08,.47,.32c.08,.4-.59,.23-.35,.75,.16,.16,.69,.31,.74,.19-.03-.08-.02-.24,.12-.32l.16,.13,.32-.14-.23,.13,.59-.33,.06-.05s.07-.08,.11-.12c.06-.09,.11-.2,.12-.34l-.4-.15,.15-.19,.14,.23c.12-.23-.1-.23-.26-.26,.1-.08,.15-.16,.16-.23l-.54-.07c.15-.12,.39-.04,.38-.27-.25-.04-.3,.31-.53,.15,.12-.23,.3-.27,.06-.35,.1-.08,.18-.07,.26-.04-.2-.08-.24-.35-.5-.31,.17-.25-.29-.46,.12-.63-.12,0-.43-.11-.51-.24,.59,.03-.19-.51,.36-.67-.51,0-.47-.56-.84-.79,.04,0,.13,.01,.12,.05-.04-.2,.08-.3,.11-.45-.38,.12-.57-.13-.85-.2,.27-.36,.48-.02,.8-.22-.29,.12-.44-.28-.66-.11,.16-.25,.05-.19,.33-.39-.47,.14-.13-.13-.47-.18,.14-.33,.41-.21,.18-.44,.1-.18,.34,0,.34,0ZM2.09,6.88h0v0Zm.04-.51c-.02,.06-.03,.14-.04,.22-.1,0-.2-.02-.18-.07,.06,.04,.13-.08,.22-.14ZM.15,7.58c-.04-.11,.01-.15,.07-.16,0,.05,.02,.11,.04,.19h.04c-.05,0-.11,0-.14-.02Z"/><path class="i" d="M.53,7.75s.02,.02,.02,.04c.02-.02,.04-.04,.06-.07l-.09-.03v.06Z"/><path class="i" d="M15.31,24.9h.01s-.03-.01-.04-.02c.01,0,.02,.02,.03,.02Z"/><polygon class="i" points="6.93 7.55 6.96 7.49 6.87 7.48 6.93 7.55"/><path class="i" d="M11.98,24.58s-.01-.05-.03-.07c0,.02,.01,.04,.03,.07Z"/><path class="i" d="M10.75,24.24l-.13-.15c.05,.08,.1,.12,.13,.15Z"/><path class="i" d="M9.92,23.71s-.06,.07-.08,.09h0l.08-.09Z"/><path class="i" d="M21.54,15.47s0-.03,0-.04c-.02-.11-.02-.04,0,.04Z"/><path class="i" d="M19.61,20.12c0-.07-.02-.15,0-.21-.07,.06-.12,.11,0,.21Z"/><polygon class="i" points="22.57 10.18 22.57 10.18 22.58 10.14 22.57 10.18"/><path class="i" d="M19.75,19.72c-.1,.04-.13,.11-.14,.18,.06-.05,.13-.1,.14-.18Z"/><path class="i" d="M6.98,20.53l-.02-.05s-.03,.02-.04,.02l.06,.03Z"/><path class="i" d="M6.92,20.51l-.06-.03s.03,.04,.06,.03Z"/><path class="i" d="M6.74,20.41l.12,.06s-.04-.08-.12-.06Z"/><path class="i" d="M7.68,21.71l.09-.05s-.05,.02-.09,.05Z"/><path class="i" d="M7.96,22.01c-.05-.09,0-.33-.13-.39l-.07,.04c.16-.05,0,.39,.2,.35Z"/><path class="i" d="M8.41,24.17l-.25-.31c-.02,.13-.04,.3-.2,.2,.18,.57,.08-.25,.45,.11Z"/><path class="i" d="M9.35,24.99c-.22-.05-.07,.14-.11,.19,.18-.02,.21-.03,.11-.19Z"/><path class="i" d="M17.72,23.65l.14,.21c.1-.13-.06-.08-.14-.21Z"/><polygon class="i" points="18 21.6 17.79 21.59 17.9 21.8 18 21.6"/><polygon class="i" points="19.98 22.15 19.96 22.22 20.07 21.96 19.98 22.15"/><path class="i" d="M25.09,8.67l-.31,.06c.06,.11,.41,.13,.31-.06Z"/><path class="i" d="M22.4,2.73c.06-.16-.02-.37-.21-.33,.1,.12,.13,.31,.21,.33Z"/><path class="i" d="M8.44,5.29c0-.05-.01-.1-.02-.15,0,.05,0,.09,0,.14h.03Z"/></g></g><g><path class="h" d="M15.92,42.01c1.36-1.36-.75-3.49-2.12-2.12s.75,3.49,2.12,2.12h0Z"/><path class="h" d="M29.24,45.3c1.36-1.36-.75-3.49-2.12-2.12s.75,3.49,2.12,2.12h0Z"/><path class="h" d="M26.05,31.15c1.36-1.36-.75-3.49-2.12-2.12s.75,3.49,2.12,2.12h0Z"/><path class="h" d="M50.78,41.46c1.36-1.36-.75-3.49-2.12-2.12s.75,3.49,2.12,2.12h0Z"/><path class="h" d="M37.45,55.33c1.36-1.36-.75-3.49-2.12-2.12s.75,3.49,2.12,2.12h0Z"/></g><g><path class="j" d="M19.49,6.4c.68,.37,1.14,1.06,1.35,1.8s.2,1.53,.12,2.29c-.16,1.42-.57,2.81-1.21,4.09"/><g><path class="e" d="M19.15,14.29c.07,.04,.25,.13,.22,.1l-.29-.15,.07,.06Z"/><path class="e" d="M19.74,14.49c-.14-.08-.38-.22-.66-.35l.49,.28s-.1-.03-.21-.08c.07,.04-.07-.01,.11,.08,.24,.1,.26,.08,.07-.03,.07,.03,.14,.07,.2,.1Z"/><path class="e" d="M20.72,13.51h-.04s.03,0,.04,0Z"/><path class="e" d="M21.15,12.79s.04,.02,.07,.03c-.02-.01-.04-.02-.07-.03Z"/><path class="e" d="M21.54,12.75h-.02s.05,0,.02,0Z"/><path class="e" d="M20.72,13.51l.1,.02c-.1-.04-.08-.02-.1-.02Z"/><path class="e" d="M19.09,13.99s.04,.03,.07,.05l-.03-.02-.05-.02Z"/><path class="e" d="M20.84,13.94h0l.12,.06-.12-.06Z"/><path class="e" d="M20.78,14.22s-.24-.11-.36-.16c.11,.05,.15,.07,.17,.09l.18,.08Z"/><path class="e" d="M20.15,14.42l.03,.02-.03-.02Z"/><path class="e" d="M20.97,13.78l.09,.03-.09-.03Z"/><path class="e" d="M18.97,7.63l.03-.04-.03,.04Z"/><polygon class="e" points="19.52 6.33 19.53 6.32 19.61 6.18 19.52 6.33"/><path class="e" d="M21.95,12.59h0s.02,0,0,0Z"/><path class="e" d="M22.16,10.1c-.25,.01-.32-.07-.6-.04,.11,0,.44,.07,.6,.04Z"/><path class="e" d="M19.13,14h0s-.01,0,0,0Z"/><path class="e" d="M21.56,10.06h0Z"/><path class="e" d="M21.93,11.94l-.12-.02,.12,.02Z"/><path class="e" d="M21.44,12.3h.04s-.04,0-.04,0Z"/><path class="e" d="M21.59,11.63s.06,0,.03-.01h-.03s.05,.01,0,.01Z"/><path class="e" d="M21.64,11.39h0Z"/><path class="e" d="M19.32,7.78l.19-.16c-.15,.13-.22,.16-.19,.16Z"/><path class="e" d="M19.24,14.06c-.06-.03-.09-.05-.11-.06h.01l.1,.06Z"/><path class="e" d="M19.42,11.2l.05-.02s-.04,.01-.05,.02Z"/><path class="e" d="M19.79,8.74h-.03s0,0,.03,0Z"/><path class="e" d="M19.44,11.08c.1,.01,.16,.02,.19,.02l-.07-.02h-.12Z"/><path class="e" d="M19.52,7.62h0Z"/><path class="e" d="M18.93,7.96s.27-.24,.42-.39c.09-.05-.19,.19-.32,.33,.08-.06,.34-.28,.34-.26l-.12,.11c.23-.18,.04,.03,.34-.19l-.07,.06,.39-.32s.2-.13,.01,.03c0-.01-.08,.05-.14,.09l.09-.05c-.26,.22-.1,.06-.3,.22,.1-.06,.35-.21,.28-.13-.27,.21-.12,.04-.34,.24l.09-.1c-.41,.35,.02-.03-.42,.33-.06,.08,.16-.08,.09,0l.38-.27c.31-.15-.68,.52-.29,.29,.19-.12,.55-.35,.38-.21l-.33,.2s.47-.28,.27-.11c-.13,.07-.12,.05-.16,.07-.25,.18,.19-.1,.2-.09l-.29,.18c.06,0,.29-.09,.37-.08-.09,.05-.19,.09-.27,.15,.17-.04,.01,.11-.16,.23l.27-.11s-.12,.06-.17,.08c-.09,.06,.17-.08,.28-.11,.02,0-.15,.08-.23,.11,.24-.08,.53-.12,.25,.03l-.08,.03c-.1,.06,.57-.18,.33-.06h-.05c-.1,.11,.18,.1-.23,.27,.41-.11-.17,.11,.4-.04-.27,.11-.38,.13-.56,.22-.02,.02,.36-.07,.43-.06l-.3,.07,.32-.05-.36,.09h.08s.13-.04,.22-.06c.14,0-.2,.1-.35,.13h.27c-.12,.03-.17,.03-.24,.03,.32-.03-.32,.06-.03,.04l.24-.04c-.18,.05-.18,.07-.1,.09l-.21,.03s.11,.07,.11,.12c.1-.03,.46-.07,.5-.05l-.32,.04c.2-.01,.12-.03,.37-.04-.04,.02-.37,.05-.47,.05h.11l-.27,.03c.2-.01-.32,.07,.03,.05h-.1c0,.06,.11,.07,.13,.11,.28-.02,.22,0,.45,0-.09,.04-.31,.08-.28,.12,.14,.02,.24,0,.41,0-.26,.01-.23,.05-.42,.03,.04,.04,.05,.05,.26,.11,.1,0,.15-.01,.24-.01,.04,.01-.11,.03-.23,.02h-.03c.38,.07-.75,.14-.22,.2h-.03l.28,.06s-.19-.02-.35-.01c.43,.08-.07,.09,.22,.16-.76-.01,.04,.14-.44,.16h.18c.17,.04-.1,.02-.14,.03,.14,.01,.16,0,.26,.02,.2,.14-.28,.22-.46,.31-.05,.04,.91,.14,.48,.14l-.33-.06c.38,.14-.04,.18,.28,.31-.07-.02-.17-.03-.17-.04-.24-.02-.02,.06,.17,.1-.02,.01-.18-.03-.27-.03-.14,0,.29,.1,.06,.07-.04,0-.08-.02-.09-.02,.11,.03-.04,.05,.24,.09-.14,0,.11,.08-.06,.08,.3,.07-.16,.03,.27,.11-.44-.08-.37-.01-.16,.05-.13-.03-.14,0-.33-.05,0,.02,.08,.06,.31,.1-.54-.06,.41,.18-.28,.06,.22,.12,.37,.22,.46,.31-.44-.1-.03-.08-.49-.18,.17,.1,.54,.22,.42,.26-.06,0-.19-.05-.26-.08,.17,.1-.07,.1,.16,.22-.04-.01-.08-.03-.12-.04,.01,.01-.07,0,.13,.06l-.05-.02c.29,.06,.59,.19,.74,.24-.56-.16-.16,.02-.87-.2,.04,.02,.13,.05,.26,.08-.04,0-.12-.02-.27-.07,.1,.07,.31,.11,.3,.14l-.24-.08c.18,.07,.37,.13,.28,.14-.06-.02-.13-.03-.13-.04,.02,.06,.47,.22,.28,.23-.41-.13-.14-.02-.5-.12l.1,.06,.18,.04s.24,.12,.12,.11l-.14-.06,.05,.07h.14c.18,.09,.45,.14,.34,.15-.03-.02-.01,.03-.23-.02h0c.11,.05,.23,.1,.13,.09l-.47-.14c.29,.1,.06,.09,.38,.2l-.3-.1,.24,.09c-.08-.01-.12-.02-.27-.07-.06,.02,.46,.13,.25,.11l-.09-.04c-.12,.01,.13,.13,0,.13-.36-.11-.08-.06-.38-.15,.05,.08,.39,.26,.29,.29h.04c.5,.18-.26-.04-.04,.07-.03-.02-.27-.11-.22-.08-.09,0,.1,.12,.23,.23l-.13-.05c-.12-.02-.09,.03-.15,.04,.12,.05,.1,.06,.29,.12-.75-.2,.34,.29-.29,.12,0,0-.1-.06-.11-.06l.09,.1c.22,.08,.13,.04,.3,.1,.12,.06,.22,.11,.21,.13-.13-.08-.34-.14-.47-.18l.2,.08c-.39-.12,.43,.18,.16,.12l-.11-.05c.05,.04,.19,.11,.16,.12-.25-.09-.11-.06-.31-.15,0,.03,.45,.24,.2,.16-.06-.04-.06-.05-.12-.09-.3-.1-.23-.07-.28-.07h0l-.15-.02,.08,.02c.63,.3,.09,.11,.5,.32-.38-.21-.23-.1-.5-.23-.08-.02-.17-.05-.25-.08,.22,.11-.19-.05,.13,.12-.09-.04-.02,.01-.24-.09,.06,.05,.16,.06,.27,.11,.29,.17-.4-.08-.01,.15,.15,.12,.45,.27,.58,.38-.15-.05-.32-.16-.32-.16-.14-.04-.12-.01-.03,.06-.08-.04-.14-.07-.24-.11,.02,.03,.32,.16,.18,.12l-.35-.18,.3,.21c-.16-.07-.23-.12-.32-.18,.06,.05,.11,.12,.35,.25l.09,.03s-.21-.1-.25-.12c-.18-.11,.1,.01,.19,.05l.05,.04c.52,.23-.05-.1-.01-.11l.37,.19-.3-.18c.1,.04,.31,.13,.36,.17,.2,.07-.13-.08,.09,0,.03,.01,.05,.02,.07,.03l-.1-.07c.08,.04,.27,.12,.21,.11,.24,.06-.25-.19,.04-.08h.02c-.1-.1-.28-.12-.58-.31l.7,.28-.28-.13s.04,0,.15,.05c-.18-.11-.12-.05-.3-.14,.27,.09-.09-.13,.36,.06-.21-.1-.17-.05-.31-.14,.48,.2-.07-.07,.16,0,.24,.11,.1,.08,.34,.15-.41-.2,.11,0,.04-.07-.33-.14-.12-.1-.22-.19,.11,.05,.21,0,.35,.03l.06,.02c-.34-.14-.26-.15-.32-.21,.2,.08,.28,.12,.37,.17v-.02c-.1-.05-.15-.08-.19-.11l.25,.11s-.28-.18-.09-.16c-.24-.09-.68-.23-.82-.33,.13,.05,.35,.13,.4,.16-.02-.01-.1-.05-.04-.04l.21,.1c.1,.02-.18-.08-.15-.09l.28,.1s-.08-.02-.01,.02c.04,0,.16,.02,.3,.06-.11-.04-.25-.09-.27-.12,0-.04,.23,.07,.33,.09-.13-.06,.02-.03-.26-.13,0,0,.13,.04,.21,.06-.12-.06,0-.09-.31-.18h-.03c-.26-.16,.2-.06,.1-.16l.09,.03c-.1-.07-.04-.09-.23-.18,0,0,.18,.04,.29,.08-.06-.05-.17-.09,0-.07,.16,.08,.15,.04,.11,.07,.09,0,.24,.04,0-.08,.24,.09,.31,.08,.24,.04l-.18-.03s0-.04,.02-.05l.31,.11c.41,.05-.62-.33,.05-.18-.22-.09-.17-.01-.42-.11,.05-.02,.52,.09,.52,.08,.19,0-.45-.18-.32-.19-.12-.03-.42-.11-.52-.18,.05-.02,.49,.1,.57,.15,0,.01-.03,0-.07,0,.04,.02,.08,.05,.21,.07l-.11-.04c.12,.02,.12-.03,.31,.04-.1-.06-.18-.06-.25-.06,.18,0,.02-.06,.15-.07-.06-.01-.2-.04-.2-.05,.16-.02-.21-.09-.25-.14,.18,.03,.41,.12,.28,.04,.13,0,.31,.08,.4,.11-.21-.1,.17-.03,.21-.04l.09,.05c-.05-.03-.05-.04-.04-.05l-.23-.05s.05-.01,.14,.01c-.15-.05-.38-.09-.58-.17,.12,.02-.11-.08,.19,0-.12,.02,.31,.07,.35,.13-.03-.02-.03-.03,.01-.03,.03,0,.06,.02,.08,.03,.29,.02-.34-.11-.32-.16,.17,.05,.33,.07,.29,.05,0,.02-.29-.06-.42-.12,.14,0-.09-.06-.07-.07h-.07c-.17-.05-.14-.06-.19-.09,.13,.03,.09,.04,.15,.05-.3-.1,.33,.02,.13-.06,.12,.01,.32,.08,.41,.08-.21-.09,.25,.01,.07-.07-.24-.04-.18-.03-.4-.11l.15,.1-.33-.12s.14,.08,.09,.08c-.18-.07-.13-.05-.32-.09,.35,.06-.19-.1,.05-.08l.58,.13c.27,.01-.28-.15-.12-.18h-.1c-.23-.06-.02-.05-.11-.09,.19,.04,.27,.05,.39,.06-.14-.03,.02-.04-.36-.13l.26,.03c.11-.03-.54-.17-.46-.2,.21,.06,.35,.06,.49,.12,0-.02,.04-.02-.09-.05,.12,.01-.25-.1-.07-.07-.08-.02-.29-.06-.27-.08l.1,.02c-.1-.02-.12-.05-.34-.08,.61,.07-.02-.14,.51-.09-.06-.05-.12-.1-.12-.13,.06,.01,.1,.02,.08,.02,.19-.01-.55-.12-.34-.13,.32,.03,.17,.05,.29,.06,.64,.1-.08-.07,.3-.05h.04c.22,.02-.23-.09-.18-.12h.1c-.32-.06-.42-.13-.51-.18,.25,.05,.13,.04,.39,.06-.03-.02-.41-.05-.48-.1,.14,0,.26,0,.54,.03v.04c.37,.03,0-.05,.07-.06l.15,.02c-.04-.06-.43-.11-.4-.16h-.12c-.38-.09,.22,0-.06-.07l.39,.04c-.09-.03-.37-.11-.44-.16,.29,.05,.43,.11,.6,.16,0-.02-.02-.07-.21-.1,.04,.01,.13,.03,.07,.03-.31-.06-.45-.11-.44-.14,.76,.08,.2-.08,.8-.06-.27-.1,.13-.14,.09-.23-.6,0-.02-.03-.63-.06-.04-.02-.03-.03,.01-.03l.37-.04c.18,0,.13,.03,.27,.03,.05-.04,.26,0,.42-.03-.22,0-.31-.03-.23-.05l-.28,.02c-.32-.08,.52-.03,.2-.11l.19,.03c-.11-.04,0-.13-.48-.17,.07,0,.24,0,.28,0,.08-.08-.52-.18-.22-.24h.15s-.28-.02-.13-.04c.06,0,.15,0,.16,0-.05,0-.26-.04-.18-.06h.17c.19-.07-.41-.1-.52-.16,.44-.02,.58-.09,.65-.13h.06c.05-.11-.37-.14-.56-.21,.47-.1,.18-.2,.43-.33-.08,.03-.34,.05-.39,.04,.08-.03-.31,0,.09-.07h0c.39-.07,.28-.1,.28-.13l-.52,.08c.74-.23-.32-.16,.34-.35-.13,0-.14-.02-.27,0l.28-.07c.06-.08,.08-.12,0-.18l.2-.04c0-.05-.8,.17-.83,.14l.4-.13c-.03-.07,.3-.26-.09-.21,.06-.02,.17-.06,.2-.05,0-.04,.22-.24-.32-.02,.35-.13,0-.09-.16-.06l.26-.1c-.34,.1-.43,.14-.54,.14,.03-.02,.2-.1,.14-.06,.12-.09-.25,.08-.13-.02l.17-.06s-.08,0-.28,.07c-.11,.03,.04-.09,.26-.2-.14,.06-.33,.13-.28,.08,.08-.04,.14-.06,.17-.07,.14-.14-.33,.07-.1-.1,.08-.04,.12-.07,.14-.08,.02,.05,.02,.09,0,.1,.23-.12,.25-.18,.58-.31-.19,.05-.59,.2-.5,.11l.08-.05h.03s0-.03-.05-.01c.03-.03,.05-.05,.05-.07,.18-.11,.07-.1,.07-.13-.24,.14-.22,.1-.4,.24,.02-.01,.03-.01,.05,0,0,0,.01,0,.03,0h-.02s.03,.03,.04,.05c-.13,.06-.24,.1-.12,0l-.4,.21c.33-.22,.48-.38,.68-.51-.17,.03-.17-.08-.63,.19-.07,.03,.11-.1,.18-.15,.05-.02,.05,0,.11-.05-.13,.05-.1-.06-.41,.16,.11-.13,.29-.18,.2-.19l.1-.06c.38-.47-.85,.44-.35-.14-.03,.04-.04,.06-.09,.1,.14-.34-.41,.02-.17-.47,.04-.11-.12,.07-.25,.19l.18-.24-.25,.25c-.2,.17,.36-.66,0-.32l-.11,.17s-.14,.05,0-.14c-.02,.03-.12,.17-.07,.08l.08-.13-.2,.19c.01-.12,.33-.53,.27-.6-.06,.03-.3,.36-.34,.46,0,.01-.02,.1-.1,.24l-.06,.06c-.23,.4-.46,.82-.6,1.12l.16-.24-.11,.2h-.02c-.1,.19,0,.03,.07-.07l-.12,.22,.25-.37c-.1,.16-.2,.3-.24,.39,.12-.17,.21-.35,.3-.45-.1,.18-.2,.33-.09,.18-.06,.1-.11,.16-.14,.21,.09-.11,.05-.04,.2-.24-.14,.22,.07-.03-.19,.32,.06-.08,.22-.27,.24-.28-.33,.41,.01,.05-.34,.49,.31-.37,.16-.14,.35-.32-.03,.03-.08,.08-.06,.06-.02,.04-.11,.15-.16,.22,.26-.29,.34-.34,.52-.51-.25,.29-.32,.33-.57,.6,.22-.23,.24-.21,.42-.41-.15,.18-.07,.09-.29,.33,.35-.35,.07-.05,.29-.26-.16,.18-.33,.32-.21,.23-.1,.11-.24,.22-.24,.22Zm.96-.1h0Zm.03,.04s0-.02,0-.03c.08-.05,.17-.09,.17-.08-.06,.03-.1,.07-.17,.11Zm1.64-1.07s0,.02-.05,.05c0,0-.02,0-.04,0l-.03,.02,.13-.07Z"/><path class="e" d="M21.22,7h-.02l-.05,.04,.08-.04h0Z"/><path class="e" d="M20.67,13.5h0Z"/><polygon class="e" points="19.64 8.71 19.71 8.7 19.65 8.71 19.64 8.71"/><path class="e" d="M19.64,13.5l-.07-.02,.07,.02Z"/><path class="e" d="M19.52,13.62l-.1-.02c.06,.01,.08,.02,.1,.02Z"/><path class="e" d="M19.35,13.67l.11,.05h0l-.11-.05Z"/><path class="e" d="M19.62,11.85h-.01c-.05-.03-.03-.02,.01,0Z"/><path class="e" d="M20.1,12.55l-.12-.06s-.03,0,.12,.06Z"/><polygon class="e" points="19.41 11.2 19.42 11.2 19.42 11.2 19.41 11.2"/><path class="e" d="M19.99,12.47c-.06,0-.05,0-.01,.02,.02,0,.05,0,.01-.02Z"/><path class="e" d="M19.02,14.07h-.01l.04,.02-.03-.02Z"/><path class="e" d="M19.05,14.09l.03,.02s0,0-.03-.02Z"/><path class="e" d="M19.14,14.15l-.06-.04s-.01,0,.06,.04Z"/><path class="e" d="M19.21,13.99l-.09-.04,.09,.04Z"/><path class="e" d="M19.2,13.93s-.21-.07-.16-.03l.07,.04c-.13-.07,.24,.07,.08-.01Z"/><path class="e" d="M20.43,14.27h-.09c.1,.04,.24,.09,.26,.12,.32,.08-.23-.09-.16-.12Z"/><path class="e" d="M20.63,14.2s.15,.06,.2,.09c-.08-.05-.11-.07-.2-.09Z"/><path class="e" d="M20.98,13.29l.24,.08s-.09-.03-.24-.08Z"/><polygon class="e" points="19.78 12.7 19.63 12.67 19.85 12.75 19.78 12.7"/><polygon class="e" points="21.55 13.16 21.59 13.18 21.51 13.12 21.55 13.16"/><path class="e" d="M21.87,11.48l-.31-.05c.05,.02,.4,.09,.31,.05Z"/><path class="e" d="M21.66,10.72c.16,.01,.26,0,.11-.03-.02,.01-.15,.01-.11,.03Z"/><polygon class="e" points="22.16 8.39 22.26 8.39 22.17 8.37 22.16 8.39"/></g></g><g><path class="j" d="M5.48,13.6c1.36,.99,2.01,2.65,2.66,4.2s1.48,3.18,3,3.92c1.35,.65,3.09,.39,4.18-.64"/><g><path class="e" d="M15.78,21.57c-.05-.07-.19-.21-.18-.16l.21,.25-.03-.09Z"/><path class="e" d="M15.25,21.22c.09,.14,.24,.37,.45,.59-.18-.26-.09-.17-.32-.47,0-.04,.1,.05,.18,.15-.05-.07,.08,.03-.05-.13-.2-.17-.23-.16-.12,.03-.05-.05-.1-.12-.14-.17Z"/><path class="e" d="M13.29,21.57l.02,.04s-.01-.03-.02-.04Z"/><path class="e" d="M12.2,21.38s.02-.04,.02-.07c-.01,.02-.02,.04-.02,.07Z"/><path class="e" d="M12.1,20.99v.02s0-.05,0-.02Z"/><path class="e" d="M13.29,21.57l-.05-.1c.01,.11,.03,.08,.05,.1Z"/><path class="e" d="M15.49,22.04s-.01-.05-.03-.08c0,.02,0,.03,0,.04l.03,.04Z"/><path class="e" d="M13.69,21.2h0l-.03-.13,.03,.13Z"/><path class="e" d="M14,21.03s.1,.25,.14,.36c-.04-.11-.06-.16-.06-.18l-.08-.18Z"/><path class="e" d="M14.75,21.17v0Z"/><path class="e" d="M13.43,21.2l-.03-.1,.03,.1Z"/><path class="e" d="M4.98,14.9l.03-.04s-.03,.04-.03,.04Z"/><polygon class="e" points="5.52 13.54 5.54 13.54 5.63 13.41 5.52 13.54"/><path class="e" d="M11.95,20.57h0s.01-.02,0,0Z"/><path class="e" d="M9.91,18.81c-.2,.16-.31,.1-.53,.29,.09-.06,.41-.17,.53-.29Z"/><path class="e" d="M15.46,22.02s0,.01-.02,.02c.01,0,.02,0,.02-.02Z"/><polygon class="e" points="9.38 19.1 9.38 19.1 9.36 19.12 9.38 19.1"/><path class="e" d="M11.34,20.45l-.06,.11,.06-.11Z"/><path class="e" d="M11.59,21.04v-.04s0,.04,0,.04Z"/><path class="e" d="M10.88,20.61s.03-.05,0-.03l-.02,.03s.04-.04,.02,0Z"/><path class="e" d="M10.65,20.41l-.03,.05h.02l.02-.05Z"/><path class="e" d="M5.65,15.46l.2-.16c-.16,.12-.24,.13-.2,.16Z"/><path class="e" d="M15.4,21.91c.04,.06,.06,.09,.06,.11v-.02s-.04-.07-.06-.08Z"/><path class="e" d="M9.48,22.33l-.03-.08s.01,.06,.03,.08Z"/><path class="e" d="M6.8,17.56h-.04s0,0,.04,0Z"/><path class="e" d="M9.25,22.13c.06-.08,.08-.13,.1-.17l-.06,.05-.04,.12Z"/><path class="e" d="M5.85,15.3h0Z"/><path class="e" d="M5.14,15.46s.29-.21,.46-.34c.12-.02-.2,.19-.33,.32,.1-.04,.38-.23,.38-.2-.05,.04-.06,.06-.13,.1,.26-.15,.08,.07,.4-.11l-.07,.06,.41-.3s.21-.1,.02,.05c0-.02-.08,.04-.15,.08l.1-.04c-.27,.22-.12,.04-.32,.19,.12-.03,.38-.15,.32-.06-.28,.2-.14,0-.36,.21l.08-.12c-.41,.34,.01-.05-.43,.31-.04,.11,.18-.04,.14,.07,.17-.09,.23-.16,.39-.25,.34-.1-.67,.53-.26,.35,.2-.11,.57-.33,.4-.16l-.34,.19c0,.07,.49-.26,.31-.06-.14,.07-.14,.02-.17,.05-.24,.2,.2-.09,.22-.05l-.29,.18c.08,.03,.34-.02,.43,.02-.09,.05-.19,.09-.27,.15,.2,0,.07,.21-.07,.39l.28-.1s-.11,.08-.17,.09c-.08,.09,.17-.08,.28-.12,.03,.01-.14,.1-.22,.13,.25-.05,.57-.06,.32,.15l-.08,.02c-.08,.1,.57-.2,.35-.03h-.05c-.06,.18,.24,.2-.12,.48,.39-.15-.12,.19,.42-.04-.24,.19-.34,.21-.48,.38-.01,.04,.35-.11,.43-.1l-.28,.12,.32-.08-.33,.17h.09s.12-.08,.2-.11c.15,0-.15,.2-.29,.26h.29c-.12,.06-.16,.06-.24,.07,.32-.06-.29,.14,0,.08,.06-.03,.17-.07,.23-.09-.16,.1-.13,.16-.04,.18l-.2,.07c-.01,.11,.17,.14,.21,.24,.08-.07,.42-.21,.46-.19l-.3,.14c.19-.06,.1-.08,.34-.14-.02,.05-.33,.17-.44,.19h.12c-.09,.04-.14,.05-.26,.1,.19-.06-.27,.21,.07,.1l-.09,.04c.04,.1,.16,.1,.21,.18,.26-.11,.22-.05,.43-.12-.06,.1-.23,.25-.17,.32,.15,0,.22-.08,.39-.13-.23,.11-.18,.17-.36,.21,.08,.07,.1,.09,.34,.11,.09-.06,.12-.09,.21-.12,.05,0-.08,.09-.19,.14h-.03c.4-.04-.53,.62,0,.49h-.03l.3-.02c-.01,.07-.19,.06-.31,.17,.43-.09,.04,.21,.34,.16-.62,.44,.19,.22-.17,.57l.15-.1c.16-.07-.07,.08-.09,.12,.12-.08,.12-.11,.21-.15,.31,.09,.05,.57,.09,.89,.02,.11,.77-.51,.5-.16l-.28,.17c.43-.09,.25,.33,.63,.25-.06,.04-.14,.11-.15,.09-.15,.19,.1,.12,.24-.01,0,.04-.12,.13-.18,.21-.07,.13,.3-.14,.14,.05-.02,.03-.06,.05-.08,.05,.1-.06,.07,.11,.25-.1-.04,.15,.18,.01,.12,.17,.24-.2,0,.2,.3-.12-.3,.34-.13,.37,.03,.23-.1,.1-.06,.14-.19,.27,.05,.03,.14,0,.28-.19-.24,.5,.42-.23,.06,.37,.28-.11,.49-.16,.67-.19-.23,.39-.16-.04-.4,.36,.22-.08,.48-.39,.54-.23,0,.07-.11,.16-.16,.23,.2-.1,.23,.16,.45-.01-.02,.04-.05,.08-.07,.1,.03,0,.03,.08,.1-.11l-.04,.04c.08-.29,.32-.54,.38-.68-.25,.53,.05,.18-.27,.85,.03-.03,.08-.12,.13-.24,0,.04-.01,.12-.09,.26,.12-.08,.17-.29,.24-.26-.03,.09-.06,.13-.1,.23,.1-.17,.2-.34,.23-.24-.02,.06-.04,.13-.05,.13,.12,0,.32-.45,.38-.24-.13,.41,0,.15-.07,.51l.09-.09v-.18c.07,.02,.17-.24,.19-.11l-.07,.14,.12-.05-.03-.15c.09-.18,.08-.47,.12-.35-.02,.04,.05,.01,.04,.24h0c.04-.11,.08-.24,.11-.14,0,.12-.06,.41-.06,.49,.06-.31,.14-.07,.2-.4-.02,.08-.03,.27-.03,.31l.04-.25c.02,.08,.02,.12,0,.28,.07,.05,0-.47,.08-.26,0,.02,0,.06-.02,.1,.08,.11,.17-.16,.25-.03,.02,.38-.07,.09-.05,.41,.13-.06,.25-.45,.36-.37l-.02-.04c-.02-.53,.1,.26,.14,0-.01,.04,0,.3,0,.24,.09,.08,.15-.15,.24-.33v.14c.07,.11,.14,.05,.2,.1,0-.14,.02-.12-.03-.31,.32,.73,.17-.47,.46,.13-.02,0,0,.12,0,.12l.08-.15c-.08-.22-.06-.13-.13-.29-.03-.14-.03-.25,0-.25,0,.16,.11,.35,.18,.47l-.07-.21c.19,.37-.14-.44,.02-.21l.04,.12c0-.07-.02-.23,.02-.2,.11,.25,.02,.13,.09,.33,.04-.03-.1-.5,.03-.27,.01,.08-.01,.09,0,.16,.15,.28,.13,.2,.18,.23h0l.13,.09-.05-.07c-.22-.66,.06-.16-.07-.61,.12,.42,.1,.23,.22,.51,.05,.07,.12,.14,.15,.22-.07-.24,.15,.14,.03-.2,.05,.09,.04-.01,.15,.21,.01-.09-.09-.14-.14-.25-.09-.32,.36,.27,.23-.19-.02-.21-.18-.49-.21-.67,.11,.11,.18,.31,.18,.31,.12,.09,.13,.05,.1-.07,.04,.07,.09,.13,.17,.21,.01-.04-.19-.3-.07-.21,.06,.09,.15,.24,.21,.34-.02-.1-.09-.27-.11-.36,.11,.13,.14,.22,.19,.32,0-.09,0-.2-.15-.42l-.08-.05s.15,.17,.17,.22c.1,.19-.11-.03-.17-.11l-.02-.07c-.38-.43-.03,.14-.11,.15l-.23-.35,.16,.31c-.07-.08-.21-.27-.23-.33-.15-.15,.06,.14-.1-.03-.02-.03-.03-.04-.04-.06l.04,.12c-.04-.08-.17-.24-.12-.2-.18-.17,.09,.31-.1,.06v-.02c0,.16,.15,.26,.27,.61l-.42-.62,.15,.27s-.04-.02-.1-.12c.07,.2,.07,.11,.15,.29-.17-.22-.05,.17-.29-.25,.09,.21,.12,.14,.15,.31-.25-.46,0,.11-.15-.09-.11-.25-.01-.14-.15-.34,.18,.42-.11-.06-.1,.03,.15,.33,0,.17,0,.3-.04-.11-.17-.15-.26-.26l-.02-.06c.11,.35,.04,.3,.03,.39-.07-.21-.09-.29-.1-.39h-.03c.03,.13,.04,.19,.03,.24l-.07-.27s0,.33-.1,.17c.06,.25,.23,.68,.2,.86-.04-.13-.1-.36-.09-.42,0,.02,0,.12-.02,.06l-.03-.23c-.05-.09,.03,.19,0,.18-.05-.19-.05-.13-.08-.29,0-.02,.04,.07,.03,0-.03-.03-.09-.13-.13-.28,.03,.11,.06,.26,.05,.29-.04,.02-.07-.23-.11-.32,.02,.14-.04,0,.02,.29-.01,0-.04-.13-.06-.21,0,.13-.1,.06-.02,.36v.02h0c-.04,.32-.19-.13-.25,0v-.1c-.05,.12-.11,.07-.13,.29-.02,0-.04-.18-.04-.3-.03,.08-.03,.19-.09,.03,.03-.17-.02-.15,.03-.13-.05-.08-.06-.24-.1,.03,.01-.25-.03-.32-.05-.24l.03,.18s-.04,.01-.06,0l.02-.33c-.05-.4-.19,.68-.2,0-.04,.23,.03,.17-.01,.44-.04-.05-.04-.53-.04-.53-.02-.19-.11,.48-.15,.34-.01,.12-.05,.43-.12,.53-.04-.05,.03-.5,.07-.59,.01,0,0,.03,0,.07,.02-.04,.04-.09,.05-.22l-.02,.12c0-.12-.05-.12,0-.31-.05,.11-.05,.19-.04,.25-.01-.18-.08-.02-.1-.14,0,.07-.03,.2-.04,.2-.04-.16-.08,.21-.15,.25,.02-.18,.12-.42,.03-.28,0-.13,.08-.3,.11-.4-.1,.21-.03-.16-.04-.21l.05-.08c-.03,.05-.04,.05-.04,.04l-.06,.23s0-.05,.02-.14c-.06,.14-.11,.38-.21,.57,.02-.12-.1,.1,0-.2,.02,.12,.1-.3,.16-.33-.02,.03-.03,.03-.03-.01,.01-.03,.02-.06,.03-.08,.05-.28-.14,.33-.19,.3,.07-.16,.11-.32,.09-.29,.02,.01-.1,.28-.17,.4,.02-.14-.08,.08-.09,.06v.07c-.08,.16-.09,.13-.14,.17,.05-.13,.06-.08,.08-.14-.16,.27,.07-.32-.05-.15,.04-.12,.15-.3,.17-.38-.14,.18,.07-.24-.05-.09-.1,.22-.07,.17-.21,.35l.15-.11-.21,.28s.12-.11,.11-.06c-.11,.16-.08,.11-.16,.29,.13-.33-.16,.15-.09-.08l.29-.52c.09-.25-.24,.22-.23,.05l-.03,.1c-.13,.19-.06,0-.13,.07,.11-.16,.14-.23,.2-.34-.08,.12-.04-.04-.27,.28l.12-.23c.02-.12-.39,.41-.4,.32,.15-.16,.21-.29,.33-.38-.01-.01,0-.05-.09,.06,.07-.1-.21,.18-.11,.02-.06,.06-.19,.22-.2,.19l.06-.08c-.06,.08-.11,.08-.24,.26,.35-.52-.18-.1,.13-.53-.08,.02-.16,.02-.2,0,.04-.04,.07-.07,.06-.05,.09-.17-.43,.37-.34,.18,.21-.25,.15-.09,.22-.19,.46-.45-.12,0,.13-.29l.04-.02c.14-.17-.24,.1-.24,.03l.07-.06c-.28,.19-.41,.19-.52,.21,.21-.14,.12-.06,.32-.23-.04,0-.32,.27-.41,.27,.1-.1,.17-.2,.39-.38l.04,.03c.27-.24-.05-.04-.01-.1l.13-.09c-.08-.02-.4,.21-.42,.13l-.09,.08c-.34,.19,.16-.16-.11-.03l.31-.24c-.09,.03-.37,.14-.46,.13,.26-.14,.42-.17,.58-.24-.01-.02-.08-.06-.25,.04,.04-.01,.13-.05,.08-.01-.28,.15-.43,.19-.46,.14,.65-.41,.08-.23,.56-.58-.29,.06,0-.22-.09-.3-.5,.33-.03-.02-.56,.29-.05,0-.04-.02-.01-.04l.28-.25c.15-.1,.13-.04,.25-.11,.01-.07,.22-.15,.34-.25-.19,.11-.28,.13-.23,.06l-.23,.17c-.33,.08,.42-.3,.1-.23l.18-.07c-.12,.01-.07-.13-.52,.05,.06-.04,.2-.12,.25-.13,.02-.12-.57,.02-.33-.18l.14-.06s-.27,.09-.14,0c.06-.03,.14-.06,.14-.07-.05,.01-.26,.06-.19,0l.16-.05c.14-.17-.44,.03-.57-.01,.4-.18,.5-.31,.55-.38l.06-.02c0-.13-.42-.04-.62-.08,.41-.25,.09-.31,.29-.52-.07,.05-.32,.13-.37,.13,.07-.06-.31,.05,.06-.11h0c.36-.16,.24-.17,.23-.22l-.49,.2c.66-.41-.38-.18,.23-.51-.13,.03-.15,0-.28,.02l.26-.11c.03-.1,.05-.16-.05-.22l.19-.06c0-.06-.77,.27-.81,.23l.38-.19c-.05-.09,.25-.34-.14-.27,.06-.02,.17-.07,.19-.07,0-.05,.18-.29-.34-.03,.34-.16-.01-.11-.18-.09l.25-.12c-.34,.12-.43,.16-.54,.14,.03-.03,.19-.11,.14-.06,.11-.11-.25,.08-.15-.04l.17-.06c0-.06-.09,0-.29,.06-.11,.02,.02-.12,.24-.24-.14,.06-.33,.14-.28,.08,.08-.05,.14-.07,.17-.07,.12-.17-.35,.04-.14-.14,.08-.05,.12-.07,.14-.09,.03,.07,.04,.12,.02,.13,.23-.12,.24-.19,.57-.32-.19,.05-.6,.18-.52,.08l.07-.05h.03s-.01-.03-.05-.02c.03-.04,.05-.06,.04-.08,.18-.11,.06-.12,.06-.15-.24,.14-.22,.09-.4,.24,.02-.01,.03-.01,.05,0,0,0,.02,0,.03,0h-.02s.03,.04,.05,.06c-.14,.05-.25,.09-.13-.01l-.41,.2c.32-.23,.46-.4,.66-.54-.18,0-.2-.13-.68,.11-.07,.02,.11-.11,.18-.16,.05-.02,.05,0,.12-.03-.14,.03-.12-.1-.44,.1,.1-.14,.3-.16,.2-.2l.1-.05c.38-.49-.92,.32-.43-.27-.03,.04-.04,.06-.09,.1,.12-.39-.51-.13-.27-.64,.03-.12-.14,.04-.29,.14l.2-.22-.29,.2c-.23,.13,.39-.65-.02-.37l-.12,.16c0-.06-.17,0-.02-.17-.03,.03-.15,.15-.09,.06l.1-.12-.25,.15c0-.14,.4-.48,.32-.58-.08,.02-.38,.29-.42,.39,0,.02-.02,.11-.12,.23l-.08,.04c-.28,.37-.57,.75-.72,1.05l.21-.2-.13,.19h-.04c-.11,.17,.01,.03,.1-.06-.07,.1-.12,.17-.14,.21l.31-.32c-.11,.14-.24,.27-.28,.36,.15-.15,.24-.33,.36-.41-.12,.18-.23,.3-.1,.18-.07,.09-.13,.15-.17,.18,.11-.1,.08,0,.25-.19-.16,.21,.11,0-.19,.33,.08-.07,.26-.23,.29-.23-.39,.36,.04,.08-.36,.48,.35-.32,.22-.08,.44-.23-.03,.02-.09,.07-.07,.05,0,.05-.11,.15-.16,.22,.29-.26,.39-.29,.59-.43-.26,.28-.36,.29-.62,.54,.23-.21,.28-.17,.47-.35-.16,.18-.07,.09-.31,.32,.37-.32,.08-.04,.32-.21-.16,.19-.35,.3-.2,.24-.1,.11-.26,.19-.26,.19Zm1.31,.43h0Zm.05,.09s0-.03-.01-.04c.08-.05,.17-.09,.17-.08-.06,.03-.1,.07-.16,.13Zm1.58-1.16s0,.03-.05,.06c0,0-.02-.01-.05-.01l-.03,.02,.13-.06Z"/><path class="e" d="M7.74,14.98h-.02l-.05,.05,.08-.04h0Z"/><path class="e" d="M13.31,21.61h0v0Z"/><polygon class="e" points="6.63 17.51 6.69 17.48 6.63 17.49 6.63 17.51"/><path class="e" d="M14.13,22.4s.02,.05,.03,.07l-.03-.07Z"/><path class="e" d="M14.44,22.35l.08,.08s-.06-.06-.08-.08Z"/><path class="e" d="M14.71,22.39l-.05-.11h0l.05,.11Z"/><path class="e" d="M10.86,22.77s0,0-.01,0c-.04,.04-.02,.03,.01,0Z"/><path class="e" d="M12.14,22.46s-.04,.1-.05,.13c.02,.02,.03,.03,.05-.13Z"/><polygon class="e" points="9.49 22.34 9.49 22.33 9.48 22.33 9.49 22.34"/><path class="e" d="M12.04,22.57c.01,.06,.03,.05,.05,.01-.01-.02-.03-.05-.05-.01Z"/><path class="e" d="M15.69,21.93h.02l-.03-.03v.03Z"/><path class="e" d="M15.67,21.89v-.03s-.02,0,0,.03Z"/><path class="e" d="M15.64,21.78l.02,.07s.02,0-.02-.07Z"/><path class="e" d="M15.34,22.02l.05,.09-.05-.09Z"/><path class="e" d="M15.28,22.1s.17,.15,.16,.07l-.04-.07c.07,.14-.2-.16-.12,0Z"/><path class="e" d="M14.33,21.2l.09,.04c-.06-.09-.14-.21-.13-.25-.22-.25,.13,.21,.04,.2Z"/><path class="e" d="M14.1,21.14c0-.06-.07-.14-.09-.2,.02,.1,.03,.12,.09,.2Z"/><path class="e" d="M12.87,21.43v-.26s0,.1,0,.26Z"/><polygon class="e" points="12.59 22.75 12.62 22.91 12.64 22.68 12.59 22.75"/><polygon class="e" points="12.53 20.93 12.54 20.89 12.5 20.98 12.53 20.93"/><path class="e" d="M10.86,20.26l-.21,.24c.05-.03,.29-.29,.21-.24Z"/><path class="e" d="M10.01,19.78c.12-.1,.19-.18,.05-.11,0,.03-.09,.12-.05,.11Z"/><polygon class="e" points="9.06 16.78 9.17 16.76 9.07 16.76 9.06 16.78"/></g></g></g></g></g></svg>