<?xml version="1.0" encoding="UTF-8"?><svg xmlns="http://www.w3.org/2000/svg" viewBox="0 0 105.07 116.89"><defs><style>.d{fill:#fff;}.e{fill:#efd35e;stroke:#000;stroke-miterlimit:10;stroke-width:2px;}</style></defs><g id="a"/><g id="b"><g id="c"><g><g><path class="d" d="M52.53,45.83c-9.39,0-17.03-10.06-17.03-22.42S43.14,1,52.53,1s17.03,10.06,17.03,22.42-7.64,22.42-17.03,22.42Z"/><path d="M52.53,2c8.84,0,16.03,9.61,16.03,21.42s-7.19,21.42-16.03,21.42-16.03-9.61-16.03-21.42S43.69,2,52.53,2m0-2c-9.96,0-18.03,10.48-18.03,23.42s8.07,23.42,18.03,23.42,18.03-10.48,18.03-23.42S62.49,0,52.53,0h0Z"/></g><g><path class="d" d="M27.13,59.45c-4.53,0-9.18-1.3-13.45-3.77-5.23-3.02-9.23-7.41-11.27-12.37-2.01-4.87-1.87-9.7,.38-13.59,2.68-4.65,7.96-7.31,14.48-7.31,4.53,0,9.18,1.3,13.45,3.77,10.7,6.18,15.59,17.83,10.9,25.96-2.68,4.65-7.96,7.31-14.48,7.31Z"/><path d="M17.27,21.41v2c4.35,0,8.83,1.26,12.95,3.63,10.23,5.9,14.95,16.94,10.53,24.59-2.5,4.33-7.46,6.81-13.61,6.81-4.35,0-8.83-1.26-12.95-3.63C3.95,48.91-.77,37.88,3.65,30.22c2.5-4.33,7.46-6.81,13.61-6.81v-2m0,0c-6.58,0-12.39,2.7-15.35,7.81-4.98,8.63,.06,20.86,11.26,27.33,4.56,2.63,9.43,3.9,13.95,3.9,6.58,0,12.39-2.7,15.35-7.81,4.98-8.63-.06-20.86-11.26-27.33-4.56-2.63-9.43-3.9-13.95-3.9h0Z"/></g><g><path class="d" d="M17.27,94.48c-6.52,0-11.8-2.67-14.48-7.31-2.25-3.9-2.38-8.72-.38-13.59,2.04-4.96,6.05-9.35,11.27-12.37,4.27-2.47,8.92-3.77,13.45-3.77,6.52,0,11.8,2.67,14.48,7.31,4.7,8.13-.19,19.78-10.9,25.96-4.27,2.47-8.92,3.77-13.45,3.77Z"/><path d="M27.13,58.44h0c6.15,0,11.11,2.48,13.61,6.81,4.42,7.66-.3,18.69-10.53,24.59-4.12,2.38-8.6,3.63-12.95,3.63-6.15,0-11.11-2.48-13.61-6.81-2.09-3.62-2.2-8.14-.32-12.71,1.96-4.76,5.81-8.98,10.85-11.88,4.12-2.38,8.6-3.63,12.95-3.63m0-2c-4.52,0-9.39,1.27-13.95,3.9C1.98,66.81-3.06,79.04,1.92,87.67c2.95,5.12,8.77,7.81,15.35,7.81,4.52,0,9.39-1.27,13.95-3.9,11.2-6.47,16.24-18.7,11.26-27.33-2.95-5.12-8.77-7.81-15.35-7.81h0Z"/></g><g><path class="d" d="M52.53,115.89c-9.39,0-17.03-10.06-17.03-22.42s7.64-22.42,17.03-22.42,17.03,10.06,17.03,22.42-7.64,22.42-17.03,22.42Z"/><path d="M52.53,72.06c8.84,0,16.03,9.61,16.03,21.42s-7.19,21.42-16.03,21.42-16.03-9.61-16.03-21.42,7.19-21.42,16.03-21.42m0-2c-9.96,0-18.03,10.48-18.03,23.42s8.07,23.42,18.03,23.42,18.03-10.48,18.03-23.42-8.07-23.42-18.03-23.42h0Z"/></g><g><path class="d" d="M87.8,94.48c-4.53,0-9.18-1.3-13.45-3.77-10.7-6.18-15.59-17.83-10.9-25.96,2.68-4.65,7.96-7.31,14.48-7.31,4.53,0,9.18,1.3,13.45,3.77,5.23,3.02,9.23,7.41,11.27,12.37,2.01,4.87,1.87,9.7-.38,13.59-2.68,4.65-7.96,7.31-14.48,7.31Z"/><path d="M77.94,56.44v2c4.35,0,8.83,1.26,12.95,3.63,5.04,2.91,8.89,7.13,10.85,11.88,1.89,4.57,1.77,9.09-.32,12.71-2.5,4.33-7.46,6.81-13.61,6.81-4.35,0-8.83-1.26-12.95-3.63-5.04-2.91-8.89-7.13-10.85-11.88-1.89-4.57-1.77-9.09,.32-12.71,2.5-4.33,7.46-6.81,13.61-6.81v-2m0,0c-6.58,0-12.39,2.7-15.35,7.81-4.98,8.63,.06,20.86,11.26,27.33,4.56,2.63,9.43,3.9,13.95,3.9,6.58,0,12.39-2.7,15.35-7.81,4.98-8.63-.06-20.86-11.26-27.33-4.56-2.63-9.43-3.9-13.95-3.9h0Z"/></g><g><path class="d" d="M77.94,59.45c-6.52,0-11.8-2.67-14.48-7.31-4.7-8.13,.19-19.78,10.9-25.96,4.27-2.47,8.92-3.77,13.45-3.77,6.52,0,11.8,2.67,14.48,7.31,2.25,3.9,2.38,8.72,.38,13.59-2.04,4.96-6.05,9.35-11.27,12.37-4.27,2.47-8.92,3.77-13.45,3.77Z"/><path d="M87.8,23.41h0c6.15,0,11.11,2.48,13.61,6.81,4.42,7.66-.3,18.69-10.53,24.59-4.12,2.38-8.6,3.63-12.95,3.63-6.15,0-11.11-2.48-13.61-6.81-2.09-3.62-2.2-8.14-.32-12.71,1.96-4.76,5.81-8.98,10.85-11.88,4.12-2.38,8.6-3.63,12.95-3.63m0-2c-4.52,0-9.39,1.27-13.95,3.9-11.2,6.47-16.24,18.7-11.26,27.33,2.95,5.12,8.77,7.81,15.35,7.81,4.52,0,9.39-1.27,13.95-3.9,11.2-6.47,16.24-18.7,11.26-27.33-2.95-5.12-8.77-7.81-15.35-7.81h0Z"/></g><circle class="e" cx="52.53" cy="58.45" r="16.45"/></g></g></g></svg>