<?xml version="1.0" encoding="UTF-8"?><svg xmlns="http://www.w3.org/2000/svg" viewBox="0 0 100.76 86.3"><defs><style>.d{fill:#8ac7e2;}.e{fill:#f6ebf7;}.f{fill:#99cee6;}.g{fill:#f7eef8;}</style></defs><g id="a"/><g id="b"><g id="c"><g><g><path class="d" d="M17.22,33.8h0c-7.71,1.95-13.48,9.08-15.09,16.87s.49,16.02,4.46,22.91c3.58,6.22,9.78,12.01,16.91,11.28,4.89-.5,9.05-4.05,11.55-8.29s3.61-9.12,4.68-13.92c.63,4.97,1.68,10.05,4.54,14.17s7.89,7.06,12.82,6.13c5.46-1.03,9.06-6.24,11.38-11.3,4.25-9.28,6.23-19.58,5.74-29.78,2.47,7.61,13.76,9.59,19.84,4.38s6.78-14.89,3.2-22.05c-2.44-4.86-6.73-8.92-11.96-10.4-5.24-1.48-11.35-.08-14.95,4.01,4.03-6.21-.32-15.95-7.64-17.09-7.44-1.16-13.91,5.25-17.58,11.83-3.07,5.51-3.54,16.17-7.75,20.5-4.98,5.13-13.35-1-20.15,.72Z"/><g><path class="f" d="M17.05,33.15c-.15,.13-.02,.28,.49,.16l.31-.39-.8,.24Z"/><path class="f" d="M20.54,33.45c.59-.16,1.31-.35,.95-.69-.62,.26-.77,.15-1.41,.49-.5,.02-.89-.07-.81-.2-.17,.11-.81-.05-1.06,.23,.7,.17,1.5,.11,2.38-.05,.18,.08,0,.16-.05,.22Z"/><path class="f" d="M50.91,5.72l-.25,.18c.08-.04,.16-.1,.25-.18Z"/><path class="f" d="M71.2,13.01c.01-.22-.01-.31-.04-.32,0,.2,0,.36,.04,.32Z"/><path class="f" d="M66.53,23.26c-.08,.08-.12,.11-.15,.13l-.11,.07c0,.07,.02,.08,.26-.2Z"/><path class="f" d="M50.91,5.72l.65-.46c-.03-.12-.35,.21-.65,.46Z"/><path class="f" d="M27.33,33.71c-.17-.02-.31-.01-.44,0l.41,.05s.02-.03,.04-.05Z"/><path class="f" d="M44.22,16.7l-.07,.23c.01,.08,.04,.16,.07,.23v-.46Z"/><path class="f" d="M41.55,26.54c.09-.22-.16-.38-.26-.5,.08,.16,.08,.34,.03,.54,.05,.02,.12,0,.22-.04Z"/><path class="f" d="M29.37,35.24h-.29c.08,0,.2,0,.29,0Z"/><path class="f" d="M47.39,10.4s.09,0,.14-.02c-.03-.02-.08,0-.14,.02Z"/><path class="f" d="M6.39,39.18s.03,.02,.04,.03c.02-.06,.02-.09-.04-.03Z"/><path class="f" d="M17.22,33.8l.02,.07h-.02l-.02,.02-.04,.02-.08,.03c0,.06,0,.11,0,.16l.07-.11,.04-.06,.02-.03h0v-.02h0l-.02-.08Z"/><path class="f" d="M78.78,14.81h-.04c-.22,.07-.09,.04,.04,0Z"/><path class="f" d="M71.84,57.51c.44-.9,0,1.61,.57,.24-.14,.11-.16-1.38-.57-.24Z"/><path class="f" d="M27.58,33.8l.41,.08c-.18-.05-.31-.07-.41-.08Z"/><path class="f" d="M72.41,57.75h0l.06-.14-.06,.14Z"/><path class="f" d="M95.54,23.61c.02-.06,.01-.15,0-.24-.02,.02-.03,.08,0,.24Z"/><path class="f" d="M83.91,14.33c.12,.03,.24,.07,.36,.11-.14-.06-.26-.09-.36-.11Z"/><path class="f" d="M98.44,31.01c0,.21-.02,.28,.05,.56,.01-.03,.02-.05,.03-.09-.05-.1-.09-.23-.08-.47Z"/><path class="f" d="M97.69,39.29s.07-.09,.1-.13l.07-.26-.17,.38Z"/><path class="f" d="M1.8,65.41c.02-.21,.07-.35,.13-.47-.15,.19-.58-1.07-.13,.47Z"/><path class="f" d="M27.3,33.87c.06-.06,.14-.08,.28-.07l-.29-.04s-.05,.07,0,.11Z"/><path class="f" d="M100.69,31.11c.05,.49,.04,.99,.07,1.48,0-.41,0-.95-.07-1.48Z"/><path class="f" d="M38.96,65.3l-.08-.32c.01,.12,.04,.24,.08,.32Z"/><path class="f" d="M100.54,36.98c-.14,.25-.24,.51-.33,.79,0,.06,0,.14,.03,.18,.13-.32,.2-.65,.3-.97Z"/><path class="f" d="M1.93,64.94h0Z"/><path class="f" d="M0,55.63c-.02,1.4,.36,.65,.57,.94,.17,1.63-.24,.77-.41,1.34,.17,1.03,.58,1.77,.68,2.52-.05,.06-.05,.21-.15,.05,.41,1.03,.58,3.16,1.28,4.27,0,.1-.02,.15-.04,.18,.12-.24,.3-.32,.44-.32,.16,.58,.53,1,.37,1.29-.11-.35-.21-.35-.33-.5,.09,.19,.19,.38,.29,.57-.16,.65-.38-.78-.61-.72,.45,1.17,1.2,2.42,1.46,3.32-.26,.32-.88-2.03-.73-.74-.13-.47-.26-.95-.36-1.43-.16,1.24-.24-.87-.47,.3,.55,1.89,.89,2.01,1.58,3.83,.35,.32,.19-.25,.55,.07,1.48,2.31,.18,2.34,1.58,3.9,.48,.34,.92,.29,1.53,1.61l-.59-.2c.51,.81,.8,.93,1.05,1.1,.26,.16,.48,.35,1.01,1.2-.35-.17-1.02-1.09-.88-.84,.55,1.21,.73,.58,1.35,1.34l-.12,.38c1.38,1.5,3.2,2.87,5.11,4.05-.16,.01-.54-.12-.16,.27,1.26,.71,2.64,1.43,4.1,1.96,1.47,.54,3.03,.84,4.5,.91,.37-.12,.73-.22,1.09-.35,.25-.03,.49,.07,.22,.16,1.14-.05,.03-.19,.55-.38,.61-.14,.85,0,.48,.17,.96-.31,2.25-.86,3.45-1.56,1.21-.69,2.32-1.49,3.19-2.02l-.25,.31c1.29-.94,.93-1.59,2.08-2.45l-.15,.24c1.19-1.19,2.16-2.69,2.96-4.14,.8-1.45,1.43-2.86,2.07-3.97-.2-.58,1.21-3.05,.68-3.42,.77-1.72,.75-1.18,1.55-3.68,.19-.67-.13-1.09,0-1.94l.31,.05-.02-.43-2.16-.1,.31,.72-.28,.67,.2,.8c-.04-.32,.03-.7,.13-.67,.31,1.23,.32,3.1,.17,3.16,.29,.98,.62,1.95,.98,2.9-.14-.03-.31-.51-.5-.89,.74,1.5-.25,.38,.47,1.75,0-.21,.21,.05,.28,.06,.05,.77,.65,2.4,1.3,3.51l-.3-.13c.95,2.12,2.58,4.3,4.61,6.04-.64-.72-.22-.83,.36-.35l.03,.44c.51,.16-.54-.6,.4-.15,.73,.63,.29,.7-.23,.43,.33,.23,.69,.42,1.03,.63,0,.12-.26,0-.39,.05,.25,.07,.65,.42,1.09,.77,.46,.33,.96,.66,1.37,.65l.02,.12c1.25,.56,2.22,.84,3.15,.99,.93,.15,1.82,.22,2.95,.15,.03-.27,.91-.28,1.52-.63,1.58-.21,3.39-.74,4.96-1.9,.98-.94,.17-.43,.53-.93,.25,.16,1.62-1.16,1.03-.36,.82-.8,1.27-1.37,1.75-2,.46-.65,.95-1.36,1.6-2.6-.25,.2-.47,.46-.45,.26,.24-.44,.69-.91,.76-.79l-.04,.13c1.29-2.83,3.82-6.13,4.16-8.65l-.02,.14c.21-.83,.38-1.67,.55-2.5,.38-1.1-.02,.73,.38-.05,.4-2.74,1.25-4.16,1.44-6.44,.55-.78,.83-2.32,1.01-3.94,.2-1.62,.27-3.33,.6-4.49l-.19,.12c-.13-.62,.15-.73,.22-1.18-.14,.06-.2,.65-.27,.27l.03-1.09v-.6l.03-.8c.01-.19,.03-.34,.05-.45,0,0,0-.09,.03-.02l.07,.19c.05,.12,.08,.24,.13,.33,.07,.16,.13,.29,.18,.39l.06,.14s.02,.04,.02,.05c.01,.02-.02,0,.03,.04l.18,.17c.46,.49,1.02,.83,1.54,1.24,.54,.37,1.12,.66,1.69,.97,2,.79,1.39-.36,3.81,.59-.26,.07-.53,.15-.79,.2,2.11,.24,4.25,.26,6.35-.15,2.09-.4,4.14-1.29,5.66-2.73-.15,.21-.1,.29-.43,.54,.93-.29,2.46-2.13,2.27-2.3,.43-.47,.23,0,.56-.23,.35-.28,.61-.78,.83-1.23,.24-.44,.42-.84,.62-.98,.07-.05-.05,.25-.11,.4,.09-.28,.41-.85,.65-1.31,.21-.48,.32-.84,.09-.65,.78-1.33,.87-2.75,1.31-3.87-.08-.41,.05-1.04,.17-1.6,.08-.57,.12-1.07-.09-1.21,.51,.15,.44-2.62,.11-3.53,.18,.3,.04-.83,.27-.48-.13-1.08-.42-2.04-.62-1.8,.08-1.03-.31-1.98-.67-2.79-.19-.4-.38-.78-.49-1.14-.14-.35-.21-.68-.17-1.01-1.57-2.82-3.51-5.07-5.67-6.91,.19-.13,.79,.39,1.32,.94,.53,.55,1.02,1.1,1.16,.9-1.95-1.96-3.37-2.7-5.57-4.22-.57-.41,.44,.03,.68,.1-2.38-1.33-4.77-2.46-7.25-2.57,.01-.04,.28-.04,.53-.03-.48-.08-1.11-.22-1.08,0h.47c.36,.19-.14,.28-.72,.36-.58,.07-1.25,.2-1.29,.26,.4-.28-.18-.34-.71-.38-.53-.05-1.02-.07-.39-.49-.32,.06-.7,.2-.62,.32-.47,0-.63-.06-.17-.26-1.7,.33-1.06,.45-2.56,.79-.02-.1,.27-.21,.4-.36-.73,.37-1.42,.76-2.65,1.2,.05-.09-.12-.1,.24-.26-.26,.12-.5,.24-.73,.36-.14,.07-.2,.11-.26,.15l-.19,.14c-.27,.19-.46,.39-.74,.62-.48,.45-.96,.9-1.56,1.46,.4-.52,.48-.66,.5-.7-.02,.01,.03-.07,.08-.14l.15-.24c.09-.15,.21-.33,.4-.58,.02-.04,.01-.12,.02-.23l-.33,.52c.1-.27,.13-.43,.12-.68,0-.24,.04-.56,.11-.86,.03,.17,.09,.31,.1,.42,.03-.19,.01-.31,.03-.58,.03-.37,.03-.73,0-1.1-.01,.4-.1,.85-.18,1.21-.05-.55-.17-.55-.25-.56-.08-.02-.1-.08-.09-.82,.02,.15,.02-.13,.03-.52,0-.39-.05-.89,.02-1.21h0c-.19-.54-.49-1.05-.63-1.87,.03-.24,.45,.03,.48-.13-.26-.21-.48-.85-.82-1.46-.17-.3-.34-.61-.51-.87-.18-.25-.38-.44-.54-.54,.19,.15,.37,.06,.36-.03l-.47-.25c-.22-.49-.25-.57-.07-.59-.99-1.27-.04,.68-1.1-.9,.12,.09,.09,.02,.32,.23-1.2-1.52-2.85-2.36-4.43-3.08-.35-.56,1.48,.51,1.05-.01-1.22-.5-2.59-.83-3.91-.78-.66-.05-1.31,.08-1.95,.11-.63,.13-1.26,.17-1.85,.33l.45-.07c-.11,.3-.55,.35-1.12,.39-.56,.08-1.26,.18-1.76,.55,.25-.17,.24-.43,.19-.35-1.58,.61-3.02,1.69-4.78,3.44,.04-.11,.09-.2,.15-.3-.41,.27-.89,.7-1.37,1.14-.45,.47-.93,.92-1.28,1.31-.1,.33-.51,.76-.12,.62-1.33,.98-2.18,2.3-2.85,3.62-.69,1.32-1.25,2.65-2.05,3.87,.13-.32,.2-.8,.1-.55-.28,.77-.5,1.56-.7,2.34,.28-.11,.22-.26,.56-.68,.02,.33-.07,1.01-.25,1.57,.18-1.07-.37-.1-.61,.31,.09-.06,.12,.12,.2,.1-.73,1.09,.38,.32-.33,1.9l-.09-.12c-.1,.63-.1,1.24-.3,1.9-.33,.21,.05-.69-.15-.78-.23,.94,.02,1.97-.46,2.74,.03-.41,.18-.98,.21-1.4-.54,.84-.49,.97-.72,1.63l.02-.06-.57,1.52,.2-.37c.33,1.35-.56,2.37-.72,4.02,.15-1.62-.14-.33-.38-.56-.21,.36-.55,.87-.56,.68-.07,.79-.67,1.03-.86,2.08-.11-.01-.43,.64-.54,.36-.44,.81,.26-.08,.32,.05-.07,.17-.15,.35-.25,.52-.12,.16-.25,.31-.39,.46-.26,.33-.64,.55-1,.81-.17,.14-.37,.25-.58,.33-.2,.1-.41,.2-.61,.32-.45,.13-.86,.41-1.35,.57-1.71,.45-2.12,.72-3.89,.7-.57-.23,.52-.29,.52-.29-.93-.25-1.63-.35-2.54-.4,.2-.05,.02-.16-.22-.32-.72-.12-.54,.26-1.46-.08,.18-.07,.43-.2,.79-.24-.86-.09-1.73-.08-2.63-.16-.2-.21,.58-.15,.91-.2-1-.13-2.62-.32-2.97-.07,.21,.05,.42,.11,.63,.18-.36-.05-.16-.26,.12-.26,.9-.07,1.22,.29,1.25,.4l-.64-.05c.55,.66,2.52,.39,3.77,.68l-.6,.3,1.35-.08c.25,.15,.4,.42-.23,.37,.87,.36,.82,0,1.57,.35,.08,.05,.04,.06-.04,.07h.91c-.18,.05,.12,.3-.43,.17,.79,.24,1.48,.16,2.01,.13,.54-.09,.93-.17,1.26-.03l-.14,.03c1.14-.24,1.17-.35,1.13-.44-.05-.11-.12-.16,.58-.61,.21,.06,.43,.11,.66,.16,.22,.04,.45,.04,.68,.05l.05-.38c.22-.1,.62-.34,.61-.2,.55-.74-.19-.01,.07-.5,.25-.13,.54-.31,.78-.56,.23-.26,.46-.54,.67-.8,.35-.56,.69-1,.95-1,0-.46-.7,.83-.24-.28,.31-.02,.45-.34,.6-.75,.14-.41,.24-.92,.56-1.34,.12,.39-.4,1.23,.24,.38-.18-.74,.81-1.83,.98-2.69-.32-.14,.4-1.83,.64-3.25,.1,.12,.86-2.56,1.33-3.8l.05,.05c-.29-.34,.13-1.64,.36-2.61,.2,.1,.23,.3,.17,.83l.27-.88c-.05-.24-.03-.54,.14-1.12l.18,.31c.37-1.16,.54-2.42,1.48-3.69-.17-.21-1.27,.75-.55-.81,.15,.02,.39,.08,.21,.49,.06-.13,.16-.51,.36-.73l-.14,.7c.46-.57,.01-.43,.35-.91,.16,.11,.35-.29,.44-.13-.06,.13-.34,.38-.39,.61,.38-.53,.9-1.13,1.17-1.25-.13-.02-.22-.15,.03-.55,.7-1.01,.43-.21,.94-.71,.07-.32,.66-.84,.45-1.04,.24-.27,.38-.23,.53-.28,.28-.59,1.99-2.16,1.26-1.88l-.13,.1,.06-.08h0c1.29-1.7,3.4-2.7,5.16-3.67l.04,.09c.51-.34,1.15-.56,1.74-.81,.61-.17,1.16-.41,1.58-.55,.36-.05,.87,.06,.73,.2,.45-.1,.71-.11,1.01-.15,.15-.01,.32-.02,.53,0,.21,.03,.46,.08,.79,.15-.93,.09,.3,.17-.94,.05,.59,.07,.93,.19,1.3,.23,.36,.07,.71,.15,1.36,.15-.46,.11,.7,.59,1.21,.76-.2-.19-.44-.31-.67-.48,.6,.16,1.06,.48,1.53,.76l-.43,.14c.47,.33,.85,.72,1.31,.99,.4,.34,.84,.61,1.21,.94,.75,.65,1.4,1.4,1.5,2.36,.25,.22,.14-.08,.02-.4-.11-.32-.28-.62,0-.46,.27,.49,.4,1.07,.49,1.54,.05,.49,.07,.86,.13,1.02,.24,1.44,.89,1.2,.94,2.8,.11-.2,.42-.45,.57,.78-.07,1.1-.61,1.55-.62,.65,.01-.26,.06-.38,.1-.37-.05-.36-.12-.81-.24-.38l.12,.14c-.02,.14-.04,.33-.09,.53-.02,.12-.03,.17-.06,.36-.03,.18-.03,.35-.09,.53-.04,.18-.09,.35-.12,.49-.05,.16-.17,.35-.23,.47-.14,.26-.22,.36-.19,.17-.79,2-.01,.56,.54-.72-.28,.68-.66,1.42-.94,2.06-.15,.33-.29,.64-.42,.95-.23,.44-.46,.87-.68,1.3-.45,.86-.9,1.72-1.37,2.63-.11,.2-.21,.39-.32,.59l-.3,.54c-.22,.39-.45,.8-.69,1.23l.2-.13c.01-.08,.14-.31,.29-.54,.21-.31,.34-.5,.34-.47,.03-.03,.05-.06,.07-.07,.06-.02,.12-.05,.18-.08,.02,0,.09-.07,.16-.14l.19-.19c.27-.28,.48-.5,.64-.68,.37-.41,.59-.69,.85-1.02,.49-.61,.89-1.19,1.98-2.29,.95-.59-1.05,1.58,1.48-.96,.62-.43,.71-.41,.52-.15-.19,.25-.66,.75-1.01,1.11,.31-.31,.6-.58,.88-.83l.41-.36,.2-.17,.17-.1c.43-.25,.89-.49,1.27-.66,.52-.16,.98-.25,1.33-.35-.2,.11-.4,.21-.59,.33,.34-.22,.66-.31,.97-.43l-.44-.09c.39-.11,.71-.2,.74-.1,.36-.27-.43-.29,.32-.73,.28-.02,.69-.13,1.05-.22,.37-.07,.7-.1,.82,.04-1.71,.17,.22,.25-1.17,.58,.26-.1,.59-.17,.99-.18,.06,.03-.05,.07-.15,.11,.81,0,.98-.06,1.16-.21,.18-.15,.37-.32,1.23-.33-.21,.17,.39,.34,.66,.32-.67-.03-.32-.31,.32-.42,1.08,.24,1.2,.03,1.77,.15l-.64-.18c.25-.13,.8-.04,1.57,.11,.03,.15-.71-.08-.45,.05,.93-.12,1.78,.83,2.93,1.12,.45,.34-.09,.32,.31,.6,1.28,.41,1.13,.88,2.37,1.49-.2-.41-.28-.44,.65-.02-.64-.44-1.33-.8-2.01-1.15,.48,.15,.97,.31,1.44,.51-.58-.41-1.33-.68-1.68-.91,.72,.17,.62,.21,.43-.15,.65,.79,1.77,.86,2.51,1.77l-.4,.44c1.07,1.25,2.42,1.75,3.62,3.6-.11-.21-.22-.42-.34-.62,.38,.08,.84,1.06,1.3,1.61-.2,.05-.02,.46,.02,.78,.12-.11,.77,1.38,1.18,1.4l.16,.99c.53,1.65,1.25,1.69,1.58,3.39-.32-.45-.27,.32-.69-.74,.16,.54,.19,1.05,.34,1.03-.03,.33,.53,1.5,.41,2.05,.11,.23,.31,.29,.34,.93-.04,.07-.1,0-.1,0,.1,0,.19,1,.38,.43-.14,.45-.23,.98-.27,1.55-.08,.56-.1,1.17-.18,1.77-.15,1.19-.39,2.36-.9,2.99-.27,1.21-.91,2.56-1.46,3.53-.01-.09-.07-.05,.05-.22-1.02,1.15-.01,1.15-1.34,2.39-.82,.47,.48-.83,.02-.48-.32-.12-.62,.3-1.06,.76-.39,.51-.96,1-1.52,1.19l.2-.2c-.79,.32-1.68,1.33-3.1,1.73,0,0,.05-.07-.02-.1-.83,.66-2.75,1.06-4.2,1.1,.45-.22,.65-.13,.38-.37-.64,0,.19,.42-1.11,.43-.42-.13-1.31-.44-1.38-.71,.39,.05,.78,.12,1.17,.15-.55-.44-1.51-.17-2.1-.43l.11-.13c-.88-.17-1.32-.27-1.8-.34-.49-.05-.96-.23-1.81-.71,.04,.07,.07,.15,.11,.21-.55-.14-.72-.32-.86-.5-.15-.18-.29-.36-.77-.62,.02-.16,0-.35-.05-.57-.09-.06-.18-.15-.29-.24-.1-.12-.22-.14-.34-.35-.24-.36-.5-.74-.76-1.09-.49-.53-1.12-1.81-1.54-2.48-.04,.16-.08,.3-.1,.24-.03-.01-.05-.04-.08-.07l-.06-.44c0-.09-.02-.1-.02-.26v-.52c.14,.2,.33,.52,.55,.92l.35,.65,.19,.37,.1,.18,.08,.11c.42,.59,.87,1.29,1.27,1.92-.32-.58-.81-1.47-1.31-2.39-.11-.15-.3-.64-.45-.96-.16-.34-.31-.68-.46-1.01-.29-.64-.56-1.18-.75-1.57l.02,.81c.01,.11,.03,.22,.06,.34,0-.27,0-.58-.01-.89,.19,.37,.42,.86,.65,1.47l-.42-.56c.01,.32,.03,.66,.04,1.02,0,.13-.03,.19-.07,.19-.02,.01-.05-.04-.07-.02l.04,.59,.05,1.12c-.21-.61-.32-.64-.37-.26-.05,.38-.06,1.16-.05,2,.02,.9-.02,1.66-.07,2.39-.03,.36-.06,.7-.11,1-.05,.28-.12,.4-.2,.55,.15,2.56-.51,5.03-.98,7.94,.77-.93-.13,.86,.5,.79-.09,.69-.16,.95-.21,1-.26,.67-.52,1.32-.81,1.98-.29,.44,.02-.67-.13-.64-.4,1.46-.4,.56-.79,1.48,.27-.14,.17,.58-.14,1.39l.59-1.1c-.24,2.13-.97,1.62-1.3,3.74,0-.23,.02-.46,.03-.7-.22,1.08-1.29,3.79-1.27,4.95-.14,.15-.39,.33-.25-.14-.52,1.19-.99,2.58-1.51,3.84-.52,1.26-1.12,2.42-1.8,3.16l-.02-.25c-.22,.42-.23,.84-.71,1.23-.03-.06,0-.24-.14-.07-.1,.23-.56,1.15-1.05,1.55,.08-.16,.15-.34,.22-.51-.87,.84-1.45,1.55-2.06,2.18-.6,.64-1.2,1.25-2.12,1.71-.17-.35-1.92,.14-2.8,.13l.02-.07c-1.28,.14-2.4,.12-3.51-.04-1.11-.16-2.23-.46-3.4-1.07-.57-.62-1.66-1.44-2.66-2.53-1.02-1.07-1.94-2.4-2.43-3.62,.12,.39-.33,.11-.59-.29-.21-.59-1.01-1.45-.59-1.52l.08,.21c.16-.58-.38-1.72-.66-2.69h-.55c-.01-1.18-.34-2.54-.65-3.9-.31-1.35-.61-2.67-.63-3.64l-.14-5.85-1.91,5.76c-.11,.35-.24,.63-.4,.83-.02,.67-.2,1.47-.22,2.13l-.27-.1c-.49,1.73-.73,2.59-1.34,4.73l-.06-.49c-.39,1.17,.29,1.75-.11,2.84l-.52,.16c-.82,2.02-2.13,3.72-3.1,5.57-.03-.07-.09-.19,.1-.47-.29,.4-.95,1.08-1.48,1.65-.54,.56-.94,1.02-.62,1.11-.26-.25-1.64,1.39-2.59,2.05v-.33c-.64,.75-.62,.9-1.84,1.49-.31,.08-.34-.11,.08-.19-.52,.13-.7,.23-.9,.36-.2,.14-.45,.26-1.1,.33l.43-.28c-.53,.12-.77,.16-.95,.23-.18,.07-.29,.18-.59,.29-.34,.06-.87,.11-1.33,0-.45-.09-.83-.22-.89-.35-.16,.13-.79,.24-1.41,.04-.06-.12,.18-.1,.3-.12-1.7-.58-2.71-.54-3.74-1.36,.02-.09-.03-.18-.1-.25,1.27,.73,2.37,1.09,2.26,1.08,.08-.25-.96-.69,0-.7-.9-.08-2.53-.47-3.42-1.24-.03-.05-.06-.1-.07-.16l.11,.04c-.2-.17-.41-.28-.62-.37-.26-.26-.42-.43-.7-.65,.02-.23-.95-.96-1.36-1.38-.16,.24-.68-.35-.33,.34-.05-.09,.1,.06,.4,.32,.07,.05,.15,.12,.21,.15h-.05c.3,.24,.67,.59,1.14,.94-.46-.17-.91-.42-1.3-.97-.36-.07-.72-.19-.92-.26-.34-.85-1.2-2.19-1.14-2.52-1.3-1.3-2.57-3.41-3.58-4.19-.32-.43-.16-.61-.18-.82,.19,.24,.36,.56,.51,.67-.66-.84-1.46-2.75-1.89-2.83-.39-1.29,.59,.55-.17-1.1l.2,.18c-.43-1.76-1.1-3.03-1.71-4.43-.6-1.39-1.16-2.91-1.02-4.94,0,.28,0,.42-.06,.48-.14-2.27-.27-4.59-.05-6.91,.21-2.31,.76-4.61,1.89-6.54,.61-1.1,.46-1.32,.68-2.09l.39-.1c.1-.45,.25-.87,.38-1.31,.4-.86,1.03-1.44,1.71-2,.33-.29,.67-.59,1.03-.92,.34-.35,.68-.74,1.04-1.22l-.36,.06c.62-.59,1.98-1.85,2.02-1.57,.05-.08,.1-.33,.44-.44l.11,.11c.5-.49,1.07-.89,1.63-1.34,1.51-.59,.05,.61,2.17-.27,.19-.09,.42-.22,.65-.36,.24-.12,.48-.25,.68-.38,.21-.12,.38-.24,.48-.33l.06-.06,.02-.02h0l-.12-.48,.11,.43h-.03c-.34,.09-.9,.16-.97,.02l.76-.31c0-.12,.04-.26,.06-.38l.07,.25c-.06-.21-.11-.42-.18-.66-.03-.02-.06-.04-.09-.06-.07-.03-.17-.06-.29-.07-.25-.03-.62-.01-1.16,.07-.44,.26-.87,.54-1.29,.8-.18-.02-.35,0-.53,0,.37-.2,.77-.33,1.16-.5-.75,.05-1.1,.41-1.49,.76-.16-.06-.39-.04-.68,.06-.37,.36-.7,.75-1.04,1.12-.25-.06,.38-.65-.53-.22-.45,.56,.75-.03-.09,.72-.69,.23-.65-.04-1.19,.61-.16-.02-.08-.2,.16-.44-.5,.57-1.5,1.28-1.59,1.74-.75,.29-1.67,1.83-1.96,1.47-.06,.26-.58,1.22-.94,1.78,.15-.66-.23-.15-.67,.46-.45,.6-.89,1.35-1.05,1.06-.09,1.02-1.44,3.02-1.71,4.67,0-.1-.01-.29,.06-.42-.37,.83-.56,1.06-.83,1.59,.32,.22,.05,1.62,.14,2.4-.56,1.02-.33-.75-.74-.49,.31,.01-.03,1.98,.29,1.64-.34,.81-.2,.71-.58,1.11,.46,.2,0,.8,.26,1.53-.31,1.21-.48,.3-.35,1.66C.16,56.85,0,55.63,0,55.63Zm14.21,27.45h0l-.56-.36,.56,.36Zm2.38,1.3c-.3-.15-.66-.33-1.05-.53-.03-.14,.09-.16,.34-.04-.16,0,.38,.32,.72,.57Zm-3.47-4.59c.31,.23,.38,.36,.39,.43-.15-.1-.31-.25-.54-.42h-.06c.06-.02,.13-.03,.21,0Z"/><path class="f" d="M12.35,79.59s-.08-.05-.14-.09c.04,.07,.09,.14,.13,.2l.16,.03-.16-.14Z"/><path class="f" d="M50.61,5.93l.04-.03s-.08,.04-.11,.05c.03-.02,.04-.01,.06-.02Z"/><polygon class="f" points="40.9 63.33 40.83 63.32 40.84 63.56 40.9 63.33"/><path class="f" d="M42.59,17.64s-.07,.06-.12,.16c.02,0,.07-.07,.12-.16Z"/><path class="f" d="M40.94,23.61l-.32,.81c.15-.35,.25-.6,.32-.81Z"/><path class="f" d="M39.42,28.03c.03,.07,.05,.1,.08,.13h0l-.09-.13Z"/><path class="f" d="M83.93,12.42c.07,.01,.13,.02,.2,.02,.46,.03,.15,0-.2-.02Z"/><path class="f" d="M72.09,10.28c.09,.23,.17,.47,.24,.72-.04-.42-.08-.74-.24-.72Z"/><path class="f" d="M100.68,30.95h0l.02,.16-.02-.16Z"/><path class="f" d="M72.4,12.1c.03-.42,.04-.78-.07-1.09,.05,.34,0,.75,.07,1.09Z"/><path class="f" d="M23.14,32.89l-.23-.05s-.01,.03-.03,.04h.26Z"/><path class="f" d="M22.87,32.88h-.26c.12,0,.22,.03,.26,0Z"/><path class="f" d="M22.05,32.88h.56c-.19-.03-.43-.07-.56,0Z"/><path class="f" d="M29.3,34.18l.09-.09s-.07,.04-.09,.09Z"/><path class="f" d="M31.13,34.35c-.43-.02-1.07-.32-1.68-.33l-.07,.07c.3-.12,1.32,.44,1.74,.26Z"/><path class="f" d="M38.49,32.5c-.4,.4-.73,.86-1.21,1.18,.29-.11,.71-.28,.12,.27,.49-.29,.67-.47,.72-.55,.06-.08,0-.06-.08-.06-.14,.01-.29,0,.44-.84Z"/><path class="f" d="M40.91,28c-.26,.84,.15,.04,.19,.11,.1-.56,.12-.69-.19-.11Z"/><path class="f" d="M60.14,1.28l-.06,.26c.61-.05,0-.1,.06-.26Z"/><path class="f" d="M66.99,1.75c-.15-.19-.33-.33-.5-.5l-.4,.04c.3,.15,.63,.27,.91,.45Z"/><path class="f" d="M68.55,5.81c-.06-.07-.11-.13-.18-.19,.23,.24,.42,.52,.64,.78l-.45-.59Z"/><path class="f" d="M97.86,37.8l.35-.11c.05-.43-.28-.58-.35,.11Z"/><path class="f" d="M79.09,46.72c-.15-.28-.63-.74-1.07-.85,.43,.32,.81,.74,1.07,.85Z"/><path class="f" d="M42.1,68.73l.23,.46c-.12-.3-.22-.6-.32-.9l.09,.44Z"/></g></g><g><path class="e" d="M90.67,27.17c2.16,3.74,2.58,8.43,1.13,12.5"/><g><path class="g" d="M91.17,39.44c.08,.04,.26,.1,.23,.07l-.31-.12,.07,.06Z"/><path class="g" d="M91.79,39.53c-.14-.07-.4-.19-.7-.27,.29,.13,.17,.08,.52,.23,.03,.03-.11,0-.22-.05,.08,.03-.08,0,.12,.08,.25,.06,.27,.04,.08-.06,.07,.02,.15,.05,.21,.07Z"/><path class="g" d="M92.78,37.88h-.04s.03,0,.04,0Z"/><path class="g" d="M93.16,36.75s.04,.02,.07,.02c-.02-.01-.04-.02-.07-.02Z"/><path class="g" d="M93.55,36.59h-.02s.05,0,.02,0Z"/><path class="g" d="M92.78,37.88h.11c-.11-.03-.08-.01-.11,0Z"/><path class="g" d="M91.11,39.04s.04,.03,.08,.04l-.03-.02-.05-.02Z"/><path class="g" d="M92.93,38.45h0l.13,.05-.13-.05Z"/><path class="g" d="M92.87,38.85s-.26-.08-.37-.12c.11,.04,.16,.06,.18,.07l.19,.05Z"/><path class="g" d="M92.22,39.31l.03,.02-.03-.02Z"/><path class="g" d="M93.05,38.18l.1,.02-.1-.02Z"/><path class="g" d="M89.72,28.19l.04-.02s-.04,.02-.04,.02Z"/><polygon class="g" points="90.74 27.14 90.75 27.13 90.89 27.06 90.74 27.14"/><path class="g" d="M93.94,36.24h0s.03,0,0,0Z"/><path class="g" d="M93.69,32.72c-.24,.07-.33-.02-.6,.07,.11-.02,.44,0,.6-.07Z"/><path class="g" d="M91.15,39.05s0-.01,0-.02c-.01,0-.01,0,0,.02Z"/><path class="g" d="M93.1,32.79h0Z"/><path class="g" d="M93.83,35.35h0Z"/><path class="g" d="M93.4,35.97h.04s-.04,0-.04,0Z"/><path class="g" d="M93.45,35s.06-.01,.02-.02h-.03s.06,.01,.01,.02Z"/><path class="g" d="M93.45,34.65h-.06l.02,.02,.04-.02Z"/><path class="g" d="M90.25,28.95l.22-.12c-.18,.09-.26,.08-.22,.12Z"/><path class="g" d="M91.26,39.09c-.07-.02-.1-.04-.11-.05h.01l.1,.05Z"/><path class="g" d="M91.23,34.94l.04-.05s-.04,.03-.04,.05Z"/><path class="g" d="M91.01,30.98h-.04s0,0,.04,0Z"/><path class="g" d="M91.24,34.75c.1,0,.16-.02,.19-.03h-.07l-.12,.03Z"/><path class="g" d="M90.47,28.83h0Z"/><path class="g" d="M89.74,28.83s.34-.14,.53-.22c.12,0-.23,.14-.4,.24,.1-.01,.42-.13,.42-.1-.05,.03-.07,.04-.14,.07,.28-.09,.06,.09,.41-.02l-.08,.04,.46-.21s.23-.06,.01,.05c0-.01-.09,.02-.16,.05l.11-.02c-.31,.16-.12,.02-.36,.13,.12,0,.41-.08,.33,0-.31,.14-.14-.02-.4,.14l.1-.1c-.47,.25,.02-.04-.49,.22-.06,.1,.19,0,.12,.09,.18-.06,.25-.12,.43-.18,.35-.04-.76,.4-.32,.29,.22-.07,.61-.23,.42-.1l-.36,.13c-.01,.07,.52-.18,.31-.02-.14,.05-.14,0-.18,.03-.26,.15,.21-.05,.23-.02l-.31,.13c.07,.04,.33,.02,.42,.07-.1,.03-.2,.06-.29,.11,.2,.03,.04,.2-.13,.36l.29-.07s-.12,.06-.18,.07c-.09,.07,.18-.06,.29-.08,.03,.01-.15,.08-.24,.1,.25-.03,.57,0,.29,.16l-.09,.02c-.1,.09,.59-.13,.35,0h-.05c-.08,.15,.21,.19-.19,.41,.41-.11-.15,.16,.42,0-.26,.14-.37,.16-.53,.3-.02,.03,.36-.07,.43-.05l-.3,.08,.32-.05-.35,.12h.08s.13-.05,.21-.07c.15,0-.18,.16-.33,.2l.28,.03c-.12,.03-.17,.02-.25,.03,.32-.03-.31,.09-.02,.07,.07-.02,.18-.04,.24-.06-.17,.07-.16,.13-.08,.15l-.21,.04c-.04,.09,.13,.13,.15,.21,.09-.05,.45-.13,.49-.11l-.32,.08c.2-.03,.11-.05,.36-.07-.03,.04-.36,.1-.46,.11h.12l-.27,.06c.2-.03-.3,.13,.04,.08l-.09,.02c.02,.08,.13,.1,.17,.16,.28-.05,.22-.02,.45-.04-.08,.07-.29,.17-.25,.22,.14,.02,.24-.03,.4-.04-.25,.05-.22,.11-.4,.11,.05,.07,.07,.08,.29,.14,.1-.03,.14-.05,.23-.06,.04,.01-.1,.06-.22,.07h-.03c.4,.05-.7,.35-.16,.36h-.03l.29,.05s-.19,0-.35,.05c.43,.04-.04,.15,.25,.2-.74,.15,.08,.21-.39,.34l.18-.02c.18,0-.1,.03-.14,.05,.14-.02,.16-.04,.25-.03,.23,.16-.23,.39-.38,.57-.04,.07,.92-.01,.5,.09h-.33c.41,.11,0,.26,.34,.38-.08,0-.18,0-.17-.02-.24,.03-.01,.1,.19,.1-.02,.02-.18,0-.28,.02-.14,.03,.31,.07,.07,.08-.04,0-.08,0-.1-.01,.12,.02-.03,.08,.25,.06-.13,.05,.12,.09-.04,.13,.31,.03-.15,.08,.29,.09-.45,0-.36,.08-.15,.12-.14-.01-.14,.02-.33,0,0,.03,.09,.07,.32,.07-.54,.05,.43,.15-.27,.16,.24,.11,.4,.22,.5,.32-.45-.03-.04-.11-.51-.13,.18,.1,.57,.17,.45,.26-.06,.02-.19-.03-.27-.04,.18,.1-.06,.17,.18,.27-.04,0-.09-.02-.12-.03,.01,.02-.07,.03,.13,.05l-.05-.02c.3,0,.61,.12,.77,.13-.58-.08-.15,.07-.89-.04,.04,.01,.13,.04,.27,.05-.04,.01-.12,0-.28-.02,.11,.07,.32,.07,.32,.12-.1-.01-.14-.02-.25-.04,.19,.04,.38,.09,.29,.13-.06,0-.14-.01-.13-.02,.02,.08,.5,.19,.31,.25-.43-.08-.14,.01-.51-.03l.1,.06h.18s.25,.11,.13,.13l-.15-.05,.06,.08,.15-.02c.18,.07,.47,.06,.36,.1-.04-.02-.01,.04-.23,.03h0c.11,.04,.24,.07,.14,.09l-.49-.07c.31,.06,.07,.1,.4,.18-.08-.02-.27-.05-.31-.05l.25,.05c-.08,0-.12,0-.28-.02-.05,.05,.47,.05,.26,.09-.02,0-.06-.01-.09-.03-.11,.05,.14,.15,0,.19-.37-.05-.08-.07-.4-.1,.06,.1,.42,.26,.31,.32h.04c.52,.1-.27,0-.03,.09-.04-.02-.29-.07-.23-.06-.1,.04,.1,.14,.25,.26l-.13-.04c-.13,0-.09,.07-.15,.1,.13,.04,.1,.06,.3,.09-.78-.06,.36,.31-.29,.26,0-.01-.11-.06-.11-.05l.1,.11c.23,.05,.14,.02,.32,.05,.13,.04,.23,.09,.22,.11-.14-.08-.36-.09-.49-.1l.21,.06c-.41-.06,.45,.12,.16,.11l-.12-.03c.05,.04,.2,.1,.16,.12-.26-.06-.11-.06-.33-.11,0,.04,.47,.2,.21,.16-.07-.03-.06-.06-.13-.09-.31-.05-.24-.02-.29-.01h0l-.15,.02h.09c.66,.23,.1,.13,.52,.31-.4-.17-.24-.08-.53-.16-.08,0-.18-.01-.26-.04,.23,.09-.2,0,.14,.13-.09-.03-.02,.03-.25-.05,.06,.06,.16,.04,.28,.08,.31,.15-.43,0-.01,.22,.16,.12,.47,.23,.6,.35-.16-.03-.33-.13-.33-.13-.15,0-.13,.02-.04,.09-.08-.03-.15-.05-.26-.07,.02,.03,.33,.13,.18,.12l-.36-.15c.08,.06,.24,.14,.31,.2-.16-.05-.24-.1-.34-.15,.06,.06,.12,.14,.37,.24h.1s-.22-.06-.26-.08c-.19-.1,.1-.01,.2,.02l.05,.04c.55,.16-.06-.12-.01-.15l.39,.15-.31-.15c.11,.02,.33,.09,.38,.13,.21,.03-.13-.07,.1-.03,.03,0,.05,.02,.07,.02l-.11-.07c.08,.03,.28,.08,.22,.09,.25,.01-.27-.19,.04-.12h.02c-.11-.11-.29-.09-.61-.25l.73,.18-.29-.1s.04-.02,.16,.02c-.19-.09-.13-.03-.31-.11,.28,.04-.09-.15,.38-.02-.22-.08-.18-.01-.33-.1,.51,.13-.07-.07,.17-.05,.26,.08,.11,.08,.35,.11-.43-.15,.12-.05,.04-.1-.35-.1-.13-.11-.23-.19,.12,.03,.22-.05,.36-.07l.06,.02c-.35-.1-.27-.13-.34-.19,.21,.05,.3,.08,.39,.13v-.04c-.1-.04-.16-.06-.2-.1l.26,.07c0-.05-.29-.17-.1-.19-.25-.06-.7-.12-.86-.22,.14,.03,.37,.08,.42,.11-.02,0-.11-.05-.05-.04l.22,.08c.11,0-.19-.06-.16-.08,.19,.04,.14,.02,.29,.05,.02,.01-.08,0,0,.03,.04-.02,.16-.02,.31,0-.11-.02-.26-.06-.28-.08,0-.05,.24,.04,.34,.03-.13-.04,.01-.04-.27-.11,0-.01,.14,.01,.22,.02-.12-.05-.01-.12-.33-.16h-.03c-.27-.14,.2-.14,.09-.24l.1,.02c-.1-.07-.04-.12-.25-.19,0-.01,.18,0,.3,.03-.07-.05-.17-.07,0-.1,.16,.07,.15,.01,.12,.06,.09-.03,.25-.02,0-.12,.25,.06,.32,.02,.25-.02h-.18s0-.05,.02-.07l.33,.07c.42-.04-.65-.29,.03-.26-.23-.06-.17,.03-.44-.03,.05-.04,.53-.02,.53-.03,.19-.04-.47-.13-.34-.18-.12,0-.43-.04-.54-.11,.05-.04,.5,0,.59,.05,0,.01-.03,.01-.07,0,.04,.02,.09,.05,.22,.05l-.12-.02c.12,0,.12-.07,.31-.03-.11-.05-.19-.04-.26-.02,.18-.04,.02-.09,.14-.14-.07,0-.21,0-.2-.02,.15-.07-.22-.07-.27-.13,.18-.01,.43,.06,.28-.02,.13-.02,.31,.03,.41,.05-.22-.08,.16-.09,.2-.12l.09,.04c-.05-.02-.05-.04-.05-.05h-.24s.05-.04,.14-.02c-.15-.03-.39-.03-.6-.08,.12-.01-.12-.08,.19-.06-.11,.06,.32,.02,.36,.09-.04-.02-.03-.03,0-.04,.04,0,.06,0,.08,.02,.29-.05-.35-.07-.34-.14,.18,.03,.34,.01,.3,0,0,.03-.3-.01-.43-.05,.14-.03-.1-.06-.08-.08l-.07,.02c-.18-.02-.15-.04-.2-.08,.14,0,.09,.04,.15,.03-.31-.06,.33-.06,.12-.12,.12-.01,.33,.02,.42,0-.22-.07,.25-.05,.06-.12-.24,0-.18,0-.41-.05l.16,.11-.34-.08s.15,.07,.11,.09c-.19-.04-.13-.04-.33-.03,.36-.02-.2-.09,.04-.12l.59,.04c.27-.06-.3-.14-.14-.22l-.1,.02c-.23-.02-.03-.06-.12-.09,.2,.01,.27,0,.39-.01-.15,0,.02-.07-.38-.09l.26-.03c.11-.07-.56-.1-.49-.17,.21,.03,.35,0,.51,.05,0-.02,.04-.04-.1-.05,.12-.01-.26-.07-.07-.09-.09-.01-.29-.02-.28-.04h.1c-.1,0-.13-.04-.35-.02,.62-.06-.05-.19,.48-.26-.07-.05-.13-.11-.15-.16,.06,0,.1,0,.08,0,.18-.07-.57-.03-.36-.1,.32-.04,.17,.03,.29,.01,.65-.02-.09-.09,.29-.14h.04c.22-.03-.25-.07-.2-.14h.1c-.33-.03-.44-.11-.54-.16,.25,0,.14,.02,.39,0-.04-.02-.41,.03-.49-.02,.14-.02,.26-.07,.53-.08l.02,.05c.35-.04-.02-.06,.04-.09h.16c-.06-.08-.45-.06-.42-.14l-.12,.02c-.39-.02,.22-.05-.08-.08l.39-.04c-.1-.02-.39-.07-.46-.12,.29,0,.45,.06,.62,.08,0-.03-.04-.1-.23-.1,.04,0,.14,.02,.08,.03-.31-.01-.47-.05-.46-.1,.76-.05,.18-.16,.77-.26-.29-.08,.1-.22,.04-.34-.59,.11-.02-.03-.63,.04-.04-.02-.03-.03,0-.04l.35-.13c.17-.04,.14,.01,.27,0,.04-.07,.25-.06,.41-.12-.22,.04-.31,.02-.23-.03l-.27,.09c-.33-.04,.5-.14,.17-.19h.19c-.12-.03-.02-.17-.51-.14,.07-.02,.23-.05,.28-.04,.05-.12-.56-.15-.27-.28l.15-.02s-.28,.01-.14-.04c.06,0,.15-.02,.16-.03-.05,0-.27,0-.19-.05h.17c.17-.15-.43-.09-.55-.16,.43-.08,.56-.19,.62-.25h.06c.03-.14-.4-.14-.6-.21,.45-.17,.14-.27,.38-.45-.07,.04-.33,.08-.38,.07,.08-.05-.31,0,.08-.09h0c.38-.1,.27-.13,.27-.18l-.51,.12c.71-.3-.35-.2,.3-.44-.13,0-.14-.02-.28-.01l.27-.08c.05-.09,.07-.14-.02-.21l.2-.04c0-.06-.8,.17-.83,.13l.4-.14c-.03-.08,.29-.28-.1-.25,.06-.02,.18-.05,.2-.04,0-.04,.22-.25-.33-.05,.36-.12,0-.1-.17-.09l.27-.08c-.35,.08-.44,.11-.55,.09,.03-.02,.21-.08,.15-.04,.12-.09-.26,.05-.14-.05l.17-.04c0-.05-.08-.02-.29,.03-.11,.01,.04-.1,.27-.2-.15,.05-.35,.09-.29,.04,.09-.04,.15-.05,.18-.05,.15-.14-.34,0-.11-.14,.09-.03,.13-.05,.15-.07,.02,.06,.02,.11,0,.11,.24-.09,.26-.15,.61-.24-.2,.03-.62,.12-.52,.03l.08-.04h.03s0-.03-.05-.02c.03-.03,.06-.05,.06-.07,.2-.08,.09-.1,.09-.12-.26,.11-.23,.06-.44,.17,.02-.01,.03,0,.05,0,0,0,.01,0,.03,0h-.02s.03,.04,.04,.06c-.14,.03-.26,.06-.12-.02l-.43,.14c.35-.17,.52-.31,.74-.41-.17-.01-.16-.13-.67,.03-.07,0,.13-.08,.2-.12,.05,0,.05,0,.12-.02-.14,.01-.1-.1-.44,.04,.13-.12,.32-.11,.24-.15l.11-.04c.48-.37-.96,.17-.34-.28-.04,.03-.05,.04-.11,.07,.22-.31-.43-.2-.05-.59,.07-.09-.14,0-.32,.06l.26-.15-.33,.11c-.26,.06,.59-.46,.12-.32l-.17,.11s-.16-.04,.05-.14c-.03,.01-.19,.09-.1,.03l.14-.08-.28,.06c.07-.11,.55-.3,.53-.4-.07,0-.45,.14-.53,.2,0,.02-.07,.08-.21,.16h-.09c-.41,.24-.83,.46-1.08,.68l.27-.1-.19,.13-.03-.03c-.17,.13,0,.05,.12,0-.1,.06-.17,.11-.21,.14l.41-.17c-.16,.09-.33,.16-.4,.23,.19-.08,.35-.22,.48-.25-.17,.12-.33,.2-.16,.14-.1,.06-.17,.09-.22,.11,.14-.05,.08,.03,.31-.08-.22,.15,.1,.04-.29,.25,.1-.04,.33-.13,.35-.11-.49,.21,.01,.09-.49,.34,.43-.19,.24,0,.5-.07-.03,.01-.11,.04-.09,.03-.02,.04-.14,.12-.22,.17,.35-.17,.45-.17,.68-.25-.32,.2-.42,.18-.74,.36,.28-.14,.31-.08,.54-.21-.2,.13-.09,.07-.38,.23,.44-.21,.09-.01,.37-.12-.2,.14-.41,.21-.26,.18-.13,.08-.3,.12-.3,.12Zm1.2,.65h0Zm.04,.08s0-.03,0-.04c.09-.04,.18-.07,.18-.06-.06,.02-.11,.06-.18,.1Zm1.74-.9s0,.03-.06,.05c0,0-.02-.01-.04-.01h-.03l.13-.03Z"/><path class="g" d="M92.36,28.77h-.02l-.06,.03,.08-.03h0Z"/><path class="g" d="M92.73,37.88h0Z"/><polygon class="g" points="90.85 30.92 90.92 30.9 90.86 30.91 90.85 30.92"/><path class="g" d="M91.67,38.19h0Z"/><path class="g" d="M91.55,38.39h-.1c.06,0,.09,0,.1,0Z"/><path class="g" d="M91.38,38.52l.12,.04h0l-.12-.04Z"/><path class="g" d="M91.52,35.83s0,0-.01,0c-.05-.02-.03,0,.01,0Z"/><path class="g" d="M92.09,36.7l-.13-.04s-.03,.02,.13,.04Z"/><polygon class="g" points="91.23 34.95 91.23 34.95 91.23 34.94 91.23 34.95"/><path class="g" d="M91.97,36.62c-.06,0-.05,.02-.01,.04,.02,0,.05-.02,.01-.04Z"/><path class="g" d="M91.04,39.18h-.01l.04,.02-.03-.02Z"/><path class="g" d="M91.07,39.2l.03,.02s0,0-.03-.02Z"/><path class="g" d="M91.16,39.26l-.06-.04s-.01,.01,.06,.04Z"/><path class="g" d="M91.23,39.01l-.1-.03,.1,.03Z"/><path class="g" d="M91.22,38.93s-.22-.03-.17,.01l.08,.03c-.14-.06,.25,.03,.09-.04Z"/><path class="g" d="M92.52,39.02l-.1,.04c.11,.02,.25,.05,.27,.08,.33,.02-.24-.05-.17-.12Z"/><path class="g" d="M92.72,38.87s.15,.04,.21,.06c-.09-.05-.11-.06-.21-.06Z"/><path class="g" d="M93.04,37.5l.25,.05s-.1-.02-.25-.05Z"/><polygon class="g" points="91.78 37.02 91.62 37.01 91.85 37.06 91.78 37.02"/><polygon class="g" points="93.6 37.15 93.64 37.17 93.55 37.11 93.6 37.15"/><path class="g" d="M93.7,34.71h-.32c.06,.03,.41,.03,.32,0Z"/><path class="g" d="M93.35,33.69c.16-.02,.26-.06,.1-.06-.02,.02-.14,.06-.1,.06Z"/><polygon class="g" points="93.36 30.52 93.47 30.51 93.38 30.5 93.36 30.52"/></g></g><g><path class="g" d="M69.39,55.48c-.09,0-.28,.02-.24,.06h.33l-.09-.06Z"/><path class="g" d="M68.79,55.83c.16,.04,.45,.08,.75,.02-.32-.03-.19-.05-.57-.07-.04-.04,.1-.08,.22-.09-.09,0,.07-.07-.14-.08-.25,.08-.26,.15-.04,.2-.07,.02-.16,.01-.22,.01Z"/><path class="g" d="M68.02,59.8l.04-.02s-.04,0-.04,.02Z"/><path class="g" d="M67.19,62.11s-.03-.04-.06-.05c.01,.02,.03,.04,.06,.05Z"/><path class="g" d="M66.71,62.38l.03-.02s-.05,0-.03,.02Z"/><path class="g" d="M68.02,59.8l-.12,.04c.1,.03,.09-.02,.12-.04Z"/><path class="g" d="M69.62,56.36s-.05-.03-.09-.04c.01,.01,.03,.02,.04,.04h.05Z"/><path class="g" d="M67.94,58.69v-.02l-.13-.03,.13,.05Z"/><path class="g" d="M67.96,57.88s.27,.04,.39,.06c-.11-.02-.17-.04-.19-.05h-.2Z"/><path class="g" d="M68.49,56.59l-.04-.02,.04,.02Z"/><path class="g" d="M67.78,59.26h-.1s.07,0,.1,0Z"/><path class="g" d="M54.57,78.22v-.05s0,.05,0,.05Z"/><polygon class="g" points="53.81 76.63 53.83 76.62 53.88 76.47 53.81 76.63"/><path class="g" d="M66.1,62.96h0s-.02-.02,0,0Z"/><path class="g" d="M63,69.25c.26,.06,.2,.28,.51,.33-.1-.05-.31-.33-.51-.33Z"/><path class="g" d="M69.59,56.39s0,.02,0,.04c0-.02,0-.03,0-.04Z"/><path class="g" d="M63.5,69.58h0Z"/><path class="g" d="M65.56,64.61s.08,.03,.12,.04c-.03-.01-.06-.02-.12-.04Z"/><path class="g" d="M66.46,63.58l-.05,.02s.04,0,.05-.02Z"/><path class="g" d="M65.61,65.4s-.06,0-.04,.03h.03s-.04-.03,0-.03Z"/><path class="g" d="M65.28,66.04h0Z"/><path class="g" d="M57.22,77.99c-.04-.07-.06-.16-.09-.24,.05,.19-.06,.29,.09,.24Z"/><path class="g" d="M69.46,56.37c.07,0,.11,0,.12,.02,0,0,0-.02-.02-.03-.04,0-.08,0-.11,0Z"/><path class="g" d="M67.58,66.43l-.09,.09s.07-.05,.09-.09Z"/><path class="g" d="M62.13,74.68v.04s.02-.02,0-.04Z"/><path class="g" d="M67.36,66.85c-.1-.03-.16-.03-.2-.03,.02,.01,.03,.03,.06,.05l.15-.02Z"/><path class="g" d="M57.12,77.75h0Z"/><path class="g" d="M56.32,78.54c.14,0,.03-.37,.04-.58,.14-.12,.1,.26,.18,.44,.09-.11,.12-.45,.19-.45,.01,.06,.03,.08,.03,.16,.05-.31,.3-.07,.34-.45,.01,.03,.03,.06,.03,.09-.06-.18-.1-.36-.12-.49,.05-.02,.05-.25,.12-.02-.03,0-.01,.1-.01,.17l.03-.11c.13,.33-.05,.13,0,.39,.09-.14,.15-.44,.25-.37,.1,.33-.17,.16,.02,.42l-.16-.1c.22,.5-.09-.02,.13,.52,.21,.05,.17-.22,.37-.17-.01-.19-.09-.26-.1-.46,.14-.39,.45,.76,.5,.26-.03-.23-.15-.64,.05-.47l.09,.38c.19-.03-.1-.55,.16-.38,.03,.15-.08,.17-.04,.2,.23,.24,0-.23,.08-.27l.15,.31c.16-.13,.24-.44,.39-.59,.04,.09,.05,.21,.15,.27,.16-.27,.52-.24,.85-.23l-.08-.3s.11,.08,.12,.15c.15,.03-.1-.16-.13-.28,.03-.05,.16,.09,.18,.19,0-.31,.07-.72,.4-.59l.03,.09c.19,0-.27-.56,0-.43l.02,.06c.31-.11,.35-.52,.83-.38-.28-.32,.34-.09-.08-.5,.33,.07,.37,.18,.68,.12,.06-.03-.22-.31-.22-.41l.24,.2-.18-.29,.32,.19-.02-.11s-.15-.04-.21-.1c-.04-.17,.34-.08,.46,.01l-.04-.37c.1,.08,.1,.14,.14,.22-.17-.3,.27,.17,.12-.1-.07-.03-.14-.12-.19-.16,.19,.06,.28-.06,.28-.19l.16,.14c.16-.13,.16-.4,.28-.57-.13,0-.42-.22-.41-.29l.28,.16c-.14-.15-.14-.02-.3-.22,.08-.04,.34,.16,.4,.26l-.04-.14c.08,.05,.11,.1,.21,.17-.15-.15,.37,.04,.11-.2l.08,.05c.12-.18,.08-.32,.16-.47-.23-.16-.14-.18-.31-.35,.14-.06,.4-.05,.47-.19-.06-.16-.18-.16-.3-.29,.22,.13,.28,0,.39,.16,.06-.17,.08-.22,.03-.52-.1-.04-.16-.04-.22-.1-.01-.06,.14-.02,.24,.05l.02,.02c-.19-.42,.95-.09,.61-.55l.02,.02-.12-.33c.09-.06,.13,.15,.3,.18-.24-.42,.25-.27,.1-.58,.72,.28,.23-.47,.74-.38l-.16-.08c-.12-.13,.12,0,.17-.01-.12-.07-.17-.04-.23-.11,.05-.48,.68-.63,1.05-.94,.12-.12-.75-.54-.28-.51l.26,.22c-.18-.49,.35-.58,.21-1.03,.06,.05,.14,.1,.13,.13,.24,.06,.13-.22-.04-.31,.04-.03,.16,.07,.26,.09,.16,0-.19-.3,.04-.22,.04,.01,.06,.05,.07,.07-.08-.09,.12-.17-.14-.26,.17-.05,0-.26,.19-.27-.24-.2,.23-.12-.15-.33,.4,.22,.42-.02,.27-.19,.11,.09,.16,0,.31,.12,.03-.08,0-.19-.22-.28,.56,.09-.25-.48,.42-.26-.1-.34-.15-.63-.15-.89,.41,.2-.07,.26,.37,.45-.07-.29-.38-.56-.19-.72,.08-.03,.17,.11,.23,.16-.08-.28,.22-.38,.07-.66,.04,.02,.07,.05,.1,.09,0-.04,.1-.06-.1-.13l.04,.06c-.3-.06-.52-.38-.66-.45,.52,.29,.21-.12,.86,.25-.03-.04-.1-.11-.23-.15,.05-.02,.13,0,.26,.09-.05-.17-.27-.21-.22-.32,.09,.04,.12,.08,.22,.13-.16-.13-.31-.26-.19-.33,.05,.03,.13,.04,.12,.07,.04-.18-.36-.47-.13-.6,.39,.2,.16-.02,.51,.1l-.07-.14-.19-.02c.04-.09-.19-.26-.05-.29l.12,.12v-.19l-.18,.05c-.15-.15-.45-.14-.31-.23,.03,.04,.03-.09,.26-.06h0c-.1-.08-.2-.16-.09-.2,.12,.02,.39,.14,.47,.15-.28-.14-.02-.24-.32-.4,.07,.04,.26,.1,.3,.11l-.23-.11c.09-.02,.13-.01,.28,.04,.08-.11-.46-.1-.23-.19,.02,.02,.05,.02,.08,.06,.15-.12-.07-.34,.09-.44,.37,.06,.05,.15,.37,.18,0-.22-.31-.54-.19-.71l-.05,.03c-.51-.15,.29-.08,.07-.24,.03,.03,.28,.1,.22,.08,.11-.12-.06-.31-.18-.55l.13,.05c.14-.05,.12-.2,.19-.27-.13-.05-.1-.1-.3-.1,.81-.14-.33-.58,.35-.71,0,.03,.11,.09,.11,.06l-.09-.22c-.23-.01-.14,0-.33,.03-.13-.04-.23-.11-.22-.16,.14,.11,.37,.05,.5,.02-.07,0-.15-.03-.22-.03,.42-.06-.46-.07-.17-.18l.12,.02c-.06-.06-.21-.13-.17-.18,.27,0,.12,.07,.34,.1,0-.09-.49-.21-.22-.26,.07,.04,.07,.09,.14,.13,.32-.05,.24-.07,.3-.13h0l.16-.12-.09,.03c-.68-.16-.11-.22-.55-.39,.42,.16,.25,.04,.55,.07,.09-.03,.18-.08,.27-.06-.24-.08,.2-.11-.16-.22,.1,0,.01-.07,.26-.05-.07-.09-.17,.01-.29,0-.33-.14,.41-.31-.04-.51-.19-.17-.51-.19-.68-.34,.15-.05,.36,.04,.36,.04,.14-.09,.11-.15,0-.22,.09,.01,.16,0,.26-.03-.03-.06-.36-.03-.22-.12,.11,0,.28,.02,.4,.05-.09-.07-.28-.14-.37-.21,.17-.03,.26,.03,.37,.06-.08-.08-.17-.22-.44-.23l-.09,.06s.23-.03,.28-.01c.21,.06-.09,.11-.18,.12l-.07-.05c-.57,.09,.1,.21,.08,.32l-.42-.03,.35,.1c-.11,.03-.34,.05-.4,0-.2,.08,.15,.06-.07,.13-.04,0-.06,0-.07,0l.13,.07c-.09-.01-.29,.02-.23-.03-.24,.13,.31,.21,0,.26h-.03c.14,.17,.31,0,.66,.15l-.76,.08,.3,.02s-.04,.06-.16,.05c.21,.08,.13,0,.33,.04-.28,.08,.12,.26-.36,.26,.23,.04,.18-.08,.34,.03-.52,0,.09,.12-.15,.19-.27-.04-.12-.11-.37-.04,.45,.08-.11,.15-.03,.23,.36,.03,.14,.16,.25,.29-.12-.02-.22,.2-.36,.29h-.06c.36,.05,.28,.16,.35,.25-.22-.03-.3-.06-.4-.11v.07c.11,.03,.17,.06,.2,.12l-.27-.06c0,.1,.29,.25,.08,.35,.25,.05,.72,0,.87,.17-.14-.02-.37-.05-.42-.09,.02,.01,.11,.06,.04,.08l-.22-.09c-.11,.04,.19,.06,.16,.11-.19-.03-.14,.01-.3-.02-.02-.02,.09-.03,.01-.06-.04,.05-.17,.09-.32,.09,.11,.01,.26,.04,.28,.09,0,.1-.24,0-.35,.03,.13,.05-.02,.09,.27,.14,0,.03-.14,0-.22,0,.12,.08,0,.25,.31,.25h.03c.25,.23-.24,.32-.16,.51l-.1-.02c.09,.13,.01,.24,.2,.36,0,.03-.19,.03-.3-.02,.05,.09,.16,.13-.03,.2-.14-.12-.15-.01-.1-.11-.11,.08-.27,.06-.04,.23-.23-.1-.33-.01-.27,.05l.19-.02c.02,.06-.01,.1-.05,.14l-.31-.12c-.44,.08,.56,.55-.14,.5,.21,.12,.19-.06,.43,.07-.07,.08-.55,.03-.56,.05-.22,.06,.42,.26,.26,.35,.12,.02,.42,.11,.5,.24-.07,.08-.51-.05-.58-.14,0-.02,.04-.02,.08,0-.03-.04-.07-.1-.2-.1l.11,.05c-.13,0-.16,.13-.33,.04,.08,.1,.17,.09,.25,.06-.2,.06-.07,.18-.22,.26,.07,0,.21,.03,.2,.05-.2,.12,.18,.15,.19,.29-.19,0-.39-.17-.3,0-.14,.03-.3-.1-.38-.16,.17,.19-.22,.14-.28,.19l-.07-.09c.04,.05,.03,.08,.02,.11l.23,.06c-.05,.02-.06,.04-.16,0,.13,.09,.38,.12,.55,.26-.13,0,.07,.18-.23,.08,.15-.1-.3-.1-.3-.24,.03,.04,.01,.06-.04,.08-.03,0-.06-.03-.07-.04-.31,.02,.31,.19,.24,.33-.16-.08-.32-.1-.3-.06,.02-.05,.28,.09,.39,.19-.16,.03,.06,.13,.02,.17l.08-.03c.16,.09,.12,.12,.14,.21-.13-.05-.06-.09-.13-.09,.26,.19-.36,.02-.21,.2-.13,0-.31-.13-.4-.12,.16,.2-.27,.01-.15,.2,.23,.07,.18,.04,.36,.21l-.07-.25,.26,.26c.03-.05-.08-.18-.03-.19,.15,.13,.1,.1,.29,.16-.36-.07,.12,.24-.14,.22l-.54-.25c-.3,.02,.17,.36-.04,.46h.12c.2,.11-.02,.11,.04,.2-.18-.09-.26-.09-.38-.12,.13,.06-.07,.11,.28,.3l-.27-.04c-.16,.09,.43,.4,.3,.5-.17-.13-.33-.14-.42-.29-.02,.04-.07,.06,.05,.13-.12-.03,.18,.24,0,.19,.07,.06,.25,.16,.21,.2-.04-.01-.09-.04-.09-.04,.09,.04,.08,.14,.3,.19-.62-.15-.16,.39-.69,.26,0,.12,0,.27-.03,.36-.05-.03-.09-.05-.06-.05-.22,.03,.46,.34,.21,.38-.32-.08-.11-.15-.24-.17-.58-.29,0,.2-.39,.11l-.02-.04c-.23-.04,.12,.28,.02,.37,0,0-.05-.03-.09-.05,.25,.24,.26,.44,.28,.59-.2-.16-.09-.12-.33-.22,0,.07,.37,.19,.38,.32-.14-.04-.28-.03-.53-.16l.04-.1c-.34-.13-.05,.12-.14,.14l-.13-.08c-.04,.16,.3,.36,.19,.49l.11,.04c.29,.28-.23-.04-.03,.18l-.35-.18c.05,.1,.22,.38,.23,.51-.22-.2-.28-.39-.39-.55-.03,.05-.08,.19,.07,.32-.02-.04-.09-.12-.02-.11,.23,.22,.31,.39,.24,.49-.64-.41-.33,.17-.88-.06,.13,.33-.33,.3-.42,.53,.55,.24-.02,.07,.5,.38,0,.07-.02,.08-.05,.07l-.4-.04c-.17-.06-.08-.12-.2-.19-.11,.08-.25-.09-.43-.11,.19,.1,.24,.2,.13,.22l.29,.06c.18,.32-.52-.14-.34,.18l-.13-.15c.05,.14-.18,.28,.18,.63-.07-.02-.22-.1-.24-.15-.18,.15,.17,.7-.17,.68l-.12-.09c.01,.06,.2,.21,.04,.17-.05-.04-.12-.09-.13-.08,.03,.05,.16,.23,.06,.23l-.12-.13c-.28,.08,.17,.5,.15,.71-.37-.24-.58-.18-.69-.15l-.05-.04c-.18,.18,.08,.55,.09,.84-.47-.15-.43,.28-.78,.3,.08,.02,.28,.2,.29,.26-.1-.01,.16,.3-.16,.05h.02c-.34-.21-.32-.07-.38,0l.41,.33c-.74-.29-.13,.62-.74,.28,.07,.12,.03,.17,.1,.29l-.21-.19c-.15,.05-.21,.09-.28,.25l-.13-.16c-.07,.05,.52,.64,.46,.72l-.32-.27c-.12,.12-.48-.03-.34,.36-.04-.05-.12-.14-.11-.17-.06,.05-.4-.03,0,.4-.25-.29-.15,.08-.12,.26l-.16-.23c.16,.32,.22,.4,.19,.55-.04-.01-.15-.17-.08-.13-.15-.07,.1,.25-.07,.19l-.07-.17c-.08,.03-.02,.1,.06,.3,.02,.12-.18,.04-.33-.17,.07,.13,.14,.33,.06,.3-.06-.08-.07-.14-.08-.17-.22-.09-.02,.39-.24,.2-.05-.08-.07-.12-.09-.14,.1-.04,.19-.08,.19-.06-.13-.22-.23-.22-.35-.56,.05,.2,.14,.62,0,.56l-.05-.07v-.03s-.04,.02-.03,.06c-.04-.03-.07-.05-.1-.04-.1-.19-.14-.06-.18-.05,.12,.25,.05,.24,.2,.43-.01-.02,0-.03,.02-.06,0-.01,0-.02,0-.03v.02s.06-.04,.1-.06c.03,.14,.05,.27-.07,.15,.05,.18,.1,.36,.13,.44-.22-.33-.42-.48-.52-.7-.06,.2-.25,.21-.17,.74-.02,.08-.09-.13-.13-.2,0-.06,.03-.06,.02-.14-.03,.16-.21,.12-.12,.48-.14-.13-.04-.34-.16-.25v-.11c-.39-.51-.25,1.03-.7,.33,.03,.04,.04,.06,.05,.12-.37-.28-.73,.38-1.07-.16-.09-.11-.11,.12-.19,.3v-.3l-.13,.34c-.19,.24-.16-.76-.4-.31v.2c-.07-.05-.25,.08-.19-.15-.01,.03-.07,.2-.07,.09l.03-.15-.22,.23c-.09-.14,.17-.6,.02-.68-.07,.04-.31,.39-.32,.5,.02,.02,.04,.11,0,.27l-.09,.06c-.15,.44-.37,.87-.27,1.24l.21-.23-.02,.23-.12-.02c0,.22,.1,.05,.18-.06-.02,.12-.02,.21,0,.26l.24-.4c-.02,.18-.14,.34-.07,.46,.11-.19,.03-.41,.16-.52,.02,.22-.04,.39,.08,.23-.01,.12-.04,.19-.09,.24,.1-.12,.2-.02,.27-.26,.02,.27,.24-.03,.17,.4,.04-.1,.17-.33,.23-.34-.18,.51,.23,.06,.15,.62,.13-.46,.34-.19,.5-.45,0,.04-.03,.11-.04,.09,.09,.04,.11,.18,.17,.27,.01-.39,.15-.48,.21-.73,.11,.38-.05,.46-.01,.82-.01-.32,.18-.32,.13-.58,.09,.23,.07,.11,.13,.43-.01-.49,.07-.09,.12-.39,.13,.23,.07,.46,.18,.3,.08,.14-.03,.33-.03,.33Zm2.68-1.66h0l-.05,.05,.04-.05Zm.21-.12s-.06,.02-.1,.04c-.05-.08-.09-.17-.07-.18,.02,.06,.1,.09,.17,.14Zm-1.3-1.52s.04,0,.07,.05c-.01,.01-.02,.03-.03,.05v.03l-.04-.13Z"/><path class="g" d="M58.02,75.6s0,.02,0,.02l.04,.05-.03-.08h-.01Z"/><path class="g" d="M68.07,59.78h0s.02,0,.04,0h-.03Z"/><polygon class="g" points="62.07 74.97 62.02 74.93 62.05 74.98 62.07 74.97"/><path class="g" d="M69.22,58.74s.05,0,.07,0c-.02,0-.04,0-.07,0Z"/><path class="g" d="M69.33,58.21l.11-.07c-.06,.03-.09,.05-.11,.07Z"/><path class="g" d="M69.51,57.81l-.12-.02h0l.12,.02Z"/><path class="g" d="M68.21,64.29s0,.01,0,.02c.04,.06,.03,.02,0-.02Z"/><path class="g" d="M68.28,62.24s.08,.07,.11,.1c.03-.03,.05-.05-.11-.1Z"/><polygon class="g" points="67.59 66.42 67.58 66.42 67.58 66.43 67.59 66.42"/><path class="g" d="M68.35,62.43c.06-.01,.06-.05,.03-.08-.03,.02-.07,.04-.03,.08Z"/><path class="g" d="M69.63,55.98v-.02h-.03l.03,.02Z"/><path class="g" d="M69.59,55.96l-.03-.02s0,.02,.03,.02Z"/><path class="g" d="M69.48,55.9l.07,.04s0-.04-.07-.04Z"/><path class="g" d="M69.53,56.55h.1s-.05,0-.1,0Z"/><path class="g" d="M69.56,56.71s.22-.11,.15-.16h-.08c.16,.02-.24,.13-.07,.16Z"/><path class="g" d="M68.29,57.37l.08-.13c-.11,.02-.26,.04-.28-.01-.33,.15,.24-.03,.2,.14Z"/><path class="g" d="M68.11,57.77c-.04-.07-.16,0-.22-.02,.09,.05,.12,.06,.22,.02Z"/><path class="g" d="M67.65,60.61l-.25-.07c.02,.06,.1,.03,.25,.07Z"/><polygon class="g" points="68.77 61.51 68.94 61.5 68.72 61.42 68.77 61.51"/><polygon class="g" points="66.93 61.32 66.9 61.29 66.96 61.4 66.93 61.32"/><path class="g" d="M65.12,65.81l.29,.13c-.03-.06-.34-.23-.29-.13Z"/><path class="g" d="M64.36,67.83c-.15-.06-.27-.06-.15,.05,.04-.03,.17,0,.15-.05Z"/><polygon class="g" points="60.46 72.95 60.4 72.85 60.42 72.96 60.46 72.95"/></g><g><path class="g" d="M30.16,73.06c-.08-.03-.27-.09-.24-.06l.31,.12-.07-.06Z"/><path class="g" d="M29.52,72.99c.14,.08,.4,.2,.69,.29-.29-.13-.16-.09-.51-.24-.03-.03,.11,0,.23,.04-.08-.03,.08,0-.11-.09-.25-.06-.27-.03-.09,.07-.07-.02-.15-.05-.21-.08Z"/><path class="g" d="M28.2,74.46h.04s-.03,0-.04,0Z"/><path class="g" d="M27.35,75.25s-.02-.04-.04-.06c.01,.02,.02,.04,.04,.06Z"/><path class="g" d="M26.96,75.14h.02s-.04-.02-.02,0Z"/><path class="g" d="M28.2,74.46l-.1-.03c.09,.06,.08,.03,.1,.03Z"/><path class="g" d="M30.16,73.54s-.04-.03-.07-.05l.03,.03,.05,.02Z"/><path class="g" d="M28.24,73.9h0l-.11-.08,.11,.08Z"/><path class="g" d="M28.37,73.54s.23,.13,.34,.19c-.1-.06-.15-.09-.16-.11l-.18-.09Z"/><path class="g" d="M29.07,73.2l-.03-.03,.03,.03Z"/><path class="g" d="M28.05,74.1l-.09-.05,.09,.05Z"/><path class="g" d="M18.26,79.68v-.05s0,.05,0,.05Z"/><polygon class="g" points="18.21 78.21 18.22 78.19 18.27 78.05 18.21 78.21"/><path class="g" d="M26.46,75.11h0s-.02-.02,0,0Z"/><path class="g" d="M24.05,76.94c.13,.22,.07,.32,.23,.56-.05-.1-.12-.42-.23-.56Z"/><path class="g" d="M30.13,73.53s0,.01,0,.02c.01,0,.01-.01,0-.02Z"/><path class="g" d="M24.28,77.49h0l.02,.02-.02-.02Z"/><path class="g" d="M26.01,75.74l.08,.09-.08-.09Z"/><path class="g" d="M26.71,75.67l-.04-.02s.03,.02,.04,.02Z"/><path class="g" d="M26.01,76.24s-.04-.04-.03,0l.02,.03s-.03-.05,0-.02Z"/><path class="g" d="M25.75,76.43l.04,.04v-.02l-.04-.03Z"/><path class="g" d="M19.51,79.82l.02-.25c-.02,.2-.09,.26-.02,.25Z"/><path class="g" d="M30.02,73.48c.07,.03,.1,.04,.11,.06,0,0,0-.01,0-.02l-.1-.04Z"/><path class="g" d="M27.31,78.04h-.08s.06,.01,.08,0Z"/><path class="g" d="M22.38,79.78v.04s0,0,0-.04Z"/><path class="g" d="M27.1,78.19c-.07-.07-.11-.12-.14-.14l.04,.06,.11,.08Z"/><path class="g" d="M19.53,79.57h0Z"/><path class="g" d="M18.99,80.15c.06,.02,.1-.35,.16-.55,.09-.09-.02,.27-.03,.46,.07-.09,.16-.41,.19-.39,0,.06,0,.08-.03,.16,.1-.28,.15,.01,.26-.34v.09c.01-.18,.04-.37,.06-.5,.03,0,.08-.22,.05,.02-.01,0-.03,.09-.05,.16l.04-.1c-.03,.35-.05,.11-.09,.37,.07-.1,.17-.38,.2-.27-.04,.34-.11,.1-.1,.4l-.05-.14c-.03,.54-.03-.04-.07,.53,.08,.11,.12-.15,.2-.04,.04-.19,.03-.28,.07-.46,.16-.33,0,.86,.14,.41,.05-.22,.1-.65,.14-.42l-.06,.38c.08,.04,.1-.55,.16-.28-.03,.15-.08,.12-.07,.17,.03,.31,.06-.21,.1-.21l-.02,.34c.1-.05,.21-.28,.31-.34,0,.1-.03,.21-.01,.31,.13-.16,.26,.06,.39,.25l.05-.29s.02,.13,0,.19c.05,.11,0-.19,.02-.3,.03-.02,.04,.17,.02,.26,.08-.25,.22-.54,.32-.23v.09c.06,.12,.04-.6,.11-.33v.05c.14,.12,.28-.15,.43,.27-.02-.42,.16,.17,.11-.42,.11,.28,.1,.39,.24,.57,.04,.02,0-.37,.03-.44l.04,.31v-.33l.09,.36,.03-.08s-.05-.13-.06-.22c.03-.15,.17,.2,.19,.35l.09-.27c.02,.12,0,.17,0,.25,.02-.32,.07,.32,.09,.03-.02-.07-.03-.18-.04-.24,.06,.18,.14,.16,.18,.07l.03,.21c.11,.03,.19-.15,.3-.17-.06-.09-.13-.45-.11-.49l.08,.32c-.02-.2-.06-.11-.07-.36,.05,.03,.11,.36,.11,.46l.02-.12c.02,.09,.02,.15,.05,.27-.03-.2,.16,.3,.11-.05l.03,.09c.11-.02,.14-.14,.22-.18-.07-.27-.02-.22-.05-.45,.09,.07,.22,.26,.29,.21,.01-.15-.05-.23-.08-.4,.08,.24,.15,.2,.16,.39,.08-.07,.1-.09,.15-.32-.05-.1-.07-.13-.09-.22,0-.05,.08,.09,.12,.2v.03c0-.4,.55,.61,.48,.07v-.28c.07,.02,.05,.19,.14,.32-.04-.45,.2-.02,.19-.32,.37,.66,.23-.16,.53,.24l-.08-.16c-.05-.17,.07,.08,.11,.11-.06-.12-.1-.13-.12-.23,.12-.28,.54,.02,.84,.04,.1,0-.4-.83-.1-.51l.13,.3c-.04-.42,.33-.17,.29-.55,.03,.07,.08,.15,.07,.16,.16,.18,.12-.06,.01-.23,.03,0,.1,.15,.17,.22,.11,.1-.09-.31,.06-.12,.02,.03,.03,.07,.04,.09-.04-.11,.11-.04-.06-.25,.13,.07,.03-.17,.17-.06-.15-.27,.18,.06-.07-.3,.26,.37,.31,.24,.21,.04,.07,.12,.11,.09,.21,.25,.03-.03,.02-.13-.13-.31,.39,.38-.13-.45,.33,.07-.04-.28-.05-.48-.02-.64,.29,.35-.08,.12,.23,.48-.02-.22-.22-.55-.06-.54,.06,.03,.12,.16,.16,.22-.03-.21,.19-.12,.11-.38,.03,.03,.05,.07,.07,.11,0-.02,.08,.02-.06-.13l.02,.05c-.22-.2-.37-.51-.47-.63,.38,.45,.17,.04,.64,.62-.02-.04-.07-.12-.17-.22,.04,.02,.1,.07,.19,.2-.02-.13-.19-.27-.15-.31,.07,.07,.09,.11,.16,.2-.11-.16-.22-.32-.13-.3,.04,.04,.1,.1,.09,.11,.05-.09-.25-.47-.05-.41,.29,.32,.13,.07,.4,.33l-.04-.12-.15-.11s-.14-.25-.02-.2l.09,.13v-.12l-.13-.06c-.11-.17-.35-.31-.24-.29,.02,.03,.03-.03,.21,.1h0c-.07-.1-.15-.2-.06-.16,.1,.07,.31,.28,.37,.32-.22-.22,0-.14-.23-.38,.05,.06,.2,.18,.24,.21l-.18-.18c.08,.04,.11,.06,.23,.16,.08-.02-.38-.29-.17-.22,.01,.02,.04,.04,.06,.07,.13,0-.03-.22,.12-.19,.31,.22,.03,.11,.3,.28,.02-.13-.21-.44-.09-.48h-.04c-.42-.34,.25,.08,.08-.11,.02,.03,.23,.19,.18,.15,.11,0-.02-.2-.1-.37l.11,.09c.12,.03,.12-.05,.2-.05-.11-.09-.07-.09-.25-.19,.73,.3-.2-.43,.4-.2,0,.01,.09,.09,.09,.08l-.06-.16c-.2-.11-.13-.06-.29-.13-.11-.08-.19-.16-.18-.18,.11,.12,.32,.19,.44,.23l-.19-.11c.38,.16-.4-.24-.13-.16l.1,.06c-.04-.05-.17-.15-.13-.16,.24,.12,.1,.08,.29,.19,0-.04-.41-.31-.16-.22,.06,.05,.05,.07,.1,.12,.3,.11,.23,.07,.29,.07h.15l-.08-.02c-.59-.37-.06-.15-.44-.42,.36,.25,.22,.12,.49,.26,.08,.02,.18,.04,.25,.08-.2-.14,.2,.03-.1-.17,.09,.04,.03-.03,.24,.08-.05-.07-.16-.06-.27-.12-.27-.2,.43,.02,.05-.26-.14-.15-.44-.3-.56-.42,.15,.04,.32,.16,.32,.16,.15,.02,.14-.02,.05-.1,.08,.04,.15,.06,.25,.09-.01-.04-.32-.15-.17-.14,.1,.05,.26,.12,.35,.17-.07-.07-.23-.17-.29-.23,.16,.05,.23,.11,.33,.17-.05-.07-.1-.16-.35-.27h-.1s.22,.06,.26,.09c.18,.11-.11,.02-.2-.02l-.05-.05c-.55-.18,.05,.13,0,.17l-.38-.17,.3,.18c-.1-.03-.32-.11-.37-.16-.2-.04,.12,.09-.1,.03-.03-.01-.05-.02-.07-.03l.1,.08c-.08-.04-.27-.11-.21-.1-.24-.04,.25,.22-.05,.11h-.02c.1,.12,.28,.11,.58,.32l-.7-.27,.27,.13s-.04,.01-.15-.04c.18,.12,.12,.05,.29,.15-.27-.08,.07,.17-.38-.03,.2,.11,.18,.04,.3,.15-.48-.22,.05,.09-.18,.02-.24-.13-.09-.1-.32-.17,.4,.22-.13,.02-.06,.09,.32,.17,.1,.13,.18,.24-.11-.06-.22,0-.36-.02l-.05-.03c.32,.19,.23,.2,.28,.27-.19-.11-.26-.16-.34-.23v.03c.08,.07,.13,.11,.16,.15l-.23-.15s.24,.25,.05,.2c.22,.14,.64,.33,.74,.48-.12-.07-.32-.19-.36-.24,.01,.01,.09,.08,.03,.06l-.18-.14c-.1-.03,.16,.11,.13,.12-.17-.1-.13-.06-.26-.15-.01-.01,.08,.03,.02-.02-.04,0-.16-.04-.29-.11,.1,.06,.22,.14,.24,.17-.01,.05-.21-.11-.31-.15,.11,.08-.03,.03,.22,.19,0,.01-.13-.06-.2-.1,.1,.09-.03,.11,.24,.27h.02v.02h0c.2,.23-.23,.05-.18,.18l-.08-.06c.06,.11,0,.13,.14,.28,0,.01-.16-.08-.25-.16,.04,.07,.13,.15-.04,.09-.11-.13-.13-.08-.08-.11-.1-.01-.23-.11-.05,.1-.19-.17-.27-.17-.23-.11l.16,.09s-.02,.04-.05,.05l-.25-.22c-.37-.19,.42,.57-.14,.19,.16,.17,.16,.07,.35,.26-.06,0-.45-.27-.46-.26-.17-.08,.33,.36,.2,.33,.09,.07,.34,.28,.39,.39-.06,0-.4-.29-.46-.38,0-.01,.03,0,.06,.03-.02-.04-.05-.09-.16-.16l.08,.08c-.1-.06-.13-.01-.27-.15,.06,.1,.13,.14,.2,.17-.16-.08-.06,.06-.18,.02,.05,.04,.16,.13,.15,.13-.17-.04,.14,.18,.13,.26-.15-.1-.3-.31-.23-.16-.11-.06-.23-.22-.29-.29,.13,.2-.17-.04-.22-.05l-.05-.09c.03,.05,.02,.06,0,.07l.18,.16s-.05-.01-.12-.08c.1,.12,.29,.27,.41,.45-.1-.07,.04,.14-.18-.08,.12,.03-.22-.22-.22-.3,.02,.03,0,.04-.03,.02-.03-.02-.04-.05-.05-.06-.24-.16,.23,.28,.17,.32-.12-.13-.24-.23-.22-.2,.02-.01,.21,.21,.29,.32-.12-.07,.04,.11,0,.11l.06,.03c.11,.14,.08,.13,.1,.2-.09-.1-.04-.09-.09-.13,.18,.26-.27-.19-.16,0-.09-.08-.22-.25-.29-.3,.11,.21-.2-.15-.12,.03,.17,.17,.13,.13,.25,.33l-.04-.18,.18,.3s-.05-.15-.01-.13c.11,.16,.07,.12,.21,.26-.26-.25,.08,.21-.12,.05l-.38-.45c-.22-.16,.11,.3-.05,.24l.09,.06c.14,.19-.02,.06,.02,.15-.12-.16-.18-.2-.26-.29,.09,.11-.05,.03,.18,.34l-.19-.18c-.12-.04,.28,.49,.19,.48-.11-.18-.22-.28-.28-.43-.02,.01-.05,0,.03,.1-.08-.09,.11,.25-.02,.11,.04,.08,.16,.24,.13,.25l-.06-.08c.06,.08,.04,.13,.19,.29-.42-.46-.14,.15-.49-.26,0,.08-.02,.17-.05,.2-.03-.05-.05-.08-.04-.07-.15-.12,.28,.5,.11,.36-.2-.25-.06-.17-.15-.26-.36-.54-.02,.12-.26-.17v-.04c-.16-.17,.05,.26-.02,.25l-.05-.08c.14,.31,.13,.44,.12,.54-.11-.23-.04-.13-.18-.35,0,.04,.21,.36,.2,.44-.08-.11-.18-.2-.32-.44l.03-.03c-.2-.3-.05,.04-.1,0l-.07-.14c-.04,.08,.15,.42,.07,.43l.06,.1c.15,.36-.14-.18-.04,.1l-.2-.34c.02,.1,.09,.38,.08,.48-.11-.28-.12-.44-.17-.61-.03,.01-.07,.07,0,.25,0-.04-.04-.13,0-.08,.11,.29,.14,.45,.09,.47-.33-.69-.21-.1-.51-.63,.03,.29-.22-.04-.3,.04,.27,.53-.02,.03,.22,.59,0,.05-.02,.04-.04,0l-.21-.31c-.08-.16-.03-.13-.08-.26-.07-.02-.12-.23-.21-.37,.09,.2,.1,.3,.04,.23l.14,.24c.05,.33-.25-.45-.2-.12l-.05-.19c0,.12-.13,.05,0,.52-.03-.06-.1-.22-.09-.27-.11-.04-.03,.56-.2,.29l-.04-.14s.06,.28-.01,.14c-.02-.06-.04-.14-.05-.15,0,.05,.03,.26-.01,.19l-.03-.17c-.14-.16-.02,.44-.07,.56-.12-.42-.23-.54-.28-.6l-.02-.06c-.11-.03-.08,.39-.14,.58-.17-.45-.25-.15-.4-.39,.03,.08,.06,.34,.05,.38-.04-.08,0,.31-.08-.08h0c-.09-.38-.11-.26-.15-.27l.08,.52c-.22-.75-.22,.31-.37-.36,0,.13-.04,.14-.04,.27l-.03-.28c-.07-.06-.11-.1-.18-.02v-.2s.02,.82-.03,.84l-.05-.42c-.08,.02-.18-.35-.24,.03,0-.06,0-.18,0-.2-.04-.01-.15-.28-.12,.3-.02-.38-.08-.03-.12,.13v-.28c-.03,.36-.03,.45-.08,.55-.01-.04-.01-.22,0-.15-.04-.14-.03,.26-.08,.12l.02-.18s-.04,.08-.06,.28c-.03,.11-.08-.07-.09-.32,0,.15-.04,.36-.06,.29,0-.1,0-.15,.01-.18-.07-.19-.12,.32-.16,.04,0-.09,0-.14,0-.17,.06,.01,.1,.03,.09,.05,0-.26-.03-.31,0-.66-.04,.19-.11,.61-.15,.48v-.12s-.01,0-.02,.04c-.01-.04-.02-.08-.03-.08,0-.21-.04-.12-.06-.13-.02,.28-.04,.23-.03,.47,0-.02,0-.03,.02-.04,0,0,0-.01,.01-.03v.02s.03-.01,.05-.01c-.03,.14-.05,.26-.07,.1l-.06,.45c0-.39-.05-.61-.04-.85-.08,.15-.16,.09-.27,.61-.03,.07,0-.15,0-.24,.02-.05,.03-.04,.04-.12-.05,.13-.12,.04-.18,.41-.03-.17,.07-.33,0-.28l.02-.11c-.04-.61-.36,.89-.39,.11,0,.05,0,.07,0,.13-.1-.36-.43,.25-.47-.32-.02-.12-.08,.11-.16,.27l.07-.29-.14,.32c-.14,.22,.09-.75-.13-.31l-.05,.2s-.14,.08-.06-.14c-.01,.03-.08,.2-.06,.09l.05-.15-.16,.23c-.02-.13,.21-.59,.14-.64-.05,.05-.25,.41-.27,.51,.01,.01,0,.1-.05,.25l-.06,.07c-.16,.44-.36,.87-.38,1.21l.16-.25-.05,.22h-.06c-.04,.21,.04,.04,.1-.08-.03,.12-.05,.2-.05,.24l.2-.4c-.05,.18-.14,.33-.13,.44,.09-.19,.1-.4,.19-.51-.04,.21-.1,.37,0,.21-.03,.12-.06,.19-.09,.23,.08-.13,.1-.03,.19-.26-.05,.26,.12-.03,0,.39,.04-.1,.15-.32,.19-.32-.2,.49,.1,.06-.07,.6,.17-.45,.2-.16,.33-.39-.01,.04-.04,.11-.04,.08,.03,.05,0,.19,.01,.29,.1-.38,.18-.46,.26-.68-.04,.38-.13,.44-.2,.8,.07-.31,.16-.29,.2-.55-.01,.24,0,.12-.04,.44,.11-.48,.05-.07,.15-.36,0,.25-.08,.45,.01,.32,0,.15-.09,.31-.09,.31Zm1.52-.66h0l-.03,.02,.03-.02Zm.11,0s-.03-.02-.05-.01c0-.1,0-.2,.02-.19,0,.06,.02,.12,.03,.21Zm-.12-1.96s.02,.02,.02,.07c0,0-.02,.01-.03,.03v-.11Z"/><path class="g" d="M20.45,77.89v0h0Z"/><path class="g" d="M28.24,74.47h0l.04,.02-.03-.02Z"/><polygon class="g" points="22.27 79.94 22.26 79.87 22.26 79.93 22.27 79.94"/><path class="g" d="M29.37,74.49s.05,.02,.07,.03l-.07-.03Z"/><path class="g" d="M29.55,74.28h.11c-.06,0-.09,0-.11,0Z"/><path class="g" d="M29.78,74.16l-.11-.06h0l.11,.06Z"/><path class="g" d="M28,77.04s0,0,0,.02c.02,.05,.02,.03,0-.02Z"/><path class="g" d="M28.22,75.88s.06,.08,.08,.11c.03,0,.04,0-.08-.11Z"/><polygon class="g" points="27.32 78.04 27.32 78.04 27.31 78.04 27.32 78.04"/><path class="g" d="M28.26,76.02c.05,.02,.05,0,.03-.03-.02,0-.06,0-.03,.03Z"/><path class="g" d="M30.26,73.37h.01l-.04-.02,.03,.02Z"/><path class="g" d="M30.23,73.35l-.03-.02s0,0,.03,.02Z"/><path class="g" d="M30.15,73.28l.06,.05s.02-.01-.06-.05Z"/><path class="g" d="M30.03,73.58l.09,.04-.09-.04Z"/><path class="g" d="M30.03,73.67s.22,.04,.17-.02l-.07-.03c.13,.07-.25-.04-.1,.05Z"/><path class="g" d="M28.75,73.46l.1-.02c-.1-.04-.24-.08-.25-.12-.32-.07,.23,.09,.16,.14Z"/><path class="g" d="M28.52,73.56c-.03-.05-.14-.07-.19-.1,.08,.06,.1,.08,.19,.1Z"/><path class="g" d="M27.82,74.69l-.2-.16s.08,.06,.2,.16Z"/><polygon class="g" points="28.69 75.72 28.83 75.8 28.65 75.64 28.69 75.72"/><polygon class="g" points="27.18 74.69 27.15 74.66 27.2 74.75 27.18 74.69"/><path class="g" d="M25.65,76.19l.19,.26c-.02-.06-.22-.35-.19-.26Z"/><path class="g" d="M25,76.96c-.08-.13-.16-.21-.1-.07,.03,0,.11,.11,.1,.07Z"/><polygon class="g" points="22.17 77.41 22.18 77.3 22.16 77.39 22.17 77.41"/></g></g></g></g></svg>