<?xml version="1.0" encoding="UTF-8"?><svg xmlns="http://www.w3.org/2000/svg" viewBox="0 0 738.46 920.51"><defs><style>.d{fill:#f5cc86;}</style></defs><g id="a"/><g id="b"><g id="c"><path class="d" d="M735.39,256.27c-9.49-38.84-40.57-67.18-70.62-92.36-70.44-59.03-145.41-115.27-232.09-144.6-74.4-25.18-155.7-27.29-229.96,2.99-24.83,10.13-47.91,18.9-74.91,18.34-36.26-.76-70.72-12.33-107.38-10.73-6.8,.3-13.63,.92-20.43,1.9V734.54c31.4,10.9,64.42,17.09,97.75,18.02,52.31,1.46,104.87-9.55,156.95-5.11,84.79,7.24,164.13,58,207.25,132.6,6.13,10.6,11.85,21.99,21.51,29.3,12.54,9.5,29.3,10.38,45.02,10.83,37.96,1.08,79.12,.7,109.96-22.76,37.66-28.64,47.37-83.01,41.3-130.12-6.06-47.11-24.51-91.54-31.03-138.57-9.7-69.99,7.8-142.41,38.77-206.44,25.68-53.1,61.77-109.27,47.91-166.02Z"/></g></g></svg>