<?xml version="1.0" encoding="UTF-8"?><svg xmlns="http://www.w3.org/2000/svg" viewBox="0 0 372 367.5"><defs><style>.d{fill:#fff;}.e{fill:#efe0a3;}.f{fill:#efd35e;}</style></defs><g id="a"/><g id="b"><g id="c"><g><g><path class="d" d="M242.24,365.5c-.51,0-1.03,0-1.54,0-17.22-.21-34.57-3.69-51.58-10.34-5.36-2.1-11.02-4.44-16.02-7.94-2.59-1.81-5.18-3.75-7.68-5.63-1.94-1.46-3.95-2.96-5.96-4.41-4.33-3.12-9.25-6.66-14.66-8.92-.52-.22-1.98-.73-2.86-.97-.49-.13-.99-.24-1.49-.34l-.28-.06-.27-.02c-.31-.02-.63-.05-.95-.05h0c-.15,0-.43,.02-.71,.05-.12,.01-.23,.02-.3,.03l2,1.71-1.4,2.19-.97-3.88c-.33,.07-.72,.16-1.14,.31-1.44,.52-2.96,1.45-4.64,2.83-2.05,1.68-3.82,3.62-5.53,5.5-.75,.83-1.5,1.65-2.28,2.45-2.47,2.55-5.12,4.65-7.88,6.25-5.73,3.32-12.51,5.18-19.6,5.39-.4,.01-.8,.02-1.2,.02-6.35,0-12.62-1.49-18.15-4.31-.39-.2-.52-.55-.4-1.06,.09-.37,.41-.99,1.04-.99h.16c4.07,0,7.71-1.59,10.54-4.59,3.56-3.77,5.48-9.41,5.15-15.09-.72-12.36-13.57-20.6-22.07-26.05-1.2-.77-2.39-1.53-3.59-2.28-4.13-2.62-8.41-5.33-12.38-8.28-5.27-3.91-10.16-8.08-14.55-12.39-9.02-8.85-16.7-18.83-22.82-29.66-6.16-10.89-10.61-22.35-13.24-34.06-2.48-11.04-2.9-22.06-2.98-32.32-.15-17.96,.63-36.97,7.28-54.25,3.45-8.97,8.17-16.59,14.05-22.67,6.59-6.81,15.03-12.1,25.08-15.7,2.5-.89,5.12-1.68,8.02-2.41,27.48-6.84,53.44-17.81,77.13-32.59,3.43-2.14,6.71-4.3,9.73-6.43,1.05-.74,2.1-1.49,3.13-2.25,.35-.25,.69-.51,1.03-.77,.11-.08,.26-.2,.39-.3h0c3.06-2.44,6.47-4.66,9.76-6.8l1.74-1.14c7.7-5.04,14.83-9.28,21.81-12.96,14.55-7.67,28.08-12.77,41.36-15.57,8.65-1.83,17.58-2.75,26.54-2.75,5.06,0,10.2,.3,15.28,.88,16.8,1.94,32.52,6.06,46.72,12.25,14.72,6.41,27.06,16.32,36.68,29.46,9.05,12.36,15.8,27.48,19.52,43.72,4.14,18.06,3.56,35.7-1.71,52.45-1.08,3.44-2.31,6.92-3.5,10.28-1.81,5.11-3.68,10.4-5.11,15.77-2.21,8.26-3.66,17.17-4.43,27.22-.89,11.61-.84,23.4-.79,34.81,.03,6.54,.06,13.3-.09,19.93-.43,19-2.45,33.91-6.36,46.91-4.65,15.48-12.59,29.06-22.95,39.27-19.7,19.42-48.89,30.55-80.08,30.55h0Z"/><path d="M249.09,4c4.99,0,10.05,.29,15.05,.87,16.6,1.92,32.13,5.99,46.15,12.09,14.39,6.27,26.45,15.96,35.86,28.81,8.89,12.14,15.53,27.01,19.19,42.98,4.06,17.71,3.49,35-1.67,51.4-1.07,3.41-2.3,6.87-3.48,10.22-1.82,5.15-3.7,10.47-5.16,15.92-2.24,8.38-3.71,17.41-4.5,27.58-.9,11.7-.85,23.53-.8,34.97,.03,6.52,.06,13.27-.09,19.87-.43,18.82-2.42,33.56-6.27,46.38-4.55,15.16-12.31,28.44-22.44,38.42-19.33,19.05-48.01,29.98-78.68,29.98-.51,0-1.01,0-1.52,0-16.98-.21-34.09-3.64-50.88-10.2-5.25-2.05-10.78-4.34-15.6-7.71-2.56-1.79-5.13-3.72-7.62-5.59-1.95-1.46-3.97-2.98-6-4.44-4.42-3.18-9.43-6.79-15.06-9.14-.58-.24-2.14-.79-3.11-1.05-.51-.14-1.04-.26-1.63-.37l-.09-.02-.29-.06-.3-.02h-.08c-.32-.03-.68-.06-1.09-.06h-.06c-.25,0-.5,.02-.86,.05-.09,0-.18,.02-.24,.02,.07,0,.13,0,.17,0h.01l-.03,3.3-.8-3.23c-.37,.08-.87,.19-1.41,.39-1.65,.6-3.36,1.64-5.23,3.17-2.16,1.77-3.98,3.77-5.74,5.69-.77,.84-1.49,1.64-2.24,2.41-2.34,2.42-4.85,4.41-7.44,5.91-5.45,3.15-11.9,4.92-18.66,5.12-.38,.01-.76,.02-1.14,.02-4.86,0-9.67-.92-14.1-2.67,3.32-.65,6.31-2.31,8.75-4.91,3.93-4.17,6.06-10.36,5.69-16.58-.78-13.38-14.14-21.95-22.99-27.62-1.2-.77-2.4-1.53-3.61-2.29-4.1-2.6-8.35-5.28-12.26-8.19-5.19-3.85-10.02-7.96-14.35-12.21-8.89-8.72-16.45-18.55-22.48-29.22-6.06-10.72-10.45-21.99-13.03-33.52-2.44-10.86-2.85-21.75-2.93-31.9-.14-17.77,.62-36.55,7.15-53.51,3.35-8.71,7.93-16.11,13.62-22,6.37-6.59,14.55-11.71,24.32-15.2,2.44-.87,5-1.64,7.82-2.35,27.69-6.9,53.84-17.94,77.71-32.84,3.52-2.19,6.73-4.31,9.82-6.49,1.13-.79,2.17-1.54,3.17-2.28,.35-.26,.7-.52,1.05-.78,.12-.09,.29-.22,.43-.33h0c2.99-2.38,6.35-4.57,9.6-6.69,.58-.38,1.17-.76,1.75-1.14,7.64-5,14.72-9.21,21.65-12.87,14.39-7.59,27.75-12.62,40.84-15.38,8.51-1.8,17.3-2.71,26.13-2.71m0-4c-9.04,0-18.08,.92-26.96,2.79-14.65,3.09-28.67,8.79-41.88,15.76-7.54,3.98-14.85,8.39-21.98,13.06-3.93,2.58-7.98,5.11-11.65,8.05,.28-.23,.39-.31,.39-.31,0,0-.47,.37-.74,.57-.34,.25-.68,.51-1.02,.76-1.02,.75-2.05,1.49-3.09,2.22-3.15,2.21-6.37,4.33-9.64,6.37-23.6,14.72-49.58,25.63-76.56,32.35-2.77,.7-5.51,1.5-8.21,2.47-9.67,3.46-18.68,8.77-25.85,16.19-6.45,6.67-11.16,14.71-14.47,23.34C.75,140.99-.14,160.18,.01,178.6c.09,11.03,.6,21.94,3.03,32.74,2.72,12.11,7.35,23.81,13.45,34.61,6.25,11.04,14.11,21.22,23.16,30.1,4.62,4.53,9.57,8.71,14.76,12.56,5.17,3.84,10.67,7.16,16.09,10.64,8.56,5.49,20.49,13.19,21.15,24.49,.49,8.34-4.55,17.57-13.7,17.57-.04,0-.09,0-.13,0h-.03c-2.99,0-4.35,4.4-1.55,5.83,5.89,3.01,12.45,4.53,19.06,4.53,.42,0,.84,0,1.26-.02,7.16-.21,14.33-2.06,20.55-5.66,3.08-1.78,5.84-4.04,8.31-6.59,2.53-2.61,4.83-5.48,7.64-7.8,1.19-.98,2.62-1.98,4.05-2.5,.28-.1,.58-.17,.87-.24-.04,.01-.04,.02,0,.02,.14,0,.76-.07,.93-.07h0c.28,0,.55,.02,.83,.04,.05,0,.1,0,.13,0,.05,.01,.1,.02,.18,.04,.45,.09,.9,.19,1.35,.31,.78,.21,2.17,.7,2.6,.88,5.12,2.14,9.79,5.47,14.27,8.7,4.59,3.3,9.03,6.81,13.66,10.05,5.08,3.55,10.68,5.91,16.44,8.16,16.62,6.5,34.42,10.26,52.28,10.48,.52,0,1.04,0,1.57,0,29.49,0,60.25-10.2,81.49-31.13,11.23-11.07,18.95-25.08,23.47-40.12,4.61-15.34,6.08-31.49,6.44-47.44,.41-18.21-.51-36.45,.88-54.62,.7-9.06,2.02-18.07,4.37-26.86,2.36-8.82,5.85-17.27,8.59-25.97,5.5-17.47,5.83-35.67,1.75-53.5-3.62-15.8-10.26-31.34-19.86-44.45-9.72-13.27-22.4-23.54-37.49-30.11-14.92-6.5-31.14-10.53-47.29-12.4-5.15-.6-10.33-.9-15.51-.9h0Z"/></g><ellipse class="f" cx="273.45" cy="50.15" rx="33.57" ry="66.12" transform="translate(166.52 306.77) rotate(-77.77)"/><ellipse class="e" cx="314.2" cy="49.06" rx="13.41" ry="22.32" transform="translate(73.13 256.45) rotate(-49.58)"/></g></g></g></svg>