<?xml version="1.0" encoding="UTF-8"?><svg xmlns="http://www.w3.org/2000/svg" viewBox="0 0 709.26 706.29"><defs><style>.d{fill:#ddefcd;}</style></defs><g id="a"/><g id="b"><g id="c"><path class="d" d="M616.62,670.54h0c19.81-10.11,38.89-22.45,53.36-39.34,15.38-17.94,24.89-40.27,30.94-63.12,10.57-39.9,11.1-82.43,1.51-122.58-6.48-27.13-17.43-53.01-24.19-80.07-9.23-37-10.43-75.98-3.47-113.48,9.5-51.24,33.71-105.09,13.06-152.94-12.72-29.46-40.35-49.76-68.82-64.56C561.98,4.81,494.37-7.86,430.94,5.01c-69.51,14.1-113.96,64.97-173.27,98.61-42.28,23.97-90.8,26.38-131.61,54.49-33.05,22.77-60.34,53.57-81.26,87.68-34.13,55.66-63.02,138.96-30.75,201.78,14.31,27.84,40.71,44.39,71.18,49.47,28.45,4.74,55.67,1.94,82.52,15.12,29.59,14.53,48.1,39.23,63.83,67.32,15.6,27.86,29.62,55.43,55.94,74.86,26.53,19.58,59.05,32.29,90.73,40.69,63.22,16.77,131.38,14.81,193.48-5.75,15.41-5.1,30.44-11.35,44.9-18.73Z"/></g></g></svg>