<?xml version="1.0" encoding="UTF-8"?><svg xmlns="http://www.w3.org/2000/svg" viewBox="0 0 87.28 89.41"><defs><style>.d{fill:#cebab1;}.e{fill:#665c58;}.f{fill:#d4c3bb;}.g{fill:#5c5655;}</style></defs><g id="a"/><g id="b"><g id="c"><g><g><path class="d" d="M45.5,1.59c-8.68-1.35-18.61,1.86-26.27,7.7C11.58,15.12,6.15,23.35,3.36,31.8-.48,43.41,.56,55.61,6.18,65.06c3.92,6.6,9.89,11.78,16.35,16.23,4.64,3.2,9.77,6.13,15.87,6.65,6.58,.57,13.56-1.72,20.11-4.42,6.62-2.72,13.23-5.99,18.57-10.8,5.34-4.8,9.28-11.39,9.12-17.67-.02-.88-.14-1.79-.71-2.41-.86-.93-2.43-.95-3.75-1.29-4.24-1.1-5.68-6.63-2.72-10.39-3.4-.2-6.93-.6-9.36-2.51s-3.23-5.84-.81-8.52c.57-.63,1.31-1.21,1.52-1.97,.53-1.91-2.34-2.25-4.32-2.48-2.88-.34-5.29-2.23-5.78-4.88h0c-1.1-6.04,5.83-6.82,.1-11.76-4.07-3.51-9.06-6.34-14.87-7.24Z"/><g><path class="f" d="M45.6,.93c-.16,.06-.11,.27,.3,.3l.35-.27-.65-.03Z"/><path class="f" d="M48.17,2.1c.5-.04,1.12-.14,.9-.52-.55,.17-.63,.02-1.22,.25-.4-.06-.67-.26-.58-.37-.16,.05-.61-.22-.87-.04,.48,.35,1.12,.5,1.85,.48,.13,.11-.04,.16-.09,.21Z"/><path class="f" d="M69.7,26.96c-.03-.05-.06-.11-.1-.15,.03,.04,.06,.09,.1,.15Z"/><path class="f" d="M77.59,42.12c.04-.1,.02-.12-.01-.12-.02,.08-.03,.15,.01,.12Z"/><path class="f" d="M76.48,46.05v-.28c-.02,.11-.03,.22,0,.28Z"/><path class="f" d="M69.7,26.96c.08,.13,.11,.29,.11,.43,.12,0,.04-.26-.11-.43Z"/><path class="f" d="M53.63,3.31c-.13-.05-.25-.07-.37-.08l.32,.12s.03-.02,.04-.04Z"/><path class="f" d="M60.14,22.42c-.04-.06-.07-.13-.1-.2-.06-.04-.13-.08-.2-.12,.1,.11,.19,.22,.3,.32Z"/><path class="f" d="M61.36,13.94c-.1,.15,.11,.34,.18,.47-.05-.15-.02-.29,.03-.44-.05-.03-.11-.04-.21-.03Z"/><path class="f" d="M54.75,5.19l-.22-.08,.22,.08Z"/><path class="f" d="M65.33,26.16s.03,.09,.06,.11c0-.04-.02-.07-.06-.11Z"/><path class="f" d="M35.7,.5s0,.03,0,.05c.04-.04,.06-.06,0-.05Z"/><path class="f" d="M45.49,1.66h-.13s-.04,.1-.05,.15l.19-.15Z"/><path class="f" d="M81.76,52.76h-.04c-.23-.04-.1,0,.04,0Z"/><path class="f" d="M37.42,86.66c.73,.36-1.28,.13-.17,.58-.09-.11,1.1-.32,.17-.58Z"/><path class="f" d="M53.81,3.43c.11,.05,.21,.1,.31,.16-.14-.08-.23-.13-.31-.16Z"/><path class="f" d="M37.24,87.24h0l.12,.05-.12-.05Z"/><path class="f" d="M81.91,65.15c.06,0,.13-.04,.2-.08-.03-.01-.08,0-.2,.08Z"/><path class="f" d="M85.17,53.62c.02,.08,.03,.15,.04,.24,0-.1-.02-.17-.04-.24Z"/><path class="f" d="M78.15,70.57c-.14,.11-.21,.12-.34,.32,.03,0,.05-.01,.07-.03,.03-.09,.1-.18,.27-.29Z"/><path class="f" d="M72.86,75.07s.09-.02,.14-.03l.17-.14-.31,.17Z"/><path class="f" d="M16.05,10.37c.17-.05,.31-.04,.42-.03-.22-.08,.55-.83-.42,.03Z"/><path class="f" d="M53.56,3.45c.07-.05,.14-.05,.25-.01l-.22-.09s-.06,.06-.02,.11Z"/><path class="f" d="M79.53,72.33c-.28,.27-.57,.54-.87,.79,.26-.2,.58-.49,.87-.79Z"/><path class="f" d="M1.72,57.8l-.1-.25c.02,.1,.06,.19,.1,.25Z"/><path class="f" d="M76.07,75.42c-.22,.06-.43,.14-.64,.25-.02,.05-.06,.09-.06,.14,.23-.13,.47-.25,.7-.39Z"/><path class="f" d="M16.48,10.34h0Z"/><path class="f" d="M22.28,5.32c-.96,.57-.26,.58-.35,.88-1.06,.79-.66,.1-1.14,.19-.65,.53-.97,1.17-1.47,1.53-.07-.02-.18,.03-.11-.11-.54,.74-2.06,1.57-2.57,2.53-.08,.02-.13,.03-.16,.02,.24,.03,.39,.16,.45,.28-.36,.33-.53,.76-.82,.71,.22-.2,.18-.28,.24-.43-.1,.14-.21,.27-.31,.42-.58,.05,.44-.56,.27-.74-.68,.75-1.33,1.75-1.93,2.23-.37-.14,1.2-1.33,.25-.84l.96-.72c-1.03,.23,.56-.47-.45-.32-1.23,1.01-1.16,1.35-2.32,2.41-.1,.39,.28,.1,.18,.49-1.24,1.86-1.81,.75-2.52,2.3-.08,.48,.15,.86-.73,1.65l-.07-.55c-.93,1.21-.08,1.02-1.19,2.17,.02-.33,.58-1.05,.41-.89-.85,.66-.24,.73-.68,1.38l-.37-.05c-.85,1.39-1.56,3.04-2.31,4.66-.04-.13,0-.46-.28-.13-.89,2.08-2.09,4.35-3,6.37,0,.3,0,.59,0,.89-.06,.18-.23,.3-.22,.09-.35,.78,.16,.1,.16,.53-.12,.47-.35,.56-.34,.24-.26,1.51-.56,4.26-1.15,5.75l-.03-.32c-.32,1.2,.39,1.46-.06,2.55l-.02-.22c-.47,2.64-.26,5.58-.59,7.64,.22,.18,.21,.85,.23,1.48,.04,.63,.11,1.24,.41,1.29-.12,1.55-.26,1.13-.08,3.3,.1,.57,.55,.77,.76,1.44l-.3,.09c.17,.29,.37,.57,.56,.86l-.22,.59,.26,.62c-.06-.26-.02-.59,.08-.57,.38,.97,.6,2.48,.44,2.57,.35,.76,.78,1.48,1.16,2.21-.13,0-.33-.37-.53-.64,.8,1.1-.23,.37,.55,1.35,0-.18,.2,0,.27,0,.05,.31,.22,.78,.44,1.28,.25,.49,.56,1.01,.84,1.44l-.28-.07c.86,1.65,2.14,3.27,3.41,4.89-.38-.64,.02-.73,.42-.28l-.11,.39c.4,.18-.29-.57,.39-.1,.45,.61,.04,.64-.32,.36,.22,.22,.46,.43,.68,.65-.04,.1-.22-.03-.35,0,.39,.17,.81,1.45,1.45,1.62l-.04,.1c1.41,1.51,2.16,2.07,3.4,3.2,.21-.19,.66,.29,1.18,.45,.85,.87,1.75,1.91,2.93,2.79,.9,.52,.38,0,.85,.15-.1,.25,1.09,1.11,.37,.8,1.44,1.01,1.84,1.29,3.78,2.37-.14-.22-.34-.41-.17-.41,.35,.19,.7,.6,.58,.67l-.1-.04c1.14,.53,2.25,1.46,3.38,2.29,1.12,.84,2.27,1.57,3.31,1.75l-.12-.02c.68,.2,1.36,.38,2.05,.55,.9,.37-.61-.02,0,.38,2.28,.36,3.45,1.14,5.38,1.15,.67,.48,2,.61,3.37,.56,1.37-.03,2.78-.23,3.78-.12l-.13-.16c.48-.24,.62,.03,1,.01-.07-.12-.57-.09-.27-.22,4.18-.81,8.59-1.75,12.65-3.18,1.48-.54,.48-1.18,2.46-1.54l-.39,.52c2.75-1.56,5.94-2.57,8.53-4.35-.13,.15-.08,.25-.35,.39,.7-.09,2.14-1.16,2.05-1.35,.43-.22,.19,.1,.5,.03,.64-.22,1.27-1.12,1.68-1.11,.07,0-.12,.17-.21,.25,.31-.32,1.71-1.07,1.21-1.08,1.06-.54,1.77-1.39,2.61-1.83,.3-.61,1.67-1.15,1.53-1.62,.23,.41,1.81-1.1,2.17-1.8-.08,.28,.56-.36,.49-.02,.61-.61,1.06-1.27,.79-1.31,1.47-.83,1.69-2.7,2.74-3.03,1.28-2.24,2.2-4.45,2.87-6.65,.2,.11-.01,.72-.22,1.3-.24,.57-.46,1.12-.23,1.18,.73-2.12,.78-3.43,1.28-5.55,.15-.55,.14,.35,.18,.56,.1-1.12,.26-2.19,.24-3.25,.02-.52,0-1.06-.12-1.64-.12-.57-.36-1.21-.84-1.71,.04-.02,.26,.19,.42,.42-.24-.48-.77-1.05-.85-.83,.14,.1,.28,.2,.41,.33,.15,.44-.29,.06-.81-.15-.53-.22-1.1-.26-1.16-.2,.41-.16-.05-.38-.47-.53-.41-.15-.78-.3-.19-.56-.27-.02-.58,.02-.56,.17-.35-.11-.44-.2-.06-.29-1.27-.14-.87,.19-1.85-.16,.04-.08,.24-.04,.38-.13-.52,.02-1.13-.05-1.72-.72,.08,0,.06-.13,.24,.04-.57-.45-1.02-.92-1.42-1.48-.4-.56-.68-1.27-.65-2.16,.47,.47,.09-.59,.5-.67-.05-.29-.02-.58-.02-.88l-.23,.33c.04-.4,.07-.77,.12-1.15,.05-.3,.19-.88,.59-1.35-.13,.28-.22,.59-.29,.89,.06-.18,.17-.38,.24-.57l.35-.57c.23-.39,.45-.75,.68-1.08-.36,.42-.69,.86-1,1.26,.22-.55,0-.44-.1-.42-.11,.02-.17,0,.31-.59-.03,.07,.04-.02,.19-.21l.04-.1s-.08-.02-.12-.03l-.32-.05c-.21-.04-.42-.1-.53-.18h0c-.7,.07-1.24,.15-1.95-.02-.17-.14,.2-.39,.09-.49-.48,.28-2.03-.19-2.62-.01,.19-.03,.24-.23,.2-.28l-.4,.16c-.37-.17-.41-.24-.31-.37-1.13-.39,.22,.59-1.07-.06,.11,.02,.08-.04,.31,0-.66-.28-1.29-.52-1.88-.82-.59-.31-1.14-.68-1.5-1.19,.02-.26,.22-.08,.4,.1,.2,.16,.39,.31,.34,.06-.65-.51-1.26-1.2-1.66-2.02-.42-.81-.57-1.77-.4-2.62l-.08,.32c-.24-.14-.16-.49,.05-.86,.19-.38,.5-.76,.59-1.2-.06,.21,.14,.38,.11,.31,.3-.49,.58-.95,1.06-1.51,.23-.29,.51-.61,.77-1.04,.29-.45,.48-1.08,.37-1.68,.05,.09,.1,.19,.15,.3,.12-.52-.18-1.24-.76-1.66-.63-.47-1.14-.58-1.58-.74-.29,.06-.77-.06-.52,.2-.61-.33-1.25-.48-1.86-.56-.58-.08-1.11-.13-1.66-.25-1.06-.23-2.14-.78-2.59-1.77,.17,.18,.48,.33,.35,.2-.43-.37-.81-.81-1.1-1.3-.14,.22-.03,.27,.02,.68-.25-.11-.6-.54-.76-.99,.46,.73,.32-.15,.37-.49-.06,.07-.16-.02-.22,.03,.21-1-.51-.07-.39-1.45l.12,.07c-.04-.49-.22-.98-.05-1.51,.31-.16,.02,.55,.24,.61,.09-.69-.18-1.59,.39-2.12-.09,.32-.24,.76-.26,1.08,.52-.59,.5-.67,.77-1.14l-.03,.04c.24-.35,.49-.69,.76-1.04l-.24,.24c-.06-.59,.19-1.03,.45-1.53,.26-.47,.53-1.13,.29-1.83,.2,.67,.18,.78,.26,.67,.06-.1,.14-.37,.28-.3,.13-.4,.11-1.09,.23-.92-.22-.36-.27-.69-.39-1.03-.15-.29-.3-.72-.77-.95,.05-.09-.46-.57-.18-.61-.66-.61,.02,.26-.13,.3-1.13-.76-1.97-2.4-3.74-3.13-1.4-.76-1.83-.63-3.14-1.23-.35-.38,.53-.1,.53-.1-.61-.53-1.15-.8-1.86-1.04,.17,0,.07-.15-.09-.34-.56-.24-.51,.13-1.17-.32,.17-.05,.4-.13,.71-.1-.69-.23-1.4-.34-2.12-.52-.12-.23,.51-.08,.79-.08-.8-.25-2.07-.62-2.4-.43,.16,.08,.32,.16,.47,.26-.29-.09-.07-.27,.15-.24,.74,.03,.93,.43,.93,.54-.17-.05-.34-.09-.51-.13,.3,.71,1.97,.66,2.9,1.18l-.57,.18c.37,.05,.74,.1,1.11,.17,.15,.2,.18,.48-.3,.3,.55,.53,.65,.17,1.09,.69,.04,.07,0,.07-.06,.05l.69,.25c-.17,0-.05,.31-.4,.04,.97,.86,1.93,.84,2.15,1.38l-.1-.04c1.54,.92,.32-.16,1.62,.36,.1,.38,.17,.77,.25,1.15l.33-.13c.14,.12,.4,.38,.28,.43,.66,.28,0-.18,.43-.07,.27,.38,.71,.79,1.11,1.14,.36,.38,.61,.74,.48,.95,.39,.11-.4-.75,.34-.13-.14,.27,0,.47,.22,.72,.16,.26,.43,.63,.3,1.03-.25-.22-.29-.83-.38-.14,.12,.08,.18,.22,.21,.37-.02,.16-.07,.33-.13,.5-.1,.16-.2,.33-.3,.49-.12,.16-.22,.31-.27,.46,.33,.21-.66,1.32-1.07,2.47-.05-.06-.33,.43-.59,1.13-.23,.71-.36,1.62-.37,2.21l-.06-.03c.2,.1,.31,.45,.39,.87,.12,.42,.25,.92,.47,1.29-.21,.06-.37-.05-.62-.49,.08,.28,.19,.55,.31,.81,.2,.13,.36,.35,.7,.77l-.35-.02c.66,.98,1.7,1.53,2.85,2.34,.16-.22-.58-1.11,.7-.65-.01,.15-.05,.39-.42,.28,.12,.03,.43,.08,.64,.22-.2,.01-.41,0-.62,0,.53,.36,.38-.05,.82,.15-.08,.19,.31,.24,.19,.37-.13-.01-.39-.21-.6-.21,.51,.26,1.16,.52,1.37,.71-.03-.12,.05-.25,.47-.22,1.03,.12,.32,.28,.89,.46,.26-.11,.85,.13,.91-.15,.28,.05,.3,.2,.39,.3,.25-.02,.8,.12,1.15,.26,.27,.1,.48,.23,.44-.02l-.07-.08,.06,.03h0c.32,.13,.58,.46,.56,.83-.02,.38-.19,.69-.46,.98-.28,.3-.62,.57-.95,.89-.33,.32-.64,.69-.85,1.1l-.08-.05c-.53,.98-.86,2.34-.63,3.11-.02,.31-.15,.75-.28,.63,.18,.84,.26,.9,.54,2.09-.46-.74-.06,.34-.41-.79,.11,.55,.19,.89,.34,1.22,.14,.33,.35,.65,.82,1.05-.22-.09-.16,.13,.02,.42,.2,.28,.53,.62,.77,.76-.17-.22-.32-.45-.45-.69,.43,.43,.84,.76,1.25,1.08l-.42,.1c.84,.86,1.91,1.14,2.83,1.31,.93,.17,1.76,.26,2.51,.74,.6-.12-1.12-.38-.56-.55,.94,.25,1.9,.84,2.21,.88,.33,.13,.39,0,.64-.1,.22-.11,.58-.22,.87-.14,.04-.04,.11-.11,.24-.18,.06-.04,.14-.07,.24-.11,.04-.01,.12-.04,.15-.04,.01,0,.02,.02,.03,.04,.01,.04-.02,.14-.1,.29-.53,.8-.99,.82-.97,.57,.04-.1,.12-.16,.17-.18,.05-.13,.07-.24-.21-.02l.13-.02c-.31,.25-.49,.73-.62,.57v.05l-.02,.11c-.01,.07-.02,.11-.02,.15,0,.07,.02,.07,.06,.04,.04-.04,.09-.11,.15-.21l.12-.16c-.05,.08-.08,.08-.15,.24-.07,.14-.12,.28-.16,.42-.08,.28-.17,.54-.2,.81-.09,.54-.13,1.09-.17,1.81,.04-.23,.21-.44,.2-.21-.03,1.03,.12,1.25,.22,1.37,.12,.12,.19,.17,.43,.8,.09,.79-.55-.1,.17,1.13,.34,.81-.2,.34-.44,.04,.78,1.11,1.37,2.19,2.04,2.72-.23-.11-.45-.25-.65-.4,.36,.28,.69,.47,1,.69l-.22-.44c.32,.3,.65,.47,.6,.55,.46,.06-.1-.49,.74-.3,.22,.18,.63,.26,.97,.37,.34,.08,.63,.15,.68,.32-.76-.21-.75-.15-.7-.03,.05,.1,.15,.29-.6,.06,.3,.07,.64,.18,1.01,.29,.05,.05-.07,.05-.18,.05,.74,.3,.89,.22,1.08,.14,.17-.09,.4-.22,1-.05-.19,.13,.16,.4,.29,.43-.36-.14-.07-.37,.35-.31,.23,.22,.32,.3,.43,.37,.1,.07,.2,.12,.26,.29-.03-.13-.07-.25-.13-.36,.22,0,.4,.31,.56,.88-.12,.06-.21-.47-.22-.27,.48,.53-.17,1.49,0,2.43-.16,.44-.34,.02-.45,.4,.08,.54-.04,.82-.15,1.1-.11,.28-.22,.56-.27,1.12,.31-.26,.27-.34,.3,.5,.1-.62,.18-1.25,.21-1.87,.04,.41,.11,.83,.12,1.25,.14-.56,.07-1.21,.17-1.54,.11,.6,.05,.54,.29,.29-.47,.72-.07,1.6-.57,2.43l-.56-.19c-.62,1.19-.48,2.38-1.42,3.91l.35-.46c.1,.32-.46,1-.68,1.54-.15-.15-.38,.13-.61,.28,.14,.05-.7,1.09-.48,1.44l-.67,.51c-.94,1.09-.55,1.66-1.53,2.69,.12-.46-.4-.07,.09-.88-.29,.36-.61,.64-.51,.74-.27,.12-.68,1.14-1.12,1.3-.08,.2,.03,.4-.37,.75-.07,.01-.07-.07-.07-.07,.07,.07-.51,.66-.03,.5-1.45,.55-3.07,2.69-4.43,2.99-.79,.66-1.8,1.39-2.58,1.9,.02-.08-.05-.09,.11-.16-1.19,.52-.38,.91-1.76,1.48-.81,.1,.59-.54,.13-.41-.5-.46-1.49,.96-2.56,1.08l.19-.14c-.77,.15-1.52,1.07-2.66,1.56,0,0,.03-.08-.04-.09-.62,.67-2.04,1.44-3.1,2,.24-.38,.44-.34,.13-.49-.48,.25,.31,.32-.64,.81-.37,.01-1.13,.2-1.34-.02l.92-.41c-.61-.12-1.2,.52-1.71,.66v-.17c-1.41,.62-1.28,1-2.84,1.57l.2,.05c-.71,.68-.79,.07-1.54,.64l-.39-.28c-.53,.29-1.85,1.04-2.86,1.41,.5-.45,1.64-.98,2.32-1.39-.56,.19-1.89,.65-2.13,.93,.22-.11,.47-.29,.71-.3-.59,.51-1.47,.95-2.62,1.23,.02-.76-3.03,.54-3.97,.04-1.98,.61-4.03,.36-6.33,.24,.78,.65-.68-.03-.6,.57-.56-.02-.77-.05-.81-.11-.54-.21-1.07-.41-1.58-.66-.35-.25,.54-.02,.51-.17-1.15-.3-.44-.34-1.15-.69,.1,.24-.48,.22-1.1-.07,.27,.19,.56,.36,.84,.53-1.71-.14-1.23-.87-2.91-1.15l.56,.02c-.85-.17-2.91-1.23-3.89-1.23-.11-.13-.21-.38,.15-.24-1.8-1.02-4.31-1.94-5.51-3.14l.22-.03c-.35-.19-.73-.17-1.05-.57,.06-.04,.22-.03,.07-.14-.2-.07-1.01-.4-1.39-.78l.46,.13c-1.56-1.38-2.8-1.57-4.22-2.6,.28-.34-.88-1.49-1.42-2.09l.06-.03c-1.74-1.64-3.21-2.52-4.82-4.07-.57-1.33-2.78-3.75-3.66-5.78,.11,.32-.33,.14-.55-.19-.17-.49-.96-1.1-.57-1.22l.08,.16c.14-.51-.39-1.42-.73-2.16l-.54,.09c-.08-1.15-.67-2.43-1.14-3.64-.46-1.21-.87-2.33-.64-2.99-.23-.48-.4-1.11-.61-1.6l.28-.02c-.09-.72-.15-1.25-.23-1.83-.05-.58-.14-1.2-.26-2.08,.07,.12,.15,.23,.23,.34-.06-.99-.89-1.21-.97-2.15l.42-.3c-.03-1.78,.36-3.53,.18-5.3,.06,.03,.18,.1,.17,.38,.05-.83,.69-3.13,.07-2.93,.35,.04,.36-1.79,.39-2.77l.24,.21c-.16-.86-.24-.91-.06-2.04,.1-.25,.27-.17,.12,.16,.36-.83-.06-.74,.39-1.75l.05,.44c.29-.88,.17-.83,.13-1.39,.09-.59,.64-1.64,.94-1.67-.1-.17-.1-.72,.16-1.2,.11-.03,.1,.17,.09,.28,.76-1.35,.61-2.25,1.32-3.09,.09,.02,.16-.02,.23-.09-.54,1.1-.95,2-.93,1.91,.24,.1,.67-.78,.68,.08,.13-.79,.34-2.2,.9-3,.04-.03,.09-.06,.14-.07l-.02,.1c.12-.18,.2-.37,.24-.56,.18-.25,.31-.4,.46-.66,.24,0,.65-.93,.92-1.33-.26-.11,.11-.64-.4-.24,.06-.06-.02,.1-.18,.38-.03,.07-.07,.14-.09,.19v-.04c-.16,.28-.36,.65-.59,1.08,.07-.41,.16-.83,.57-1.22-.02-.31-.03-.64-.02-.83,.68-.39,1.58-1.34,1.88-1.36,.71-1.33,1.98-2.91,2.2-3.97,.23-.37,.43-.28,.6-.35-.12,.22-.31,.44-.34,.59,.43-.76,1.63-1.94,1.5-2.34,.87-.67-.18,.66,.81-.44l-.06,.22c1.22-.84,1.91-1.81,2.71-2.77,.78-.97,1.68-1.93,3.22-2.56-.21,.09-.31,.14-.39,.12,3.15-1.89,6.39-4.29,10.03-5.04,1.01-.23,1.04-.48,1.6-.85l.3,.23,.95-.62c1.45-.64,2.73,.1,4.56-.62l-.27-.17c.35-.02,.89-.12,1.34-.17,.45-.03,.8-.04,.75,.08,.07-.04,.22-.23,.49-.14l.03,.16c.56-.13,1.13-.19,1.71-.29,1.32,.16-.22,.61,1.68,.74,.7,0,2.06-.22,1.81-.36-.29-.04-.72-.19-.73-.35h.67c.18-.45,.81-.85-.86-1.38-.41,.04-.81,.1-1.21,.18l-.37-.25,1,.04c-.55-.25-.93-.08-1.34,.03-.09-.12-.26-.23-.49-.27l-1.17,.45c-.15-.18,.52-.36-.27-.46-.54,.21,.53,.4-.36,.56-.57-.18-.42-.36-1.07-.14-.1-.11,.03-.2,.29-.27-.59,.16-1.56,.19-1.83,.48-.62-.22-1.95,.37-1.97-.08-.17,.12-.96,.53-1.48,.67,.42-.37-.07-.26-.66-.14-.58,.13-1.25,.31-1.2,0-.59,.63-2.49,.97-3.6,1.69,.05-.06,.16-.18,.27-.2-.7,.22-.95,.16-1.41,.27,.07,.41-.95,.91-1.38,1.41-.96,.05,.29-.65-.11-.86,.17,.27-1.26,.97-.87,1.07-.72,.09-.57,.17-1.03,.04,.13,.49-.52,.38-.87,.91-.97,.29-.45-.27-1.31,.42-.52,.14,.22-.51,.22-.51ZM5.61,24.54h0c.1-.2,.18-.37,.23-.48l-.22,.48Zm-.94,1.92c.12-.23,.26-.52,.41-.83,.12-.03,.17,.09,.08,.28,0-.13-.28,.3-.49,.55Zm3.78-3.04c-.13,.3-.23,.37-.3,.38l.25-.51v-.05c.02,.05,.05,.11,.05,.18Z"/><path class="f" d="M8.42,22.73s.02-.07,.05-.13c-.06,.04-.11,.09-.16,.13v.14l.1-.15Z"/><path class="f" d="M69.57,26.78l.02,.02s-.03-.05-.03-.07c0,.02,0,.03,0,.05Z"/><polygon class="f" points=".95 55.5 1.02 55.48 .91 55.31 .95 55.5"/><path class="f" d="M60.9,20.9s.04-.07,.04-.15c-.02,.01-.03,.07-.04,.15Z"/><path class="f" d="M61.51,16.46l.42-.54c-.19,.23-.32,.4-.42,.54Z"/><path class="f" d="M63.38,12.82c-.04-.07-.07-.09-.11-.11h0l.11,.11Z"/><path class="f" d="M86.74,52.56l.11,.19c.24,.43,.11,.13-.11-.19Z"/><path class="f" d="M78.44,40.5c.3-.03,.61-.06,.93-.07-.41-.05-.76-.08-.93,.07Z"/><polygon class="f" points="79.62 72.24 79.62 72.24 79.53 72.33 79.62 72.24"/><path class="f" d="M79.76,40.87l.29-.35s-.02-.07-.05-.09h-.62l.35,.04,.18,.02s.02,.06,.03,.09c-.07,.11-.14,.21-.18,.3Z"/><path class="f" d="M50.37,1.91l-.18-.07s-.02,.03-.04,.04l.21,.04Z"/><path class="f" d="M50.15,1.87l-.21-.04c.09,.03,.17,.06,.21,.04Z"/><path class="f" d="M49.49,1.77l.45,.06c-.15-.05-.33-.11-.45-.06Z"/><path class="f" d="M55.09,4.19l.1-.06s-.07,.02-.1,.06Z"/><path class="f" d="M56.47,4.98c-.31-.22-.7-.69-1.2-.89l-.08,.05c.3-.01,.89,.8,1.28,.85Z"/><path class="f" d="M60.83,9.93c-.29-.3-.56-.62-.87-.92,.1,.23,.22,.53-.23,.17,.94,1.3-.07-.41,1.1,.74Z"/><path class="f" d="M61.94,12.99c.04-.54-.15-.03-.2-.08-.03,.35-.04,.46,.2,.08Z"/><path class="f" d="M66.8,34.55l-.26-.05c.13,.6,.09,0,.26,.05Z"/><path class="f" d="M70.76,38.39c-.11-.13-.22-.26-.31-.4l-.32,.06c.21,.12,.41,.24,.63,.34Z"/><path class="f" d="M73.14,41.32l-.25-.03c.32,.06,.64,.1,.96,.14l-.7-.11Z"/><path class="f" d="M73.71,74.14l.32,.15c.25-.26,.09-.59-.32-.15Z"/><path class="f" d="M55.37,83.97c-.27-.07-.85,.05-1.14,.31,.45-.14,.93-.19,1.14-.31Z"/><polygon class="f" points="5.08 60.05 5.33 60.39 4.96 59.71 5.08 60.05"/></g></g><g><path class="e" d="M37.26,15.24c-.98-.45-2.05-.78-3.13-.72s-2.17,.6-2.69,1.55c-.39,.71-.42,1.55-.43,2.36-.02,1.11-.02,2.29,.57,3.23,.48,.77,1.3,1.28,2.18,1.53,2.13,.61,4.66-.45,5.55-2.48s-.19-4.74-2.3-5.43"/><g><path class="g" d="M37.21,14.65c-.04,.08-.1,.26-.04,.24l.14-.3-.1,.06Z"/><path class="g" d="M37.28,15.33c.11-.13,.28-.36,.37-.65-.18,.27-.14,.14-.34,.47-.05,.02-.03-.13,.02-.24-.05,.07-.04-.1-.14,.09-.03,.26,.02,.29,.17,.13-.01,.07-.06,.15-.09,.2Z"/><path class="g" d="M39.08,18.53l.04-.03s-.03,.02-.04,.03Z"/><path class="g" d="M38.64,20.57s-.03-.04-.05-.05c.01,.02,.03,.04,.05,.05Z"/><path class="g" d="M38.16,20.68h.03s-.05-.02-.03,0Z"/><path class="g" d="M39.08,18.53l-.09,.07c.11-.01,.07-.04,.09-.07Z"/><path class="g" d="M38.2,14.91s-.05,.02-.08,.05c.02,0,.04,0,.05,0l.03-.04Z"/><path class="g" d="M38.56,17.7h0l-.13,.03,.14-.03Z"/><path class="g" d="M38.18,17.13s.23-.14,.34-.2c-.1,.06-.15,.08-.18,.08l-.16,.12Z"/><path class="g" d="M37.73,15.98l-.04,.02,.04-.02Z"/><path class="g" d="M38.67,18.19l-.09,.03,.09-.03Z"/><path class="g" d="M36.79,13.63l-.02,.05s.02-.04,.02-.05Z"/><polygon class="g" points="37.23 15.31 37.21 15.32 37.14 15.46 37.23 15.31"/><path class="g" d="M37.55,20.9h0s-.02-.02,0,0Z"/><path class="g" d="M32.91,21.46c-.12,.23-.29,.17-.41,.44,.07-.08,.35-.27,.41-.44Z"/><path class="g" d="M38.2,14.96s.03,.01,.04,.02c-.01-.02-.02-.03-.04-.02Z"/><path class="g" d="M32.5,21.9h0v0Z"/><path class="g" d="M36.61,21.79s.04,.08,.07,.1c-.01-.03-.03-.06-.07-.1Z"/><path class="g" d="M37.7,21.55h-.04s.04,0,.04,0Z"/><path class="g" d="M36.24,22.36s-.04-.05-.05-.01l.02,.03s0-.06,.03-.02Z"/><path class="g" d="M35.65,22.5l.02,.05,.02-.02-.04-.04Z"/><path class="g" d="M34.18,13.34c.02,.08,.04,.16,.05,.25-.02-.2,.11-.28-.05-.25Z"/><path class="g" d="M38.12,15.05c.04-.06,.07-.08,.09-.09-.01,0-.02,0-.03,0-.02,.03-.05,.07-.05,.09Z"/><path class="g" d="M36.87,24.48h-.15s.1,.01,.15,0Z"/><path class="g" d="M29.88,17.75l-.03-.03s0,.02,.03,.03Z"/><path class="g" d="M36.31,24.63c-.05-.09-.08-.14-.12-.17,0,.02,0,.04,0,.07l.12,.1Z"/><path class="g" d="M34.23,13.59h0Z"/><path class="g" d="M35.2,12.97c-.14-.03-.11,.35-.16,.56-.17,.09-.04-.28-.08-.47-.11,.09-.21,.42-.28,.4,0-.06-.02-.08,0-.16-.11,.29-.32,0-.44,.38,0-.03-.02-.06-.02-.09,.03,.18,.03,.37,.03,.51-.05,0-.09,.24-.12,0,.03,0,.03-.09,.04-.17l-.05,.11c-.07-.34,.07-.12,.06-.38-.12,.12-.23,.42-.32,.33-.06-.34,.2-.13,.05-.42l.16,.12c-.15-.53,.09,.03-.05-.53-.22-.08-.22,.19-.43,.12-.02,.19,.06,.27,.04,.47-.19,.38-.38-.8-.5-.31,0,.23,.09,.65-.1,.47l-.06-.38c-.2,.02,.06,.56-.21,.38-.02-.16,.1-.17,.06-.2-.22-.25-.02,.24-.11,.27l-.14-.31c-.18,.12-.29,.45-.45,.6-.04-.09-.05-.21-.15-.27-.17,.29-.56,.3-.93,.37l.11,.29s-.13-.06-.15-.12c-.16,0,.13,.14,.17,.26-.03,.06-.18-.06-.21-.15,.01,.33,.04,.77-.34,.78l-.05-.08c-.2,.1,.42,.46,.11,.46l-.03-.05c-.28,.27-.14,.69-.62,.83,.4,.14-.25,.29,.33,.41-.32,.13-.41,.06-.64,.3-.03,.07,.36,.14,.41,.22l-.31-.02,.31,.13-.37,.03,.07,.08s.14-.05,.23-.04c.13,.12-.23,.26-.39,.26l.25,.27c-.12,0-.17-.05-.24-.09,.31,.15-.33,.02-.04,.15,.07-.01,.18,.01,.25,.02-.19,.06-.19,.2-.12,.3l-.21-.02c-.06,.19,.1,.4,.1,.62,.1-.08,.47-.07,.5,0l-.33,.03c.2,.04,.12-.07,.37,.01-.04,.08-.37,.06-.48,.02l.12,.1c-.1,0-.15-.01-.27-.02,.2,.04-.32,.19,.03,.24h-.1c0,.25,.13,.35,.17,.54,.28-.03,.23,.06,.46,.09-.07,.15-.27,.34-.21,.52,.16,.1,.24-.01,.41,0-.25,.06-.18,.23-.38,.18,.09,.2,.12,.27,.41,.47,.09-.06,.12-.11,.21-.12,.06,.03-.06,.14-.18,.18h-.03c.23,.08,.13,.3,.07,.55-.06,.24-.09,.49,.22,.46h-.03c.13,.03,.26,.05,.39,.06,.04,.13-.2,.06-.27,.23,.52-.04,.28,.41,.66,.38-.35,.71,.54,.38,.49,.9l.08-.16c.15-.12,.01,.13,.04,.19,.06-.12,.02-.17,.1-.24,.56,.08,.87,.72,1.42,1.01,.2,.09,.31-.87,.47-.41l-.13,.31c.46-.32,.84,.12,1.24-.22-.02,.08-.02,.18-.06,.18,.09,.24,.31,0,.3-.2,.06,.02,.02,.18,.07,.27,.1,.14,.18-.32,.25-.09,.01,.04-.01,.08-.03,.1,.04-.12,.26,0,.17-.27,.16,.12,.25-.16,.39-.02,0-.32,.27,.09,.19-.34,.1,.45,.34,.28,.36,.06,.01,.14,.12,.11,.14,.3,.1-.04,.17-.14,.07-.36,.37,.44,.19-.54,.55,.06,.19-.35,.35-.62,.52-.85,.23,.39-.23,.19,.01,.6,.15-.31,.06-.69,.32-.75,.09,.01,.08,.18,.11,.26,.11-.3,.44-.27,.45-.62,.03,.03,.04,.08,.04,.12,.02-.04,.13-.02-.02-.17v.07c-.24-.18-.29-.57-.4-.69,.36,.47,.25-.04,.7,.56,0-.05-.05-.14-.15-.23,.06,0,.13,.04,.21,.18,.03-.2-.17-.3-.07-.4,.07,.07,.08,.11,.16,.2-.09-.18-.2-.37-.06-.4,.04,.04,.11,.08,.09,.11,.12-.19-.2-.58,.07-.66,.33,.29,.16,.01,.49,.19l-.03-.17-.18-.05c.06-.09-.14-.3,0-.33l.1,.14,.03-.21-.18,.04c-.13-.18-.43-.2-.28-.27,.02,.04,.05-.08,.27-.05h0c-.09-.09-.19-.18-.08-.22,.12,.02,.38,.16,.46,.17-.28-.16,.01-.27-.3-.42,.07,.04,.26,.1,.3,.1l-.23-.11c.09-.02,.13-.02,.28,.03,.08-.13-.47-.08-.23-.19,.02,.02,.06,.02,.09,.06,.15-.15-.09-.35,.05-.48,.38,0,.07,.15,.39,.14-.02-.26-.4-.52-.31-.73l-.04,.04c-.53-.03,.27-.16,0-.27,.04,.02,.3,.02,.24,.02,.07-.16-.14-.31-.35-.5h.14c.11-.1,.03-.23,.07-.34-.14,0-.13-.06-.32,.02,.34-.22,.2-.35,.05-.44-.16-.09-.33-.15-.07-.39,.01,.03,.14,.03,.13,0-.06-.06-.13-.11-.2-.16-.2,.11-.12,.08-.26,.19-.14,.03-.26,.02-.28-.02,.18,.02,.34-.15,.44-.25-.06,.04-.14,.06-.2,.09,.32-.28-.43,.19-.24-.07l.11-.05c-.08-.02-.25,.01-.24-.05,.22-.15,.14-.01,.33-.11-.06-.07-.52,.11-.33-.09,.08,0,.11,.03,.19,.03,.23-.23,.15-.2,.16-.28h0l.04-.2-.05,.08c-.64,.3-.24-.11-.69,.04,.42-.15,.21-.13,.46-.31,.04-.08,.08-.19,.16-.23-.23,.09,.06-.22-.28-.07,.07-.07-.05-.07,.15-.22-.12-.02-.11,.13-.21,.21-.33,.12,.05-.55-.43-.36-.26,.02-.49,.26-.7,.31,.05-.16,.24-.26,.24-.26,.02-.17-.06-.19-.19-.14,.06-.06,.09-.13,.12-.24-.07-.02-.23,.28-.23,.11,.07-.09,.18-.23,.26-.3-.12,.03-.29,.15-.4,.19,.06-.16,.17-.2,.25-.28-.13,.02-.3,.01-.44,.24v.11s.09-.22,.14-.25c.17-.15,.06,.14,.02,.23l-.08,.03c-.22,.53,.23,.02,.33,.12l-.26,.33c.09-.08,.18-.16,.28-.23-.04,.1-.16,.31-.23,.33-.06,.21,.14-.08,.06,.14-.02,.03-.03,.05-.04,.06l.13-.06c-.06,.06-.17,.24-.16,.17-.05,.25,.35-.13,.18,.14h-.02c.22,.02,.21-.21,.55-.39-.14,.21-.29,.41-.45,.61l.22-.21s.02,.06-.08,.14c.19-.1,.09-.1,.25-.21-.14,.26,.26,.1-.09,.43,.2-.13,.08-.18,.26-.22-.38,.36,.14,.02,0,.24-.23,.15-.15,0-.3,.21,.39-.24,0,.18,.11,.17,.3-.21,.21,.02,.36,.05-.11,.06-.06,.27-.15,.42l-.06,.03c.33-.15,.32-.03,.42,.01-.2,.09-.29,.11-.39,.12l.03,.06c.11-.03,.18-.04,.24-.02l-.26,.09c.05,.07,.36,.05,.23,.22,.25-.07,.64-.33,.85-.25-.13,.05-.35,.13-.42,.11,.02,0,.12,0,.08,.04l-.24,.02c-.08,.08,.19-.03,.19,.02-.19,.06-.12,.07-.28,.11-.02,0,.07-.06-.01-.05-.01,.06-.12,.15-.25,.2,.11-.03,.26-.07,.29-.05,.04,.08-.22,.09-.31,.17,.14-.01,.01,.07,.3,0,0,.03-.13,.06-.2,.09,.14,.01,.07,.2,.37,.09l.02-.02h.01c.32,.12-.11,.35,.02,.49h-.1c.12,.09,.08,.2,.28,.27,0,.03-.18,.06-.3,.05,.07,.07,.18,.09,.02,.18-.17-.08-.15,.01-.12-.08-.09,.08-.25,.08,0,.2-.25-.06-.32,.02-.25,.07l.19-.03s0,.09-.02,.12l-.33-.08c-.42,.05,.6,.44-.08,.38,.21,.11,.18-.03,.43,.08-.07,.07-.55-.02-.56,0-.2,.02,.43,.26,.26,.32,.11,.04,.41,.15,.47,.28-.08,.07-.49-.13-.56-.21,0-.02,.04-.01,.07,0-.03-.04-.06-.09-.19-.12l.1,.06c-.13-.02-.16,.08-.32-.03,.08,.1,.16,.11,.23,.1-.19,0-.07,.13-.22,.15,.06,.02,.19,.08,.18,.09-.2,.05,.15,.18,.14,.3-.18-.05-.34-.26-.28-.09-.14-.02-.26-.18-.33-.25,.13,.2-.22,.03-.27,.03l-.05-.09c.03,.05,.02,.07,0,.08l.2,.13s-.06,0-.14-.05c.1,.12,.31,.24,.44,.42-.12-.05,.01,.17-.23-.03,.16-.01-.24-.21-.21-.31,.02,.04,0,.05-.05,.04-.03-.02-.05-.05-.05-.06-.27-.12,.23,.28,.14,.36-.11-.14-.25-.22-.24-.18,.03-.03,.22,.2,.28,.33-.15-.05,0,.13-.04,.15l.08,.02c.11,.14,.06,.15,.05,.23-.09-.1-.02-.11-.08-.14,.15,.28-.31-.15-.25,.06-.1-.07-.21-.26-.28-.31,.06,.24-.22-.14-.18,.06,.15,.18,.13,.13,.2,.36l.03-.23,.11,.35s0-.19,.05-.17c.07,.19,.04,.14,.18,.28-.27-.25,0,.26-.21,.11l-.32-.5c-.23-.17-.01,.37-.23,.31l.09,.07c.09,.22-.07,.07-.08,.18-.08-.18-.14-.23-.21-.33,.06,.13-.1,.03,.05,.4l-.17-.21c-.15-.06,.07,.57-.07,.56-.04-.22-.13-.33-.11-.5-.04,.01-.08,0-.04,.12-.06-.11-.02,.28-.12,.12,0,.09,.06,.29,.01,.29-.02-.04-.03-.09-.03-.09,.03,.09-.04,.15,.06,.35-.28-.55-.37,.13-.58-.36-.08,.08-.18,.15-.26,.18,0-.06,0-.1,0-.08-.13-.17-.02,.58-.18,.38-.09-.32,.06-.18,.01-.29-.05-.65-.15,.09-.25-.28l.02-.04c-.06-.21-.15,.24-.26,.19,0,0,0-.06,0-.1-.09,.33-.25,.43-.37,.5,.07-.25,.07-.13,.08-.39-.05,.03-.04,.41-.15,.47-.01-.14-.06-.27-.02-.54h.09c.02-.36-.11,0-.14-.08l.04-.15c-.13,.02-.22,.4-.36,.34l-.02,.12c-.19,.36,0-.23-.17,.03l.1-.38c-.07,.08-.3,.3-.42,.33,.16-.25,.31-.35,.43-.5-.04-.02-.16-.03-.26,.14,.03-.03,.09-.11,.09-.05-.16,.27-.31,.38-.41,.33,.33-.69-.17-.3,.06-.85-.29,.16-.2-.26-.34-.33-.33,.5-.05-.02-.44,.45-.06,0-.07-.02-.05-.05,.05-.12,.1-.24,.15-.36,.11-.15,.12-.07,.22-.17-.02-.09,.16-.21,.25-.35-.15,.16-.25,.2-.21,.11l-.17,.23c-.33,.13,.33-.4,.02-.28l.17-.09c-.12,.03-.09-.13-.54,.07,.06-.04,.2-.14,.25-.14,.01-.12-.62-.06-.37-.29l.15-.04s-.28,.04-.15-.04c.06-.02,.15-.03,.15-.05-.05,0-.27,0-.2-.06h.17c.15-.2-.45-.15-.58-.29,.43-.07,.56-.22,.62-.29h.06c.03-.2-.39-.31-.57-.52,.47-.14,.19-.44,.46-.66-.08,.03-.34,0-.39-.05,.09-.05-.3-.15,.1-.13v.02c.39-.03,.29-.14,.3-.22l-.53-.03c.77-.19-.26-.57,.44-.62-.13-.06-.12-.11-.25-.17l.28,.04c.09-.11,.13-.15,.09-.29l.19,.06c.03-.06-.78-.26-.78-.34l.42,.08c.03-.14,.41-.1,.1-.34,.06,.03,.16,.08,.17,.1,.03-.05,.32,0-.18-.29,.32,.19,.08-.06,0-.22l.22,.18c-.26-.26-.32-.32-.34-.45,.04,0,.18,.13,.11,.11,.15,.05-.16-.22,0-.18l.11,.15c.06-.03-.01-.1-.12-.28-.04-.11,.16-.05,.32,.15-.09-.12-.18-.31-.1-.28,.06,.07,.08,.13,.1,.16,.2,.09-.03-.38,.19-.19,.05,.08,.08,.12,.1,.14-.09,.04-.15,.07-.16,.05,.15,.21,.22,.21,.38,.53-.08-.18-.21-.59-.09-.53l.05,.07v.03s.03-.01,.03-.06c.04,.03,.06,.05,.08,.04,.1,.19,.12,.07,.15,.07-.12-.26-.05-.24-.19-.43,.01,.02,0,.03-.01,.05,0,0,0,.02,0,.03v-.02l-.09,.06c-.04-.14-.06-.27,.05-.14-.06-.17-.11-.35-.13-.44,.21,.33,.38,.5,.47,.72,.05-.19,.21-.17,.17-.71,.02-.07,.07,.14,.1,.22,0,.06-.03,.05-.03,.13,.04-.15,.19-.09,.15-.46,.12,.15,0,.34,.11,.27v.11c.15,.28,.2,.04,.31-.18,.1-.22,.24-.41,.36-.02-.02-.05-.03-.07-.03-.13,.29,.34,.76-.23,.98,.38,.06,.13,.13-.1,.24-.25l-.06,.3,.2-.3c.23-.2,0,.78,.34,.39l.05-.2c.05,.06,.25-.04,.15,.18,.02-.03,.1-.19,.08-.08l-.06,.15,.26-.19c.08,.16-.26,.57-.1,.67,.08-.03,.37-.34,.39-.45-.02-.02-.03-.12,.04-.27l.09-.05c.2-.42,.45-.83,.42-1.2l-.23,.21,.05-.22,.1,.03c.03-.22-.08-.06-.17,.04,.04-.11,.05-.2,.05-.25l-.28,.36c.05-.17,.19-.31,.15-.44-.13,.17-.1,.4-.24,.49,.02-.22,.1-.37-.03-.23,.03-.12,.08-.18,.12-.22-.11,.11-.18,0-.3,.22,.03-.27-.22,0-.07-.42-.05,.09-.22,.29-.28,.29,.27-.47-.2-.1-.01-.63-.22,.43-.35,.12-.56,.34,.02-.03,.05-.11,.06-.08-.07-.06-.06-.2-.1-.3-.1,.38-.24,.44-.36,.66-.03-.39,.15-.44,.19-.8-.06,.31-.24,.28-.25,.54-.04-.24-.05-.12-.04-.45-.09,.48-.09,.07-.2,.36-.08-.25,.03-.46-.12-.33-.05-.16,.09-.31,.09-.31Zm-3.01,1.35h0l.05-.05-.05,.05Zm-.22,.14s.07-.03,.1-.05c.06,.08,.1,.17,.08,.18-.02-.06-.1-.08-.18-.13Zm1.31,1.5s-.03,0-.06-.05c0,0,.01-.02,.02-.05v-.03l.04,.13Z"/><path class="g" d="M33.16,15.61s0-.02,0-.02l-.04-.05,.03,.08h.01Z"/><path class="g" d="M39.13,18.49h0Z"/><polygon class="g" points="29.76 17.47 29.83 17.47 29.77 17.45 29.76 17.47"/><path class="g" d="M39.68,17.07s.04-.03,.06-.05c-.02,0-.04,.03-.06,.05Z"/><path class="g" d="M39.46,16.54l.04-.12c-.03,.06-.04,.1-.04,.12Z"/><path class="g" d="M39.32,16.09l-.1,.07h0l.1-.07Z"/><path class="g" d="M38.96,22.94s0,.01,0,.02c0,.07,.01,.03,0-.02Z"/><path class="g" d="M39.71,20.82s.08,.08,.1,.12c.03-.03,.05-.05-.1-.12Z"/><polygon class="g" points="36.89 24.48 36.89 24.48 36.87 24.48 36.89 24.48"/><path class="g" d="M39.76,21.02c.07,0,.07-.04,.05-.09-.03,.02-.07,.04-.05,.09Z"/><path class="g" d="M37.83,14.68l-.02-.02-.02,.04,.04-.02Z"/><path class="g" d="M37.79,14.7l-.04,.02s.02,0,.04-.02Z"/><path class="g" d="M37.68,14.76l.08-.04s-.03-.03-.08,.04Z"/><path class="g" d="M38.31,15.12l.06-.08s-.04,.04-.06,.08Z"/><path class="g" d="M38.48,15.21s.04-.24-.06-.23l-.05,.06c.11-.1-.03,.28,.11,.17Z"/><path class="g" d="M38.13,16.59l-.02-.14c-.06,.09-.15,.21-.2,.19-.14,.33,.15-.19,.22-.05Z"/><path class="g" d="M38.23,16.96c-.08-.02-.13,.1-.18,.13,.1-.03,.13-.04,.18-.13Z"/><path class="g" d="M38.96,19.31l-.26-.02s.1,0,.26,.02Z"/><polygon class="g" points="40.21 20.01 40.38 19.98 40.15 19.91 40.21 20.01"/><polygon class="g" points="38.37 19.91 38.33 19.88 38.41 19.97 38.37 19.91"/><path class="g" d="M35.71,22.23l.07,.31c.02-.06-.05-.41-.07-.31Z"/><path class="g" d="M33.99,22.5c.02-.16,0-.26-.07-.13,.03,.03,.04,.16,.07,.13Z"/><polygon class="g" points="32.25 18.17 32.36 18.22 32.27 18.14 32.25 18.17"/></g></g><g><path class="e" d="M20.63,44.69c4.16-3.43,.18-9.28-4.24-6.79-4.79,2.71-.22,10.46,4.24,6.79Z"/><g><path class="g" d="M21.05,45.2c-.04-.07-.17-.22-.18-.17l.18,.27v-.11Z"/><path class="g" d="M20.45,44.87c.06,.15,.18,.41,.38,.64-.15-.29-.06-.19-.24-.52,0-.05,.12,.05,.19,.15-.04-.07,.1,.02-.01-.15-.2-.17-.26-.15-.19,.06-.06-.05-.09-.13-.13-.18Z"/><path class="g" d="M17.19,44.98v.04s0-.04,0-.04Z"/><path class="g" d="M15.81,43.65s.05,0,.07-.02c-.03,0-.05,0-.07,.02Z"/><path class="g" d="M15.93,43.19v.03s.02-.04,0-.03Z"/><path class="g" d="M17.19,44.98v-.11c-.05,.1-.01,.08,0,.11Z"/><path class="g" d="M20.44,45.84s0-.06-.01-.1c0,.02,0,.04-.01,.05l.02,.05Z"/><path class="g" d="M18.03,44.9h.01l.02-.13-.03,.13Z"/><path class="g" d="M18.6,44.82s.03,.27,.04,.39c0-.12,0-.17,0-.19l-.04-.2Z"/><path class="g" d="M19.72,44.95v0Z"/><path class="g" d="M17.63,44.79l.02-.1-.02,.1Z"/><path class="g" d="M22.25,44.95l-.04-.03s.03,.04,.04,.03Z"/><polygon class="g" points="20.58 44.64 20.58 44.62 20.48 44.49 20.58 44.64"/><path class="g" d="M16.01,42.55h0s.03,0,0,0Z"/><path class="g" d="M17.26,38.78c-.16-.2-.04-.33-.24-.55,.05,.1,.11,.43,.24,.55Z"/><path class="g" d="M20.4,45.82s-.02,.02-.03,.02c.02,0,.03,0,.03-.02Z"/><polygon class="g" points="17.02 38.23 17.02 38.23 17 38.21 17.02 38.23"/><path class="g" d="M15.57,41.47l-.12,.02s.06,0,.12-.02Z"/><path class="g" d="M15.37,42.46l.03-.04s-.03,.03-.03,.04Z"/><path class="g" d="M15.19,40.99s.06-.01,.02-.03h-.03s.06,.02,0,.03Z"/><path class="g" d="M15.28,40.48h0Z"/><path class="g" d="M23.35,42.69c-.08,0-.17-.02-.25-.03,.19,.04,.23,.18,.25,.03Z"/><path class="g" d="M20.36,45.71c.03,.06,.04,.1,.04,.12v-.03s-.03-.07-.04-.09Z"/><path class="g" d="M12.98,40.75l.05-.13s-.05,.08-.05,.13Z"/><path class="g" d="M21.62,37.28h.04s-.02-.02-.04,0Z"/><path class="g" d="M13.06,40.2c.1,0,.17-.02,.21-.04-.02-.01-.04-.02-.07-.03l-.14,.07Z"/><path class="g" d="M23.09,42.66h0Z"/><path class="g" d="M23.39,43.72c.06-.12-.3-.21-.48-.33-.03-.18,.28,.05,.47,.08-.05-.13-.33-.32-.29-.38,.06,.02,.09,.01,.15,.05-.23-.19,.1-.28-.23-.5,.03,0,.06,0,.09,.01-.18-.04-.36-.09-.49-.13,0-.05-.2-.15,.03-.1-.01,.03,.08,.06,.15,.09l-.09-.08c.35,.04,.1,.1,.34,.17-.08-.14-.33-.32-.22-.38,.34,.06,.07,.21,.39,.17l-.16,.1c.54,.04-.06,.07,.52,.12,.14-.16-.12-.24,.02-.4-.18-.07-.28-.04-.45-.11-.28-.28,.88-.07,.45-.32-.22-.07-.65-.12-.42-.23l.38,.07c.05-.18-.55-.12-.28-.29,.15,.03,.12,.14,.17,.11,.31-.11-.21-.09-.21-.17l.34-.02c-.03-.19-.31-.38-.4-.56,.1,0,.21,.02,.31-.04-.21-.23-.02-.55,.08-.86h-.31s.11-.09,.18-.08c.08-.13-.18,.05-.3,.04-.04-.04,.14-.12,.23-.12-.29-.1-.64-.26-.45-.54h.09c.04-.19-.61,.13-.42-.11h.06c-.02-.34-.41-.44-.21-.88-.36,.23-.04-.36-.5,.01,.12-.32,.23-.36,.18-.67-.03-.07-.33,.2-.43,.19l.21-.23-.3,.17,.2-.32h-.11s-.04,.16-.1,.22c-.17,.03-.08-.35,.01-.49-.13,.01-.27,.03-.39,.06,.07-.1,.14-.11,.22-.15-.31,.18,.16-.29-.13-.12-.02,.07-.11,.15-.14,.2,.04-.19-.1-.28-.24-.27l.12-.17c-.16-.18-.47-.12-.7-.21,.05,.12-.11,.46-.18,.47l.09-.31c-.11,.17,.02,.14-.15,.34-.06-.06,.07-.37,.16-.45l-.14,.07c.03-.09,.07-.13,.11-.25-.1,.18-.09-.38-.26-.07l.02-.1c-.25-.07-.39,.03-.59,0-.05,.28-.12,.2-.2,.42-.12-.1-.26-.37-.44-.33-.13,.14-.04,.24-.1,.41,0-.26-.17-.23-.08-.41-.21,.05-.27,.06-.5,.28,.04,.1,.07,.15,.06,.23-.04,.04-.11-.1-.12-.22v-.03c-.19,.4-.78-.6-.89-.03v-.03l-.14,.32c-.12-.02,0-.2-.13-.33-.09,.49-.39,.1-.47,.44-.47-.61-.49,.26-.9-.01l.1,.14c.05,.18-.11-.05-.17-.06,.08,.11,.14,.1,.16,.2-.26,.45-.97,.33-1.45,.69-.17,.12,.63,.68,.15,.58l-.22-.26c.04,.5-.45,.68-.34,1.16-.06-.05-.15-.09-.13-.13-.26-.03-.15,.27,.03,.34-.05,.04-.17-.05-.28-.06-.16,.03,.23,.3,0,.26-.04,0-.07-.05-.08-.07,.09,.09-.1,.23,.18,.26-.17,.1,.05,.29-.14,.35,.28,.13-.21,.2,.22,.3-.45-.09-.38,.19-.18,.29-.13-.04-.15,.06-.33,0,0,.1,.08,.2,.31,.2-.55,.17,.41,.36-.28,.46,.26,.29,.46,.52,.6,.74-.45,.06-.08-.26-.55-.19,.22,.23,.6,.29,.55,.53-.04,.07-.2,.01-.28,0,.25,.18,.09,.46,.39,.58-.04,.01-.09,0-.13,0,.03,.03-.03,.11,.16,.04l-.06-.02c.26-.15,.63-.06,.78-.12-.57,.15-.07,.23-.8,.41,.05,.01,.15,0,.28-.05-.02,.05-.09,.09-.25,.12,.17,.09,.34-.05,.4,.07-.09,.04-.14,.03-.25,.07,.21-.02,.41-.05,.38,.08-.06,.02-.12,.07-.13,.04,.12,.16,.59,.03,.52,.29-.4,.18-.08,.13-.39,.34l.16,.03,.13-.14c.05,.08,.32,0,.27,.13l-.17,.03,.16,.1,.06-.16c.21-.04,.38-.29,.36-.13-.04,0,.05,.07-.1,.25h0c.12-.04,.24-.08,.21,.03-.08,.09-.32,.26-.38,.32,.26-.17,.22,.1,.5-.09-.07,.04-.21,.18-.24,.21l.21-.15c-.03,.09-.05,.12-.17,.22,.06,.12,.31-.36,.27-.11-.02,0-.05,.04-.09,.05,.04,.19,.32,.08,.34,.27-.21,.32-.15-.02-.32,.26,.2,.11,.63-.1,.74,.08v-.06c.29-.44-.02,.3,.19,.14-.04,.02-.17,.24-.14,.19,.07,.16,.32,.03,.58-.05l-.08,.12c.03,.14,.18,.14,.24,.23,.07-.12,.11-.08,.14-.28,0,.42,.17,.37,.33,.26,.16-.1,.28-.22,.36,.12-.03,0-.09,.11-.06,.11l.23-.1c0-.23-.02-.14-.04-.33,.04-.13,.09-.23,.14-.23-.09,.14-.02,.37,.02,.5,0-.07,.01-.15,.01-.22,.09,.42,.03-.45,.15-.18v.12c.05-.07,.08-.23,.14-.2,.04,.26-.05,.13-.04,.35,.09-.02,.12-.52,.21-.27-.02,.08-.07,.08-.1,.16,.1,.3,.11,.22,.17,.27h0l.16,.12-.05-.08c0-.7,.19-.15,.23-.62-.03,.44,.03,.25,.09,.54,.05,.08,.13,.16,.14,.25,0-.26,.16,.15,.16-.23,.03,.09,.07-.02,.13,.22,.06-.11-.07-.15-.1-.27,.01-.36,.44,.26,.46-.23,.08-.24-.04-.53,0-.74,.11,.11,.14,.33,.14,.33,.13,.08,.17,.03,.17-.11,.03,.08,.08,.14,.15,.22,.04-.06-.15-.33,0-.25,.05,.1,.12,.26,.15,.37,.02-.12-.02-.31-.01-.42,.11,.13,.1,.24,.14,.35,.03-.11,.1-.25-.03-.49l-.1-.05s.14,.18,.15,.23c.06,.21-.14-.02-.19-.1v-.08c-.35-.45-.1,.19-.21,.22l-.18-.38,.09,.35c-.07-.08-.2-.28-.19-.36-.16-.14,.02,.16-.13,0-.02-.03-.03-.05-.03-.06v.14c-.02-.08-.14-.25-.08-.22-.2-.16-.02,.35-.2,.08v-.03c-.09,.18,.11,.28,.14,.66l-.36-.67,.1,.29s-.06-.01-.09-.13c.02,.22,.06,.12,.09,.32-.16-.23-.17,.2-.33-.26,.04,.23,.12,.14,.09,.33-.16-.5-.07,.13-.2-.09-.04-.26,.05-.14-.07-.36,.06,.45-.15-.09-.17,0,.06,.36-.09,.16-.17,.29,0-.12-.19-.18-.27-.3v-.06c-.01,.38-.1,.29-.17,.36,.02-.22,.03-.3,.07-.4h-.05c-.02,.11-.04,.17-.08,.2l.04-.27c-.06,0-.19,.3-.25,.11-.06,.25-.03,.71-.2,.86,.02-.14,.06-.37,.11-.42-.01,.02-.06,.11-.07,.05l.09-.22c-.03-.11-.06,.19-.1,.16,.04-.19,0-.14,.04-.29,.01-.02,.01,.08,.04,0-.03-.04-.06-.16-.03-.31-.02,.11-.06,.26-.1,.28-.08-.02,.04-.24,.03-.35-.05,.12-.06-.03-.15,.25-.02,0,.02-.14,.04-.22-.08,.11-.18-.03-.25,.28v.02h0c-.24,.22-.21-.22-.37-.2l.05-.09c-.12,.05-.18-.04-.35,.1-.02-.01,.05-.18,.12-.27-.09,.03-.17,.11-.14-.07,.15-.11,.07-.13,.13-.07-.02-.11,.07-.24-.17-.07,.18-.18,.16-.29,.09-.25l-.08,.18c-.05,0-.07-.04-.08-.09l.23-.24c.18-.39-.68,.3-.28-.25-.2,.13-.06,.17-.28,.33-.02-.09,.28-.45,.27-.47,.09-.19-.42,.24-.39,.07-.09,.08-.33,.29-.47,.29-.02-.1,.34-.37,.45-.39,.02,0,0,.04-.04,.06,.05,0,.11-.01,.19-.11l-.1,.06c.08-.1,0-.17,.18-.27-.12,.02-.17,.09-.2,.16,.09-.17-.08-.12-.04-.25-.05,.05-.16,.13-.16,.12,.04-.19-.23,.07-.32,0,.13-.14,.38-.2,.21-.21,.08-.11,.27-.16,.36-.19-.24,.04,.07-.2,.09-.26h.1c-.06,0-.07-.02-.08-.04l-.2,.12s.02-.06,.11-.1c-.15,.04-.35,.19-.56,.23,.09-.08-.17-.05,.11-.18-.05,.14,.29-.13,.37-.08-.04,0-.05-.02-.02-.06,.03-.02,.06-.02,.08-.02,.22-.19-.36,.1-.38,0,.17-.05,.31-.14,.27-.14,0,.04-.27,.13-.41,.13,.11-.11-.12-.04-.11-.08l-.05,.06c-.17,.04-.16,0-.23-.03,.13-.05,.1,.02,.16-.02-.32,.04,.27-.22,.05-.23,.11-.06,.32-.09,.39-.14-.25-.02,.21-.14,0-.17-.23,.07-.17,.07-.41,.05,.06,.04,.13,.07,.2,.1h-.37s.18,.05,.14,.08c-.2,0-.14,0-.33,.06,.33-.14-.25-.08-.01-.21l.58-.11c.25-.14-.32-.13-.19-.29l-.1,.05c-.24,0-.04-.08-.14-.12,.2-.01,.27-.04,.39-.07-.15,.01,0-.09-.4-.09l.27-.07c.12-.1-.55-.13-.48-.25,.21,.04,.36,0,.5,.08,0-.03,.04-.06-.09-.07,.12,0-.26-.12-.07-.13-.09-.02-.29-.05-.27-.09,.04,0,.1,.01,.1,.01-.1-.01-.13-.08-.35-.07,.6-.03,.03-.35,.56-.32-.04-.09-.08-.2-.07-.28,.05,.02,.09,.03,.07,.04,.2-.03-.52-.26-.28-.3,.32,.07,.13,.12,.26,.13,.61,.24-.01-.15,.37-.06l.03,.03c.22,.06-.16-.22-.07-.29,0,0,.05,.03,.08,.05-.26-.22-.29-.4-.31-.54,.19,.17,.08,.11,.3,.25,0-.05-.35-.23-.35-.34,.13,.06,.27,.09,.49,.25l-.04,.06c.31,.19,.05-.08,.13-.07l.12,.1c.03-.11-.26-.37-.15-.45l-.09-.07c-.23-.33,.2,.11,.04-.15l.29,.27c-.04-.1-.15-.4-.12-.51,.14,.25,.16,.42,.25,.59,.02-.04,.08-.12-.02-.28,0,.04,.05,.13,0,.09-.16-.26-.19-.43-.1-.48,.45,.62,.32,0,.71,.46-.04-.34,.3-.07,.43-.16-.32-.51,.04-.04-.23-.58,.03-.05,.05-.05,.07-.02l.27,.28c.1,.15,.02,.14,.07,.27,.1,0,.13,.22,.24,.35-.09-.2-.09-.3-.02-.25l-.16-.23c0-.35,.27,.42,.27,.1l.03,.19c.02-.12,.19-.03,.13-.53,.03,.07,.08,.23,.06,.27,.13,.04,.23-.61,.38-.29v.15s.03-.28,.07-.13c0,.06,0,.15,.01,.16,0-.05,.06-.26,.1-.18l-.02,.17c.12,.2,.21-.44,.35-.51-.03,.44,.05,.6,.08,.68v.06c.1,.08,.3-.35,.5-.44-.07,.5,.23,.28,.23,.6,.02-.08,.16-.3,.21-.33-.01,.1,.24-.21,.03,.14h0c-.18,.34-.07,.28-.03,.32l.3-.44c-.31,.68,.5,.04,.12,.61,.12-.07,.15-.04,.27-.11l-.2,.2c.02,.11,.01,.17,.14,.22l-.17,.11c.02,.06,.68-.45,.75-.4l-.33,.27c.09,.09-.16,.38,.21,.29-.05,.03-.16,.09-.19,.08,.02,.06-.16,.31,.35,.04-.34,.17,.03,.12,.21,.13l-.26,.1c.34-.08,.44-.11,.56-.06-.03,.03-.2,.09-.15,.04-.12,.11,.27-.04,.15,.09l-.18,.03c0,.07,.09,.04,.3,.02,.12,.01-.02,.16-.26,.22,.15-.03,.37-.04,.3,.02-.09,.03-.15,.02-.18,.02-.17,.15,.34,.12,.08,.25-.09,.02-.14,.03-.16,.04,0-.09,0-.16,.02-.16-.25,.05-.29,.12-.64,.14,.19,0,.62,.04,.51,.12l-.09,.02h-.03s0,.02,.05,.03c-.04,.03-.07,.04-.07,.06-.21,.02-.1,.08-.11,.11,.28-.02,.23,.03,.47-.02-.02,0-.03,0-.05-.03,0,0-.01-.01-.03-.01h.03s-.02-.05-.03-.09c.15,.02,.27,.04,.12,.09,.18,0,.37,.02,.46,.03-.4,.07-.61,.17-.86,.17,.15,.11,.09,.23,.62,.37,.07,.04-.15,.02-.23,.02-.05-.03-.04-.05-.12-.07,.14,.08,.02,.19,.38,.27-.18,.05-.32-.11-.29,.01l-.11-.04c-.31,.04-.1,.16,.08,.32,.19,.15,.34,.33-.08,.31,.05,0,.07,0,.13,.02-.22,.07-.21,.23-.22,.4,0,.17-.11,.31-.4,.28-.13,0,.05,.15,.16,.3l-.25-.17,.22,.29c.12,.28-.69-.31-.45,.12l.16,.12c-.07,.01-.05,.22-.21,.04,.02,.03,.14,.16,.04,.1l-.11-.11,.08,.3c-.16,0-.41-.47-.54-.39,0,.08,.18,.47,.26,.53,.02-.01,.11,.03,.21,.15v.11c.3,.36,.56,.78,.9,.9l-.1-.3,.18,.14-.07,.08c.18,.12,.09-.05,.03-.18,.09,.08,.16,.13,.21,.15l-.22-.41c.14,.12,.21,.3,.34,.31-.1-.19-.32-.26-.35-.42,.19,.11,.3,.24,.22,.07,.09,.08,.14,.14,.15,.2-.06-.15,.08-.16-.08-.35,.24,.13,.1-.19,.42,.11-.06-.08-.18-.3-.16-.37,.34,.43,.15-.16,.58,.22-.33-.36,0-.37-.12-.64,.03,.03,.08,.08,.05,.08,.08-.04,.21,.02,.32,.02-.32-.22-.33-.37-.5-.54,.38,.11,.36,.28,.69,.45-.27-.16-.18-.31-.43-.41,.24,.05,.13,0,.43,.12-.43-.24-.04-.11-.28-.3,.26,0,.42,.18,.34,0,.16,0,.27,.19,.27,.19Zm-.31-3.02h0l.02,.05-.03-.05Zm-.04-.23s0,.06,0,.1c-.09,.02-.19,.03-.19,0,.07,0,.11-.06,.19-.11Zm-1.88,.61s.01-.03,.07-.04c0,0,.02,.02,.04,.04h-.11Z"/><path class="g" d="M21.54,41.11s.02,0,.02,0l.06-.02h-.08Z"/><path class="g" d="M17.2,45.03h0v0Z"/><polygon class="g" points="21.92 37.36 21.87 37.41 21.93 37.38 21.92 37.36"/><path class="g" d="M18.06,46.19s0,.05,.01,.07c0-.02,0-.04-.01-.07Z"/><path class="g" d="M18.6,46.22l.09,.09c-.04-.05-.07-.08-.09-.09Z"/><path class="g" d="M19.05,46.31l-.02-.12h0l.02,.12Z"/><path class="g" d="M13.59,43.08s0,0-.02-.01c-.06-.02-.04,0,.02,.01Z"/><path class="g" d="M15.08,44.46c-.05,.02-.1,.03-.14,.03,0,.04,.01,.06,.14-.03Z"/><polygon class="g" points="12.98 40.76 12.98 40.76 12.98 40.75 12.98 40.76"/><path class="g" d="M14.89,44.42c-.03,.06,0,.08,.05,.07,0-.03,0-.08-.05-.07Z"/><path class="g" d="M20.76,45.66h.02l-.02-.04v.04Z"/><path class="g" d="M20.76,45.62v-.04s-.02,.01,0,.04Z"/><path class="g" d="M20.76,45.49v.08s.04-.01,0-.08Z"/><path class="g" d="M20.24,45.85l.04,.09s-.02-.05-.04-.09Z"/><path class="g" d="M20.11,45.96c.05,0,.19,.15,.21,.06l-.03-.07c.05,.15-.21-.15-.17,.02Z"/><path class="g" d="M19.05,45.02l.12,.04c-.05-.1-.12-.23-.09-.27-.22-.26,.1,.22-.03,.23Z"/><path class="g" d="M18.72,44.95c.04-.05-.03-.15-.04-.21,0,.1-.01,.13,.04,.21Z"/><path class="g" d="M16.68,44.5l.15-.21c-.05,0-.06,.08-.15,.21Z"/><polygon class="g" points="15.46 45.23 15.39 45.39 15.57 45.23 15.46 45.23"/><polygon class="g" points="16.51 43.71 16.55 43.7 16.44 43.72 16.51 43.71"/><path class="g" d="M15.5,40.63l-.31-.06s.39,.12,.31,.06Z"/><path class="g" d="M15.91,39.21c.13,.09,.22,.14,.13,0-.04,.01-.15-.05-.13,0Z"/><polygon class="g" points="19.95 39 19.87 39.08 19.96 39.03 19.95 39"/></g></g><g><path class="e" d="M54.19,64.37c1.53,.07,3.26,.05,4.3-1.06,.32-.34,.54-.75,.72-1.18,.11-.27,.21-.56,.3-.84,.53-1.56,.96-3.53-.25-4.66-.48-.45-1.15-.66-1.8-.74h0c-5.27-.64-11.05,8.13-3.27,8.47Z"/><g><path class="g" d="M54.16,65.03c.02-.09,.02-.28-.03-.25l-.05,.33,.07-.08Z"/><path class="g" d="M53.91,64.4c-.06,.16-.15,.43-.14,.74,.08-.31,.08-.18,.16-.55,.05-.04,.07,.11,.05,.23,.02-.08,.06,.08,.1-.13-.04-.26-.11-.28-.2-.07-.01-.07,.01-.16,.02-.22Z"/><path class="g" d="M50.97,62.32l-.03,.03s.03-.02,.03-.03Z"/><path class="g" d="M51.41,60.27s.03,.04,.05,.05c-.01-.02-.03-.04-.05-.05Z"/><path class="g" d="M51.9,60.1h-.03s.05,.02,.03,0Z"/><path class="g" d="M50.97,62.32l.09-.08c-.1,.03-.07,.05-.09,.08Z"/><path class="g" d="M53.23,65.13s.04-.04,.05-.08c-.01,.01-.03,.02-.04,.03v.05Z"/><path class="g" d="M51.63,62.85h0l.1-.08-.11,.08Z"/><path class="g" d="M52.19,63.16s-.14,.23-.2,.34c.06-.1,.09-.14,.12-.16l.08-.18Z"/><path class="g" d="M53.21,63.97l.03-.03-.03,.03Z"/><path class="g" d="M51.42,62.5l.08-.06-.08,.06Z"/><path class="g" d="M55.2,65.71v-.05s0,.05,0,.05Z"/><polygon class="g" points="54.2 64.3 54.21 64.28 54.22 64.13 54.2 64.3"/><path class="g" d="M52.56,59.75h0s.02,.02,0,0Z"/><path class="g" d="M57.52,57.08c-.02-.26,.16-.3,.11-.59-.01,.11-.16,.42-.11,.59Z"/><path class="g" d="M53.21,65.09s-.03,0-.04,0c.02,.01,.03,.01,.04,0Z"/><path class="g" d="M57.63,56.49h0v0Z"/><path class="g" d="M53.48,58.51s-.06-.06-.09-.08c.02,.02,.05,.05,.09,.08Z"/><path class="g" d="M52.35,59.08h.05s-.04,0-.05,0Z"/><path class="g" d="M53.72,57.82s.05,.04,.05,0l-.03-.02s.02,.06-.02,.03Z"/><path class="g" d="M54.28,57.45l-.04-.04v.02l.04,.02Z"/><path class="g" d="M57.83,65.14c-.05-.07-.09-.14-.13-.22,.09,.18-.02,.3,.13,.22Z"/><path class="g" d="M53.25,64.97c-.01,.07-.03,.1-.04,.12,0,0,.02,0,.03-.01,0-.04,.01-.08,.01-.11Z"/><path class="g" d="M52.46,56l.14-.04s-.1,.02-.14,.04Z"/><path class="g" d="M61.07,59.87l.03,.04s0-.02-.03-.04Z"/><path class="g" d="M52.91,55.69c.07,.07,.13,.11,.17,.13,0-.02-.01-.04-.02-.07l-.14-.06Z"/><path class="g" d="M57.7,64.92h0Z"/><path class="g" d="M56.93,65.83c.14-.02,0-.37-.02-.58,.13-.13,.13,.25,.23,.42,.09-.12,.08-.47,.15-.48,.02,.06,.04,.07,.05,.15,.02-.3,.32-.12,.31-.5,.02,.03,.04,.05,.05,.08-.09-.16-.15-.34-.2-.47,.05-.03,0-.26,.12-.04-.03,0,0,.1,.01,.17l.02-.12c.19,.3-.03,.14,.06,.38,.08-.16,.09-.47,.21-.42,.17,.3-.15,.2,.09,.42l-.19-.06c.32,.45-.1,0,.23,.49,.25,0,.15-.26,.39-.27-.05-.19-.15-.24-.2-.42,.06-.43,.66,.6,.61,.08-.08-.22-.33-.57-.07-.49l.2,.33c.2-.11-.27-.49,.06-.45,.08,.14-.03,.21,.02,.22,.31,.12-.07-.23,0-.3l.26,.22c.13-.21,.1-.56,.17-.78,.08,.07,.14,.16,.26,.17,.03-.35,.36-.52,.66-.7l-.23-.21s.14,.01,.18,.06c.14-.05-.17-.08-.26-.17,0-.06,.18,0,.25,.06-.17-.26-.34-.63,.02-.69l.07,.06c.16-.09-.52-.34-.22-.37l.04,.04c.22-.23,.05-.61,.54-.7-.4-.16,.26-.23-.3-.4,.32-.09,.41-.02,.66-.21,.04-.06-.34-.18-.38-.27l.3,.06-.29-.17h.37l-.06-.08s-.15,.04-.23,.02c-.12-.14,.26-.25,.42-.23l-.22-.33c.12,.02,.16,.07,.23,.12-.29-.2,.33,0,.06-.17-.07,.01-.18-.03-.24-.04,.2-.05,.21-.23,.13-.36l.21,.03c.06-.24-.09-.51-.12-.79-.09,.11-.46,.11-.5,.04l.32-.06c-.2-.03-.12,.09-.37,.02,.03-.1,.36-.11,.47-.06l-.13-.11c.1-.02,.15,0,.28,0-.21-.02,.28-.29-.08-.31l.09-.03c-.07-.31-.21-.41-.32-.65-.26,.1-.24-.02-.48,0,0-.19,.11-.48-.04-.66-.21-.05-.22,.1-.4,.14,.2-.16,.05-.32,.26-.35-.21-.18-.27-.24-.65-.31-.04,.1-.04,.16-.12,.22-.07,0-.03-.16,.06-.25h.03c-.26,.02-.31-.23-.4-.48-.09-.24-.23-.47-.46-.27l.02-.02c-.13,.05-.24,.11-.36,.17-.11-.08,.13-.16,.09-.34-.41,.32-.45-.19-.74,.05-.06-.79-.64-.02-.85-.52v.18c-.06,.17-.07-.11-.12-.15,0,.14,.07,.16,.03,.26-.52,.22-1.11-.21-1.71-.21-.21,0,.12,.91-.22,.57l-.03-.34c-.26,.49-.78,.25-.99,.71-.01-.08-.05-.17-.02-.18-.17-.19-.27,.12-.18,.29-.06,0-.09-.15-.17-.23-.14-.09-.04,.36-.19,.17-.03-.03-.02-.08-.01-.1,0,.12-.23,.09-.05,.31-.19-.04-.16,.24-.34,.15,.1,.3-.28,0-.06,.38-.24-.38-.4-.17-.35,.05-.05-.13-.14-.07-.23-.25-.08,.06-.1,.19,.05,.36-.47-.32-.01,.56-.53,.08-.07,.38-.16,.67-.26,.93-.31-.33,.17-.23-.16-.57-.06,.31,.12,.68-.13,.78-.09,0-.12-.16-.16-.23-.03,.31-.36,.33-.31,.66-.03-.03-.05-.07-.07-.11-.02,.04-.11,.04,.05,.16l-.02-.07c.27,.14,.38,.52,.5,.62-.42-.42-.24,.07-.76-.47,.01,.05,.07,.13,.18,.21-.06,0-.13-.03-.23-.16,0,.19,.2,.27,.12,.38-.08-.06-.1-.1-.18-.18,.12,.17,.24,.34,.1,.39-.05-.04-.12-.07-.1-.1-.09,.19,.25,.56-.01,.65-.34-.27-.16,0-.49-.17l.04,.16,.18,.04c-.06,.09,.15,.3,0,.32l-.11-.14-.02,.21,.18-.04c.13,.17,.43,.19,.28,.26-.02-.04-.05,.08-.27,.05h0c.09,.09,.19,.18,.08,.22-.12-.02-.38-.16-.46-.18,.28,.16,0,.26,.29,.43-.07-.04-.26-.1-.3-.11l.23,.12c-.09,.02-.13,.02-.28-.03-.08,.13,.47,.09,.23,.2-.02-.02-.05-.02-.08-.06-.15,.14,.07,.36-.07,.49-.38,0-.07-.16-.39-.16,.02,.27,.39,.56,.29,.78l.04-.04c.52,.02-.26,.18,0,.29-.04-.02-.3-.01-.24,0-.08,.18,.17,.35,.4,.53h-.14c-.1,.14,.01,.28,0,.41,.14-.02,.14,.04,.31-.08-.29,.32-.09,.43,.09,.48,.18,.07,.37,.06,.24,.39-.03-.02-.15,.02-.13,.04l.27,.1c.14-.18,.07-.13,.16-.29,.12-.08,.22-.11,.27-.08-.18,.06-.25,.28-.29,.41,.04-.06,.1-.11,.15-.17-.16,.39,.31-.35,.26-.04l-.08,.09c.08-.01,.22-.11,.24-.05-.13,.24-.12,.07-.25,.25,.09,.05,.42-.34,.35-.07-.07,.05-.12,.02-.19,.07-.09,.31-.03,.25,0,.33h0l.08,.2v-.1c.42-.56,.27,0,.59-.37-.3,.35-.12,.22-.25,.5,0,.09,.03,.2-.02,.28,.16-.2,.06,.23,.28-.07-.03,.09,.07,.04-.02,.26,.12-.04,.03-.17,.08-.28,.23-.27,.23,.48,.55,.1,.22-.13,.31-.47,.49-.6,.02,.16-.11,.34-.11,.34,.06,.16,.13,.14,.23,.04-.03,.08-.02,.16-.01,.27,.07-.01,.09-.34,.16-.19-.03,.11-.07,.27-.12,.38,.09-.07,.19-.24,.28-.33,0,.17-.08,.25-.12,.36,.1-.07,.25-.13,.3-.4l-.05-.1s0,.23-.03,.28c-.1,.2-.1-.1-.09-.2l.06-.06c0-.57-.23,.07-.34,.02l.1-.4-.16,.32c0-.11,.01-.34,.08-.4-.04-.22-.09,.13-.12-.1,0-.04,0-.06,.02-.07l-.09,.11c.03-.08,.04-.29,.07-.22-.08-.26-.27,.28-.25-.05l.02-.02c-.2,.09-.08,.29-.3,.61l.1-.75-.1,.29s-.04-.05,0-.16c-.12,.18-.03,.13-.12,.31,0-.29-.29,.05-.14-.42-.11,.21,.02,.2-.12,.32,.16-.5-.14,.04-.13-.21,.13-.24,.14-.08,.16-.33-.22,.4-.1-.14-.18-.09-.16,.33-.18,.07-.34,.12,.06-.1-.07-.27-.05-.43l.04-.05c-.23,.28-.27,.17-.38,.18,.15-.16,.22-.22,.31-.27l-.05-.03c-.09,.08-.14,.11-.2,.11l.2-.19s-.35,.11-.27-.08c-.21,.14-.5,.53-.72,.51,.11-.09,.3-.23,.36-.24-.02,0-.11,.03-.08-.02l.22-.1c.05-.1-.17,.09-.18,.04,.16-.11,.1-.11,.23-.19,.02,0-.05,.07,.02,.04,0-.06,.07-.16,.19-.25-.09,.06-.23,.14-.27,.13-.06-.06,.19-.14,.26-.22-.13,.05-.02-.06-.28,.07,0-.02,.12-.08,.18-.12-.13,.02-.11-.14-.38,0v.02h-.03c-.32-.07,.07-.34-.06-.46h.1c-.12-.09-.09-.19-.29-.26,0-.03,.18-.06,.3-.05-.07-.07-.18-.09-.02-.17,.17,.08,.15,0,.12,.08,.08-.08,.25-.07,0-.2,.25,.06,.32-.01,.26-.06l-.19,.03c-.03-.05,0-.09,.03-.12l.32,.08c.42-.04-.59-.47,.1-.4-.2-.12-.19,.04-.43-.09,.08-.07,.55,.01,.56,0,.21-.03-.42-.27-.25-.34-.11-.03-.41-.14-.47-.28,.08-.07,.5,.11,.56,.2,0,.02-.04,.02-.07,0,.03,.04,.06,.1,.19,.12l-.1-.06c.13,.01,.16-.09,.33,.02-.08-.1-.16-.11-.24-.09,.2-.02,.07-.15,.23-.19-.07-.02-.2-.07-.19-.08,.21-.07-.16-.17-.14-.3,.19,.04,.36,.24,.29,.06,.14,0,.27,.15,.34,.23-.14-.21,.23-.07,.29-.09l.05,.09c-.03-.06-.02-.08,0-.1l-.21-.11c.05,0,.07-.02,.15,.03-.11-.12-.34-.2-.48-.38,.12,.03-.03-.19,.24-.01-.17,.04,.26,.17,.24,.29-.02-.04,0-.06,.05-.06,.03,.02,.05,.04,.06,.06,.3,.07-.25-.26-.16-.36,.13,.12,.28,.18,.27,.14-.03,.04-.25-.16-.32-.29,.16,.02-.02-.14,.02-.17h-.08c-.13-.13-.08-.15-.08-.23,.11,.09,.03,.1,.1,.13-.19-.26,.35,.09,.25-.11,.12,.05,.25,.22,.34,.25-.1-.23,.25,.08,.19-.12-.19-.14-.16-.1-.27-.32v.25l-.18-.32s.02,.19-.03,.19c-.11-.18-.06-.13-.23-.25,.31,.19-.04-.26,.2-.16l.42,.42c.27,.1-.05-.38,.18-.39l-.11-.04c-.14-.19,.06-.1,.04-.2,.13,.15,.2,.18,.3,.26-.1-.11,.1-.07-.14-.38l.23,.15c.17,0-.22-.54-.07-.57,.1,.2,.23,.27,.25,.45,.04-.03,.09-.02,0-.13,.09,.08-.06-.29,.09-.16-.03-.08-.15-.25-.1-.27,.03,.03,.06,.08,.06,.08-.06-.08,0-.16-.17-.31,.46,.43,.32-.27,.7,.13,.05-.1,.12-.23,.2-.28,.02,.05,.05,.09,.02,.08,.19,.11-.19-.54,.03-.42,.21,.25,0,.19,.1,.28,.3,.58,.11-.16,.36,.15v.04c.15,.18,.05-.29,.18-.29,0,0,.02,.06,.04,.09-.05-.34,.06-.5,.15-.62,.04,.25,0,.14,.09,.38,.04-.05-.15-.39-.07-.49,.08,.12,.18,.22,.27,.48l-.08,.04c.15,.33,.11-.05,.17,0l.04,.15c.12-.08,.02-.46,.18-.47l-.04-.11c0-.4,.12,.2,.14-.11l.1,.38c.03-.1,.13-.4,.23-.49-.03,.3-.12,.46-.15,.64,.05,0,.17-.05,.17-.25-.02,.04-.03,.14-.06,.08,.02-.32,.1-.48,.22-.49,.04,.76,.31,.18,.39,.77,.18-.28,.33,.13,.52,.11,.01-.6,.06,0,.14-.61,.06-.03,.08-.02,.07,.02,.03,.13,.06,.26,.08,.39,0,.18-.07,.12-.09,.26,.08,.07-.02,.26,0,.43,.04-.22,.1-.3,.13-.2v-.29c.22-.28-.03,.52,.17,.25l-.09,.17c.1-.09,.16,.06,.43-.35-.02,.07-.09,.22-.13,.25,.05,.1,.52-.29,.41,.01l-.11,.11s.22-.18,.13-.05c-.04,.04-.11,.1-.11,.11,.04-.03,.23-.14,.18-.06l-.14,.09c-.09,.19,.43-.13,.58-.06-.38,.22-.47,.35-.52,.41l-.06,.02c-.02,.11,.42,.07,.62,.23-.45,.16-.17,.37-.43,.55,.08-.02,.34,.01,.38,.05-.09,.04,.3,.14-.11,.11v-.02c-.39,0-.29,.09-.31,.16l.52,.07c-.78,.08,.2,.57-.5,.55,.12,.07,.11,.13,.22,.21l-.28-.07c-.1,.12-.15,.17-.13,.35l-.19-.09c-.04,.08,.75,.34,.74,.43l-.41-.09c-.04,.17-.45,.22-.14,.51-.06-.02-.17-.07-.18-.1-.04,.08-.37,.2,.18,.36-.36-.13-.09,.15,.03,.3l-.26-.11c.31,.2,.4,.24,.45,.39-.04,.01-.21-.06-.14-.07-.17,.03,.22,.17,.04,.21l-.15-.1c-.05,.07,.04,.1,.21,.23,.08,.1-.13,.12-.37,.02,.13,.08,.3,.21,.21,.22-.09-.04-.13-.08-.15-.1-.23,.03,.19,.34-.1,.28-.08-.05-.12-.07-.15-.08,.06-.08,.11-.14,.13-.13-.23-.12-.3-.08-.58-.31,.15,.14,.45,.45,.3,.45l-.08-.04-.02-.02s-.02,.02,0,.06c-.05,0-.08-.02-.09,0-.17-.12-.13-.02-.16,0,.22,.18,.15,.19,.35,.31-.02,0-.02-.03-.01-.05,0,0,0-.02-.01-.03l.02,.02s.02-.05,.04-.08c.1,.11,.17,.21,.02,.15,.13,.13,.25,.27,.31,.34-.34-.21-.56-.3-.73-.46,.04,.19-.1,.22,.14,.7,0,.08-.12-.1-.18-.17-.01-.05,.01-.06-.02-.13,.02,.15-.13,.15,.03,.48-.16-.1-.12-.32-.2-.21l-.04-.11c-.23-.21-.2,.03-.23,.27-.02,.23-.09,.47-.34,.14,.03,.04,.05,.06,.07,.12-.39-.24-.67,.46-1.08-.04-.11-.1-.1,.14-.16,.32l-.04-.3-.09,.35c-.15,.26-.28-.73-.47-.25l.02,.2c-.07-.04-.23,.12-.21-.12,0,.04-.03,.21-.05,.1v-.16l-.18,.27c-.13-.12,.04-.63-.16-.66-.08,.06-.23,.45-.21,.56,.03,0,.07,.1,.07,.26l-.07,.08c-.03,.46-.11,.94,.05,1.27l.13-.28,.03,.23h-.1c.05,.22,.1,.04,.14-.09,0,.12,.02,.2,.04,.25l.14-.44c.01,.18-.06,.36,.02,.46,.06-.2-.05-.41,.05-.54,.05,.21,.03,.38,.11,.2,0,.12,0,.2-.04,.25,.07-.14,.17-.06,.2-.31,.06,.26,.21-.07,.21,.37,.02-.11,.11-.35,.17-.37-.1,.53,.22,.02,.22,.59,.06-.47,.3-.23,.42-.5,0,.04-.01,.12-.03,.09,.09,.03,.12,.17,.19,.26-.03-.39,.09-.49,.13-.74,.15,.36,0,.46,.07,.82-.04-.31,.15-.34,.07-.6,.11,.22,.08,.1,.18,.42-.06-.49,.06-.09,.08-.4,.16,.21,.12,.45,.22,.27,.1,.13,0,.33,0,.33Zm2.48-2.47h0l-.02,.07,.02-.07Zm.14-.23s-.05,.05-.07,.09c-.09-.04-.17-.11-.15-.12,.05,.05,.13,.02,.22,.03Zm-1.84-.75s.03-.01,.08,.02c0,.01,0,.03,0,.05l.03,.02-.1-.09Z"/><path class="g" d="M57.96,62.65s.01,.02,0,.02l.06,.03-.06-.06h0Z"/><path class="g" d="M50.93,62.35h0Z"/><polygon class="g" points="61.16 60.17 61.09 60.15 61.14 60.19 61.16 60.17"/><path class="g" d="M50.88,63.88s-.03,.04-.03,.07c.01-.01,.02-.04,.03-.07Z"/><path class="g" d="M51.36,64.29l.03,.13c0-.07-.02-.11-.03-.13Z"/><path class="g" d="M51.72,64.62l.06-.11h0l-.06,.11Z"/><path class="g" d="M50.89,57.91s0-.01,0-.02c-.01-.07-.02-.03,0,.02Z"/><path class="g" d="M50.34,60.04s-.08-.08-.1-.11c-.04,.02-.05,.05,.1,.11Z"/><polygon class="g" points="52.44 56 52.44 56 52.46 56 52.44 56"/><path class="g" d="M50.29,59.84c-.07,.01-.07,.04-.05,.09,.03-.02,.07-.04,.05-.09Z"/><path class="g" d="M53.62,65.2h.02v-.03l-.02,.03Z"/><path class="g" d="M53.64,65.17l.03-.03s-.02,0-.03,.03Z"/><path class="g" d="M53.73,65.07l-.06,.07s.04,.01,.06-.07Z"/><path class="g" d="M53.05,65l-.02,.1s.02-.05,.02-.1Z"/><path class="g" d="M52.87,64.99s.07,.23,.14,.18l.02-.08c-.06,.14-.09-.26-.16-.1Z"/><path class="g" d="M52.52,63.61l.1,.11c0-.11,.03-.26,.09-.27-.05-.35-.04,.24-.18,.16Z"/><path class="g" d="M52.23,63.33c.08-.02,.06-.14,.09-.2-.07,.08-.09,.1-.09,.2Z"/><path class="g" d="M51.05,61.58h.26s-.1,0-.26,0Z"/><polygon class="g" points="49.81 60.85 49.65 60.88 49.87 60.95 49.81 60.85"/><polygon class="g" points="51.66 60.99 51.69 61.01 51.62 60.92 51.66 60.99"/><path class="g" d="M54.31,57.73l-.18-.26c0,.07,.18,.37,.18,.26Z"/><path class="g" d="M55.94,56.71c.06,.15,.12,.24,.13,.08-.04-.01-.11-.12-.13-.08Z"/><polygon class="g" points="58.76 59.18 58.66 59.13 58.74 59.21 58.76 59.18"/></g></g><g><path class="e" d="M40.35,61.26c.94-1.71,1.16-4.15-.37-5.35h0c-3.63-2.85-12.51-.81-11.72,4.88,.83,6.04,9.79,4.67,12.1,.47Z"/><g><path class="g" d="M40.93,61.58c-.07-.06-.24-.14-.24-.08l.26,.2-.03-.12Z"/><path class="g" d="M40.19,61.58c.1,.14,.29,.36,.57,.49-.23-.23-.1-.18-.38-.44,0-.07,.14-.03,.24,.05-.06-.06,.11-.04-.05-.17-.26-.07-.32,0-.19,.19-.07-.02-.13-.09-.18-.12Z"/><path class="g" d="M35.83,64.02l.04,.03s-.03-.03-.04-.03Z"/><path class="g" d="M32.83,64.2s.04-.04,.04-.07c-.02,.02-.04,.04-.04,.07Z"/><path class="g" d="M32.4,63.76l.02,.03s-.01-.05-.02-.03Z"/><path class="g" d="M35.83,64.02l-.11-.07c.02,.11,.06,.06,.11,.07Z"/><path class="g" d="M40.37,62.68s-.01-.06-.03-.09c0,.02,0,.04,0,.06l.04,.04Z"/><path class="g" d="M36.97,63.29h.02l-.04-.14,.02,.14Z"/><path class="g" d="M37.81,62.76s.12,.24,.18,.35c-.05-.1-.07-.16-.06-.19-.03-.04-.07-.1-.12-.16Z"/><path class="g" d="M39.35,62.11v0Z"/><path class="g" d="M36.29,63.52l-.04-.09s.03,.06,.04,.09Z"/><path class="g" d="M42.1,60.47h-.05s.04,0,.05,0Z"/><polygon class="g" points="40.28 61.22 40.28 61.2 40.14 61.12 40.28 61.22"/><path class="g" d="M31.71,63.22h0s.02-.02,0,0Z"/><path class="g" d="M30.36,57.74c-.24-.11-.13-.33-.43-.42,.09,.07,.23,.39,.43,.42Z"/><path class="g" d="M40.32,62.68s-.02,.03-.03,.04c.02-.01,.03-.02,.03-.04Z"/><path class="g" d="M29.93,57.32h0Z"/><path class="g" d="M30.24,62.46s-.06,.07-.08,.1c.02-.02,.05-.05,.08-.1Z"/><path class="g" d="M31.06,63.57v-.05s0,.04,0,.05Z"/><path class="g" d="M29.53,62.13s.04-.05,0-.06l-.03,.02s.06,0,.03,.03Z"/><path class="g" d="M29.22,61.43l-.05,.03,.02,.02,.03-.05Z"/><path class="g" d="M42.04,56.93c-.07,.05-.14,.09-.22,.13,.18-.08,.31,.08,.22-.13Z"/><path class="g" d="M40.25,62.58c.05,.05,.07,.08,.07,.1,0-.01,0-.02,.01-.04-.03-.03-.06-.06-.08-.07Z"/><path class="g" d="M27.57,63.16l-.05-.19c0,.06,.02,.13,.05,.19Z"/><path class="g" d="M35.17,53.5l.04-.04s-.03,0-.04,.04Z"/><path class="g" d="M27.24,62.46c.08-.07,.12-.12,.14-.17-.02,0-.04,0-.08,0l-.06,.16Z"/><path class="g" d="M41.82,57.06h0Z"/><path class="g" d="M42.68,58.23c0-.19-.37-.07-.58-.09-.12-.2,.26-.12,.45-.21-.11-.14-.47-.19-.47-.29,.06-.02,.08-.04,.16-.03-.3-.09-.11-.43-.5-.49,.03-.02,.06-.04,.08-.05-.17,.08-.35,.14-.48,.17-.03-.07-.26-.05-.04-.15,0,.04,.1,.02,.18,.01l-.13-.04c.3-.18,.15,.06,.39-.02-.17-.13-.48-.19-.45-.33,.3-.17,.22,.22,.43-.05l-.05,.23c.45-.33,0,.13,.5-.2,0-.31-.28-.23-.32-.53-.19,.03-.24,.15-.43,.19-.47-.13,.56-.73,0-.72-.23,.07-.58,.33-.53,.04l.33-.2c-.16-.24-.5,.27-.52-.1,.14-.08,.24,.05,.24-.01,.07-.35-.25,.07-.34-.02l.2-.28c-.26-.15-.63-.07-.89-.17,.06-.08,.16-.14,.16-.27-.38-.07-.63-.38-.88-.71l-.23,.22s0-.15,.05-.19c-.08-.16-.07,.17-.17,.25-.07,0-.03-.2,.04-.26-.31,.15-.76,.34-.9-.03l.07-.07c-.15-.16-.33,.53-.43,.22l.04-.04c-.36-.19-.8,.02-1.04-.46-.09,.42-.37-.2-.43,.38-.2-.3-.13-.4-.44-.61-.08-.03-.13,.36-.22,.42v-.31l-.14,.33-.08-.36-.09,.09s.09,.13,.08,.22c-.14,.15-.37-.19-.38-.35l-.33,.28c0-.12,.05-.17,.09-.25-.16,.33-.07-.32-.21-.02,.03,.07,0,.18,0,.25-.11-.19-.3-.15-.44-.05v-.22c-.28,0-.54,.19-.83,.24,.13,.08,.18,.44,.1,.49l-.1-.31c0,.21,.11,.1,.06,.37-.11,0-.15-.34-.12-.46l-.1,.15c-.03-.09-.01-.15-.03-.27,0,.21-.31-.25-.3,.11l-.03-.09c-.29,.08-.39,.22-.62,.31,.08,.26-.02,.24-.02,.48-.19-.02-.46-.15-.65-.05-.09,.19,.05,.24,.06,.41-.11-.23-.3-.13-.27-.34-.22,.13-.28,.2-.47,.53,.08,.08,.14,.1,.16,.18-.03,.06-.17-.03-.22-.14v-.03c-.06,.26-.34,.19-.61,.15-.26-.02-.52-.01-.48,.29v-.03l-.08,.41c-.14,.05-.05-.2-.24-.26,0,.52-.45,.33-.46,.73-.35-.18-.49-.02-.6,.17-.09,.21-.15,.44-.44,.44l.16,.08c.1,.16-.14,.03-.21,.06,.12,.07,.18,.01,.24,.11-.12,.33-.31,.61-.55,.91-.12,.15-.25,.3-.38,.45-.1,.16-.19,.34-.27,.52-.1,.27,.88,.3,.41,.56l-.31-.13c.13,.29,.15,.55,.15,.81,0,.26,0,.53,.17,.76-.08-.02-.18,0-.18-.06-.25,.14,.06,.39,.25,.35,0,.08-.17,.05-.26,.11-.11,.14,.36,.19,.14,.3-.04,.02-.08-.01-.11-.03,.13,.04,.05,.33,.3,.19-.08,.22,.19,.3,.09,.5,.33-.02,0,.36,.41,.21-.42,.16-.19,.46,.05,.47-.14,.03-.08,.16-.27,.21,.07,.13,.2,.2,.39,.06-.31,.52,.66,.15,.19,.68l.61,.26c.2,.06,.39,.13,.56,.2-.3,.34-.33-.22-.64,.14,.41,.1,.79-.09,.98,.21,.04,.1-.15,.13-.22,.18,.38,.04,.56,.36,.94,.29-.02,.04-.07,.06-.11,.08,.06,.01,.1,.12,.17-.07l-.07,.02c.05-.31,.45-.46,.51-.61-.31,.51,.2,.22-.21,.87,.05-.02,.13-.1,.17-.23,.04,.05,.03,.14-.08,.26,.24-.04,.24-.27,.41-.21-.03,.09-.08,.12-.13,.22,.15-.15,.29-.31,.41-.19-.02,.05-.03,.14-.07,.12,.27,.06,.54-.4,.77-.17-.15,.41,.07,.15,.03,.53l.17-.09-.04-.19c.13,.03,.27-.23,.37-.09l-.11,.14c.08,0,.17-.02,.25-.05-.04-.05-.08-.09-.12-.15,.14-.18,.03-.47,.18-.36-.03,.04,.12,0,.17,.23h0c.07-.12,.13-.24,.22-.15,.02,.12-.03,.41-.01,.49,.07-.31,.3-.08,.37-.41-.02,.08-.02,.27-.01,.31l.04-.25c.06,.08,.07,.12,.07,.28,.18,.04-.07-.46,.14-.28-.01,.02,0,.06-.04,.1,.22,.09,.38-.2,.58-.1,.1,.37-.16,.11-.06,.42,.28-.1,.52-.5,.79-.48l-.06-.03c-.07-.53,.24,.22,.33-.06-.02,.05,.02,.3,.02,.24,.2,.04,.35-.19,.56-.44v.14c.14,.08,.3-.02,.43,0,0-.14,.06-.14-.04-.31,.61,.62,.48-.61,1.01-.15-.03,.02-.03,.15,0,.13l.2-.23c-.12-.2-.09-.11-.22-.25-.03-.14,0-.26,.05-.29-.04,.19,.16,.33,.27,.43-.04-.06-.06-.14-.09-.2,.31,.31-.19-.42,.1-.26l.05,.11c.03-.09,0-.26,.09-.27,.16,.22,0,.15,.1,.34,.09-.07-.07-.55,.14-.37,0,.09-.06,.12-.06,.21,.25,.22,.22,.14,.31,.14h-.01l.24,.02-.09-.05c-.26-.66,.17-.25,.06-.73,.1,.45,.12,.22,.28,.48,.09,.04,.2,.07,.23,.15-.07-.25,.24,.06,.12-.31,.06,.07,.08-.05,.22,.15,.05-.14-.13-.12-.19-.22-.08-.37,.6,.05,.49-.47,.03-.3-.18-.56-.17-.81,.16,.06,.22,.28,.22,.28,.18,.02,.22-.06,.2-.21,.05,.07,.12,.1,.22,.15,.04-.08-.23-.27-.05-.26,.07,.08,.19,.21,.24,.31,0-.13-.08-.33-.09-.47,.15,.08,.17,.21,.24,.31,0-.15,.06-.35-.15-.54h-.12s.2,.12,.22,.18c.11,.21-.16,.07-.24,.01v-.1c-.51-.28-.09,.29-.23,.37l-.28-.31,.16,.33c-.1-.05-.29-.19-.29-.28-.22-.07,.05,.16-.17,.07-.03-.02-.04-.03-.05-.05l.03,.15c-.05-.07-.22-.19-.14-.19-.28-.05,.04,.41-.22,.23v-.03c-.07,.26,.19,.24,.3,.62l-.59-.49,.18,.24s-.08,.02-.15-.08c.07,.21,.1,.09,.18,.27-.27-.14-.17,.3-.49-.06,.11,.21,.19,.07,.2,.28-.34-.4-.06,.16-.28,.03-.13-.24,.03-.18-.19-.32,.22,.42-.22,.02-.24,.14,.2,.31-.08,.22-.14,.4-.06-.11-.33-.03-.51-.08l-.02-.06c.15,.34-.01,.33-.07,.44-.09-.2-.11-.28-.11-.39l-.08,.04c.03,.11,.03,.18,0,.25l-.1-.26c-.1,.06-.09,.4-.31,.3,.09,.24,.4,.6,.3,.84-.06-.13-.15-.34-.13-.41,0,.02,0,.13-.06,.09l-.02-.25c-.11-.06,.04,.2-.03,.2-.07-.18-.09-.11-.14-.26,0-.02,.08,.06,.07-.03-.07,0-.19-.09-.27-.22,.05,.1,.09,.25,.06,.29-.11,.05-.12-.21-.23-.28,.02,.14-.1,.03,0,.31-.04,.01-.09-.12-.12-.19-.02,.14-.27,.13-.11,.41h.02v.03h0c-.12,.36-.48-.03-.65,.13l-.02-.1c-.1,.14-.26,.13-.31,.35-.04,0-.12-.16-.12-.28-.08,.09-.08,.21-.24,.06,.07-.18-.06-.15,.08-.13-.14-.07-.18-.23-.28,.05,.01-.26-.13-.31-.18-.23l.1,.17c-.06,.04-.12,.03-.18,.01v-.33c-.26-.38-.41,.74-.61,.05-.06,.23,.13,.17,.08,.44-.12-.05-.23-.53-.26-.53-.14-.19-.16,.48-.31,.35,.01,.12,.02,.44-.12,.54-.12-.04-.1-.51-.02-.59,.03,0,.04,.03,.03,.07,.04-.04,.09-.09,.06-.22l-.02,.12c-.05-.11-.19-.14-.14-.32-.09,.1-.06,.19,0,.26-.12-.19-.21-.04-.34-.18,.01,.07,.01,.21-.01,.2-.19-.18-.13,.21-.29,.24-.05-.19,.12-.42-.06-.29-.06-.13,.05-.31,.11-.4-.18,.2-.18-.21-.23-.27l.08-.07s-.08,.03-.1,.02l-.03,.24c-.02-.05-.05-.06-.02-.16-.08,.14-.09,.39-.23,.57-.01-.13-.2,.07-.11-.23,.12,.15,.09-.3,.23-.31-.04,.03-.06,.02-.08-.03,0-.03,.03-.06,.04-.07-.04-.31-.18,.32-.33,.26,.09-.16,.09-.32,.06-.3,.05,.03-.09,.29-.19,.38-.03-.17-.14,.04-.18,0l.03,.09c-.09,.15-.13,.1-.23,.12,.06-.13,.1-.05,.11-.12-.22,.24-.01-.37-.21-.24,.02-.13,.17-.29,.17-.38-.23,.15,.03-.26-.16-.17-.12,.21-.07,.17-.28,.3,.09,0,.17,0,.25,0-.1,.08-.2,.14-.3,.2,.05,.05,.19-.03,.2,.01-.17,.13-.13,.09-.21,.27,.12-.34-.27,.05-.22-.21l.36-.47c.06-.29-.39,.07-.44-.16l-.02,.11c-.19,.15-.12-.05-.22-.05,.15-.13,.18-.21,.26-.31-.11,.1-.07-.11-.39,.12l.15-.23c0-.18-.57,.19-.62,.01,.21-.07,.29-.2,.48-.21-.03-.04-.02-.09-.14-.02,.1-.09-.29,0-.15-.13-.09,.02-.27,.11-.28,.05,.03-.02,.09-.04,.09-.04-.09,.05-.16-.03-.33,.12,.5-.42-.29-.43,.2-.76-.09-.1-.18-.22-.22-.33,.06,0,.1-.02,.08,0,.15-.18-.58,.03-.42-.19,.29-.14,.19,.06,.3-.02,.64-.14-.16-.19,.23-.35l.04,.02c.22-.1-.25-.18-.21-.32,0,0,.06,0,.1,0-.33-.08-.45-.28-.55-.43,.26,.06,.14,.07,.39,.06-.04-.06-.42,0-.49-.14,.15-.03,.28-.11,.56-.09v.11c.36-.02,0-.14,.08-.19l.15,.03c-.02-.16-.41-.24-.35-.42h-.12c-.36-.21,.23-.04-.03-.22l.38,.08c-.07-.08-.27-.34-.29-.49,.24,.18,.33,.36,.46,.48,.03-.06,.06-.2-.11-.31,.03,.04,.1,.1,.04,.11-.26-.18-.36-.35-.29-.48,.67,.35,.31-.25,.9-.01-.1-.33,.3-.3,.46-.49-.51-.33,.04-.06-.42-.47,.02-.07,.04-.09,.08-.06,.14,.04,.27,.07,.4,.12,.15,.1,.05,.14,.15,.23,.12-.06,.22,.15,.38,.21-.16-.15-.18-.26-.08-.25l-.26-.14c-.09-.38,.45,.28,.39-.08l.07,.18c0-.14,.27-.19,.07-.66,.05,.05,.17,.17,.16,.23,.2-.08,.2-.71,.5-.55l.05,.14c.02-.06-.06-.29,.06-.18,.03,.06,.05,.14,.07,.14,0-.06-.01-.3,.08-.24l.03,.18c.29,.08,.17-.51,.34-.69,.16,.41,.38,.47,.49,.51l.02,.06c.27-.03,.34-.47,.56-.72,.27,.4,.6,.08,.9,.3-.05-.07-.05-.34,0-.39,.07,.08,.13-.33,.18,.07h-.02c.1,.38,.2,.26,.3,.27l-.04-.53c.32,.75,.69-.34,.85,.36,.06-.13,.14-.12,.2-.25v.28c.16,.08,.24,.12,.45,.06l-.06,.2c.11,.02,.21-.82,.33-.81v.43c.2,.03,.34,.42,.61,.07-.02,.06-.04,.18-.08,.19,.1,.01,.29,.36,.39-.22-.09,.37,.19,.09,.35-.04l-.1,.26c.19-.32,.22-.41,.39-.47,.02,.04-.04,.22-.06,.14,.06,.17,.17-.24,.24-.04l-.1,.15c.09,.06,.11-.03,.25-.2,.11-.07,.17,.15,.08,.39,.07-.14,.22-.3,.25-.21-.03,.09-.08,.13-.1,.16,.08,.24,.4-.19,.37,.13-.04,.08-.06,.13-.07,.16-.1-.09-.21-.14-.19-.15-.11,.23-.04,.31-.28,.59,.17-.15,.48-.42,.51-.26l-.04,.08-.02,.02s.04,.03,.08,0c0,.05,0,.09,.03,.11-.11,.18,.03,.16,.07,.19,.16-.23,.2-.15,.28-.38,0,.02-.03,.02-.07,.01-.01,0-.02,0-.04,.01l.02-.02s-.08-.03-.13-.06c.11-.1,.23-.17,.19,0,.13-.13,.27-.26,.34-.32-.15,.36-.2,.61-.36,.79,.21-.04,.26,.12,.75-.11,.08,0-.1,.13-.16,.19-.06,0-.07-.02-.13,.01,.15,0,.18,.17,.51,.02-.1,.18-.33,.1-.21,.21l-.11,.03c-.2,.24,.03,.24,.29,.31,.23,.06,.48,.19,.12,.43,.04-.03,.06-.05,.12-.06-.13,.23-.04,.43,0,.66,.05,.22,.06,.47-.24,.64-.13,.1,.11,.15,.26,.27l-.3-.04,.31,.2c.2,.26-.8,.11-.41,.47l.2,.04c-.07,.07,.02,.3-.2,.2,.03,.02,.19,.11,.07,.1l-.15-.06,.16,.3c-.17,.1-.56-.28-.68-.1,.02,.09,.3,.43,.41,.45,.02-.03,.13-.04,.27,.04l.03,.12c.4,.23,.78,.54,1.19,.47l-.17-.29,.23,.05-.06,.14c.23,.02,.09-.12,0-.22,.11,.04,.2,.05,.26,.04l-.34-.34c.18,.05,.3,.21,.44,.14-.16-.15-.41-.09-.48-.26,.23,0,.38,.09,.25-.07,.12,.03,.18,.08,.22,.13-.1-.14,.02-.24-.19-.37,.28,0,.02-.3,.44-.16-.09-.06-.29-.25-.28-.33,.47,.28,.1-.29,.64-.12-.43-.21-.12-.45-.35-.69,.04,.02,.11,.05,.08,.06,.06-.1,.2-.12,.3-.19-.39-.06-.46-.24-.69-.34,.39-.11,.45,.11,.82,.1-.31-.02-.3-.27-.57-.23,.24-.1,.12-.09,.44-.14-.49-.03-.08-.1-.38-.19,.24-.16,.46-.05,.3-.23,.14-.1,.33,.06,.33,.06Zm-2.81-3.28h0l.07,.02-.08-.02Zm-.27-.17s.07,.06,.11,.08c-.04,.09-.1,.17-.12,.15,.05-.05,.01-.14,0-.23Zm-.55,1.96c-.05,.01-.03-.04,0-.09,.02,0,.04,0,.07,0l.02-.03-.09,.11Z"/><path class="g" d="M39.32,56.48s.02-.01,.02,0l.02-.06-.06,.06h.02Z"/><path class="g" d="M35.87,64.06h0s.01,.01,.02,.03l-.02-.03Z"/><polygon class="g" points="35.52 53.35 35.52 53.42 35.54 53.36 35.52 53.35"/><path class="g" d="M37.66,64.38s.03,.04,.05,.06c0-.02-.03-.03-.05-.06Z"/><path class="g" d="M38.31,64.09l.14,.03c-.07-.03-.11-.03-.14-.03Z"/><path class="g" d="M38.85,63.92l-.06-.1h0l.06,.1Z"/><path class="g" d="M30.27,65.28s-.02,0-.03,0c-.07,.02-.03,.02,.03,0Z"/><path class="g" d="M33.04,65.27c-.03,.05-.06,.1-.09,.13,.04,.02,.08,.03,.09-.13Z"/><polygon class="g" points="27.57 63.19 27.58 63.18 27.57 63.16 27.57 63.19"/><path class="g" d="M32.83,65.4c.04,.06,.08,.05,.12,0-.04-.02-.08-.05-.12,0Z"/><path class="g" d="M40.71,62.29l.03-.02s-.03-.02-.03-.03v.05Z"/><path class="g" d="M40.7,62.24v-.05s-.02,.02,0,.05Z"/><path class="g" d="M40.67,62.1l.02,.09s.04-.04-.02-.09Z"/><path class="g" d="M40.13,62.8l.07,.08s-.03-.04-.07-.08Z"/><path class="g" d="M39.99,62.98c.05-.02,.25,.05,.26-.05l-.05-.06c.08,.13-.29-.04-.21,.11Z"/><path class="g" d="M38.5,62.63l.18-.04c-.09-.07-.21-.16-.17-.22-.36-.13,.19,.16,0,.26Z"/><path class="g" d="M38.02,62.8c.04-.09-.09-.13-.12-.18,.01,.11,.01,.14,.12,.18Z"/><path class="g" d="M34.73,64.11l-.03-.25c-.06,.05,.02,.1,.03,.25Z"/><polygon class="g" points="34.16 65.5 34.25 65.65 34.26 65.42 34.16 65.5"/><polygon class="g" points="33.63 63.72 33.66 63.68 33.56 63.77 33.63 63.72"/><path class="g" d="M29.49,61.48l-.29,.12c.07,.02,.41-.1,.29-.12Z"/><path class="g" d="M29.05,59.25c.16,0,.27-.02,.12-.1-.03,.04-.16,.07-.12,.1Z"/><polygon class="g" points="34.9 55.92 34.86 56.02 34.94 55.93 34.9 55.92"/></g></g></g></g></g></svg>