<svg xmlns="http://www.w3.org/2000/svg" viewBox="0 0 537.16 461.3"><defs><style>.cls-1{fill:#f9cbcd;}</style></defs><g id="Layer_2" data-name="Layer 2"><g id="Layer_1-2" data-name="Layer 1"><path class="cls-1" d="M36.8,110.53h0c-26.52,17.53-38.28,52.18-32.28,83s27.65,57.29,54.58,74.21c26.71,16.78,61,27.46,74.37,55.64,10.48,22,4.61,48.37,12,71.55,10.76,33.55,47,53.15,82.2,60.09,42.67,8.42,92,.91,120.15-31.65,27.87-32.28,30.28-83,64.84-108.28,32.27-23.64,84.39-18.12,106.79-50.93,7.72-11.31,10.14-25.21,12.08-38.68,3.52-24.46,5.35-51.79-10-71.4-21-26.89-65.75-28-84.65-56.38-12-18-10-42.28-21.39-60.66-9.88-15.93-28.37-24.87-46.8-29.48C322.33-4.06,270.42,8.07,234.34,39c-11.55,9.88-21.52,21.49-33.52,30.84-24.7,19.23-49.91,8.83-76,20C96.3,102,64.33,92.34,36.8,110.53Z"/><path d="M35.29,107.94C14.64,121.59,2.6,145.13.36,169.45-2,195.19,7.72,220.21,23.58,240.17a134.23,134.23,0,0,0,28.56,26.52c10.33,7.2,21.64,12.83,32.71,18.75C95.35,291.06,106,296.9,115,304.72c9.68,8.36,16.61,18.69,19.68,31.19,3.46,14.11,2.73,28.81,4.5,43.15,1.62,13.12,5.57,25.5,13.36,36.29,14.49,20.07,37.53,32.46,60.88,39.25,45.9,13.37,105.68,8.47,138-30.82,15.28-18.6,22.64-41.79,32.34-63.46,4.77-10.64,10.17-21.27,17.63-30.32a74.85,74.85,0,0,1,26.41-20.27c20.55-9.64,43.56-12.32,64.42-21.16,9.84-4.17,19.21-9.86,26.19-18.08,8.94-10.54,12.77-23.79,15-37.19,4.23-25.32,8.12-55.58-7.25-78.11-13.06-19.14-36.06-26.36-56-35.88-9.86-4.71-19.64-10.19-27-18.47-8.83-10-11.71-23.15-14.6-35.79-2.94-12.88-6.4-25.66-15.09-36C404.92,19,392.88,12.33,380.55,8c-50.83-18.1-111.38-4.3-151.19,31.38-11.3,10.13-21.27,22.37-34,30.72-12,7.87-25.81,9.27-39.77,10.43a142.29,142.29,0,0,0-19.83,2.67c-6.91,1.56-13.2,4.7-20,6.68C102.18,93.78,88,93.94,74,95.56c-13.69,1.59-27,4.78-38.73,12.38-3.23,2.1-.22,7.3,3,5.18,24.08-15.66,53.48-9.75,79.86-17.76,6.75-2,13-5.12,20-6.61A152.71,152.71,0,0,1,158,86.28c13.17-1.09,26.31-2.76,37.93-9.56,12.77-7.48,22.8-19.23,33.46-29.29a149.68,149.68,0,0,1,33.18-23.95A152.54,152.54,0,0,1,338.25,6.3a136.48,136.48,0,0,1,39.15,6.89c12,4.06,23.58,10.36,31.82,20.14,8.51,10.09,11.24,23.24,14.11,35.76s6.3,25,14.72,35c14.17,16.9,36.78,23.11,55.78,32.71,9.41,4.75,18.58,10.5,25.23,18.85,8,10.07,11.18,23,11.81,35.6.67,13.52-1,27.15-3.27,40.47-2.17,13-5.67,26.09-14.77,36-14.63,16-37.5,20.64-57.49,26.2C434,299.88,412.86,307.28,398,324.67c-15.11,17.72-22.41,40.27-31.63,61.27-4.72,10.73-10,21.34-17,30.76a87,87,0,0,1-26.19,23.08c-21.21,12.3-46.45,16.35-70.7,15.22s-48.62-7.37-69.35-20c-10.13-6.17-19.45-14.07-26.23-23.87-7.4-10.7-10.83-22.82-12.09-35.67-1.4-14.14-1-28.6-4.66-42.43a64,64,0,0,0-18.74-30.64c-17.61-16.31-40.73-24.65-60.8-37.27-21.36-13.44-39.78-33.2-48.8-57C3.18,185.31,4.13,159.5,15.9,138a69.66,69.66,0,0,1,22.42-24.84C41.52,111,38.52,105.8,35.29,107.94Z"/></g></g></svg>