<svg xmlns="http://www.w3.org/2000/svg" viewBox="0 0 315.69 305.18"><defs><style>.cls-1{fill:#f281ba;}</style></defs><g id="Layer_2" data-name="Layer 2"><g id="Layer_1-2" data-name="Layer 1"><path class="cls-1" d="M43.49,211.86h0c9.06,11.44,19.17,22.28,25.7,35.34,7.4,14.77,10.33,32.42,22.21,43.9,15.83,15.29,42.44,13.49,61.4,2.3s32.31-29.57,46-46.8,29.26-34.47,50.08-41.62c14.35-4.93,30.32-4.7,43.93-11.38a34.45,34.45,0,0,0,11.2-8.36c4.49-5.25,6.83-12.05,7.89-18.88,6.41-41.44-27.72-73.56-59.73-93.08-33.59-20.49-69.47-39.1-104.9-56.23C122.38,5,96.71-3,70.09,8.71c-32.94,14.47-58.61,44.58-65.17,80C-3.36,133.44,16.17,177.39,43.49,211.86Z"/><path d="M41.36,214c10,12.63,21,24.53,27.46,39.5,5.78,13.38,9.23,28.38,19.78,39.07,9.67,9.8,23.72,13.53,37.18,12.45,14.79-1.19,28-7.47,39.5-16.67,24.19-19.39,38.23-48.42,62.36-67.9a75.57,75.57,0,0,1,18.81-11.35c7.57-3.05,15.63-4.44,23.63-5.9,15.63-2.86,33.17-7.3,40.72-22.9,3.41-7,4.73-15,4.88-22.75A68.44,68.44,0,0,0,312.89,137c-3.88-13.2-11.47-25-20.58-35.16a164,164,0,0,0-31.66-26.74c-14.19-9.43-29.23-17.72-44.14-25.93q-23.58-13-47.69-24.9c-15.78-7.87-31.65-16.43-48.76-21A86,86,0,0,0,94.94,0,70.89,70.89,0,0,0,69.41,5.76,117.45,117.45,0,0,0,34.56,29,113.8,113.8,0,0,0,10.22,62.71,110.38,110.38,0,0,0,.08,105.37c-1.2,32,10.6,63.16,27.71,89.73,4.2,6.52,8.76,12.79,13.57,18.88,1,1.27,3.19,1.05,4.25,0a3.08,3.08,0,0,0,0-4.24c-18.93-23.93-33.87-52.12-38.36-82.57a112.69,112.69,0,0,1,2-44.31A104,104,0,0,1,26.46,47.17,111.23,111.23,0,0,1,55.6,19.91a102.25,102.25,0,0,1,18.07-9.46A65,65,0,0,1,98.22,6c16.5.23,32.34,6.32,47,13.38Q169,30.81,192.36,43T238.6,68.65c12.26,7.2,24.39,14.58,35.28,23.78,19.79,16.69,36.94,39.59,35.75,66.71-.32,7.17-1.71,14.61-5.48,20.83-4,6.6-10.87,10.69-18,13.19-7.43,2.6-15.24,3.76-22.94,5.21s-15.44,3.4-22.66,6.81c-27.73,13.1-43.57,41-63.17,63.07-9.43,10.64-20.37,20.94-33.72,26.39-11.79,4.81-25.46,6.34-37.64,2a35.5,35.5,0,0,1-15.37-10.8c-4.3-5.15-7.19-11.42-9.66-17.61-2.71-6.81-5-13.77-8.15-20.42A108.32,108.32,0,0,0,60,227.62c-4.68-6.07-9.67-11.88-14.43-17.88-1-1.27-3.19-1.06-4.25,0A3.08,3.08,0,0,0,41.36,214Z"/></g></g></svg>