<svg xmlns="http://www.w3.org/2000/svg" viewBox="0 0 1458.4 381.94"><defs><style>.cls-1{opacity:0.7;}.cls-2{fill:#b885bb;}.cls-3{fill:#9e7dbd;}.cls-4{fill:#4d4a51;}</style></defs><g id="Layer_2" data-name="Layer 2"><g id="Layer_1-2" data-name="Layer 1"><g class="cls-1"><path class="cls-2" d="M869.61,107.79c-2.25-.72-4.75-.42-7-1.25-3.28-1.24-5.3-4.67-7.53-7.53l-15.68,18.88c-2.76,3.33-7,7-10.83,5-2.05-1.07-3.26-3.57-5.52-4.09-4.5-1-5.92,5.64-6.89,10.16-2.13,10-11.77,16.28-20.58,21.47-7.17,4.22-16.49,8.41-23.24,3.54-1.47-1.07-2.69-2.51-4.31-3.32-5.8-2.92-11.85,3.41-15,9.07s-8,12.51-14.34,10.94c-7.16-1.78-7.59-12.41-13.53-16.8-3.61-2.66-8.48-2.48-12.93-3a39.22,39.22,0,0,1-21.53-9.45c-2-1.79-4.05-3.88-6.71-4.44-4.3-.9-8.16,2.48-12.23,4.13-11.45,4.65-23.42-4.56-35.45-7.39-1.89-.45-3.94-.84-6-1.28-3.59,4.34-11.79,5.52-16.25,7.05-3.5,1.29-7.09,1.59-10.59,2.87a5,5,0,0,0-2.12,1.21c-1.69,1.94.77,5.1,3.34,5.2s4.84-1.52,7.17-2.61,5.48-1.52,7.15.44c.73.86,1.07,2.09,2.06,2.64,1.56.86,3.33-.54,4.84-1.48a10.37,10.37,0,0,1,12.13,1.14c1.06,1,2,2.24,3.38,2.64,1.62.47,3.44-.37,5,.24,1.4.55,2.13,2.05,3.22,3.08a11.45,11.45,0,0,0,4.56,2.27c8.39,2.68,18.68,5,25.08-1,2.14-2,3.66-4.85,6.36-6s6.81,1.45,5.36,4c-.41.74-1.19,1.25-1.48,2-.82,2.17,2.43,3.63,4.7,3.2s5-1.42,6.65.16c1.42,1.34,1.14,3.72,2.21,5.35,3.1,4.73,12.84-1.12,15.44,3.9-4.51,1.93-9.94,5.71-8.37,10.36.79,2.32,3.11,3.69,5.27,4.87l9.84,5.36c2.48,1.35,5.42,2.73,8,1.6s3.72-4.31,6.24-5.55,5.32-.23,8,.32,6.08.24,7.2-2.24c.73-1.64.24-3.86,1.59-5,1-.89,2.55-.69,3.83-1.08,2.89-.89,4.49-4.77,7.51-4.75,1.62,0,3,1.2,4.46,1.83,6.64,2.78,13-5.61,20.24-5.57a36.89,36.89,0,0,1,5.76,1,18.11,18.11,0,0,0,18.1-8.36c2.56-4.29,3.19-9.43,4.82-14.16s4.93-9.52,9.87-10.29c3.16-.5,6.59.74,9.53-.56,1.78-.78,3-2.37,4.44-3.73a22.12,22.12,0,0,1,18.08-6,8.38,8.38,0,0,1,4.8-11.47c1.75-.52,3.91-.59,4.88-2.14C873.9,111.11,871.87,108.5,869.61,107.79Z"/><path class="cls-3" d="M671.78,141.15c4.07-1.65,7.93-5,12.23-4.13,2.66.56,4.67,2.65,6.71,4.44a39.22,39.22,0,0,0,21.53,9.45c4.45.48,9.32.3,12.93,3,5.94,4.39,6.37,15,13.53,16.8,6.3,1.57,11.17-5.27,14.34-10.94s9.22-12,15-9.07c1.62.81,2.84,2.25,4.31,3.32,6.75,4.87,16.07.68,23.24-3.54,8.81-5.19,18.45-11.48,20.58-21.47,1-4.52,2.39-11.19,6.89-10.16,2.26.52,3.47,3,5.52,4.09,3.83,2,8.07-1.68,10.83-5L855.12,99c-1.79-2.31-3.72-4.26-6.53-4.42-2.65-.14-5.36,1.5-7.84.57-3.58-1.34-3.87-6.86-7.32-8.5-1.47-.7-3.18-.51-4.79-.72-5.46-.72-9.47-6.93-7.89-12.2l-15.47-3.38a7.56,7.56,0,0,0-3.59-.2,20,20,0,0,0-3,1.5c-6.25,2.91-13.62-5.47-19.89-2.59-3.26,1.51-4.69,5.52-7.83,7.26-4.21,2.33-10.31-1.58-9.95-6.39.18-2.5.64-6.43-1.86-6.21.49,2.36-3.43,2.63-5.48,1.36-6.94-4.27-1.34-25.22-10.39-20.75-6.4,1.32-11.17-3.38-16.72-1.73-2,.59-3.52,2.15-5,3.66L704.49,64.36a12,12,0,0,0-3.26,4.8c-.46,1.7-.16,3.51-.46,5.24-.86,4.86-7.36,7.68-11.49,5-1.31-.86-2.35-2.11-3.74-2.81-2.82-1.42-6.39-.13-8.54,2.17s-3.21,5.39-4.2,8.38c-.81,2.45-1.62,5.07-1,7.57,1,3.69,4.94,7.18,3.12,10.53-2.35,4.33-9.31.26-13.88,2.11-1.75.72-3,2.27-4.26,3.67a34,34,0,0,1-17.76,10.15c-2,.42-4.16.77-5.45,2.32s-1.19,4.06-1.74,6.14a7.5,7.5,0,0,1-1.51,2.86c2,.44,4.09.83,6,1.28C648.36,136.59,660.33,145.8,671.78,141.15Z"/></g><path class="cls-4" d="M869.65,107.64c-2.56-.73-5.39-.36-7.8-1.63-2.17-1.14-3.7-3.19-5.13-5.12-2.25-3-4.77-6.72-9-6.43-2.49.16-5.2,1.63-7.57.24-1.64-1-2.47-2.86-3.35-4.46A9.15,9.15,0,0,0,834,86.83c-1.91-1.24-4.3-.68-6.41-1.24a9.89,9.89,0,0,1-6.74-11.81.15.15,0,0,0-.1-.18l-10.57-2.31c-1.63-.36-3.26-.73-4.9-1.08a7.44,7.44,0,0,0-3.86-.13c-1.21.39-2.17,1.26-3.37,1.68a7.9,7.9,0,0,1-4,.2,35.83,35.83,0,0,1-6.56-2.26,15.13,15.13,0,0,0-6.19-1.38,7.77,7.77,0,0,0-5.2,2.63c-1.74,1.83-3.11,4.28-5.48,5.4s-5.48.25-7.39-1.56a6.25,6.25,0,0,1-2-4.18c-.06-1.18.17-2.37.16-3.55,0-1.51-.25-3.53-2.16-3.48a.15.15,0,0,0-.14.19c.41,2.92-4.45,1.87-5.72.87A7.64,7.64,0,0,1,751,60.91c-1-3.08-1.19-6.39-1.57-9.59-.25-2.18-.38-5.19-2-6.89a2.63,2.63,0,0,0-2.11-.85,5.18,5.18,0,0,0-1.46.34,9.52,9.52,0,0,1-3.93.47c-4.67-.36-9.5-3.69-14.18-1.64-2.33,1-4,3.19-5.74,5L713,55.21l-7.29,7.67c-1.85,1.95-4.14,3.95-4.71,6.71s.16,5.51-1.84,7.85a8.29,8.29,0,0,1-6.2,2.84,6.63,6.63,0,0,1-3.45-.94c-1.2-.73-2.14-1.82-3.33-2.57a6.59,6.59,0,0,0-6.29-.23c-4.74,2.1-6.5,7.83-7.8,12.42a10.4,10.4,0,0,0,.22,7.41c1,2.26,3.13,4.62,3,7.23-.33,5.67-8.59,2.85-12,3.11a8.21,8.21,0,0,0-5.56,3.05,40.25,40.25,0,0,1-6.67,6,34.34,34.34,0,0,1-7.81,4c-2.53.9-5.34,1.09-7.79,2.16-2.25,1-3,2.89-3.32,5.19a11.79,11.79,0,0,1-1,3.91,9.35,9.35,0,0,1-2.8,3.07c-3.75,2.71-8.53,3.53-12.88,4.81-2.86.85-5.7,1.61-8.61,2.32-1.79.43-5.05.9-5.93,2.83-.68,1.49.36,3.15,1.55,4,1.84,1.34,4.09.82,6-.05,2.65-1.17,5.37-3.25,8.45-2.51,1.59.38,2.18,1.52,3,2.75a2.77,2.77,0,0,0,1.88,1.37,4.42,4.42,0,0,0,2.73-.83,17,17,0,0,1,3.87-2,10.38,10.38,0,0,1,8.19,1.15c1.94,1.22,3.18,3.64,5.65,3.84,1.48.11,3.05-.51,4.44.24,1.22.65,1.87,2,2.85,2.9,1.75,1.65,4.34,2.23,6.57,2.9a56.39,56.39,0,0,0,7.89,1.83c4.55.65,9.55.54,13.53-2.05,2.07-1.34,3.45-3.31,5.11-5.09,2-2.16,5.08-3.79,7.63-1.36,1.41,1.35.79,2.61-.27,3.92a2.58,2.58,0,0,0-.74,1.89c.18,1.53,2,2.28,3.33,2.47,2.49.36,5.24-1.62,7.61-.3s1.55,4.5,3.18,6.27c2.3,2.49,6.61,1.36,9.54,1.25a11.55,11.55,0,0,1,2.69.15c.73.15,2.31.66,2.53,1.51.1.4.12.21-.19.47a5.33,5.33,0,0,1-.87.41c-.52.26-1,.54-1.55.83a18.34,18.34,0,0,0-2.89,2.07,7.65,7.65,0,0,0-2.89,4.92,6,6,0,0,0,2.58,5.12c2.15,1.73,4.83,2.89,7.24,4.2a70.64,70.64,0,0,0,8.49,4.44c2.23.85,4.6,1,6.56-.54s3.14-4.33,5.76-5.09c4.2-1.23,10.23,3.2,13.81-.69,1.71-1.86.38-5.56,3.18-6.5,1-.34,2.13-.25,3.14-.65a8.16,8.16,0,0,0,2.45-1.7c2.12-1.94,3.87-3.76,6.88-2.26,2,1,3.63,1.92,5.94,1.69,4.43-.46,8.11-3.64,12.17-5.19a13.4,13.4,0,0,1,8.19-.32,19.69,19.69,0,0,0,7.25.44,18.44,18.44,0,0,0,11.84-6.86c3.57-4.64,4.09-10.63,6-16s5.79-10.27,12-10.12c2.57.06,5.3.61,7.69-.64s3.93-3.64,6-5.24A22.15,22.15,0,0,1,863,126.88a.15.15,0,0,0,.13-.23,8.1,8.1,0,0,1,.3-7.56c1.4-2.52,3.55-3.48,6.24-4.13,1.68-.4,3.58-1.23,3.54-3.26s-1.85-3.45-3.53-4.06c-.18-.06-.26.23-.08.29,2,.74,4.7,3.55,2.53,5.63-1.31,1.25-3.44,1.14-5,1.79a8.56,8.56,0,0,0-4.94,6.47,8.06,8.06,0,0,0,.25,3.87s.34.79.32.81-1.06-.06-1.21-.06a21.46,21.46,0,0,0-3,0,22.41,22.41,0,0,0-10.5,3.61c-3.51,2.31-5.83,6.66-10.38,6.86-2.08.1-4.15-.33-6.23-.1a9.5,9.5,0,0,0-4.32,1.6c-6.65,4.5-6.79,13.32-9.53,20.09a18,18,0,0,1-19.59,11.14c-2-.35-4-1-6.08-.93a13.47,13.47,0,0,0-4.45,1.1c-3.11,1.27-5.9,3.27-9.08,4.38a9.1,9.1,0,0,1-4.87.49c-1.79-.38-3.18-1.74-5-2.14-3-.68-4.81,2.46-7,3.94-1.53,1.05-3.45.63-5,1.57-1.13.71-1.32,2-1.49,3.27-.33,2.3-1.33,3.86-3.74,4.32a14.38,14.38,0,0,1-5.79-.54,10.19,10.19,0,0,0-5.42-.12,8.46,8.46,0,0,0-3.55,2.83c-1.44,1.7-2.85,3.31-5.26,3.38-2.56.08-5-1.45-7.11-2.63L717.64,185a29.92,29.92,0,0,1-5.37-3.26,5.44,5.44,0,0,1-2-5.59,9.25,9.25,0,0,1,3.65-4.61,24.51,24.51,0,0,1,4.74-2.66.15.15,0,0,0,.05-.2c-1.52-2.73-5-2.34-7.66-2.14a16.32,16.32,0,0,1-5.22-.07c-2.39-.6-3-2.45-3.57-4.63-.45-1.73-1.36-3.11-3.26-3.32-2.26-.25-4.41,1.1-6.66.63-1-.22-2.41-.81-2.69-1.94-.36-1.44,1.23-2.16,1.69-3.32a2.79,2.79,0,0,0-1.2-3.21c-3.7-2.79-7,.84-9.26,3.53a14.69,14.69,0,0,1-6.12,4.53,18.78,18.78,0,0,1-7,1,48.09,48.09,0,0,1-14.66-3.16,8.7,8.7,0,0,1-3.54-2.08,22,22,0,0,0-2-2.27c-2.08-1.68-4.8.07-7-1.31a29.18,29.18,0,0,1-2.74-2.49,9.79,9.79,0,0,0-2.52-1.47,10.76,10.76,0,0,0-5.75-.64,9.84,9.84,0,0,0-2.76.86c-1.28.62-2.39,1.7-3.79,2.07-2.66.72-3.13-2.92-5.25-3.8a7.41,7.41,0,0,0-5.52.44c-2.5,1.06-5.33,3.41-8.22,2.6a4.23,4.23,0,0,1-2.83-2.66c-.59-2,1.31-2.93,2.91-3.48,2.84-1,5.82-1.37,8.68-2.23,4-1.19,8.13-2.14,12-3.72,3.67-1.51,6.87-3.84,7.57-8a20.52,20.52,0,0,1,.66-3.39,5.18,5.18,0,0,1,3.78-3.21c2.43-.71,4.89-1.09,7.27-2a34,34,0,0,0,12.19-8c1.85-1.88,3.43-4.25,6.2-4.78,2.14-.41,4.36,0,6.49.23,2.95.28,6.82-.25,6.73-4.09,0-1.92-1.23-3.69-2.13-5.31a13.89,13.89,0,0,1-1.46-3.3,10.34,10.34,0,0,1,.25-5.15c1.33-5.07,3.51-12,9.4-13.23a6,6,0,0,1,4.2.63,36,36,0,0,1,3,2.36,7.09,7.09,0,0,0,5,1.25c3.26-.39,6.39-2.75,7-6.08a27.42,27.42,0,0,0,.21-3.39,8.31,8.31,0,0,1,2.1-5.07c1.93-2.32,4.15-4.44,6.23-6.63,4.3-4.52,8.54-9.11,12.91-13.58,2-2.07,4.23-3.49,7.23-3.35A31,31,0,0,1,736.28,44a15.71,15.71,0,0,0,6.24.65c1.27-.17,2.5-1.1,3.82-.63,2.09.74,2.39,4.09,2.65,5.92.4,2.92.55,5.87,1.14,8.76.46,2.25,1.21,4.83,3.13,6.27a5.6,5.6,0,0,0,3.93,1,3.09,3.09,0,0,0,1.6-.59c.47-.38.34-.84.61-1.25.57-.85,1.44.84,1.56,1.46a12.21,12.21,0,0,1,0,3.14,7.42,7.42,0,0,0,1,5c1.77,2.66,5.47,4.28,8.54,3,4.11-1.67,5.31-7.14,9.93-8,4.18-.79,8.24,2,12.11,3.17a8,8,0,0,0,7.55-.82,6.3,6.3,0,0,1,4.93-.62c3,.63,6,1.31,9,2l4.64,1c.44.09,1.64.12,1.86.61.12.26-.21,1.08-.23,1.44a10.39,10.39,0,0,0,5,9.4c1.93,1.17,3.88,1.16,6.06,1.4,2.65.28,4,1.91,5.22,4.1.84,1.52,1.61,3.25,3.06,4.31s3.47,1,5.28.57a11.61,11.61,0,0,1,4.46-.44,7.35,7.35,0,0,1,3.54,1.88,45,45,0,0,1,4.61,5.68,13.32,13.32,0,0,0,4.56,4c2.36,1.1,5.07.79,7.53,1.49A.15.15,0,0,0,869.65,107.64Z"/><g class="cls-1"><path class="cls-2" d="M548,34.72c-.84-.38-1.77-.22-2.59-.66-1.22-.66-2-2.46-2.8-4l-5.83,10c-1,1.75-2.6,3.69-4,2.64-.76-.57-1.21-1.89-2-2.16-1.67-.55-2.2,3-2.56,5.36-.79,5.27-4.37,8.59-7.65,11.32-2.66,2.23-6.13,4.44-8.64,1.87a15.06,15.06,0,0,0-1.6-1.75c-2.16-1.54-4.41,1.8-5.59,4.79s-3,6.59-5.33,5.76c-2.66-.94-2.82-6.54-5-8.86-1.34-1.4-3.15-1.3-4.81-1.56a13,13,0,0,1-8-5c-.76-.95-1.51-2-2.49-2.34-1.6-.48-3,1.3-4.55,2.17-4.26,2.45-8.71-2.4-13.18-3.9-.7-.23-1.46-.44-2.22-.67-1.34,2.29-4.39,2.91-6,3.72-1.3.68-2.64.83-3.94,1.51a1.79,1.79,0,0,0-.79.64,2,2,0,0,0,1.24,2.74c1,0,1.8-.8,2.67-1.37s2-.8,2.66.23c.27.45.4,1.1.76,1.39.58.46,1.24-.28,1.8-.78a3,3,0,0,1,4.51.6c.4.52.74,1.18,1.26,1.39s1.28-.19,1.86.13.79,1.08,1.19,1.63a4,4,0,0,0,1.7,1.19c3.12,1.42,6.94,2.63,9.32-.55.8-1.06,1.36-2.56,2.37-3.17s2.53.77,2,2.12a10.8,10.8,0,0,0-.55,1.07,1.44,1.44,0,0,0,1.75,1.69c.84-.23,1.84-.75,2.47.08s.42,2,.82,2.83c1.15,2.49,4.77-.59,5.74,2-1.68,1-3.69,3-3.11,5.47a4.64,4.64,0,0,0,2,2.56l3.66,2.83c.92.71,2,1.44,3,.85s1.38-2.28,2.31-2.93,2-.12,3,.17a2,2,0,0,0,2.68-1.18c.27-.87.09-2,.59-2.66.38-.47.95-.37,1.43-.57,1.07-.47,1.66-2.52,2.79-2.51.6,0,1.1.63,1.66,1,2.46,1.47,4.85-3,7.52-2.94a10.12,10.12,0,0,1,2.14.52c2.59.62,5.39-1.21,6.73-4.41.95-2.27,1.19-5,1.79-7.47s1.83-5,3.67-5.43c1.18-.27,2.45.39,3.54-.29a7.18,7.18,0,0,0,1.65-2c1.75-2.43,4.3-3.64,6.73-3.19-.83-2.2.09-5.34,1.78-6,.65-.28,1.46-.32,1.82-1.13A2.37,2.37,0,0,0,548,34.72Z"/><path class="cls-3" d="M474.49,52.31c1.51-.87,2.95-2.65,4.55-2.17,1,.29,1.73,1.39,2.49,2.34a13,13,0,0,0,8,5c1.66.26,3.47.16,4.81,1.56,2.21,2.32,2.37,7.92,5,8.86,2.35.83,4.16-2.77,5.33-5.76s3.43-6.33,5.59-4.79a15.06,15.06,0,0,1,1.6,1.75c2.51,2.57,6,.36,8.64-1.87,3.28-2.73,6.86-6.05,7.65-11.32.36-2.39.89-5.91,2.56-5.36.84.27,1.29,1.59,2,2.16,1.43,1.05,3-.89,4-2.64l5.83-10c-.67-1.21-1.38-2.24-2.43-2.32s-2,.78-2.91.29c-1.33-.7-1.44-3.61-2.72-4.48a4.27,4.27,0,0,0-1.79-.38c-2-.38-3.52-3.65-2.93-6.43L524.12,15a2,2,0,0,0-1.33-.1,6.21,6.21,0,0,0-1.1.79c-2.33,1.53-5.07-2.89-7.4-1.36-1.21.79-1.74,2.91-2.9,3.82-1.57,1.23-3.84-.83-3.71-3.37.07-1.32.24-3.39-.69-3.27.19,1.24-1.27,1.38-2,.72-2.58-2.26-.5-13.31-3.87-10.95-2.38.7-4.15-1.78-6.21-.91A4.91,4.91,0,0,0,493,2.27l-6.39,9.54a6.91,6.91,0,0,0-1.21,2.53c-.17.9-.06,1.85-.17,2.77-.32,2.56-2.74,4.05-4.28,2.62a16.39,16.39,0,0,0-1.39-1.48c-1-.74-2.37-.06-3.17,1.15a13.94,13.94,0,0,0-1.56,4.42,10,10,0,0,0-.36,4c.36,2,1.84,3.79,1.16,5.56-.88,2.28-3.46.13-5.16,1.11a5.94,5.94,0,0,0-1.59,1.93,12.4,12.4,0,0,1-6.6,5.36,3,3,0,0,0-2,1.22,10.54,10.54,0,0,0-.65,3.24,4.93,4.93,0,0,1-.56,1.51c.76.23,1.52.44,2.22.67C465.78,49.91,470.23,54.76,474.49,52.31Z"/></g><path class="cls-4" d="M548.08,34.57c-.62-.22-1.24-.24-1.87-.4a3.39,3.39,0,0,1-2-1.55c-.74-1.1-1.22-2.37-2-3.47a3,3,0,0,0-1.85-1.51c-1.37-.25-2.77,1.17-3.78-.54-.8-1.34-.89-3.51-2.69-3.93a6.09,6.09,0,0,1-1.79-.38,3.91,3.91,0,0,1-1.44-1.55A6.59,6.59,0,0,1,530,16.8a.18.18,0,0,0-.11-.19c-1.91-.59-3.82-1.23-5.75-1.78a2,2,0,0,0-1.59,0c-.74.36-1.09,1-2,1-2,0-3.64-2.54-5.76-1.94a3.89,3.89,0,0,0-2,2,6.18,6.18,0,0,1-1.49,2c-1,.73-2.11.14-2.76-.77-1-1.44-.49-3-.67-4.63-.06-.58-.19-1.23-.87-1.25a.15.15,0,0,0-.15.15c.07,1.47-1.48,1-2,.4a2.93,2.93,0,0,1-.41-.68,8.34,8.34,0,0,1-.58-2.15c-.25-1.57-.3-3.17-.45-4.75-.13-1.36-.2-4-2.12-3.35A4.59,4.59,0,0,1,497.8.54,4.56,4.56,0,0,0,495.46,0a2.91,2.91,0,0,0-1.81,1.15,36.93,36.93,0,0,0-2.41,3.51c-1.71,2.56-3.55,5.07-5.14,7.71a6,6,0,0,0-.91,2.86c-.08,1.55,0,3.1-1.27,4.23a2.14,2.14,0,0,1-3.28-.35c-.54-.62-1-1.3-1.94-1.34-1.95-.07-2.95,2.34-3.42,3.85-.73,2.36-1.43,5-.59,7.37.42,1.23,1.25,2.61.94,4-.39,1.72-1.94,1.3-3.22,1.15-2.11-.26-2.76,1-3.85,2.56a12.35,12.35,0,0,1-6.28,5,3.77,3.77,0,0,0-1.89,1,5.45,5.45,0,0,0-.79,2.88c-.38,3.1-2.71,4.29-5.35,5.32-1,.39-2,.87-3,1.2s-2.44.6-3,1.5a2.14,2.14,0,0,0,1.07,3,2.54,2.54,0,0,0,2-.64,8.31,8.31,0,0,1,1.51-1c1.35-.53,1.8.43,2.33,1.36.27.46.56.77,1.12.67a2.06,2.06,0,0,0,.83-.54,3.38,3.38,0,0,1,2.49-1.1c1.62.12,2.05,1.4,3,2.36a1.44,1.44,0,0,0,.71.42c.33.08.16,0,.61,0a2.42,2.42,0,0,1,1.8,1,4.75,4.75,0,0,0,1.82,1.71,19.57,19.57,0,0,0,2.94,1.17,6.78,6.78,0,0,0,5.25-.17A5.43,5.43,0,0,0,477.64,60c.67-1,2.32-4.51,3.73-2.2.71,1.16-.67,2-.44,3.09A1.58,1.58,0,0,0,482,62c1.17.4,2.54-1.16,3.45.57.44.87.17,2,.83,2.76.82,1,2.18.64,3.28.56.7-.05,2.74.26,1.74,1.19a12.39,12.39,0,0,0-1.85,1.77,4.05,4.05,0,0,0-.12,5,14.43,14.43,0,0,0,2.76,2.34,27.49,27.49,0,0,0,3.13,2.35c1.88,1.08,2.75-.22,3.7-1.71a2.26,2.26,0,0,1,2.56-1.17,14.33,14.33,0,0,0,1.55.44,2.26,2.26,0,0,0,1.88-.47,2.75,2.75,0,0,0,.73-1.82,4.68,4.68,0,0,1,.16-1.19c.63-1.51.69-.65,1.29-.92a2.9,2.9,0,0,0,.9-.52c.88-.81,1.35-2.56,2.9-1.74.69.37,1.1.91,1.94.92,1.55,0,2.84-1.38,4-2.2a4,4,0,0,1,2.88-1c1.15.15,2.07.68,3.26.55,4.62-.5,5.91-5.79,6.62-9.54.46-2.46.94-6.09,3.29-7.54,1.2-.73,2.51,0,3.77-.39a3.61,3.61,0,0,0,1.87-1.64c1.66-2.34,3.94-4.22,7-3.74.1,0,.22-.07.18-.18a5.82,5.82,0,0,1,.16-4.09A3.5,3.5,0,0,1,547,39a15.5,15.5,0,0,1,1.57-.68c1.52-.9.83-3-.47-3.77a.15.15,0,0,0-.15.26,2.39,2.39,0,0,1,1.11,1.38,1.84,1.84,0,0,1-1.32,2.13,3.29,3.29,0,0,0-1.25.7,5.18,5.18,0,0,0-1.34,3,6.51,6.51,0,0,0,.05,1.87c.13.85-.2.47-1,.51a6.65,6.65,0,0,0-3.6,1.37A8.49,8.49,0,0,0,539,47.46c-.55.69-1.05,1.85-1.86,2.27-1.51.78-3.19-.28-4.64.82-2.54,1.93-2.83,5.94-3.41,8.81-.68,3.4-2.44,8.19-6.71,8.07-1.5-.05-2.69-1-4.19-.41a14.38,14.38,0,0,0-3,2,5.48,5.48,0,0,1-1.69.93c-1,.29-1.59-.22-2.39-.75a1.38,1.38,0,0,0-2,.15c-.46.45-.74,1.07-1.2,1.51s-1.25.44-1.82.83c-1.46,1,.07,3.77-2.29,4.1-1.47.21-2.94-1.21-4.31-.12a6.58,6.58,0,0,0-1.23,1.72c-.11.17-.22.34-.35.51-.5.62-.56.59-1.46.53a4,4,0,0,1-2.48-1.19l-2.74-2.12A5.76,5.76,0,0,1,489,72.66c-.85-2.39,1-4.46,2.92-5.65a.15.15,0,0,0,.05-.2c-.51-1.19-1.51-1.29-2.69-1.19a4.87,4.87,0,0,1-2.15,0c-1.29-.48-1.05-2-1.44-3.11a1.54,1.54,0,0,0-.9-1,1.83,1.83,0,0,0-.87,0,5,5,0,0,0-.66.18c-.9.26-1.35.2-1.75-.68s-.32-.59,0-1.31c.07-.15.16-.26.22-.42a1.78,1.78,0,0,0,.09-1A2,2,0,0,0,481,57c-1.27-.75-2.21.6-2.81,1.56a7.84,7.84,0,0,1-2.39,2.87,5.36,5.36,0,0,1-3.51.58c-2.19-.29-5-1.19-6.24-3.1-.34-.53-.6-1.07-1.27-1.21s-1.38.19-2.09-.55c-.32-.33-.53-.77-.85-1.11a3.18,3.18,0,0,0-4.16-.55c-.26.18-1,1-1.18,1-.94.08-1.08-.73-1.46-1.3a1.6,1.6,0,0,0-1.37-.8,3.37,3.37,0,0,0-2,.85,3.15,3.15,0,0,1-1.82.83,1.21,1.21,0,0,1-1.47-1,1.62,1.62,0,0,1,.66-1.84c1-.76,2.54-.9,3.65-1.38.93-.41,1.86-.78,2.8-1.17a7.35,7.35,0,0,0,3.73-2.82,6,6,0,0,0,.7-2.52,5.12,5.12,0,0,1,.51-2.22c.51-.81,1.43-1,2.26-1.26a11.7,11.7,0,0,0,4.6-3.06,17.55,17.55,0,0,0,1.87-2.42c.84-1.3,1.59-2.11,3.23-1.91,1.15.14,2.57.55,3.27-.68,1-1.68-.33-3.59-.81-5.2a8.55,8.55,0,0,1,.12-4.46A16,16,0,0,1,476.26,20c.89-1.67,2.51-2.59,3.95-.93a3.32,3.32,0,0,0,1.65,1.31,2.88,2.88,0,0,0,2.95-1.51,4.69,4.69,0,0,0,.65-2.22,8.29,8.29,0,0,1,1.11-4.44c1.5-2.35,3.1-4.64,4.65-7,.76-1.14,1.49-2.31,2.3-3.41a2.86,2.86,0,0,1,3.74-1.2c1.5.56,2.63,1.14,4.18.57,1.18-.43,1.38,1,1.52,1.86.42,2.6.12,5.42,1.07,7.91a2.32,2.32,0,0,0,1.81,1.75,1.23,1.23,0,0,0,1.13-.42s.29-.54.18-.51c.39-.14.44,1.09.44,1.39,0,1.61-.25,3.11.89,4.45a2.19,2.19,0,0,0,3,.59c1.44-1.09,1.78-4.12,3.92-4.11,1.58,0,2.85,1.43,4.31,1.87a2.55,2.55,0,0,0,1.57,0,2.84,2.84,0,0,0,.75-.44,3,3,0,0,1,2.93-.19l3.53,1.1c.55.17,1,.2,1.14.8s-.06,1.07,0,1.59a5.77,5.77,0,0,0,2,3.94,3.83,3.83,0,0,0,1.88.6c1.58.28,1.84,1.47,2.36,2.77.43,1.09,1,2.29,2.34,2.13A13.51,13.51,0,0,1,540,28a2.52,2.52,0,0,1,2.11,1.49c.63,1,1.06,2,1.66,3A5.06,5.06,0,0,0,545.12,34c.85.58,1.93.49,2.88.83C548.18,34.93,548.26,34.64,548.08,34.57Z"/><g class="cls-1"><path class="cls-2" d="M1457,78.82c-.84-.38-1.77-.22-2.59-.66-1.22-.65-2-2.46-2.8-4q-2.91,5-5.83,10c-1,1.76-2.6,3.69-4,2.64-.77-.56-1.22-1.88-2-2.16-1.68-.54-2.21,3-2.57,5.36-.79,5.28-4.37,8.59-7.65,11.33-2.66,2.23-6.13,4.43-8.64,1.87a14.39,14.39,0,0,0-1.6-1.76c-2.16-1.53-4.41,1.8-5.58,4.79s-3,6.6-5.33,5.77c-2.67-.94-2.83-6.55-5-8.86-1.34-1.4-3.15-1.31-4.8-1.56a13,13,0,0,1-8-5c-.76-.94-1.5-2-2.49-2.34-1.6-.47-3,1.31-4.55,2.18-4.26,2.45-8.7-2.41-13.18-3.9-.7-.24-1.46-.44-2.22-.68-1.33,2.3-4.38,2.92-6,3.73-1.3.68-2.64.83-3.94,1.51a1.82,1.82,0,0,0-.78.64,2,2,0,0,0,1.24,2.74c1,.05,1.79-.8,2.66-1.38s2-.8,2.66.24c.27.45.4,1.1.77,1.39.57.45,1.23-.28,1.8-.78a3,3,0,0,1,4.5.6c.4.52.75,1.18,1.26,1.39s1.28-.19,1.86.13.79,1.08,1.2,1.62a4,4,0,0,0,1.69,1.2c3.12,1.41,6.94,2.63,9.33-.56.79-1.06,1.35-2.55,2.36-3.16s2.53.77,2,2.12a9,9,0,0,0-.55,1.07,1.43,1.43,0,0,0,1.75,1.68c.85-.22,1.84-.74,2.47.09s.43,2,.82,2.82c1.16,2.5,4.78-.59,5.75,2.06-1.68,1-3.7,3-3.12,5.46a4.63,4.63,0,0,0,2,2.57l3.66,2.83c.92.71,2,1.44,3,.84s1.38-2.27,2.32-2.93,2-.11,3,.17a2,2,0,0,0,2.67-1.18c.28-.86.09-2,.59-2.66.38-.46,1-.36,1.43-.57,1.07-.47,1.67-2.51,2.79-2.5.6,0,1.1.63,1.66,1,2.47,1.47,4.85-3,7.52-2.93a9.52,9.52,0,0,1,2.14.51c2.59.62,5.39-1.21,6.73-4.41,1-2.26,1.19-5,1.8-7.46s1.83-5,3.66-5.44c1.18-.26,2.46.4,3.55-.29a7.23,7.23,0,0,0,1.65-2c1.74-2.43,4.3-3.63,6.72-3.18-.83-2.2.09-5.34,1.78-6,.65-.27,1.46-.31,1.82-1.13A2.37,2.37,0,0,0,1457,78.82Z"/><path class="cls-3" d="M1383.44,96.42c1.52-.87,3-2.65,4.55-2.18,1,.29,1.73,1.4,2.49,2.34a13,13,0,0,0,8,5c1.65.25,3.46.16,4.8,1.56,2.21,2.31,2.37,7.92,5,8.86,2.34.83,4.15-2.78,5.33-5.77s3.42-6.32,5.58-4.79a14.39,14.39,0,0,1,1.6,1.76c2.51,2.56,6,.36,8.64-1.87,3.28-2.74,6.86-6,7.65-11.33.36-2.38.89-5.9,2.57-5.36.83.28,1.28,1.6,2,2.16,1.42,1,3-.88,4-2.64q2.93-5,5.83-10c-.67-1.22-1.38-2.24-2.43-2.33s-2,.79-2.91.3c-1.33-.7-1.44-3.62-2.72-4.48a4.22,4.22,0,0,0-1.78-.38c-2-.38-3.53-3.65-2.94-6.44l-5.75-1.78a2,2,0,0,0-1.33-.11,8,8,0,0,0-1.1.79c-2.32,1.54-5.06-2.88-7.39-1.36-1.21.79-1.75,2.91-2.91,3.83-1.57,1.23-3.84-.83-3.7-3.37.07-1.32.24-3.39-.69-3.28.18,1.25-1.28,1.39-2,.72-2.58-2.25-.5-13.3-3.86-10.94-2.39.69-4.16-1.79-6.22-.92a5,5,0,0,0-1.84,1.93l-6.39,9.54a6.88,6.88,0,0,0-1.21,2.54c-.17.89-.06,1.85-.17,2.76-.32,2.57-2.73,4.05-4.27,2.63a17.94,17.94,0,0,0-1.39-1.48c-1-.75-2.38-.07-3.18,1.15a13.94,13.94,0,0,0-1.56,4.42,10,10,0,0,0-.36,4c.36,1.94,1.84,3.79,1.16,5.55-.87,2.29-3.46.14-5.16,1.12a5.61,5.61,0,0,0-1.58,1.93,12.52,12.52,0,0,1-6.61,5.36,3,3,0,0,0-2,1.22c-.51.87-.44,2.14-.65,3.24a4.62,4.62,0,0,1-.56,1.5c.76.24,1.52.44,2.22.68C1374.74,94,1379.18,98.87,1383.44,96.42Z"/></g><path class="cls-4" d="M1457,78.68c-.62-.23-1.24-.24-1.86-.41a3.33,3.33,0,0,1-2-1.55c-.75-1.1-1.23-2.36-2-3.47a3.11,3.11,0,0,0-1.85-1.51c-1.38-.25-2.78,1.18-3.79-.53-.79-1.35-.89-3.52-2.69-3.94a6.41,6.41,0,0,1-1.79-.37,4,4,0,0,1-1.44-1.56,6.64,6.64,0,0,1-.69-4.44.15.15,0,0,0-.11-.18c-1.91-.59-3.82-1.23-5.75-1.79a2.09,2.09,0,0,0-1.59,0c-.73.36-1.09,1-2,1-2,0-3.65-2.53-5.77-1.93a3.91,3.91,0,0,0-2,2,6.34,6.34,0,0,1-1.48,2.05c-1,.73-2.12.13-2.76-.77-1-1.45-.5-3-.67-4.64-.07-.57-.2-1.22-.87-1.25a.15.15,0,0,0-.15.15c.06,1.48-1.49,1-2,.4a2.87,2.87,0,0,1-.41-.67,8,8,0,0,1-.57-2.15c-.26-1.57-.31-3.17-.46-4.75-.13-1.36-.19-4-2.11-3.35a4.57,4.57,0,0,1-3.5-.42,4.66,4.66,0,0,0-2.34-.51,2.89,2.89,0,0,0-1.81,1.14,40.51,40.51,0,0,0-2.41,3.52c-1.71,2.56-3.55,5.07-5.14,7.7a5.88,5.88,0,0,0-.9,2.87c-.09,1.55,0,3.09-1.28,4.23a2.14,2.14,0,0,1-3.28-.36c-.54-.62-1-1.3-1.94-1.33-2-.07-3,2.33-3.42,3.85-.73,2.35-1.42,5-.59,7.36.43,1.24,1.25,2.61.94,4-.39,1.71-1.94,1.3-3.22,1.14-2.11-.25-2.75,1-3.84,2.57a12.39,12.39,0,0,1-6.29,4.94,3.72,3.72,0,0,0-1.88,1,5.22,5.22,0,0,0-.79,2.87c-.39,3.11-2.71,4.3-5.35,5.32-1,.39-2,.87-3,1.21s-2.44.59-3,1.5a2.15,2.15,0,0,0,1.07,3,2.54,2.54,0,0,0,2-.65,8.07,8.07,0,0,1,1.51-1c1.35-.53,1.8.43,2.34,1.36.26.46.55.77,1.11.66a2,2,0,0,0,.83-.53,3.4,3.4,0,0,1,2.5-1.11c1.61.13,2,1.4,3,2.37a1.45,1.45,0,0,0,.72.41c.32.08.15,0,.6,0a2.39,2.39,0,0,1,1.8,1,4.9,4.9,0,0,0,1.82,1.71,19.22,19.22,0,0,0,3,1.16,6.82,6.82,0,0,0,5.25-.16,5.59,5.59,0,0,0,1.85-1.77c.67-1,2.32-4.51,3.74-2.2.71,1.16-.68,2-.44,3.08a1.6,1.6,0,0,0,1.06,1.15c1.17.4,2.54-1.16,3.45.57.45.86.18,2,.84,2.76.81,1,2.17.63,3.27.56.7-.05,2.74.26,1.74,1.18a13,13,0,0,0-1.85,1.78,4,4,0,0,0-.12,4.94,14.48,14.48,0,0,0,2.76,2.35,28.63,28.63,0,0,0,3.13,2.34c1.88,1.09,2.75-.21,3.7-1.7a2.25,2.25,0,0,1,2.56-1.17c.52.12,1,.36,1.56.43a2.27,2.27,0,0,0,1.88-.46,2.76,2.76,0,0,0,.72-1.82,4.68,4.68,0,0,1,.16-1.19c.63-1.51.69-.65,1.29-.93a2.71,2.71,0,0,0,.9-.52c.88-.8,1.35-2.55,2.91-1.73.68.36,1.09.91,1.94.92,1.54,0,2.84-1.39,4-2.2a4,4,0,0,1,2.88-1c1.15.15,2.07.67,3.26.54,4.63-.5,5.91-5.79,6.62-9.53.46-2.46.94-6.09,3.29-7.54,1.2-.74,2.51,0,3.78-.39a3.62,3.62,0,0,0,1.86-1.64c1.66-2.34,3.94-4.22,7-3.74.1,0,.23-.07.19-.19a5.77,5.77,0,0,1,.16-4.09,3.46,3.46,0,0,1,1.13-1.54c.48-.34,1.07-.38,1.57-.68,1.53-.89.83-3-.47-3.77-.16-.09-.31.17-.15.26a2.37,2.37,0,0,1,1.11,1.39,1.82,1.82,0,0,1-1.32,2.12,3.38,3.38,0,0,0-1.25.71,5.13,5.13,0,0,0-1.34,3,6.52,6.52,0,0,0,.05,1.87c.14.84-.2.46-1,.51a6.75,6.75,0,0,0-3.6,1.36,8.79,8.79,0,0,0-1.66,1.62c-.55.7-1,1.85-1.86,2.27-1.51.79-3.19-.27-4.64.83-2.54,1.93-2.83,5.94-3.41,8.8-.68,3.41-2.44,8.19-6.7,8.07-1.5,0-2.7-1-4.2-.4a14.06,14.06,0,0,0-3,2,6,6,0,0,1-1.69.93c-1,.28-1.6-.22-2.4-.76a1.4,1.4,0,0,0-2,.15c-.45.46-.73,1.07-1.2,1.51s-1.24.45-1.81.84c-1.47,1,.06,3.76-2.3,4.1-1.47.21-2.94-1.22-4.3-.12a6.74,6.74,0,0,0-1.24,1.71,5.91,5.91,0,0,1-.35.52c-.5.61-.55.59-1.45.53a4,4,0,0,1-2.48-1.19l-2.75-2.12a5.67,5.67,0,0,1-2.15-2.43c-.85-2.4,1-4.46,2.91-5.65a.15.15,0,0,0,0-.21c-.51-1.18-1.51-1.29-2.69-1.18a5,5,0,0,1-2.15,0c-1.29-.49-1-2-1.43-3.11a1.58,1.58,0,0,0-.91-1,1.71,1.71,0,0,0-.87,0c-.22,0-.44.11-.66.17-.9.27-1.35.21-1.75-.68s-.32-.59,0-1.31c.07-.14.16-.26.22-.41a1.82,1.82,0,0,0,.09-1,1.94,1.94,0,0,0-.9-1.26c-1.27-.75-2.21.6-2.81,1.56a7.92,7.92,0,0,1-2.39,2.87,5.35,5.35,0,0,1-3.51.58c-2.19-.29-5-1.2-6.24-3.1-.34-.53-.6-1.08-1.27-1.21s-1.38.18-2.09-.55c-.32-.34-.53-.77-.85-1.11a3.18,3.18,0,0,0-4.16-.55c-.25.17-.95,1-1.17,1-1,.07-1.09-.73-1.47-1.31a1.6,1.6,0,0,0-1.37-.79,3.37,3.37,0,0,0-2,.85,3.17,3.17,0,0,1-1.82.82,1.2,1.2,0,0,1-1.47-1,1.63,1.63,0,0,1,.66-1.84c1-.76,2.54-.9,3.65-1.39.93-.4,1.86-.77,2.8-1.16a7.4,7.4,0,0,0,3.73-2.82,6.23,6.23,0,0,0,.71-2.53,5.33,5.33,0,0,1,.5-2.22,3.74,3.74,0,0,1,2.26-1.25,11.83,11.83,0,0,0,4.6-3.07,17.45,17.45,0,0,0,1.87-2.41c.84-1.31,1.59-2.12,3.23-1.92,1.15.14,2.57.56,3.27-.68,1-1.67-.33-3.59-.81-5.19a8.59,8.59,0,0,1,.12-4.47,16.16,16.16,0,0,1,1.29-4.08c.89-1.66,2.51-2.59,4-.92a3.28,3.28,0,0,0,1.66,1.3,2.86,2.86,0,0,0,2.94-1.5,4.73,4.73,0,0,0,.65-2.23,8.34,8.34,0,0,1,1.11-4.44c1.5-2.35,3.1-4.64,4.66-7,.76-1.13,1.48-2.3,2.29-3.41a2.86,2.86,0,0,1,3.74-1.19c1.5.56,2.63,1.14,4.19.57,1.17-.43,1.37,1,1.51,1.86.42,2.59.13,5.41,1.07,7.9a2.33,2.33,0,0,0,1.82,1.75,1.21,1.21,0,0,0,1.12-.41s.29-.55.18-.51c.4-.14.44,1.08.44,1.38,0,1.61-.24,3.12.9,4.45a2.16,2.16,0,0,0,3,.59c1.44-1.08,1.79-4.11,3.93-4.1,1.58,0,2.85,1.42,4.31,1.86a2.45,2.45,0,0,0,1.56,0,2.69,2.69,0,0,0,.75-.44,3,3,0,0,1,2.93-.19l3.54,1.1c.54.17,1,.19,1.13.79s-.06,1.08,0,1.6a5.8,5.8,0,0,0,2,3.94,3.79,3.79,0,0,0,1.88.59c1.58.29,1.84,1.48,2.35,2.78.44,1.09,1,2.29,2.35,2.13a14.6,14.6,0,0,1,1.77-.36,2.54,2.54,0,0,1,2.1,1.49c.63,1,1.06,2,1.66,3a5.06,5.06,0,0,0,1.35,1.56c.85.59,1.94.49,2.88.84C1457.13,79,1457.21,78.74,1457,78.68Z"/><g class="cls-1"><path class="cls-2" d="M1110.94,322c-1.12-.14-2.37-.08-3.47-.24a11.53,11.53,0,0,1-3.76-1.43l-7.83,3.59a9.39,9.39,0,0,1-5.4.95,20.63,20.63,0,0,0-2.76-.78,3.15,3.15,0,0,0-3.44,1.93c-1.06,1.9-5.87,3.09-10.27,4.08-3.58.8-8.23,1.6-11.6.67-.74-.2-1.34-.47-2.15-.63a10.8,10.8,0,0,0-7.5,1.72,10.71,10.71,0,0,1-7.16,2.08c-3.57-.34-3.79-2.36-6.75-3.19a31.47,31.47,0,0,0-6.46-.56,40,40,0,0,1-10.74-1.8,13.45,13.45,0,0,0-3.35-.84c-2.15-.17-4.08.47-6.11.78-5.71.89-11.69-.86-17.69-1.4-1-.09-2-.16-3-.24-1.79.82-5.88,1.05-8.11,1.34-1.75.24-3.54.3-5.29.54a4.68,4.68,0,0,0-1.05.23c-.85.37.38,1,1.66,1a17.76,17.76,0,0,0,3.58-.5,7.43,7.43,0,0,1,3.57.09,4.49,4.49,0,0,0,1,.5,5.88,5.88,0,0,0,2.42-.28,12.3,12.3,0,0,1,6,.21,6.87,6.87,0,0,0,1.69.51c.81.08,1.71-.07,2.5,0a7.12,7.12,0,0,1,1.6.59,11.71,11.71,0,0,0,2.28.43c4.18.51,9.32.94,12.52-.2a14.87,14.87,0,0,1,3.17-1.14c1.35-.22,3.4.27,2.68.76-.21.14-.6.24-.74.39-.41.41,1.21.68,2.34.6a9.63,9.63,0,0,1,3.32,0c.71.26.57.71,1.11,1,1.54.9,6.41-.21,7.71.74-2.26.37-5,1.09-4.18,2a5.88,5.88,0,0,0,2.62.92l4.92,1a11.43,11.43,0,0,0,4,.31c1.28-.22,1.85-.82,3.11-1.06a16.22,16.22,0,0,1,4,.06c1.33.1,3,.05,3.59-.42.37-.31.12-.74.8-1a11.74,11.74,0,0,1,1.91-.21c1.44-.17,2.24-.9,3.75-.9a13.31,13.31,0,0,1,2.23.35c3.31.53,6.51-1.07,10.1-1.06,1,0,1.91.13,2.87.19,3.48.22,7.23-.44,9-1.59,1.28-.82,1.59-1.79,2.4-2.69a7.21,7.21,0,0,1,4.93-2,46.58,46.58,0,0,0,4.76-.1,11,11,0,0,0,2.21-.71,24.42,24.42,0,0,1,9-1.15c-1.12-.79.12-1.92,2.39-2.17a8,8,0,0,0,2.44-.41C1113.09,322.65,1112.07,322.15,1110.94,322Z"/><path class="cls-3" d="M1012.19,328.35c2-.31,4-1,6.11-.78a13.45,13.45,0,0,1,3.35.84,40,40,0,0,0,10.74,1.8,31.47,31.47,0,0,1,6.46.56c3,.83,3.18,2.85,6.75,3.19a10.71,10.71,0,0,0,7.16-2.08,10.8,10.8,0,0,1,7.5-1.72c.81.16,1.41.43,2.15.63,3.37.93,8,.13,11.6-.67,4.4-1,9.21-2.18,10.27-4.08a3.15,3.15,0,0,1,3.44-1.93,20.63,20.63,0,0,1,2.76.78,9.39,9.39,0,0,0,5.4-.95l7.83-3.59a7.29,7.29,0,0,0-3.26-.84,37.24,37.24,0,0,1-3.92.11c-1.78-.26-1.92-1.31-3.65-1.62a20.28,20.28,0,0,0-2.39-.13c-2.72-.14-4.73-1.32-3.94-2.32l-7.72-.64a9.76,9.76,0,0,0-1.79,0c-.53.05-1,.19-1.47.28-3.12.56-6.8-1-9.93-.49-1.63.29-2.34,1-3.91,1.38-2.1.44-5.15-.3-5-1.21.09-.48.32-1.23-.92-1.18.24.44-1.72.5-2.74.26-3.46-.82-.67-4.8-5.19-4-3.19.25-5.57-.64-8.34-.33a9.06,9.06,0,0,0-2.47.7l-8.58,3.44a4,4,0,0,0-1.62.91c-.24.32-.08.67-.24,1-.43.93-3.67,1.46-5.73.95-.66-.16-1.17-.4-1.87-.53a8.39,8.39,0,0,0-4.26.41,5.12,5.12,0,0,0-2.1,1.59c-.4.47-.8,1-.48,1.44.48.7,2.46,1.36,1.56,2-1.18.82-4.65.05-6.93.4a8.45,8.45,0,0,0-2.13.7,30.62,30.62,0,0,1-8.86,1.93,9.25,9.25,0,0,0-2.72.44c-.69.31-.6.77-.87,1.16a1.87,1.87,0,0,1-.76.55c1,.08,2,.15,3,.24C1000.5,327.49,1006.48,329.24,1012.19,328.35Z"/></g><path class="cls-4" d="M1110.94,321.87a38.13,38.13,0,0,1-3.86-.31,13,13,0,0,1-3.15-1.27,10.25,10.25,0,0,0-5.69-.8,5.22,5.22,0,0,1-3.37-.71,5.08,5.08,0,0,0-1.95-.92c-.76-.15-7.5-.23-6.24-2.24.07-.1,0-.21-.13-.22l-5.3-.44a18.94,18.94,0,0,0-4.63-.18,15.57,15.57,0,0,1-5,.14,36.23,36.23,0,0,0-4.28-.52c-2.86-.07-5.12,1.89-8,1.56a4.71,4.71,0,0,1-2-.51c-.57-.4-.29-.78-.45-1.24s-.5-.69-1.14-.71a.15.15,0,0,0-.15.19c.1.51-3.15-.09-3.44-.28-.81-.51-1-1.38-1.23-2.22-.46-1.38-1.43-1.57-2.8-1.43-3.15.31-6.38-.84-9.49-.13a30,30,0,0,0-4.38,1.64l-5.42,2.17c-.91.37-1.87.61-2.31,1.53-.36.77,0,.68-.56,1.06a3.25,3.25,0,0,1-.93.35,8.88,8.88,0,0,1-2.24.29c-1.48,0-2.72-.59-4.15-.78a8.17,8.17,0,0,0-3.7.36c-1.15.4-4.13,2.32-2.62,3.71.25.22,1.18.62,1.26.93s-.37.65-.54.75a2.74,2.74,0,0,1-1.07.13c-1.41.06-2.82-.14-4.23-.08a10.8,10.8,0,0,0-3.48.92,25.84,25.84,0,0,1-4.55,1.27c-1.74.33-3.48.42-5.23.64a2.65,2.65,0,0,0-2.23,1.11,2.91,2.91,0,0,1-2,1.31c-.57.15-1.16.25-1.74.35-1.45.23-2.92.35-4.38.51s-3.12.32-4.69.48c-.47,0-2.73,0-2.9.74-.37,1.6,4.73.61,5.26.52a11.82,11.82,0,0,1,2.3-.25,5.35,5.35,0,0,1,2.3.64c1.23.51,2.68-.2,3.91-.35a11.69,11.69,0,0,1,4.6.3c.54.16,1.05.42,1.61.54a17.78,17.78,0,0,0,2.53.07,7.34,7.34,0,0,1,2,.62,9.52,9.52,0,0,0,1.91.39c1.64.21,3.29.38,4.94.49,2.91.18,6,.23,8.74-.94a8.15,8.15,0,0,1,3.08-.89,3.41,3.41,0,0,1,1.28.13l.27.07c.27.34.23.53-.14.58-.25.39-.56.44,0,.78,1,.58,2.68.17,3.76.12a2.87,2.87,0,0,1,2.38.78,2.21,2.21,0,0,0,1,.6,12.33,12.33,0,0,0,3.43.14c1.15,0,2.68-.26,3.69.37l0-.27c-.65.11-4.86.58-4.39,2,.23.67,1.5.87,2,1,1.74.43,3.52.74,5.27,1.1a12.39,12.39,0,0,0,4.49.41c1.38-.24,2.52-1.07,3.95-1.16,2.07-.12,5.32,1,7-.54l0,0a1.12,1.12,0,0,1,1.19-.77,6.86,6.86,0,0,1,1-.07,6.92,6.92,0,0,0,1.62-.37,8.78,8.78,0,0,1,1.93-.53,11.15,11.15,0,0,1,2.63.33c3.11.47,6.13-.83,9.21-1,1.69-.11,3.38.19,5.07.2a20.89,20.89,0,0,0,4.66-.48,9.85,9.85,0,0,0,3.14-1.17c1.17-.74,1.64-2,2.6-2.88,2.75-2.67,6.59-1.16,9.88-1.94,1.61-.38,3.07-1.1,4.72-1.4a27.94,27.94,0,0,1,6.06-.37c.12,0,.21-.17.11-.25-.74-.62.27-1.38.83-1.59a6.84,6.84,0,0,1,1.84-.37c.56-.06,1.67,0,2.14-.4.91-.81-1.12-1.21-1.57-1.28-.19,0-.27.26-.08.29.49.08,2,.31,1,.92a6.29,6.29,0,0,1-1.86.21,5.22,5.22,0,0,0-2.24.68c-.71.47-1,1.15-.26,1.75l.11-.26a24.82,24.82,0,0,0-8.4.93,14.82,14.82,0,0,1-4.09,1,38.32,38.32,0,0,0-4.42.09,6.73,6.73,0,0,0-4.78,2.76c-1.91,2.62-5,3.22-8,3.39s-5.84-.39-8.81.16c-1.44.26-2.86.63-4.32.76a24.76,24.76,0,0,1-4.31-.39,8.22,8.22,0,0,0-3.12.65c-.92.28-2.6-.05-3.35.64-.28.26-.29.64-.63.9a3.92,3.92,0,0,1-2,.32c-1.49,0-3-.29-4.48-.2s-2.84,1.07-4.39,1.21a18.84,18.84,0,0,1-5.31-.72l-2.68-.56a7.16,7.16,0,0,1-2.61-.7c-1.09-.95.87-1.35,1.46-1.52a21.57,21.57,0,0,1,2.26-.47.16.16,0,0,0,0-.28c-2.35-1.47-6.15.92-8.14-1.22-1-1.11-2.69-.66-4.07-.59a7.67,7.67,0,0,1-1.27,0c-.24,0-.57,0-.68-.26s0-.06.17-.28.54-.19.46-.54c-.18-.85-2.41-.71-3-.63-1.75.25-3.26,1.3-5,1.6a27.67,27.67,0,0,1-6.56.15c-2.13-.15-4.64-.15-6.63-1a5.32,5.32,0,0,0-2.18-.51,10.15,10.15,0,0,1-3.33-.5,11.79,11.79,0,0,0-5.41-.36c-1.21.19-2.39.75-3.59.21a4.75,4.75,0,0,0-1.82-.54,11.63,11.63,0,0,0-2.76.25c-.58.11-1.16.23-1.74.31s-2.09.34-2.52-.08c-.78-.77.85-.78,1.26-.83.64-.07,1.29-.13,1.93-.18,1.11-.1,2.22-.23,3.33-.36,1.65-.18,3.31-.31,4.95-.59a5.71,5.71,0,0,0,3.42-1.4,3.58,3.58,0,0,1,1.36-1.18,8.68,8.68,0,0,1,2-.23c1.06-.1,2.12-.22,3.17-.39a26.62,26.62,0,0,0,5.89-1.61,13.14,13.14,0,0,1,5.81-.65c.76,0,2.85.28,3.34-.6s-1.08-1.28-1.43-1.73.11-1.51.55-2a5,5,0,0,1,1.31-1,7.42,7.42,0,0,1,3.45-.67c1.89,0,3.53.94,5.46.82.95-.06,2.66-.17,3.28-1,.17-.24,0-.21.19-.53a2.21,2.21,0,0,1,1.3-1.31c1.24-.55,2.51-1,3.77-1.52a64.13,64.13,0,0,1,6.49-2.54c2.23-.62,4.53-.09,6.78.08a15.57,15.57,0,0,0,2.73,0c.85-.09,1.88-.33,2.48.48s.46,1.76,1,2.5a3.35,3.35,0,0,0,2.61,1.09,5.77,5.77,0,0,0,1.66-.14c.09,0,.32-.34.27-.34l.35.3c.33.12.43.33.3.62,0,.06,0,.13,0,.19a.78.78,0,0,0,.05.34c.14.34.56.53.86.67a7.35,7.35,0,0,0,4.25.36,14.06,14.06,0,0,0,2.44-.92,7.84,7.84,0,0,1,3.56-.54c2.1.11,4.15.69,6.26.7a13.79,13.79,0,0,0,2.48-.31,15.92,15.92,0,0,1,4.25.11l3.38.28a6.08,6.08,0,0,1,1.93.16c.09,0,.18,0,.23,0s-.09.23-.06.29c1,3,6,1.44,8.15,2.84a6.7,6.7,0,0,0,4.73.9,8.72,8.72,0,0,1,3.45.32c1,.33,1.82.88,2.75,1.28,1.82.79,3.69.66,5.62.86C1111.14,322.19,1111.13,321.89,1110.94,321.87Z"/><g class="cls-1"><path class="cls-2" d="M533.52,301c1.86-.23,3.92-.14,5.74-.4a18.69,18.69,0,0,0,6.21-2.36l12.94,5.93c2.28,1,5.77,2.2,8.94,1.57,1.69-.34,2.69-1.12,4.55-1.28,3.71-.33,4.89,1.77,5.68,3.18,1.76,3.14,9.71,5.12,17,6.75,5.92,1.32,13.61,2.64,19.18,1.11a36.5,36.5,0,0,1,3.56-1c4.78-.92,9.78,1.07,12.39,2.85a17.76,17.76,0,0,0,11.83,3.43c5.91-.56,6.26-3.9,11.16-5.27,3-.84,7-.78,10.67-.93a66.61,66.61,0,0,0,17.76-3,22.2,22.2,0,0,1,5.54-1.4c3.54-.28,6.73.78,10.09,1.3,9.45,1.46,19.32-1.43,29.25-2.32,1.56-.14,3.25-.26,4.93-.4,3,1.36,9.73,1.73,13.41,2.21,2.89.41,5.85.5,8.74.9a7.64,7.64,0,0,1,1.74.38c1.4.61-.63,1.6-2.75,1.63a30.19,30.19,0,0,1-5.91-.81c-1.93-.35-4.53-.48-5.9.14a6.72,6.72,0,0,1-1.7.82,9.57,9.57,0,0,1-4-.46,20.37,20.37,0,0,0-10,.36,11.42,11.42,0,0,1-2.8.83c-1.33.14-2.83-.12-4.12.07a11.34,11.34,0,0,0-2.66,1,18.23,18.23,0,0,1-3.76.71c-6.92.84-15.41,1.57-20.69-.33-1.77-.63-3-1.52-5.25-1.88s-5.61.45-4.42,1.26a9.85,9.85,0,0,1,1.22.64c.68.68-2,1.13-3.88,1s-4.09-.45-5.48,0c-1.18.42-.94,1.17-1.83,1.68-2.55,1.48-10.59-.35-12.74,1.22,3.73.61,8.21,1.8,6.91,3.26-.65.72-2.57,1.16-4.35,1.52l-8.12,1.69a18.82,18.82,0,0,1-6.61.5c-2.12-.35-3.06-1.35-5.14-1.74a26.55,26.55,0,0,0-6.59.1c-2.21.17-5,.07-6-.71-.6-.51-.19-1.21-1.31-1.58a19.49,19.49,0,0,0-3.16-.34c-2.39-.28-3.7-1.49-6.2-1.49a23,23,0,0,0-3.68.58c-5.47.87-10.76-1.77-16.7-1.75-1.6,0-3.16.2-4.74.31-5.75.37-12-.73-14.94-2.63-2.12-1.35-2.63-3-4-4.45s-4.06-3-8.14-3.23c-2.61-.15-5.44.24-7.86-.17a19,19,0,0,1-3.66-1.17A40,40,0,0,0,539,307c1.85-1.31-.2-3.18-4-3.6-1.45-.16-3.23-.18-4-.67C530,302.07,531.66,301.25,533.52,301Z"/><path class="cls-3" d="M696.74,311.5c-3.36-.52-6.55-1.58-10.09-1.3a22.2,22.2,0,0,0-5.54,1.4,66.61,66.61,0,0,1-17.76,3c-3.68.15-7.69.09-10.67.93-4.9,1.37-5.25,4.71-11.16,5.27a17.76,17.76,0,0,1-11.83-3.43c-2.61-1.78-7.61-3.77-12.39-2.85a36.5,36.5,0,0,0-3.56,1c-5.57,1.53-13.26.21-19.18-1.11-7.27-1.63-15.22-3.61-17-6.75-.79-1.41-2-3.51-5.68-3.18-1.86.16-2.86.94-4.55,1.28-3.17.63-6.66-.53-8.94-1.57l-12.94-5.93a12,12,0,0,1,5.39-1.39c2.19,0,4.42.47,6.47.18,2.95-.42,3.19-2.15,6-2.67a31.36,31.36,0,0,1,4-.22c4.51-.23,7.82-2.18,6.51-3.83l12.76-1.07a16.3,16.3,0,0,1,3-.06c.88.09,1.61.32,2.44.47,5.16.91,11.24-1.72,16.41-.81,2.69.47,3.87,1.73,6.46,2.28,3.48.73,8.51-.5,8.21-2-.15-.78-.53-2,1.53-1.95-.4.74,2.83.83,4.53.43,5.72-1.34,1.1-7.92,8.57-6.52,5.28.42,9.22-1.06,13.79-.54a14.82,14.82,0,0,1,4.09,1.15l14.17,5.68a6.7,6.7,0,0,1,2.69,1.51c.38.53.13,1.1.38,1.64.71,1.53,6.07,2.41,9.48,1.57,1.08-.27,1.94-.66,3.09-.88a13.9,13.9,0,0,1,7,.68,8.41,8.41,0,0,1,3.47,2.63c.66.77,1.33,1.59.8,2.38-.79,1.15-4.08,2.25-2.58,3.3,1.94,1.36,7.69.08,11.46.67a13.77,13.77,0,0,1,3.51,1.15,50.34,50.34,0,0,0,14.65,3.18,16.2,16.2,0,0,1,4.5.73c1.13.52,1,1.28,1.44,1.93a3,3,0,0,0,1.24.9c-1.68.14-3.37.26-4.93.4C716.06,310.07,706.19,313,696.74,311.5Z"/></g><path class="cls-4" d="M533.52,301.18c3.31-.36,6.47-.13,9.57-1.55,1.33-.61,2.59-1.38,4-1.89a13.38,13.38,0,0,1,5.69-.64,18.5,18.5,0,0,0,5,0A9.41,9.41,0,0,0,561,295.5c2.91-1.89,6.74-.8,10-1.8a6.49,6.49,0,0,0,2.68-1.42,2.12,2.12,0,0,0,.5-.72c.13-.36-.06-.61,0-.93.09-.53-.34.2.14-.19a5,5,0,0,1,1.47-.12l3-.24,6.38-.53a19.31,19.31,0,0,1,5.63,0,18.3,18.3,0,0,0,4.84.42c3.5-.2,6.92-1.17,10.43-1.16a12.65,12.65,0,0,1,5.25,1.13,15.4,15.4,0,0,0,4.22,1.45c2.13.29,5.13.18,7-1.08a1.37,1.37,0,0,0,.74-1.19c0-.37-.25-.79-.09-1.17s1-.87,1.29-.71c0,0,0,.18,0,.21a7,7,0,0,0,5.25.14,4.41,4.41,0,0,0,2.85-3.06c.52-1.59.76-3.22,2.74-3.46a33.8,33.8,0,0,1,4.26.24,48.11,48.11,0,0,0,5.5-.41c3.52-.39,6.8-.51,10.15.81,3.78,1.47,7.54,3,11.3,4.52l2.74,1.1a7.63,7.63,0,0,1,2.89,1.44c.54.6.25,1.35.63,2a2.07,2.07,0,0,0,.75.66c2,1.22,4.94,1.32,7.17,1.11a22.89,22.89,0,0,0,3.92-1,12.81,12.81,0,0,1,5.81-.08,8.91,8.91,0,0,1,4.36,2.08,12.43,12.43,0,0,1,1.29,1.42c1.1,1.4.31,2.18-.8,2.94s-2.6,1.8-.83,2.65a7.28,7.28,0,0,0,3,.45c1.56,0,3.11-.1,4.66-.14a15.66,15.66,0,0,1,4.63.42c1.51.43,2.93,1.16,4.42,1.66a51.08,51.08,0,0,0,10.23,2.18c1.83.22,3.73.22,5.54.58a2.83,2.83,0,0,1,2.29,1.52,2.76,2.76,0,0,0,.86,1.22c1.8,1.39,4.77,1.57,6.93,1.86,2.76.37,5.53.62,8.29.95,2,.23,3.9.34,5.85.54a10.43,10.43,0,0,1,3,.42c2,.9-1,1.45-1.67,1.51-3.39.26-6.64-1.24-10-1.08a6.47,6.47,0,0,0-3,.89c-1.86,1-4,0-5.87-.31a19.47,19.47,0,0,0-8.72.46,13.51,13.51,0,0,1-4.71,1,9.39,9.39,0,0,0-4.27.63c-3.25,1.41-7.26,1.45-10.76,1.72a53.06,53.06,0,0,1-10.16,0,19.65,19.65,0,0,1-4.35-.95,43.74,43.74,0,0,0-4.41-1.72,9.16,9.16,0,0,0-3.65-.13c-.47.07-1.85.24-2,.88s.74.7,1.08,1c.77.65-.41.79-1,.88a11.93,11.93,0,0,1-2.8.08,17.24,17.24,0,0,0-4.48-.08,2.94,2.94,0,0,0-1.31.52c-.53.44-.7,1.08-1.35,1.42a7.3,7.3,0,0,1-3.24.52c-1.33,0-2.66,0-4-.07-1.66,0-3.9-.28-5.37.69-.09.07-.1.26,0,.28,2,.34,4.41.65,6.21,1.71.41.24,1,.61.72,1.17s-1.15.77-1.59.92a32.09,32.09,0,0,1-3.73.89c-2.67.55-5.33,1.14-8,1.65s-5.45.73-8.09-.44a12.62,12.62,0,0,0-5.78-1.14,55.4,55.4,0,0,1-7.05.27,7.18,7.18,0,0,1-1.58-.28c-.7-.23-.83-.52-1.23-1.16a1.8,1.8,0,0,0-1.28-.93c-1.06-.25-2.17-.13-3.24-.31a22,22,0,0,1-3.15-1c-2.08-.68-3.9-.34-6,0a21.29,21.29,0,0,1-7.87-.36c-2.31-.44-4.6-1-6.94-1.21a57.74,57.74,0,0,0-7.89.24c-4.42.17-9.69-.17-13.62-2.43-2-1.16-2.85-3.11-4.38-4.72A9.53,9.53,0,0,0,570,311a19.67,19.67,0,0,0-7.39-.93,20,20,0,0,1-8.09-1.12,38.37,38.37,0,0,0-15.48-2.1l.11.26c1.5-1.18.25-2.5-1.09-3.11a12.45,12.45,0,0,0-4.1-.85,6.37,6.37,0,0,1-2.39-.36c-1.67-1,1.44-1.5,2-1.59.19,0,.11-.32-.08-.29-.71.1-2.54.31-2.87,1.17s.78,1,1.28,1.11c1.61.37,3.29.25,4.89.69,1.21.34,3.94,1.58,2.11,3-.11.08,0,.26.1.25a38.19,38.19,0,0,1,15.23,2,17.6,17.6,0,0,0,6.77,1.24c2.71,0,5.4-.19,8,.59a9.61,9.61,0,0,1,5.21,3.54,11.44,11.44,0,0,0,4.12,4c4,2,9,2.39,13.47,2.19a48.62,48.62,0,0,1,8.53-.13c2.66.34,5.25,1,7.89,1.43a19.08,19.08,0,0,0,6.74-.09,9.72,9.72,0,0,1,4.19-.21c1.11.23,2.15.74,3.24,1a15.08,15.08,0,0,0,3.06.39c1.23.1,1.63.16,2.32,1.18a2.42,2.42,0,0,0,.4.6c1.21,1.08,3.83.85,5.28.78,2.67-.12,5.46-.73,8.09,0,.88.25,1.69.69,2.55,1a9.47,9.47,0,0,0,3.61.66c2.93,0,5.86-.84,8.71-1.43,1.57-.33,3.15-.64,4.72-1a12.42,12.42,0,0,0,3.33-1c.91-.5,1.26-1.28.37-2-1.72-1.38-4.6-1.65-6.68-2l0,.27c1.33-.89,3.37-.68,4.9-.65,1.8,0,3.61.16,5.4,0a4,4,0,0,0,3.16-1.32c1.63-2.16,5.23-.89,7.56-1,.58,0,3.07,0,3.09-1,0-.46-.64-.53-.9-.73-.84-.65-.16-.91.53-1.08a8.46,8.46,0,0,1,1.95-.24c2.42,0,4.37,1.18,6.57,2a22.7,22.7,0,0,0,6.34,1.12,80.76,80.76,0,0,0,15.06-.87,14.27,14.27,0,0,0,3.3-.7,9.65,9.65,0,0,1,3.66-1,20,20,0,0,0,3.37-.07c1.09-.2,2.09-.72,3.15-1a19.73,19.73,0,0,1,7.38-.43c2,.23,4.41,1.44,6.4.59a8.47,8.47,0,0,1,2.94-1,16.5,16.5,0,0,1,4,.25c2.24.38,4.53,1.06,6.83.76.5-.07,3-.52,2.36-1.56-.35-.53-1.49-.58-2-.65-1.36-.2-2.74-.33-4.11-.45-4.73-.4-9.57-.81-14.25-1.62a24.1,24.1,0,0,1-2.77-.63,7.78,7.78,0,0,1-1.17-.43,3,3,0,0,1-1.6-1.73c-.78-1.57-2.88-1.61-4.42-1.74-5.39-.49-10.8-1.21-15.85-3.29a15.38,15.38,0,0,0-5.93-1.32c-2.23,0-4.48.28-6.7.12-.69-.05-2.38-.14-2.49-1s1.49-1.5,2.09-2c1.43-1.12.87-2.16-.19-3.38a11.29,11.29,0,0,0-11.18-3.1c-1,.27-2,.68-3.09.87a14.17,14.17,0,0,1-3.74.14,12.75,12.75,0,0,1-3.11-.59,5.81,5.81,0,0,1-1.12-.48c-.67-.42-.65-.88-.85-1.61-.53-1.88-3.25-2.4-4.86-3l-8.23-3.3c-2.44-1-4.94-2.26-7.55-2.7a25.36,25.36,0,0,0-7.12.11,35,35,0,0,1-8,.22,4.34,4.34,0,0,0-3.36.59,4.61,4.61,0,0,0-1.18,2.36,4.7,4.7,0,0,1-2.19,3.26,7,7,0,0,1-2.95.64c-.31,0-2.75.05-2.58-.46a.15.15,0,0,0-.15-.19c-.78,0-1.64.12-1.79,1a4.4,4.4,0,0,0,.09,1c0,.84-.7,1.18-1.42,1.47a12,12,0,0,1-4.9.71,14.93,14.93,0,0,1-5.48-1.64c-3.26-1.42-6.68-1.07-10.11-.56a48.16,48.16,0,0,1-6.22.72c-1.93,0-3.73-.58-5.63-.69a53.32,53.32,0,0,0-7.46.5l-7.85.66a.15.15,0,0,0-.13.22c1.1,1.58-1.7,2.66-2.78,3a26.54,26.54,0,0,1-6.29.69,7.66,7.66,0,0,0-4,1.3,8.11,8.11,0,0,1-5.11,1.59,40.5,40.5,0,0,0-6-.16,13.86,13.86,0,0,0-4.42,1.46,20.7,20.7,0,0,1-5,2,65.63,65.63,0,0,1-6.57.55C533.33,300.9,533.32,301.2,533.52,301.18Z"/><g class="cls-1"><path class="cls-2" d="M367.31,355.81c.72-.08,1.52-.05,2.22-.15a7.22,7.22,0,0,0,2.41-.92l5,2.3a6,6,0,0,0,3.47.61,14.53,14.53,0,0,1,1.76-.5,2,2,0,0,1,2.21,1.24c.68,1.22,3.76,2,6.58,2.61,2.29.52,5.27,1,7.43.43.47-.13.86-.3,1.38-.4a6.85,6.85,0,0,1,4.8,1.1,6.89,6.89,0,0,0,4.59,1.34c2.29-.22,2.42-1.52,4.32-2.05a20.4,20.4,0,0,1,4.14-.36,25.59,25.59,0,0,0,6.88-1.15,8.56,8.56,0,0,1,2.15-.54,16.43,16.43,0,0,1,3.91.5c3.66.57,7.49-.55,11.34-.9l1.91-.15c1.15.53,3.77.67,5.19.86,1.12.15,2.27.19,3.39.34a3.46,3.46,0,0,1,.68.15c.54.24-.25.62-1.07.63a11.19,11.19,0,0,1-2.29-.31,4.6,4.6,0,0,0-2.29.05,2.14,2.14,0,0,1-.66.32,3.58,3.58,0,0,1-1.55-.18,7.86,7.86,0,0,0-3.87.14,4.39,4.39,0,0,1-1.09.32c-.51.06-1.09,0-1.59,0a4.26,4.26,0,0,0-1,.38,7.31,7.31,0,0,1-1.46.27c-2.68.33-6,.61-8-.13a10.12,10.12,0,0,0-2-.73c-.86-.14-2.17.18-1.71.49.13.09.38.15.47.25.27.26-.77.44-1.5.39a6.22,6.22,0,0,0-2.12,0c-.46.16-.37.45-.71.65-1,.58-4.11-.14-4.94.47,1.44.24,3.18.7,2.68,1.26a3.85,3.85,0,0,1-1.69.6l-3.15.65a7.33,7.33,0,0,1-2.56.19c-.82-.13-1.19-.52-2-.67a10,10,0,0,0-2.56,0A4.19,4.19,0,0,1,404,365c-.23-.19-.08-.46-.51-.61a7.25,7.25,0,0,0-1.22-.13c-.93-.11-1.44-.58-2.4-.58a9.28,9.28,0,0,0-1.43.22c-2.12.34-4.17-.68-6.47-.67-.63,0-1.23.08-1.84.12a11,11,0,0,1-5.79-1c-.82-.52-1-1.15-1.54-1.72a4.64,4.64,0,0,0-3.16-1.26c-1-.06-2.11.09-3.05-.06a7.17,7.17,0,0,1-1.42-.46,15.42,15.42,0,0,0-5.78-.73c.72-.51-.08-1.24-1.53-1.4a5,5,0,0,1-1.57-.26C365.93,356.22,366.59,355.9,367.31,355.81Z"/><path class="cls-3" d="M430.57,359.87a16.43,16.43,0,0,0-3.91-.5,8.56,8.56,0,0,0-2.15.54,25.59,25.59,0,0,1-6.88,1.15,20.4,20.4,0,0,0-4.14.36c-1.9.53-2,1.83-4.32,2.05a6.89,6.89,0,0,1-4.59-1.34,6.85,6.85,0,0,0-4.8-1.1c-.52.1-.91.27-1.38.4-2.16.6-5.14.09-7.43-.43-2.82-.63-5.9-1.39-6.58-2.61a2,2,0,0,0-2.21-1.24,14.53,14.53,0,0,0-1.76.5A6,6,0,0,1,377,357l-5-2.3a4.68,4.68,0,0,1,2.09-.53,23.74,23.74,0,0,0,2.51.07c1.14-.17,1.23-.84,2.34-1a14.82,14.82,0,0,1,1.53-.09c1.74-.08,3-.84,2.52-1.48l4.95-.41a6.32,6.32,0,0,1,1.15,0c.34,0,.62.13.94.19,2,.35,4.36-.67,6.36-.32,1,.18,1.5.67,2.5.88,1.35.29,3.3-.19,3.19-.77-.06-.31-.21-.79.59-.76-.16.29,1.1.32,1.75.17,2.22-.52.43-3.07,3.33-2.53,2,.16,3.57-.41,5.34-.21a5.38,5.38,0,0,1,1.58.45l5.5,2.2a2.56,2.56,0,0,1,1,.58c.15.21.05.43.15.64.27.59,2.35.93,3.67.61.42-.11.75-.26,1.2-.35a5.43,5.43,0,0,1,2.73.27,3.15,3.15,0,0,1,1.34,1c.26.3.52.62.31.92s-1.58.87-1,1.28c.75.53,3,0,4.43.26a5.66,5.66,0,0,1,1.37.44,19.35,19.35,0,0,0,5.68,1.24,6,6,0,0,1,1.74.28c.44.2.38.5.56.75a1.17,1.17,0,0,0,.48.35l-1.91.15C438.06,359.32,434.23,360.44,430.57,359.87Z"/></g><path class="cls-4" d="M367.31,356a11.85,11.85,0,0,0,3.46-.48c.67-.27,1.28-.68,2-.9a6.69,6.69,0,0,1,2.56-.15,4.2,4.2,0,0,0,2.73-.69c1.29-.73,2.9-.22,4.26-.84.59-.27.58-.47.9-.9-.1.13,0-.28,0-.24a4.79,4.79,0,0,1,.77,0c1-.05,2-.17,3-.25a9.81,9.81,0,0,1,2.42-.06,13.9,13.9,0,0,0,1.42.21c1.5.05,2.95-.42,4.44-.46,2.13-.06,4.37,1.94,6.52.65a6,6,0,0,0,.77-1.28c-.08,0,.21.2.19.2a10.5,10.5,0,0,0,1.14.1,2.25,2.25,0,0,0,1.62-.67c.39-.47.33-1.11.67-1.59s1-.4,1.61-.35a12.11,12.11,0,0,0,2.17-.05,9.8,9.8,0,0,1,4.72.28c1.53.59,3.05,1.22,4.57,1.83a8.55,8.55,0,0,1,1.21.5l.29.13a1,1,0,0,1,.5.86,1.5,1.5,0,0,0,.52.45c2.24,1.2,4.62-.67,6.91.08.57.19,2.14,1.05,1.73,1.94-.15.33-.75.38-.93.72s-.1.55.28.75a5.62,5.62,0,0,0,2.58.13,11.62,11.62,0,0,1,4.11.86,20,20,0,0,0,3.77.78,9,9,0,0,1,2.34.27c.62.27.56.66,1,1a5.68,5.68,0,0,0,2.65.72c1.13.15,2.26.26,3.4.39.8.09,1.61.13,2.42.22.2,0,1.11-.05.81.43-.17.29-1.64,0-1.85,0a7.7,7.7,0,0,0-3.23-.24,3.79,3.79,0,0,1-2,.32,14.55,14.55,0,0,0-1.47-.25,10.57,10.57,0,0,0-3.54.54c-.73.17-1.48,0-2.2.16a19.07,19.07,0,0,1-2.25.59,34.28,34.28,0,0,1-4.85.34,13.86,13.86,0,0,1-4.41-1c-.61-.21-2-.51-2.55,0s.17.31.22.66-3,.07-3.41.28-.77.73-1.45.84a8.88,8.88,0,0,1-1.71,0,4.88,4.88,0,0,0-2.49.27c-.1.07-.09.26,0,.28.52.09,2.41.27,2.43.91s-2.42.86-3,1a17,17,0,0,1-3.24.56,12.92,12.92,0,0,1-2.83-.72,10.62,10.62,0,0,0-2.58,0,8.83,8.83,0,0,1-1.15,0c-.68-.05-.83-.36-1.3-.7a1.52,1.52,0,0,0-.78-.27c-.9-.14-1.72-.4-2.6-.57a4.53,4.53,0,0,0-1.72.09,9.27,9.27,0,0,1-3.44-.14c-.76-.15-1.51-.32-2.28-.41a23,23,0,0,0-3.32.08c-1.77.05-4.15-.05-5.57-1.24-1-.84-1.34-1.88-2.63-2.39-1.93-.76-4-.07-6-.78a16,16,0,0,0-6.15-.86l.11.25a.64.64,0,0,0,0-1.06,3,3,0,0,0-1.61-.58l-.57-.06a5.1,5.1,0,0,1-.77-.11.7.7,0,0,1,.75-.45c.19,0,.11-.33-.08-.29-.45.08-1,.14-1.19.56a.15.15,0,0,0,0,.18,1.07,1.07,0,0,0,.75.36c.15,0,3.45.33,2.46,1.24a.16.16,0,0,0,.11.26,19.09,19.09,0,0,1,6.58,1c2,.62,4.33-.31,6.2,1,.65.45,1,1.15,1.49,1.7a4.18,4.18,0,0,0,1.72,1,15.19,15.19,0,0,0,5.89.45c2.18-.14,4.22.76,6.38.71,1.05,0,2-.44,3.07-.15a16,16,0,0,1,2.6.7c.45.22.62.53,1.1.68a8.46,8.46,0,0,0,2.75,0c2-.13,3.48.94,5.45.66,1.26-.18,2.51-.5,3.76-.76.45-.1,1.72-.2,2-.71.59-1.09-2.28-1.39-2.77-1.48l0,.27c1.4-.8,3.31.28,4.76-.39a3.3,3.3,0,0,0,.43-.3,3.25,3.25,0,0,1,2.32-.45c.55,0,1.41.12,1.84-.31a.17.17,0,0,0,0-.14c-.11-.3-.55-.28-.13-.62.62-.48,2.08.23,2.66.48a9.74,9.74,0,0,0,3.34.67,30.31,30.31,0,0,0,4.46-.24c1.41-.15,2.88-.75,4.26-.76s2.56-.65,3.95-.64c1.13,0,2.39.62,3.5.24a4.43,4.43,0,0,1,2.25-.31c.62.08,1.23.24,1.86.32s2.06.21,2.17-.57a.16.16,0,0,0-.07-.17c-.63-.49-1.86-.4-2.61-.47-1.18-.1-2.36-.25-3.53-.37a10.59,10.59,0,0,1-2.86-.49c-.74-.31-1-1.1-1.78-1.36a22.64,22.64,0,0,0-3.49-.43,18.41,18.41,0,0,1-3.65-1,6.37,6.37,0,0,0-2.43-.51c-.49,0-1,0-1.46,0s-2,.2-1.61-.66c.2-.44.87-.36.87-1s-.74-1.13-1.12-1.41a4.11,4.11,0,0,0-2-.69c-1.19-.13-2.14.37-3.29.48a4.79,4.79,0,0,1-1.85-.12,1.26,1.26,0,0,1-.76-.46c-.25-.27-.23-.48-.43-.69a5.49,5.49,0,0,0-2-1c-2.18-.88-4.61-2.32-7-2.33-1.37,0-2.71.34-4.08.28-.66,0-1.52-.31-2.09.18a2.28,2.28,0,0,0-.53,1.09,1.65,1.65,0,0,1-.61,1c-.05,0-2.15.67-2.16.24a.15.15,0,0,0-.15-.15c-.38,0-.55.05-.76.36-.11.16,0,.23,0,.38-.22.58-.49.65-1.05.77-2,.44-3.48-.93-5.41-.93s-3.91.59-6,.26-4.4.21-6.46.38a.15.15,0,0,0-.13.22c.68,1.23-3.57,1.27-4,1.36a3.89,3.89,0,0,0-1.19.54,4,4,0,0,1-2.56.47,5.9,5.9,0,0,0-3.08.44,14,14,0,0,1-1.9.83,15.45,15.45,0,0,1-2.8.28C367.12,355.68,367.11,356,367.31,356Z"/><g class="cls-1"><path class="cls-2" d="M680.71,376.58c-.37,0-.78,0-1.14-.07a3.67,3.67,0,0,1-1.23-.47l-2.57,1.17a3.13,3.13,0,0,1-1.78.32,6.26,6.26,0,0,0-.9-.26,1,1,0,0,0-1.13.64c-.35.62-1.93,1-3.38,1.34a8.84,8.84,0,0,1-3.81.22,6.6,6.6,0,0,0-.71-.21,3.5,3.5,0,0,0-2.46.57,3.54,3.54,0,0,1-2.35.68c-1.18-.11-1.25-.78-2.22-1.05a10,10,0,0,0-2.12-.18,13.82,13.82,0,0,1-3.53-.59,3.94,3.94,0,0,0-1.1-.28,7.91,7.91,0,0,0-2,.26c-1.87.29-3.84-.29-5.81-.47l-1-.08a12.11,12.11,0,0,1-2.66.45c-.58.08-1.17.09-1.74.17a1.51,1.51,0,0,0-.35.08c-.28.12.13.32.55.32a5.5,5.5,0,0,0,1.17-.16,2.44,2.44,0,0,1,1.18,0c.12.05.17.13.33.16a1.82,1.82,0,0,0,.8-.09,4.15,4.15,0,0,1,2,.07,2.38,2.38,0,0,0,.55.17c.27,0,.56,0,.82,0a3,3,0,0,1,.53.19,3.68,3.68,0,0,0,.75.15,10.4,10.4,0,0,0,4.11-.07,4.69,4.69,0,0,1,1-.37c.45-.08,1.12.09.88.25a1.34,1.34,0,0,0-.24.12c-.14.14.4.23.77.2a3.29,3.29,0,0,1,1.09,0c.23.09.19.23.36.34.51.29,2.11-.07,2.53.24-.74.12-1.63.36-1.37.65a2,2,0,0,0,.87.3l1.61.33a3.41,3.41,0,0,0,1.31.1c.43-.07.61-.26,1-.34a4.81,4.81,0,0,1,1.31,0,2.27,2.27,0,0,0,1.18-.14c.12-.1,0-.24.26-.32a3.85,3.85,0,0,1,.63-.06c.47-.06.73-.3,1.23-.3a4.43,4.43,0,0,1,.73.11c1.09.18,2.14-.35,3.32-.34.32,0,.63,0,.94.06a5.76,5.76,0,0,0,3-.52c.42-.27.52-.59.79-.89a2.41,2.41,0,0,1,1.62-.64c.52,0,1.08,0,1.56,0a3.47,3.47,0,0,0,.73-.24,8,8,0,0,1,3-.37c-.36-.26,0-.64.79-.72a2.72,2.72,0,0,0,.8-.13C681.42,376.79,681.08,376.63,680.71,376.58Z"/><path class="cls-3" d="M648.27,378.67a7.91,7.91,0,0,1,2-.26,3.94,3.94,0,0,1,1.1.28,13.82,13.82,0,0,0,3.53.59,10,10,0,0,1,2.12.18c1,.27,1,.94,2.22,1.05a3.54,3.54,0,0,0,2.35-.68,3.5,3.5,0,0,1,2.46-.57,6.6,6.6,0,0,1,.71.21,8.84,8.84,0,0,0,3.81-.22c1.45-.33,3-.72,3.38-1.34a1,1,0,0,1,1.13-.64,6.26,6.26,0,0,1,.9.26,3.13,3.13,0,0,0,1.78-.32l2.57-1.17a2.34,2.34,0,0,0-1.07-.28c-.44,0-.88.09-1.29,0-.59-.09-.63-.43-1.2-.53a5,5,0,0,0-.79,0c-.89,0-1.55-.43-1.29-.76l-2.54-.21a2.81,2.81,0,0,0-.58,0,3.86,3.86,0,0,0-.49.09c-1,.18-2.23-.34-3.26-.16-.53.09-.77.34-1.28.45-.69.15-1.69-.1-1.64-.4s.11-.4-.3-.39c.08.15-.56.17-.9.09-1.14-.27-.22-1.57-1.7-1.3-1,.09-1.83-.21-2.74-.1a2.64,2.64,0,0,0-.82.23l-2.81,1.12a1.57,1.57,0,0,0-.54.3c-.07.11,0,.22-.07.33-.14.3-1.21.48-1.89.31-.21-.05-.38-.13-.61-.17a2.79,2.79,0,0,0-1.4.13,1.8,1.8,0,0,0-.69.52c-.13.16-.26.32-.16.48s.81.45.51.65-1.52,0-2.27.14a2.89,2.89,0,0,0-.7.22,10,10,0,0,1-2.91.64,3.54,3.54,0,0,0-.9.14c-.22.11-.19.26-.28.39a.72.72,0,0,1-.25.17l1,.08C644.43,378.38,646.4,379,648.27,378.67Z"/></g><path class="cls-4" d="M680.71,376.43a7,7,0,0,1-2.3-.52,3.17,3.17,0,0,0-1.36-.29,2.94,2.94,0,0,1-1.51-.15c-.15-.06-.25-.2-.42-.25-.46-.14-2.43-.25-2.27-.72a.16.16,0,0,0-.15-.19,20.72,20.72,0,0,0-3.14-.22,9.23,9.23,0,0,1-1.66.07,10.53,10.53,0,0,0-1.68-.18c-.87,0-2.06.95-2.87.43-.46-.31-.14-.59-.7-.72a.15.15,0,0,0-.17.07c-.6.87-1.23-.79-1.52-1.09s-.58-.2-1-.2c-.79,0-1.57-.14-2.36-.13a5.88,5.88,0,0,0-2,.58,21.24,21.24,0,0,0-2.21.89c-.4.22-.57.69-1,.85-1.28.48-2.54-.75-3.78.25-.26.21-.58.5-.49.86s.88.34,0,.63c-.47.16-1.12-.08-1.62,0-.92.17-1.75.61-2.68.75a7.23,7.23,0,0,0-1.89.3c-.27.13-.41.47-.69.6a4.35,4.35,0,0,1-1.19.22c-.84.11-1.68.16-2.52.26-.35,0-.79,0-1,.34a.16.16,0,0,0,.05.21,1.89,1.89,0,0,0,1.15.17,6.77,6.77,0,0,1,2,0,6.47,6.47,0,0,0,1.69-.09,6.76,6.76,0,0,1,1.85.31,23.13,23.13,0,0,0,3.9.51,7.81,7.81,0,0,0,1.74-.07,5.57,5.57,0,0,0,1-.29l.32-.14a.87.87,0,0,1,.91,0,.15.15,0,0,0-.07.13v.09a.16.16,0,0,0,.11.15,3,3,0,0,0,1,.1,3,3,0,0,1,1.08.23c.07,0,.07.1.14.12.8.26,1.74-.12,2.5.23l0-.27c-.29.05-1.55.16-1.51.69s1.8.71,2.22.8a5.41,5.41,0,0,0,1.79.18,7.35,7.35,0,0,0,.9-.25,4.4,4.4,0,0,1,1.4-.07,8.68,8.68,0,0,0,2.57-.65,13.24,13.24,0,0,1,2.27,0c.77-.05,1.51-.32,2.29-.35,1.32-.06,2.68.25,3.94-.35a2.35,2.35,0,0,0,.77-.63,2.76,2.76,0,0,1,2.42-1c1.6,0,3-.68,4.66-.64a.15.15,0,0,0,.11-.26c-.06-.08,1.54-.44,1.67-.84a.14.14,0,0,0-.07-.16,1.09,1.09,0,0,0-.58-.22c-.18,0-.26.25-.08.29.35.08-.79.29-.7.26-.14.05-.46.16-.55.33s-.07.34.1.55l.1-.25a10.5,10.5,0,0,0-3.34.51c-1,.27-2-.05-3,.38s-1.17,1.33-2.26,1.63c-1.28.35-2.58,0-3.88.19a11.23,11.23,0,0,1-2,.3,7.58,7.58,0,0,0-1.5-.11,10.67,10.67,0,0,0-1.79.53c-1.07.39-2.27.21-3.41.48a5.89,5.89,0,0,1-2.56-.25c-.11,0-.7-.07-.76-.16-.29-.51.69-.55.86-.59a.15.15,0,0,0,0-.27,2.44,2.44,0,0,0-1-.16c-.26,0-.51,0-.77,0-.48,0-.6-.19-1-.33a2.49,2.49,0,0,0-.91-.17,8.27,8.27,0,0,0-.84,0s.11-.19.09-.15a.16.16,0,0,0-.05-.21c-.76-.52-1.64.1-2.38.3a10.15,10.15,0,0,1-4.71-.27c-.55-.14-1.12-.15-1.67-.27a4.82,4.82,0,0,0-1.36-.16c-1,0-2-.08-3,0-.16,0-1.34.18-.68,0a6.5,6.5,0,0,1,1.09-.1c.52-.06,1-.11,1.57-.18a4,4,0,0,0,1.17-.29c.51-.25.7-.61,1.35-.68a12.84,12.84,0,0,0,2-.34,9.79,9.79,0,0,1,2.19-.56c.53,0,1.53.27,1.87-.3a.14.14,0,0,0,0-.15,1.24,1.24,0,0,1-.14-.18c-.08-.37-.18.28-.15-.48,0-.45.32-.61.76-.74.84-.24,1.64.25,2.49.2,1.13-.07,1.18-.78,2.12-1.16s1.6-.67,2.41-1a5.47,5.47,0,0,1,2.48-.14c.87.08,1.44-.17,1.95.61.16.24.19.44.47.6a2.3,2.3,0,0,0,1,.15c.53.05,0-.15.41.13.09.08.14.26.28.36a2.28,2.28,0,0,0,1.52.17,7.32,7.32,0,0,1,2.46-.43,9.23,9.23,0,0,0,2.1.13,13.59,13.59,0,0,1,2.3,0,3.78,3.78,0,0,1,1.07.09s0,.17,0,.2a2.53,2.53,0,0,0,1,.53,7.12,7.12,0,0,1,1.65.28,4.68,4.68,0,0,0,.59.3,4,4,0,0,0,1,0,4.87,4.87,0,0,1,1.84.44,6.13,6.13,0,0,0,2,.36C680.91,376.75,680.91,376.45,680.71,376.43Z"/><g class="cls-1"><path class="cls-2" d="M1111,374.29c-.65-.05-1.38,0-2-.09a8.81,8.81,0,0,1-2.2-.58l-4.58,1.44a7.7,7.7,0,0,1-3.17.39,14.79,14.79,0,0,0-1.61-.32,2,2,0,0,0-2,.78c-.62.76-3.44,1.24-6,1.64a22.62,22.62,0,0,1-6.79.27c-.44-.08-.79-.19-1.27-.26a8.63,8.63,0,0,0-4.38.7,8.47,8.47,0,0,1-4.19.83c-2.1-.13-2.22-.94-4-1.28a27.21,27.21,0,0,0-3.78-.23,33.23,33.23,0,0,1-6.29-.72,11.82,11.82,0,0,0-2-.34,21,21,0,0,0-3.57.32c-3.35.35-6.84-.35-10.36-.57l-1.75-.09a31.87,31.87,0,0,1-4.74.54c-1,.09-2.08.12-3.1.21a4.47,4.47,0,0,0-.62.1c-.49.14.23.39,1,.39a13.85,13.85,0,0,0,2.09-.2,6.24,6.24,0,0,1,2.09,0,3.51,3.51,0,0,0,.6.2,4.82,4.82,0,0,0,1.42-.11,10.44,10.44,0,0,1,3.54.08,5.9,5.9,0,0,0,1,.21c.47,0,1,0,1.46,0a5.81,5.81,0,0,1,.94.24,9.57,9.57,0,0,0,1.34.17,26.45,26.45,0,0,0,7.32-.08,12.64,12.64,0,0,1,1.86-.46c.79-.08,2,.11,1.57.31-.12.06-.35.1-.44.16s.71.27,1.38.24a8.31,8.31,0,0,1,1.94,0c.42.1.33.29.65.41.9.36,3.75-.09,4.51.3-1.32.14-2.91.43-2.45.79a4.52,4.52,0,0,0,1.54.37l2.88.41a9.58,9.58,0,0,0,2.34.12c.75-.08,1.08-.33,1.82-.42a14.12,14.12,0,0,1,2.34,0,5.49,5.49,0,0,0,2.1-.17c.21-.12.07-.29.46-.38a9.24,9.24,0,0,1,1.12-.09c.85-.06,1.32-.36,2.2-.36a10.56,10.56,0,0,1,1.3.14c1.94.21,3.81-.43,5.92-.42.57,0,1.12.05,1.68.07a14,14,0,0,0,5.29-.64,5.59,5.59,0,0,0,1.41-1.08,5.23,5.23,0,0,1,2.88-.78c.92,0,1.93.05,2.78,0a9.45,9.45,0,0,0,1.3-.28,20.15,20.15,0,0,1,5.28-.46c-.65-.32.08-.78,1.41-.88a6.4,6.4,0,0,0,1.42-.16C1112.26,374.55,1111.66,374.35,1111,374.29Z"/><path class="cls-3" d="M1053.2,376.84a21,21,0,0,1,3.57-.32,11.82,11.82,0,0,1,2,.34,33.23,33.23,0,0,0,6.29.72,27.21,27.21,0,0,1,3.78.23c1.74.34,1.86,1.15,4,1.28a8.47,8.47,0,0,0,4.19-.83,8.63,8.63,0,0,1,4.38-.7c.48.07.83.18,1.27.26a22.62,22.62,0,0,0,6.79-.27c2.57-.4,5.39-.88,6-1.64a2,2,0,0,1,2-.78,14.79,14.79,0,0,1,1.61.32,7.7,7.7,0,0,0,3.17-.39l4.58-1.44a6.24,6.24,0,0,0-1.91-.34c-.77,0-1.56.12-2.29.05-1-.1-1.13-.53-2.14-.65-.43-.05-.93,0-1.4-.06-1.59-.05-2.77-.53-2.3-.93l-4.52-.26a7.37,7.37,0,0,0-1,0c-.31,0-.57.08-.86.11-1.83.23-4-.41-5.82-.19-1,.11-1.36.42-2.28.55-1.23.18-3-.12-2.91-.49,0-.19.19-.49-.54-.47.14.18-1,.2-1.61.1-2-.32-.39-1.92-3-1.58-1.87.1-3.26-.26-4.89-.14a8,8,0,0,0-1.44.28l-5,1.39a2.68,2.68,0,0,0-1,.36c-.14.13,0,.27-.14.4-.25.37-2.15.59-3.36.38-.38-.06-.68-.16-1.09-.21a7.13,7.13,0,0,0-2.49.16,3.29,3.29,0,0,0-1.23.64c-.24.19-.47.39-.28.58s1.44.55.91.81c-.69.33-2.72,0-4.06.16a6,6,0,0,0-1.24.28,25,25,0,0,1-5.19.77,7.51,7.51,0,0,0-1.59.18c-.41.13-.35.31-.51.47a1.34,1.34,0,0,1-.45.22l1.75.09C1046.36,376.49,1049.85,377.19,1053.2,376.84Z"/></g><path class="cls-4" d="M1111,374.14a15.31,15.31,0,0,1-4-.61,8.23,8.23,0,0,0-3-.37,5.18,5.18,0,0,1-2.25-.23,5.06,5.06,0,0,0-1.21-.4c-.42-.06-4-.25-3.61-.76.07-.1,0-.22-.13-.23a51.93,51.93,0,0,0-5.57-.27,21.87,21.87,0,0,1-2.92.1c-.91-.08-1.82-.22-2.75-.23-1.74,0-3.28.84-5,.58a1.24,1.24,0,0,1-1-.44s0-.16,0-.21a.87.87,0,0,0-.71-.29.15.15,0,0,0-.15.11c0,.11-1.07,0-1.17,0a1.55,1.55,0,0,1-1.3-.68c-.19-.29-.22-.6-.54-.81a2.48,2.48,0,0,0-1.48-.13c-1.18.05-2.34-.09-3.51-.14-2.25-.11-4.37.71-6.51,1.29a6.55,6.55,0,0,0-2.39.79c-.13.11-.17.3-.33.43a2.83,2.83,0,0,1-1.71.38c-1.82.05-3.53-.71-5.33,0-.52.2-1.71.79-1.12,1.42.13.14.71.26.69.46s-1,.17-1.22.17a23.43,23.43,0,0,0-2.65,0c-.83.1-1.63.4-2.45.57a27.53,27.53,0,0,1-3.94.48,4.22,4.22,0,0,0-2,.4,3.35,3.35,0,0,1-1.36.64,15,15,0,0,1-1.64.19c-1.13.1-2.27.19-3.4.26-.84.05-2.1-.11-2.84.34a.16.16,0,0,0-.06.21c.43.6,1.74.37,2.34.31s1.29-.19,2-.2a10.11,10.11,0,0,1,1.76.3c1.18.17,2.42-.28,3.62-.2a17.47,17.47,0,0,1,1.92.32c.62.11,1.24,0,1.85.09a42.51,42.51,0,0,0,7.56.58,16.81,16.81,0,0,0,3.15-.58,5.13,5.13,0,0,1,1.41-.16l.56.06c.13,0,.13.06,0,.08s-.24.23-.24.22a.16.16,0,0,0,.07.17,3.89,3.89,0,0,0,1.89.17,9.13,9.13,0,0,1,2.51.53c1.33.29,2.85-.3,4.14.2l0-.29c-.44.05-2.66.11-2.67.79s2.25.74,2.68.8c1.74.25,3.52.67,5.26.19s3.46.26,5-.27c.39-.13.64-.43,1.06-.52a25.58,25.58,0,0,1,2.61-.36c1-.1,2.07.18,3.12.12s2-.24,2.93-.35c3.08-.34,7,.83,9.61-1.41,1.73-1.52,3.91-.91,6-1.16.92-.11,1.81-.42,2.73-.55a23.35,23.35,0,0,1,3.83-.19.15.15,0,0,0,.08-.28c-.6-.4,1.85-.65,1.33-.6.32,0,.65,0,1-.07a1.2,1.2,0,0,0,.67-.23.14.14,0,0,0,0-.21c-.24-.31-.75-.31-1.11-.36-.19,0-.18.28,0,.3,1.56.2-.55.25-1,.32s-.92.12-1.16.4-.19.49.14.71l.07-.28a24.64,24.64,0,0,0-5.93.62c-1.88.42-3.88-.16-5.72.61a4.59,4.59,0,0,0-1.3.94,6,6,0,0,1-3.39,1.05c-2.17.22-4.32-.1-6.48.17a18.31,18.31,0,0,1-3.3.28,11.49,11.49,0,0,0-2.87,0,16.81,16.81,0,0,0-2.49.42c-.47.17-.24.34-.86.41a8.15,8.15,0,0,1-1.21,0,14.49,14.49,0,0,0-2.55,0,13.09,13.09,0,0,1-3.36.4c-1.32-.14-2.67-.34-4-.56-.23,0-.47-.08-.7-.13-.49-.18-.46-.3.1-.37a6.52,6.52,0,0,1,1.85-.31.15.15,0,0,0,0-.3c-1.37-.53-3,.25-4.34-.24a4.26,4.26,0,0,0-2-.53,5.42,5.42,0,0,1-1.75,0c-.31-.11,0,0,.17-.2a.14.14,0,0,0,0-.18c-.27-.46-1.4-.34-1.82-.3a15.3,15.3,0,0,0-1.86.46,12.49,12.49,0,0,1-2.8.28,41.86,41.86,0,0,1-4.48-.21c-.78-.07-1.48-.3-2.24-.4s-1.41,0-2.14-.14a10.84,10.84,0,0,0-3.59-.21,7,7,0,0,1-2.28-.05,7.6,7.6,0,0,0-2.13,0,13.32,13.32,0,0,1-2.09.2c-1.73-.06-.27-.18.08-.22s.89-.06,1.33-.09c1.44-.09,2.89-.18,4.33-.33a6.18,6.18,0,0,0,2.29-.57,5.47,5.47,0,0,1,2.45-.63c.87-.06,1.75-.15,2.61-.29a34.9,34.9,0,0,1,4-.77c.76,0,2.78.43,3.44-.13.27-.23.27-.26.08-.54-.3-.47-1.39-.12-.5-1a4.14,4.14,0,0,1,2.73-.7,27.77,27.77,0,0,0,3.87.29,3.87,3.87,0,0,0,1.11-.24c.42-.19.52-.58,1-.83a14.76,14.76,0,0,1,3.13-.86c.86-.24,1.72-.52,2.6-.72,1.84-.42,3.65,0,5.51,0,.93,0,1.59-.24,2.14.61a2.83,2.83,0,0,0,.38.57,3,3,0,0,0,2.61.35.16.16,0,0,0,.1-.11s.34.61.42.67a2.34,2.34,0,0,0,1.07.32c1.63.24,2.93-.46,4.51-.57,1.81-.12,3.6.4,5.42.23s3.66.1,5.52.11c-.06,0,.7,0,.67,0s0,.19,0,.21c.22.13.28.32.58.45,1.41.63,3,.24,4.5.78s3.27,0,4.89.47a18,18,0,0,0,2,.6,21.31,21.31,0,0,0,2.52.16C1111.2,374.45,1111.2,374.15,1111,374.14Z"/><g class="cls-1"><path class="cls-2" d="M159.48,326.6c-.78-.07-1.65,0-2.41-.12a10.09,10.09,0,0,1-2.61-.74l-5.41,1.85a8.39,8.39,0,0,1-3.75.49c-.71-.1-1.12-.35-1.9-.4a2.34,2.34,0,0,0-2.39,1c-.73,1-4.06,1.59-7.11,2.1-2.48.42-5.7.83-8,.35-.51-.1-.93-.25-1.49-.33a9.53,9.53,0,0,0-5.2.9,9.35,9.35,0,0,1-5,1.07c-2.48-.18-2.63-1.22-4.68-1.65a29.27,29.27,0,0,0-4.47-.29,36,36,0,0,1-7.44-.93,11.86,11.86,0,0,0-2.32-.43,23.6,23.6,0,0,0-4.23.4c-4,.46-8.09-.45-12.25-.72L76.77,329a33.88,33.88,0,0,1-5.61.69c-1.21.13-2.46.16-3.67.28a4.44,4.44,0,0,0-.73.12c-.58.19.27.5,1.16.51a17.35,17.35,0,0,0,2.47-.25,6.78,6.78,0,0,1,2.48,0,2.78,2.78,0,0,0,.71.26,5.21,5.21,0,0,0,1.67-.15,11.47,11.47,0,0,1,4.19.12,6.58,6.58,0,0,0,1.17.26c.56,0,1.19,0,1.73,0a5.53,5.53,0,0,1,1.11.3,9.71,9.71,0,0,0,1.58.22c2.9.27,6.46.49,8.67-.1a12.45,12.45,0,0,1,2.2-.59c.93-.11,2.35.14,1.85.4a4.18,4.18,0,0,0-.51.2c-.28.21.84.35,1.62.31a9.23,9.23,0,0,1,2.3,0c.49.14.4.37.77.53,1.07.46,4.43-.11,5.33.38-1.56.19-3.43.56-2.89,1a5.11,5.11,0,0,0,1.82.48l3.4.52a10.68,10.68,0,0,0,2.77.16c.89-.11,1.29-.42,2.16-.55a15.07,15.07,0,0,1,2.76,0,6.13,6.13,0,0,0,2.49-.22c.25-.16.08-.38.55-.5a8.76,8.76,0,0,1,1.32-.1,23.89,23.89,0,0,1,2.6-.47,12.48,12.48,0,0,1,1.54.18c2.29.27,4.51-.55,7-.55.67,0,1.32.07,2,.1a15.62,15.62,0,0,0,6.25-.82c.89-.42,1.1-.93,1.67-1.39a6,6,0,0,1,3.41-1c1.09-.05,2.28.07,3.29-.05a10.26,10.26,0,0,0,1.54-.37,22,22,0,0,1,6.25-.59c-.77-.41.09-1,1.66-1.13a7.3,7.3,0,0,0,1.69-.21C161,326.92,160.25,326.67,159.48,326.6Z"/><path class="cls-3" d="M91.09,329.87a23.6,23.6,0,0,1,4.23-.4,11.86,11.86,0,0,1,2.32.43,36,36,0,0,0,7.44.93,29.27,29.27,0,0,1,4.47.29c2,.43,2.2,1.47,4.68,1.65a9.35,9.35,0,0,0,5-1.07,9.53,9.53,0,0,1,5.2-.9c.56.08,1,.23,1.49.33,2.33.48,5.55.07,8-.35,3-.51,6.38-1.12,7.11-2.1a2.34,2.34,0,0,1,2.39-1c.78.05,1.19.3,1.9.4a8.39,8.39,0,0,0,3.75-.49l5.41-1.85a6.35,6.35,0,0,0-2.25-.44c-.92,0-1.85.15-2.71.06-1.24-.13-1.34-.67-2.53-.83-.51-.07-1.1,0-1.66-.08-1.88-.07-3.27-.68-2.72-1.19l-5.35-.33a7.35,7.35,0,0,0-1.24,0c-.37,0-.67.1-1,.14-2.16.29-4.71-.53-6.88-.25-1.12.15-1.62.54-2.7.71-1.46.23-3.57-.15-3.44-.63.06-.24.22-.63-.65-.61.17.24-1.18.26-1.89.14-2.4-.42-.46-2.48-3.59-2-2.22.13-3.86-.33-5.78-.17a7.85,7.85,0,0,0-1.71.36l-5.94,1.78a3.13,3.13,0,0,0-1.13.47c-.16.16,0,.34-.16.51-.29.48-2.54.76-4,.49-.45-.08-.81-.21-1.29-.27a7.62,7.62,0,0,0-2.95.21,3.5,3.5,0,0,0-1.45.82c-.28.24-.56.5-.34.74s1.71.71,1.08,1c-.81.42-3.22,0-4.8.2a7.9,7.9,0,0,0-1.47.36,26.75,26.75,0,0,1-6.14,1,8.6,8.6,0,0,0-1.88.23c-.48.16-.42.4-.61.6a1.18,1.18,0,0,1-.52.28l2.07.13C83,329.42,87.13,330.33,91.09,329.87Z"/></g><path class="cls-4" d="M159.48,326.45a15.51,15.51,0,0,1-4.4-.64,9.32,9.32,0,0,0-4-.61,5.46,5.46,0,0,1-2.66-.32,5.73,5.73,0,0,0-1.21-.47,14.71,14.71,0,0,0-1.88-.11c-.15,0-3.09-.3-2.6-1a.14.14,0,0,0-.12-.22,44.14,44.14,0,0,0-7-.31c-2.23.23-4.31-.22-6.53-.21-1.9,0-3.55,1-5.49.79-.58-.06-1.13-.1-1.45-.59-.06-.08.07-.24,0-.35-.22-.3-.45-.29-.82-.32a.17.17,0,0,0-.15.15c0,.14-1.67,0-1.7,0a1.65,1.65,0,0,1-1.16-.65c-.26-.37-.27-.87-.65-1.17a2.06,2.06,0,0,0-1.44-.26,31,31,0,0,1-4-.1c-2.56-.19-4.71.57-7.14,1.29a27.5,27.5,0,0,0-3.45,1.06,1.42,1.42,0,0,0-.52.34c-.18.19-.06.39-.33.61a2.59,2.59,0,0,1-1,.27c-2.37.41-4.63-.78-7,0-.69.22-2.58,1.1-1.68,2,.23.22,1,.31.79.72-.13.22-1.09.12-1.37.12a25.18,25.18,0,0,0-3.25,0c-1.11.14-2.17.59-3.26.81a37.53,37.53,0,0,1-4.72.57,3.1,3.1,0,0,0-2,.56,5.78,5.78,0,0,1-3.46,1q-1.83.17-3.66.3c-1.11.09-2.73-.13-3.73.45a.16.16,0,0,0-.07.17c.14.72,1.86.51,2.34.47.79-.06,1.56-.24,2.36-.28a6.78,6.78,0,0,1,2.1.28c1.29.3,2.65-.21,4-.2a11.52,11.52,0,0,1,2.55.35,11.18,11.18,0,0,0,2.16.17,21.47,21.47,0,0,1,2.23.45c.63.09,1.26.13,1.89.18a40.7,40.7,0,0,0,4.81.17,15,15,0,0,0,3.92-.69c.27-.08,2.46-.64,2.68-.17.06.11-.31.21-.38.37a.15.15,0,0,0,.05.2c.58.43,1.7.25,2.35.21a3.43,3.43,0,0,1,2,.26,3.1,3.1,0,0,0,.57.37c1.62.57,3.56-.38,5.14.31l.07-.28c-.52.07-3.11.17-3.12,1s3.2,1,3.71,1.05a13,13,0,0,0,6,0c1.85-.53,4.06.46,5.82-.28.16-.06.23-.17.37-.25s.22-.26.36-.32a3.26,3.26,0,0,1,.94-.08,28,28,0,0,1,3.14-.48c1,0,2,.27,3,.2,1.24-.08,2.46-.35,3.69-.48,3.63-.39,8.28,1,11.19-1.85,1.92-1.89,4.62-1.12,7-1.42,1.15-.15,2.25-.58,3.41-.74a25.62,25.62,0,0,1,4.38-.22.15.15,0,0,0,.08-.28c-.54-.37.65-.7.84-.74a13.48,13.48,0,0,1,1.68-.18,1.51,1.51,0,0,0,1-.31.15.15,0,0,0,0-.18c-.28-.39-.83-.4-1.28-.47-.18,0-.27.27-.07.29a1,1,0,0,1,.8.31,6,6,0,0,1-.84.09c-.33,0-.66,0-1,.09a2.68,2.68,0,0,0-1.44.49c-.3.36-.28.59.13.87l.08-.28a22.86,22.86,0,0,0-5.6.43,19,19,0,0,1-3,.58c-1.06.05-2.12-.07-3.17.05a5.27,5.27,0,0,0-3.18,1.31c-1.58,1.51-3.54,1.78-5.68,1.86s-4-.19-6.07.08c-1,.14-2,.33-3,.4a20.88,20.88,0,0,1-2.85-.19,7.64,7.64,0,0,0-2.27.32,9.75,9.75,0,0,0-2.36.35c-.08,0-.11.14-.18.19a2.68,2.68,0,0,1-1.64.43c-.91,0-1.81-.11-2.72-.11a10.09,10.09,0,0,0-2.56.49,10.05,10.05,0,0,1-4-.16,23.83,23.83,0,0,1-3.58-.57c-.11,0-.4,0-.48-.12-.51-.46,0-.46.39-.56a15.7,15.7,0,0,1,2-.36c.13,0,.23-.21.08-.28-1.59-.69-3.5.23-5.11-.31-.34-.12-.56-.42-.89-.55a3.42,3.42,0,0,0-1.46-.14,6.29,6.29,0,0,1-2,0c-.53-.17-.17-.06.11-.29a.16.16,0,0,0,0-.15c-.18-.61-1.69-.46-2.12-.42a15.48,15.48,0,0,0-2.22.6,12.64,12.64,0,0,1-2.81.35,44,44,0,0,1-5.62-.24,19,19,0,0,1-2.52-.48c-.95-.21-1.92,0-2.87-.24a12.43,12.43,0,0,0-4.63-.21,4.73,4.73,0,0,1-2,0c-.19-.05-.35-.13-.55-.17a7,7,0,0,0-2.24,0c-.31,0-3.24.45-3.24.16s2.83-.42,3.11-.44c1.57-.12,3.14-.22,4.7-.41a4.78,4.78,0,0,0,2.59-.87c1-.74,2.26-.58,3.4-.69.89-.08,1.77-.19,2.64-.35,1.77-.31,3.4-1,5.22-1,.78,0,2.81.42,3.49-.2s-.21-.61-.53-.92c-1-1,.92-1.59,1.66-1.76a8,8,0,0,1,3.48.13,6.93,6.93,0,0,0,3.83-.17,1.24,1.24,0,0,0,.54-.38c.32-.38.23-.56.83-.77s1.15-.35,1.72-.52c2.13-.63,4.41-1.63,6.65-1.74a22.73,22.73,0,0,1,3,.15c1,.07,2.06,0,3.11,0,1.39,0,1.06,1.18,2,1.79a3.44,3.44,0,0,0,2.87.22.13.13,0,0,0,.08-.13c0-.72.43.75.35.65l.12.21c.22.31,1,.39,1.31.44,1.93.3,3.38-.58,5.24-.73,2-.16,4.06.49,6.1.33a19.64,19.64,0,0,1,2.65-.16c1.3.06,2.59.16,3.89.24a11.09,11.09,0,0,1,1.21,0,1.07,1.07,0,0,0,0,.34,1.79,1.79,0,0,0,.63.48,7,7,0,0,0,2.73.44,7,7,0,0,1,2.75.64c1.77.74,3.79-.06,5.63.52a18.31,18.31,0,0,0,2.51.8c.94.15,1.91.11,2.86.18C159.67,326.76,159.67,326.46,159.48,326.45Z"/><g class="cls-1"><path class="cls-2" d="M136.07,162.15c-1.14-.14-2.41-.08-3.52-.24a11.53,11.53,0,0,1-3.81-1.45l-7.93,3.63a9.58,9.58,0,0,1-5.48,1,21.08,21.08,0,0,0-2.79-.79,3.2,3.2,0,0,0-3.48,1.95c-1.08,1.93-6,3.14-10.41,4.14-3.62.81-8.34,1.62-11.75.68-.75-.21-1.36-.48-2.18-.64a10.9,10.9,0,0,0-7.6,1.75,10.89,10.89,0,0,1-7.25,2.1C66.25,173.91,66,171.86,63,171a31.61,31.61,0,0,0-6.54-.57,41.1,41.1,0,0,1-10.89-1.82,13.22,13.22,0,0,0-3.39-.86c-2.17-.17-4.13.48-6.19.8-5.79.89-11.84-.88-17.92-1.42-1-.09-2-.16-3-.25-1.81.84-6,1.06-8.21,1.36-1.77.25-3.59.3-5.36.55A4.75,4.75,0,0,0,.43,169c-.85.38.39,1,1.69,1a18.26,18.26,0,0,0,3.62-.5,7.39,7.39,0,0,1,3.62.09,4,4,0,0,0,1,.5,5.86,5.86,0,0,0,2.45-.28,12.5,12.5,0,0,1,6.13.22,7,7,0,0,0,1.71.51c.82.09,1.74-.07,2.53,0a7.2,7.2,0,0,1,1.63.6,11.9,11.9,0,0,0,2.31.43c4.24.52,9.44,1,12.68-.2a15.25,15.25,0,0,1,3.21-1.15c1.37-.23,3.45.28,2.72.77a6.7,6.7,0,0,0-.76.39c-.41.42,1.23.7,2.38.61a9.6,9.6,0,0,1,3.36,0c.72.25.58.71,1.12,1,1.57.92,6.49-.21,7.81.76-2.28.37-5,1.09-4.23,2a6,6,0,0,0,2.66.94l5,1a11.71,11.71,0,0,0,4,.31c1.3-.22,1.88-.83,3.15-1.07a15.68,15.68,0,0,1,4,.06c1.35.1,3.08,0,3.65-.43.37-.32.12-.75.8-1a12.13,12.13,0,0,1,1.94-.21c1.46-.17,2.27-.92,3.79-.91a13.5,13.5,0,0,1,2.26.35c3.36.53,6.6-1.08,10.24-1.07,1,0,1.93.12,2.91.18,3.52.23,7.32-.44,9.15-1.6,1.3-.83,1.61-1.82,2.44-2.73a7.28,7.28,0,0,1,5-2c1.6-.1,3.33.14,4.82-.11a10.53,10.53,0,0,0,2.24-.72,24.83,24.83,0,0,1,9.15-1.16c-1.13-.8.12-1.95,2.42-2.2a7.88,7.88,0,0,0,2.47-.42C138.24,162.79,137.21,162.29,136.07,162.15Z"/><path class="cls-3" d="M36,168.57c2.06-.32,4-1,6.19-.8a13.22,13.22,0,0,1,3.39.86,41.1,41.1,0,0,0,10.89,1.82A31.61,31.61,0,0,1,63,171c3,.84,3.22,2.89,6.84,3.23a10.89,10.89,0,0,0,7.25-2.1,10.9,10.9,0,0,1,7.6-1.75c.82.16,1.43.43,2.18.64,3.41.94,8.13.13,11.75-.68,4.46-1,9.33-2.21,10.41-4.14a3.2,3.2,0,0,1,3.48-1.95,21.08,21.08,0,0,1,2.79.79,9.58,9.58,0,0,0,5.48-1l7.93-3.63a7.43,7.43,0,0,0-3.3-.85,35.67,35.67,0,0,1-4,.11c-1.81-.26-2-1.32-3.7-1.64a23.35,23.35,0,0,0-2.42-.14c-2.76-.13-4.79-1.33-4-2.34l-7.82-.65a10.09,10.09,0,0,0-1.82,0c-.54.05-1,.2-1.49.29-3.17.56-6.89-1.06-10.06-.5-1.65.29-2.37,1.06-4,1.39-2.13.45-5.22-.3-5-1.22.09-.49.32-1.24-.94-1.2.25.45-1.74.51-2.78.26-3.5-.82-.67-4.85-5.25-4-3.24.25-5.65-.65-8.45-.34a9.46,9.46,0,0,0-2.51.71l-8.68,3.48a4,4,0,0,0-1.65.93c-.24.32-.08.67-.24,1-.43.94-3.72,1.48-5.81,1-.66-.16-1.18-.4-1.89-.54a8.62,8.62,0,0,0-4.32.42,5.23,5.23,0,0,0-2.12,1.61c-.41.48-.82,1-.49,1.46.48.71,2.5,1.38,1.58,2-1.19.83-4.71.05-7,.4a8.69,8.69,0,0,0-2.16.71,31,31,0,0,1-9,1.95,9.5,9.5,0,0,0-2.75.45c-.7.32-.61.78-.88,1.18a1.91,1.91,0,0,1-.77.55c1,.09,2.07.16,3,.25C24.18,167.69,30.23,169.46,36,168.57Z"/></g><path class="cls-4" d="M136.07,162a35.58,35.58,0,0,1-4.13-.36,13.1,13.1,0,0,1-3-1.23c-2-1-3.79-.93-6-.81a5.07,5.07,0,0,1-3.31-.81,5,5,0,0,0-2.24-.91c-.81-.1-7.2-.24-5.94-2.21a.15.15,0,0,0-.13-.22L106,155a18.91,18.91,0,0,0-4.69-.18,16,16,0,0,1-5,.14,37.24,37.24,0,0,0-4.34-.52c-2.9-.07-5.18,1.91-8.1,1.57a4.48,4.48,0,0,1-2-.52c-.58-.4-.31-.78-.46-1.25s-.51-.7-1.16-.72a.16.16,0,0,0-.15.19c.06.27-1.63.21-1.79.19a3.23,3.23,0,0,1-2-.69,4.84,4.84,0,0,1-1-2.18c-.62-1.67-2.09-1.31-3.56-1.21-2.94.19-5.92-.89-8.84-.22a30.81,30.81,0,0,0-4.44,1.66L53,153.46c-.95.39-1.9.62-2.34,1.59-.22.47-.14.7-.56,1a3.11,3.11,0,0,1-.95.36,9.25,9.25,0,0,1-2.62.29,36.71,36.71,0,0,1-3.89-.79,8.14,8.14,0,0,0-4,.48c-1.15.46-3.84,2.35-2.33,3.66.46.4,1.87.87.92,1.62-.35.27-1.23.2-1.63.21-1.44,0-2.88-.17-4.31-.07A15.44,15.44,0,0,0,27.4,163a28.16,28.16,0,0,1-4.79,1.18c-1.62.27-3.27.28-4.89.56a3,3,0,0,0-1.36.46c-.48.39-.51,1-1,1.39a8.2,8.2,0,0,1-3.52.94c-1.46.22-2.93.33-4.39.5s-3,.31-4.58.46c-.52.06-2.64,0-2.81.74-.37,1.62,4.83.62,5.37.52a12.54,12.54,0,0,1,2.29-.25,5.59,5.59,0,0,1,2.32.65c1.15.48,2.43-.12,3.58-.3a12.25,12.25,0,0,1,4.75.17c.66.17,1.26.49,1.93.63a11.68,11.68,0,0,0,2.13.07c1.47,0,2.84.82,4.31,1s3.08.36,4.62.47c3.08.21,6.39.32,9.28-.92a8.38,8.38,0,0,1,3.12-.91,3.91,3.91,0,0,1,1.29.13c.32,0,.46.19.42.55l-.28.12c-.25.39-.56.45,0,.79,1,.59,2.69.17,3.8.12a4.56,4.56,0,0,1,1.43.07c1.07.31.62.5,1.14.9a2.16,2.16,0,0,0,.93.44,12.82,12.82,0,0,0,3.39.13c1.15,0,2.72-.27,3.74.38l0-.28c-.65.11-4.92.59-4.44,2,.23.67,1.51.88,2,1,1.77.43,3.57.75,5.35,1.12a14.12,14.12,0,0,0,4.14.46c1.56-.16,2.83-1.13,4.4-1.22,2.1-.12,5.39,1.05,7.11-.53.07-.06.08-.22.12-.26.64-.67,1.2-.56,1.95-.63a6.67,6.67,0,0,0,1.52-.28,12,12,0,0,1,2.27-.65,11,11,0,0,1,2.62.33c3.18.5,6.24-.83,9.37-1,1.72-.11,3.43.19,5.15.2a22,22,0,0,0,4.71-.49,9.82,9.82,0,0,0,3.19-1.18c1.13-.73,1.63-1.91,2.55-2.84,2.75-2.81,6.73-1.25,10.09-2.05,1.63-.39,3.11-1.11,4.78-1.41a28.06,28.06,0,0,1,6.14-.38c.12,0,.21-.17.1-.25-.74-.63.28-1.4.85-1.62a7.4,7.4,0,0,1,1.86-.37c.57-.06,1.7,0,2.17-.41.92-.81-1.13-1.21-1.58-1.29-.19,0-.27.26-.08.29.49.08,2,.32,1,.93a6.07,6.07,0,0,1-1.88.22,5.28,5.28,0,0,0-2.26.69c-.73.47-1,1.16-.27,1.77l.11-.26a24.94,24.94,0,0,0-8.51.94,15.66,15.66,0,0,1-4.14,1.06,37.47,37.47,0,0,0-4.5.09,6.89,6.89,0,0,0-4.92,2.93c-1.86,2.58-5.06,3.12-8.06,3.29a39.21,39.21,0,0,1-4.6-.16,18.73,18.73,0,0,0-4.54.36,35.59,35.59,0,0,1-4.58.77c-1.49.08-2.88-.44-4.35-.44a12.72,12.72,0,0,0-3.09.77c-.8.2-2.38-.08-3.06.55-.27.26-.32.69-.64.91a4.22,4.22,0,0,1-2.23.33,44.92,44.92,0,0,0-4.78-.17c-1.54.18-2.8,1.14-4.37,1.21a20.88,20.88,0,0,1-5-.75l-2.72-.57a6.9,6.9,0,0,1-2.65-.71c-1.12-1,.88-1.37,1.48-1.54a22.16,22.16,0,0,1,2.29-.48c.14,0,.14-.21,0-.27-1-.61-2.35-.46-3.43-.43-1.34,0-3.56.44-4.6-.57-.44-.42-.61-.73-1.24-.88a9.4,9.4,0,0,0-2.9,0,6.87,6.87,0,0,1-1.2,0,4.22,4.22,0,0,1-.87-.13c-.31-.33-.17-.22.07-.45s.51-.19.47-.53c-.1-.87-2.52-.72-3-.65-1.77.24-3.3,1.31-5.08,1.62a28.45,28.45,0,0,1-6.65.15c-2.29-.16-4.87-.2-7-1.1a5.05,5.05,0,0,0-2.14-.39,10.66,10.66,0,0,1-3.46-.6,11.9,11.9,0,0,0-5-.28c-1.26.17-2.53.78-3.77.22a5,5,0,0,0-1.85-.55,11.55,11.55,0,0,0-2.75.25c-1.12.21-2.89.82-4,.34-.29-.13-.83,0-.54-.72a8.67,8.67,0,0,1,1.16-.19l1.56-.16c1.17-.1,2.33-.2,3.49-.35,1.69-.21,3.38-.33,5.06-.59,1.14-.17,3.12-.32,3.89-1.34.11-.15.14-.35.24-.48a2.79,2.79,0,0,1,2.21-1c1.14-.13,2.28-.2,3.41-.36a28.05,28.05,0,0,0,6.2-1.5,12.07,12.07,0,0,1,2.93-.94,18.46,18.46,0,0,1,2.88,0c1,0,3,.39,3.92-.4s-.35-1.25-.85-1.61c-.74-.54-.93-.89-.14-2a4.57,4.57,0,0,1,1.13-1,6.7,6.7,0,0,1,3.41-1c1.93-.09,3.65.87,5.58.84,1.07,0,2.94-.08,3.73-.94.5-.55.36-1.2,1.08-1.74a8.5,8.5,0,0,1,1.85-.78l2.29-.92c2.19-.87,4.37-1.93,6.63-2.61,2.09-.64,4.25-.24,6.36,0a17.67,17.67,0,0,0,3.41.08c.77-.08,1.73-.33,2.37.27s.61,1.76,1.08,2.52a3.1,3.1,0,0,0,2.49,1.31,4.3,4.3,0,0,0,1.82-.07,3.2,3.2,0,0,0,.44-.35,7.73,7.73,0,0,1,.7.56c0,.15-.12.36-.08.5s0,.19,0,.28c.12.39.54.59.88.75a7.4,7.4,0,0,0,4.16.41,10.44,10.44,0,0,0,2.31-.83,8.09,8.09,0,0,1,3.73-.7c2.19.09,4.34.72,6.54.73a14.24,14.24,0,0,0,2.52-.32,16.32,16.32,0,0,1,4.3.11l3.42.28a6.29,6.29,0,0,1,2,.17c.49.29,0-.2.17.29.94,3.09,6,1.46,8.14,2.82a6.61,6.61,0,0,0,4.69,1,9.24,9.24,0,0,1,3.55.25,31.2,31.2,0,0,1,3,1.35c1.84.8,3.74.67,5.7.87C136.26,162.32,136.26,162,136.07,162Z"/><g class="cls-1"><path class="cls-2" d="M923.14,99.3c-.22-.14-.46-.08-.67-.25a4,4,0,0,1-.73-1.54l-1.52,3.85c-.27.68-.68,1.43-1.06,1-.2-.22-.31-.73-.53-.83-.44-.21-.58,1.15-.67,2.07a7.86,7.86,0,0,1-2,4.38c-.69.86-1.6,1.71-2.25.72a6.12,6.12,0,0,0-.42-.68c-.57-.6-1.15.69-1.46,1.85s-.78,2.55-1.39,2.23-.74-2.53-1.32-3.43c-.35-.54-.82-.5-1.25-.6a3.49,3.49,0,0,1-2.09-1.92c-.2-.37-.39-.8-.65-.91-.42-.18-.79.51-1.19.84-1.11,1-2.27-.93-3.44-1.5-.18-.1-.38-.17-.58-.27-.35.89-1.14,1.13-1.58,1.44s-.68.32-1,.59a.5.5,0,0,0-.21.24c-.16.4.07,1,.32,1.06s.47-.31.7-.53.53-.31.69.09a2.56,2.56,0,0,0,.2.54c.16.17.33-.11.47-.3.36-.47.87-.37,1.18.23.1.2.19.46.33.54s.33-.08.48,0,.21.41.32.62a1.12,1.12,0,0,0,.44.47c.81.54,1.81,1,2.43-.22a5,5,0,0,1,.62-1.22c.26-.23.66.3.52.82,0,.15-.11.25-.14.41-.08.44.23.74.45.65s.48-.29.65,0a7.82,7.82,0,0,1,.21,1.09c.3,1,1.25-.23,1.5.79a2.39,2.39,0,0,0-.81,2.11,1.9,1.9,0,0,0,.51,1l1,1.1c.24.27.52.55.77.32s.36-.88.61-1.13.52-.05.77.07.6,0,.7-.46a5.72,5.72,0,0,1,.16-1c.1-.18.25-.14.37-.22.28-.18.44-1,.73-1s.29.24.43.37c.65.56,1.27-1.15,2-1.14a1.92,1.92,0,0,1,.55.2c.68.24,1.41-.47,1.76-1.7a27.68,27.68,0,0,0,.47-2.89c.16-1,.48-1.94,1-2.09.31-.11.64.15.92-.12a2.48,2.48,0,0,0,.43-.76c.46-.94,1.13-1.4,1.76-1.23a2.57,2.57,0,0,1,.46-2.33c.17-.11.38-.12.48-.44A1.14,1.14,0,0,0,923.14,99.3Z"/><path class="cls-3" d="M903.94,106.1c.4-.33.77-1,1.19-.84.26.11.45.54.65.91a3.49,3.49,0,0,0,2.09,1.92c.43.1.9.06,1.25.6.58.9.62,3.06,1.32,3.43s1.08-1.08,1.39-2.23.89-2.45,1.46-1.85a6.12,6.12,0,0,1,.42.68c.65,1,1.56.14,2.25-.72a7.86,7.86,0,0,0,2-4.38c.09-.92.23-2.28.67-2.07.22.1.33.61.53.83.38.41.79-.34,1.06-1l1.52-3.85c-.18-.47-.36-.86-.64-.9s-.52.31-.76.12-.37-1.4-.71-1.73c-.14-.14-.31-.11-.46-.15-.53-.14-.92-1.41-.77-2.48l-1.5-.69c-.12-.06-.24-.11-.35,0s-.19.21-.29.3c-.6.59-1.32-1.11-1.93-.53-.31.31-.45,1.13-.76,1.48s-1-.32-1-1.3c0-.51.06-1.31-.18-1.27.05.49-.34.54-.53.28-.68-.87-.13-5.14-1-4.23-.62.27-1.09-.68-1.62-.35a1.75,1.75,0,0,0-.49.75l-1.66,3.68a3.42,3.42,0,0,0-.32,1c0,.35,0,.72,0,1.07-.09,1-.72,1.56-1.12,1-.13-.18-.23-.43-.36-.58s-.62,0-.83.45a7.3,7.3,0,0,0-.41,1.7,5.37,5.37,0,0,0-.09,1.55c.09.75.48,1.46.3,2.14-.23.88-.9,0-1.35.43a2.3,2.3,0,0,0-.41.75,4,4,0,0,1-1.72,2.07.76.76,0,0,0-.53.47,5.32,5.32,0,0,0-.17,1.25,2.34,2.34,0,0,1-.15.58c.2.1.4.17.58.27C901.67,105.17,902.83,107.05,903.94,106.1Z"/></g><path class="cls-4" d="M923.18,99.16c-1.24-.44-.94-1.57-1.62-2.37-.37-.44-.62-.18-1.06-.47s-.37-1-.76-1.43-.26.34-.91-.58a3.09,3.09,0,0,1-.28-1.94.16.16,0,0,0-.07-.13c-.62-.29-1.36-.86-2-.71s-.47.32-1,0c-.11,0-.18-.16-.28-.22a.87.87,0,0,0-.52-.2c-.72,0-1,2.06-1.64,1.44s.24-2.09-.47-2.39a.15.15,0,0,0-.22.12c-.07.57-.49-.47-.51-.54a10.17,10.17,0,0,1-.11-1.11,14.23,14.23,0,0,0-.13-1.84c-.12-.67-.18-.58-.66-.64a8.43,8.43,0,0,1-1.12-.34.63.63,0,0,0-.52,0c-.61.27-.89,1.5-1.13,2-.41.91-.91,1.83-1.25,2.77a3.62,3.62,0,0,0-.21.92,5,5,0,0,1,0,.87c0,.52-.28.74-1,.66l-.18-.27c-.37-.05-.23-.31-.65-.12-.69.32-.77,1.71-.86,2.3a6,6,0,0,0,.06,2.36c.16.73.3,1.29-.48,1.58-.12.05-.31,0-.45,0-.6.2-.75,1.14-1,1.61a4,4,0,0,1-1.3,1.3c-.29.19-.42.21-.58.53-.45.84,0,1.81-.83,2.56-.58.53-1.55.71-2.07,1.26a1,1,0,0,0-.19,1.18c.23.42.31.32.7.3.62,0-.31-.83,1-.18.07,0,.07.33.18.34.43,0,.54-.15,1.06-.14.74,0,.49.2.9.59.16.16.48.2.64.37.49.5.61.92,1.38,1.21a1.45,1.45,0,0,0,1.17,0,1.39,1.39,0,0,0,.51-.42,3.36,3.36,0,0,0,.34-.65c.29-.61.17-1,.47-.33.16.35-.06.93.27,1.23.52.49.86-.17,1.09.86.06.3.11.62.41.78.14.07.29,0,.42,0,.67.22.48.26.28.74-.71,1.64-.11,2.61,1.14,3.81.29.28.55.59,1,.35.15-.08.24-.35.3-.48.38-.73.4-.43,1.07-.55.48-.08.56-.08.78-.58s.41-1.48.87-1.77.82.23,1.23.08.44-.45.67-.63.19-.27.33-.34.74,0,1,0c1.67,0,1.94-2.13,2.12-3.45.09-.63.15-1.26.3-1.88a1.58,1.58,0,0,1,.58-1c1.09-1.07,0,.09.77-.39.89-.57,1.16-2.28,2.45-2.11.1,0,.16-.1.14-.19a2.42,2.42,0,0,1,.58-2.25c.19-.24.22-.06.36-.42a1.31,1.31,0,0,0-.33-1.25c-.13-.15-.34.07-.21.21.77.86-.22,1.2-.51,1.74a2.51,2.51,0,0,0-.24.93c0,.07,0,.75,0,.79-.15.24-.68.26-.95.47-.51.4-.57,1.14-1,1.53s-1,.07-1.43.61a3.81,3.81,0,0,0-.59,1.64c-.17.89-.2,1.81-.41,2.7s-.32,1.32-1.22,1.64c-1.05.37-.46,0-1,.14a1.77,1.77,0,0,0-.79.46c-.16.15-.29.44-.48.53a.76.76,0,0,1-.83-.07l-.23-.13a.57.57,0,0,0-.43.23c-.13.12-.14.32-.25.45a5.25,5.25,0,0,0-.6.53c-.31.54-.12,1.09-.93,1.34-.34.1-.35-.2-.7.07a1.57,1.57,0,0,0-.27.49c-.4.8-.68.45-1.22,0-1.1-1-1.53-2.43-.33-3.62a.17.17,0,0,0,0-.15.85.85,0,0,0-.49-.54c-.12-.08-.32.07-.43,0-.68-.33-.49-.91-.8-1.36-.11-.17-.25-.19-.37-.28-.35-.25-.18.11-.26,0-.31-.2-.29-.55-.32-.79s.08-.51-.11-.77c-.69-1-1,.75-1.31,1.06a1.48,1.48,0,0,1-2.1.24c-.32-.26-.44-.7-.71-.95-.07-.07-.12-.16-.19-.23s-.21,0-.28,0c-.26-.21-.42-.57-.67-.78a.83.83,0,0,0-.66-.29c-.21,0-.26.19-.43.23s-.34,0-.62-.21-.26-.3-.61-.19c-.08,0-.31.3-.36.29l-.11.13-.07-1a5.56,5.56,0,0,1,.78-.44,3.14,3.14,0,0,0,1.75-2.58,2.4,2.4,0,0,1,.39-1c.1-.11.32-.12.44-.22a7.46,7.46,0,0,0,.61-.53,4.44,4.44,0,0,0,.55-.74c.48-.79.37-1.07,1.37-1.43.27-.1.37.08.62-.18s.16-1.2.06-1.63a5.58,5.58,0,0,1,.1-3.5c.1-.2.64-.78.93-.73,1.08.19,0,.25.2.33s.19.23.4.25c1,.12,1-1.53,1-2.09a10.67,10.67,0,0,1,1.24-3.3,11.56,11.56,0,0,1,.74-1.64c.24-.33,0-.26.55-.45s.41,0,.85.1a3,3,0,0,0,.68,0c.44.25.32,1.24.35,1.7,0,.64-.08,2,.45,2.53.21.19.29.16.54.16.06,0,.18-.21.2-.2s-.06.47-.06.65c0,.51.07,2.08,1,1.84.6-.16.48-1.16.87-1.48.65-.54,1,.53,1.61.53a1.44,1.44,0,0,0,.33-.09c.09,0,.11-.14.18-.16a1.59,1.59,0,0,1,1.13.19c.86.45.56,1.24.88,2s.92.7,1.24,1.27c.21.37.14,1.17.58,1.41.1.06.25,0,.36.06l.13,0c.37-.2.64,0,.83.68a6.18,6.18,0,0,1,.26.72,1.65,1.65,0,0,0,1.25,1.18C923.29,99.51,923.36,99.22,923.18,99.16Z"/><g class="cls-1"><path class="cls-2" d="M304.34,172.45c-.22-.14-.46-.08-.68-.25a4.28,4.28,0,0,1-.73-1.53l-1.52,3.84c-.27.68-.68,1.43-1.05,1-.2-.21-.32-.72-.54-.83-.43-.21-.57,1.15-.66,2.07a7.93,7.93,0,0,1-2,4.38c-.7.86-1.6,1.71-2.26.72a4.92,4.92,0,0,0-.42-.68c-.56-.59-1.15.7-1.45,1.85s-.78,2.55-1.4,2.23-.73-2.53-1.31-3.42c-.35-.55-.82-.51-1.25-.61a3.49,3.49,0,0,1-2.09-1.92c-.2-.37-.4-.79-.66-.91s-.79.51-1.18.84c-1.11.95-2.27-.93-3.44-1.5l-.58-.26c-.35.88-1.15,1.12-1.58,1.43s-.69.33-1,.59a.61.61,0,0,0-.2.24c-.17.4.07,1,.32,1.06s.47-.31.7-.53.53-.31.69.09a2.11,2.11,0,0,0,.2.54c.15.18.32-.11.47-.3.36-.47.87-.37,1.18.23.1.2.19.46.33.54s.33-.08.48.05.21.42.31.63a1.17,1.17,0,0,0,.45.46c.81.54,1.81,1,2.43-.22a4.62,4.62,0,0,1,.62-1.22c.26-.23.66.3.52.82,0,.15-.12.25-.15.41-.08.44.24.74.46.65s.48-.28.64,0a7.77,7.77,0,0,1,.22,1.09c.3,1,1.25-.23,1.5.79a2.37,2.37,0,0,0-.81,2.11,1.76,1.76,0,0,0,.51,1l.95,1.1c.24.27.53.55.78.32s.36-.88.61-1.13.51,0,.77.07.59,0,.7-.46a5,5,0,0,1,.15-1c.1-.18.25-.14.38-.22s.43-1,.72-1,.29.24.44.37c.64.57,1.26-1.14,2-1.14a2.51,2.51,0,0,1,.56.2c.68.24,1.41-.46,1.76-1.7a27.68,27.68,0,0,0,.47-2.89c.15-1,.47-1.93.95-2.09.31-.11.64.15.93-.12a3,3,0,0,0,.43-.76c.46-.93,1.12-1.4,1.75-1.23a2.6,2.6,0,0,1,.47-2.33c.17-.11.38-.12.47-.44A1.11,1.11,0,0,0,304.34,172.45Z"/><path class="cls-3" d="M285.14,179.25c.39-.33.77-1,1.18-.84s.46.54.66.91a3.49,3.49,0,0,0,2.09,1.92c.43.1.9.06,1.25.61.58.89.62,3.06,1.31,3.42s1.09-1.07,1.4-2.23.89-2.44,1.45-1.85a4.92,4.92,0,0,1,.42.68c.66,1,1.56.14,2.26-.72a7.93,7.93,0,0,0,2-4.38c.09-.92.23-2.28.66-2.07.22.11.34.62.54.83.37.41.78-.34,1.05-1l1.52-3.84c-.17-.47-.36-.87-.63-.9s-.52.3-.76.11-.38-1.4-.71-1.73c-.14-.14-.31-.1-.47-.15-.53-.14-.92-1.41-.76-2.48l-1.5-.69c-.12-.06-.24-.11-.35,0s-.19.21-.29.3c-.61.59-1.32-1.11-1.93-.52-.32.3-.46,1.12-.76,1.47s-1-.32-1-1.3c0-.51.07-1.31-.18-1.26.05.48-.33.53-.53.27-.67-.87-.13-5.14-1-4.22-.62.26-1.08-.69-1.62-.36a1.83,1.83,0,0,0-.48.75l-1.67,3.68a3.42,3.42,0,0,0-.31,1c-.05.35,0,.72-.05,1.07-.08,1-.71,1.57-1.11,1a6.42,6.42,0,0,0-.37-.58c-.27-.28-.62,0-.83.45a7.41,7.41,0,0,0-.4,1.71,5.66,5.66,0,0,0-.1,1.54,6.1,6.1,0,0,1,.31,2.14c-.23.89-.91.06-1.35.43a2.5,2.5,0,0,0-.42.75,3.83,3.83,0,0,1-1.72,2.07.85.85,0,0,0-.53.47,6.62,6.62,0,0,0-.17,1.25,2.32,2.32,0,0,1-.14.59l.58.26C282.87,178.32,284,180.2,285.14,179.25Z"/></g><path class="cls-4" d="M304.38,172.31c-1.25-.43-.94-1.57-1.62-2.36-.38-.45-.62-.19-1.06-.48s-.38-1-.77-1.43-.25.35-.91-.58a3.08,3.08,0,0,1-.27-1.94.14.14,0,0,0-.08-.13c-.61-.28-1.35-.86-2-.71s-.47.33-1,0c-.1-.05-.18-.16-.28-.22a.84.84,0,0,0-.52-.2c-.71,0-1,2.06-1.63,1.44s.23-2.09-.47-2.39a.16.16,0,0,0-.23.13c-.07.57-.49-.48-.5-.54a8.49,8.49,0,0,1-.11-1.12,16.26,16.26,0,0,0-.13-1.84c-.13-.67-.19-.57-.66-.64A8.43,8.43,0,0,1,291,159a.7.7,0,0,0-.53,0c-.6.27-.88,1.5-1.13,2-.41.92-.9,1.83-1.24,2.77a3.74,3.74,0,0,0-.22.92,3.61,3.61,0,0,1-.05.87c.06.52-.28.74-1,.66l-.19-.27c-.36-.05-.22-.31-.64-.12-.69.32-.78,1.71-.87,2.31a6,6,0,0,0,.07,2.36c.15.72.29,1.28-.49,1.58-.11,0-.31-.06-.44,0-.6.2-.75,1.14-1,1.62a4.11,4.11,0,0,1-1.3,1.29c-.3.19-.42.21-.59.53-.44.85,0,1.81-.83,2.56-.58.53-1.54.71-2.06,1.26a1,1,0,0,0-.19,1.19c.22.41.31.31.69.29.62,0-.3-.83,1.06-.18.07,0,.06.34.17.34.44,0,.54-.15,1.06-.14.75,0,.5.2.9.6.17.15.48.19.65.36.49.5.61.92,1.38,1.21a1.27,1.27,0,0,0,1.67-.37,3.41,3.41,0,0,0,.35-.65c.28-.61.17-.94.46-.32.17.34-.05.92.28,1.22.52.49.85-.17,1.08.86.07.3.11.62.42.78.14.07.28,0,.41,0,.68.23.49.26.28.74-.7,1.64-.11,2.61,1.15,3.81.28.28.54.59,1,.35.14-.08.23-.35.3-.47.38-.74.4-.44,1.06-.56.49-.08.56-.08.78-.58s.42-1.48.88-1.76.82.22,1.22.07.45-.45.68-.62.19-.28.33-.35.74,0,1,0c1.68,0,1.94-2.13,2.13-3.45a17.1,17.1,0,0,1,.3-1.88,1.58,1.58,0,0,1,.58-1c1.09-1.07,0,.09.77-.39s1.16-2.28,2.44-2.11c.11,0,.16-.1.15-.19a2.44,2.44,0,0,1,.57-2.25c.19-.24.22-.06.36-.42a1.28,1.28,0,0,0-.32-1.25c-.13-.15-.35.07-.22.21.77.86-.21,1.2-.5,1.74a2.33,2.33,0,0,0-.24.93c0,.07,0,.75,0,.79-.16.24-.69.26-1,.47-.5.4-.56,1.14-1,1.53s-1,.07-1.43.61a3.57,3.57,0,0,0-.59,1.64c-.17.89-.2,1.82-.41,2.71s-.33,1.31-1.23,1.63-.45-.05-1,.14a1.9,1.9,0,0,0-.78.46c-.16.15-.3.44-.49.53a.78.78,0,0,1-.83-.06l-.22-.14a.59.59,0,0,0-.44.23c-.12.13-.14.32-.24.46.09-.13-.58.49-.6.52-.32.54-.12,1.09-.94,1.34-.34.1-.34-.2-.69.08a1.26,1.26,0,0,0-.28.49c-.39.79-.67.44-1.21,0-1.11-1-1.54-2.42-.34-3.62a.14.14,0,0,0,0-.15.81.81,0,0,0-.48-.54c-.12-.08-.32.07-.43,0-.68-.33-.49-.91-.8-1.36-.11-.17-.26-.19-.38-.28-.34-.25-.17.11-.26,0-.31-.2-.28-.55-.32-.79s.08-.51-.11-.77c-.68-.95-1,.75-1.3,1.06a1.48,1.48,0,0,1-2.1.24c-.33-.26-.44-.7-.71-.95-.07-.07-.12-.16-.19-.23s-.22,0-.28,0c-.26-.21-.42-.57-.67-.77a.85.85,0,0,0-.66-.3c-.22,0-.27.19-.43.23s-.34,0-.62-.21-.26-.29-.61-.19c-.08,0-.31.3-.36.3l-.12.12-.06-1a5,5,0,0,1,.77-.43,3.15,3.15,0,0,0,1.76-2.59,2.52,2.52,0,0,1,.38-1c.11-.1.33-.12.44-.22a6.09,6.09,0,0,0,.61-.53,4.5,4.5,0,0,0,.56-.74c.47-.79.36-1.07,1.36-1.43.27-.1.37.08.63-.17s.16-1.21.05-1.64a5.58,5.58,0,0,1,.11-3.5c.1-.2.64-.77.93-.73,1.07.19,0,.25.2.33s.19.23.4.25c1,.13.95-1.53,1-2.08a10.65,10.65,0,0,1,1.25-3.31,9.68,9.68,0,0,1,.74-1.64c.24-.33,0-.26.54-.45s.42,0,.86.1a3,3,0,0,0,.68,0c.44.25.32,1.24.34,1.7,0,.64-.07,2,.46,2.53.2.2.28.16.54.16.06,0,.18-.21.2-.2s-.07.47-.07.65c0,.51.08,2.08,1,1.84.61-.16.49-1.16.87-1.48.65-.54,1,.54,1.62.54a2.58,2.58,0,0,0,.33-.1c.09,0,.11-.14.18-.16a1.65,1.65,0,0,1,1.13.19c.86.45.55,1.24.87,2s.93.69,1.25,1.26c.2.37.14,1.17.57,1.41.11.06.26,0,.36.06l.13,0c.37-.19.65,0,.84.68.12.22.16.5.26.72a1.64,1.64,0,0,0,1.25,1.18C304.48,172.66,304.56,172.37,304.38,172.31Z"/></g></g></svg>