<svg xmlns="http://www.w3.org/2000/svg" viewBox="0 0 39.5 38"><defs><style>.cls-1{fill:#fff;}</style></defs><title>Asset 2icon_</title><g id="Layer_2" data-name="Layer 2"><g id="Layer_1-2" data-name="Layer 1"><polygon class="cls-1" points="20.45 0 21.24 19 39.5 19 21.24 21.38 20.45 38 18.86 21.38 1.4 19 18.86 19 20.45 0"/><polygon class="cls-1" points="6.59 26 3.29 25.98 3.16 28.95 2.88 25.97 0 25.71 2.9 25.58 3.43 22.77 3.31 25.6 6.59 26"/><polygon class="cls-1" points="6.66 13 3.33 12.98 3.2 15.98 2.91 12.97 0 12.71 2.93 12.58 3.47 9.73 3.34 12.6 6.66 13"/><polygon class="cls-1" points="12.55 7 10.28 7.01 10.17 9.51 10 7 8.02 6.8 10.01 6.67 10.4 4.29 10.29 6.68 12.55 7"/><polygon class="cls-1" points="32.57 30 30.3 29.99 30.21 32.02 30.02 29.98 28.04 29.8 30.03 29.71 30.4 27.78 30.31 29.73 32.57 30"/><polygon class="cls-1" points="15.64 32 10.78 31.98 10.59 36.34 10.17 31.95 5.94 31.58 10.2 31.39 10.98 27.24 10.8 31.41 15.64 32"/></g></g></svg>