<?xml version="1.0" encoding="UTF-8"?><svg xmlns="http://www.w3.org/2000/svg" viewBox="0 0 32.24 32.23"><defs><style>.d{fill:#d8ebd1;}</style></defs><g id="a"/><g id="b"><g id="c"><g><path class="d" d="M.55,9.3c0-.07-.04-.1-.07-.11,.02,.07,.04,.12,.07,.11Z"/><path class="d" d="M.24,10.98l.02-.1s-.04,.08-.02,.1Z"/><path class="d" d="M4.88,1.04h-.29c.03,.12,.16,.03,.29,0Z"/><path class="d" d="M9.25,.45h.08s.06-.06,.1-.1c-.06,.03-.12,.06-.18,.1Z"/><path class="d" d="M12.08,2.05c.1-.07,.18-.08,.24-.06,.03-.04,.06-.1,.09-.18-.06-.06-.24,.15-.33,.24Z"/><path class="d" d="M.35,14.08h0c-.05-.09-.03-.04,0,0Z"/><path class="d" d="M19.4,30.33c-.39,0,.19-.56-.35-.49,.1,.06-.05,.6,.35,.49Z"/><path class="d" d="M3.12,20.49s-.05,.05-.07,.12c.04-.04,.06-.08,.07-.12Z"/><path class="d" d="M4.82,22.69c.02,.07,0,.11,.09,.17,0-.02,0-.03,.01-.04-.05,0-.09-.03-.1-.12Z"/><path class="d" d="M6.52,24.88s0-.05,.01-.08l-.07-.06,.06,.13Z"/><path class="d" d="M31.49,11.71l.43-.09c.04-.73,.39-1.51-.04-2.23,.06,0,.19,.02,.21,.14,0-.35,.12-1.42-.43-1.2,.37-.07-.11-.78-.37-1.12h.29c-.44-.25-.54-.23-.76-.65,0-.12,.18-.16,.16,0,.04-.4-.34-.19-.35-.65l.23,.09c-.12-.36-.2-.3-.46-.42-.18-.18-.24-.67-.04-.84-.16,.02-.43-.07-.47-.3,.07-.07,.16-.03,.2,0-.17-.65-.76-.64-.78-1.15,.07-.06,.09-.11,.09-.16,.3,.42,.48,.79,.45,.77,.22-.13,.03-.52,.51-.42-.34-.21-1.01-.44-1.18-.82,0-.03,.01-.06,.03-.1l.05,.02c-.04-.09-.12-.14-.2-.18-.06-.13-.09-.22-.18-.31,.12-.18-.27-.45-.43-.6-.18,.22-.36,0-.31,.35-.01-.04,.05,0,.16,.09,.03,.02,.06,.04,.09,.04h-.03c.11,.1,.24,.22,.38,.37-.22-.03-.42-.06-.48-.33l-.52,.14c.06-.48-.27-.99-.21-1.24-.64-.27-1.53-.71-2.08-.29-.19,.02-.17-.2-.22-.3,.12-.03,.25,.02,.33-.04-.41,0-1.16-.15-1.26,.23-.46-.18,.28-.34-.38-.28l.09-.11c-.68-.29-1.22,.05-1.66,.39-.45,.35-.83,.69-1.6,.65,.1,0,.16,0,.2,.05-.76,.18-1.39,.68-1.96,1.2-.58,.52-1.1,1.05-1.79,1.44-.37,.25-.21,.45-.22,.76l-.3-.11,.03,.56c-.11,.63-1.24,.55-1.14,1.52h.23c-.12,.17-.18,.59-.29,.72-.03-.08-.07-.16-.1-.25h.1l-.12-.06c-.05-.11-.09-.23-.14-.34,.06-.01,.12,0,.17,.05,.07-.35-.23-.17-.14-.49,.02-.04,.04-.04,.07-.02l-.24-.2c.1,0,.24-.18,.26,0-.02-.57-.66-.57-.49-.89l.04,.02c-.38-.4-.35-.14-.58-.09-.06-.09-.11-.18-.17-.26,.1-.17,.2-.33,.29-.5l-.29,.12c-.03-.07-.1-.19,.01-.25-.33-.09-.08,.12-.33,.11,0-.46-.71-.64-.41-1.02-.25,.07,.1,.36-.27,.21,.29-.44-.36-.25-.43-.62,.25-.14,.39,.18,.31-.22-.44,.21-.42-.5-.71-.6-.22,.28-.57-.24-1.05-.35,.09-.1-.68-.6-1.08-.84l.03-.05c-.2,.31-.6,.12-.94,.12,.06-.21,.14-.28,.34-.33l-.31-.08c-.1,.1-.21,.15-.41,.15l.13-.26c-.43-.06-.87,.19-1.4,0-.01,.18,.17,.45,.11,.66-.09,0-.17,0-.26,0,0-.09,.03-.18,.11-.21-.05,.02-.16,.11-.26,.05l.21-.23c-.24-.11-.12,.19-.31,.18,0-.2-.15-.13-.13-.29,.05-.02,.17,.07,.24-.01-.22-.02-.49-.12-.6-.26,.03,.11,.02,.26-.13,.31-.41,.08-.17-.21-.44-.28-.08,.14-.38,.07-.32,.36-.12,.03-.17-.1-.24-.17-.19,.16-.98,.36-.64,.56h.06l-.03,.03c-.52,.5-1.39,.48-1.87,1.06l-.06-.08c-.25,.36-.62,.73-.63,1.09-.07,.09-.31,.13-.38,.02-.12,.32-.04,.39-.4,.72,0-.37-.19,.03,.05-.35-.27,.33-.47,.37-.39,.89-.18-.24-.42,.19-.41,.4l.27-.22c-.04,.22-.12,.4-.2,.58l-.29-.2c-.65,.77,.32,1.64-.42,2.16,.2,.25,.22-.43,.46-.2-.1,.36-.6,.71-.61,.84-.23,.52,.45,.52,.3,1.05,.12-.07,.44-.12,.54,.28-.04,.36-.49,.46-.59,.22-.01-.09,.03-.13,.07-.13-.05-.12-.09-.28-.22-.14l.12,.05c-.12,.19-.1,.71-.3,.59,.12,.29,.2,.12,.26-.09-.18,.49,.02,.76-.07,1.27,.06-.08,.2-.17,.2-.09-.09,.74,.25,.3,.35,.78-.15,.3-.45-.05-.23,.43-.08,.32-.3,.11-.42,0,.29,.43-.03,.88-.02,1.15l-.14-.23c.08,.14,.1,.25,.13,.37l.21-.18c-.01,.15,0,.27-.09,.28,.18,.11,.37-.18,.63,.06-.09,.21,.25,.53-.05,.66-.03-.6-.29,.13-.46-.35,.06,.09,.08,.2,.08,.35-.03,.03-.07,0-.09-.04-.14,.63,.4,.18,.54,.75-.19-.03-.29,.22-.23,.3-.06-.23,.26-.19,.44-.01-.04,.4,.21,.36,.25,.55v-.23c.19,.02,.22,.2,.35,.43-.12,.06-.16-.19-.19-.09,.38,.18-.11,.72,.23,1.03-.05,.22-.31,.13-.33,.32,.37,.35-.04,.55,.31,.93,.17-.22,.1-.22,.45,0l-.45-.66,.51,.34c-.08-.22-.32-.4-.34-.55,.27,.15,.21,.15,.35-.03-.21,.43,.42,.51,.35,.93l-.55,.23c-.01,.63,.69,.79,.88,1.5l-.02-.25c.25-.02,.24,.38,.43,.54-.18,.08-.18,.24-.24,.39,.12-.08,.26,.47,.63,.33l-.06,.41c.22,.56,.83,.27,1.08,.77-.27-.02-.25,.27-.58,.04,.1,.16,.17,.32,.28,.24-.04,.16,.51,.28,.46,.53,.12,.01,.3-.09,.41,.09-.02,.04-.08,.06-.08,.06,.08-.06,.3,.18,.37-.09-.16,.84,1,1.23,.91,1.94,.32,.26,.68,.59,.95,.85-.06,.02-.07,.07-.11,0,.21,.5,.62-.16,.87,.4-.02,.43-.34-.1-.3,.12-.41,.51,.55,.44,.56,.98l-.09-.04c.06,.37,.69,.33,1.02,.69,0,0-.06,.03-.07,.07,.47-.02,1.01,.31,1.42,.54-.28,.1-.25-.04-.35,.22,.18,.11,.22-.35,.59-.14,.01,.19,.16,.48,.02,.72l-.31-.24c-.07,.4,.4,.32,.52,.49l-.12,.1c.51,.34,.75,.04,1.25,.45l.02-.13c.51-.1,.1,.36,.56,.33l-.15,.38c.24,.06,.88,.17,1.27,.34-.36,.11-.85-.05-1.19-.09,.18,.14,.66,.43,.87,.34-.1-.02-.25-.01-.29-.11,.42-.09,.78,0,1.2,.26-.11,.15-.12,.28,0,.41,.11,.13,.33,.24,.57,.31,.51,.15,1.07,.02,1.43,.18,.57-.4,.88-.65,1.27-.86,.36-.21,.76-.4,1.11-.71-.63-.26,.2-.18-.22-.63,.14-.16,.21-.2,.25-.19h0l.74-.13c.23,.04-.08,.24,.02,.33,.4-.26,.32,.08,.67,0-.19-.13-.07-.35,.2-.46l-.48,.03c.32-.68,.78,.03,1.1-.65l-.04,.29c.2-.31,1-.83,.93-1.43,.09,.01,.26,.09,.18,.22,.69-.49,1.05-1.63,1.73-1.85l.06,.15c.09-.14,0-.39,.25-.42,.04,.05,.06,.15,.12,.11,.02-.1,.12-.48,.33-.56v.24c.72-.45,.59-1.19,.97-1.77,.33,.3,.87-.09,1.14-.3l.04,.05c.68-.71,.77-1.52,1.15-2.35,.71-.19,1.23-1.46,1.88-2.16-.14,.09-.29-.18-.25-.34,.18-.15-.02-.66,.33-.46l-.04,.07c.42,.02,.54-.42,.67-.74l-.47-.26c1.1-.55,.51-2.29,1.29-2.57-.07-.24-.02-.51-.1-.75l.27,.07c.21-.58,.27-.89,.31-1.65l.18,.18c.06-.43-.76-.63-.74-1ZM28.63,1.89h-.04s.09-.04,.14-.05c.13,.08,.12,.15,.1,.21-.05-.05-.11-.1-.2-.16ZM15.06,6.17s-.02,.03-.04,.04c-.02-.04-.04-.08-.07-.13,.03,.03,.07,.05,.1,.08Z"/><path class="d" d="M28.29,1.93s-.03,0-.06-.03c0,.04,0,.07,.02,.1l.1-.03-.06-.05Z"/><path class="d" d="M4.99,1.04s.04,.01,.05,.03c-.02,0-.02-.02-.03-.03h-.02Z"/><path class="d" d="M14.31,3.79c-.17-.72-.09,.25-.5-.3,.1,.15,.19,.3,.27,.45,.03-.14,.07-.33,.24-.15Z"/><path class="d" d="M12.89,2.08c-.21-.04-.26-.04-.15,.16,.25,.15,.1-.12,.15-.16Z"/><path class="d" d="M1.75,3.04c-.1,.22,.08,.05,.2,.16l-.2-.16Z"/><polygon class="d" points=".26 6.54 .24 6.43 .28 6.81 .26 6.54"/><path class="d" d="M6.01,24.66l.2-.25c-.13-.07-.43,.13-.2,.25Z"/><path class="d" d="M12.21,30.11c-.02,.18,.1,.4,.31,.36-.13-.13-.21-.34-.31-.36Z"/><polygon class="d" points="30.84 17.38 30.88 17.05 30.81 17.18 30.84 17.38"/></g></g></g></svg>