<?xml version="1.0" encoding="UTF-8"?><svg xmlns="http://www.w3.org/2000/svg" xmlns:xlink="http://www.w3.org/1999/xlink" viewBox="0 0 550.5 479.51"><defs><style>.f{fill:#4a211d;}.g{fill:url(#e);}.g,.h,.i,.j,.k,.l,.m,.n,.o,.p,.q,.r,.s,.t,.u,.v,.w,.x,.y,.a`,.aa,.ab,.ac,.ad,.ae,.af,.ag,.ah{stroke-miterlimit:10;}.g,.h,.j,.l,.q,.ac,.ag{stroke-width:.5px;}.g,.o,.p,.y,.a`,.aa{stroke:#575756;}.ai,.aj,.ak,.a`{fill:#fff;}.h{fill:#534850;}.h,.j,.l,.m,.n,.q,.r,.u,.v,.w,.x,.ab,.ad,.ae,.af,.ag{stroke:#3c3c3b;}.al{fill:#35231c;}.i{fill:#bc3126;stroke:#a52721;stroke-width:3px;}.j,.r{fill:#f3d6d3;}.am{fill:#402318;}.an{fill:#b89190;}.an,.ao{opacity:.6;}.k{stroke:#481a1a;}.k,.s,.t,.ac,.ae,.ag,.ah{fill:none;}.ap{fill:#481a1a;}.l{fill:#c29190;}.aq{fill:#442820;}.ar{fill:#35292a;}.m{fill:#3e393e;}.n{fill:#463f44;}.o{fill:#e9e6e7;}.o,.w,.y,.a`,.aa,.ad,.af{stroke-width:.25px;}.as{fill:#cba19c;}.as,.at,.ak,.au,.av{opacity:.7;}.aw{fill:#4a3f49;}.p{fill:#e9c9c6;}.p,.r,.ah{stroke-width:.75px;}.ax{fill:#3b2319;}.aj,.ay{opacity:.8;}.q{fill:#923541;}.at{fill:#c49e99;}.s{stroke:#1d1d1b;}.b`{fill:#1d1d1b;opacity:.3;}.ay{fill:#ecbcb9;}.ba{fill:#b08c87;}.bb{fill:#a39db3;}.au{fill:#c79fa0;}.t,.ah{stroke:#3b2319;}.bc{fill:#3c2319;}.bd{fill:#37241d;}.be{fill:#3c2621;}.bf{fill:#c9a2a2;}.bg{fill:#7a231e;}.bh{fill:#ebe7e7;}.u{fill:#763d45;}.v{fill:#c5a29b;}.w{fill:#49464c;}.bi{fill:#a8a3b9;}.x{fill:#f5d8d5;}.y{fill:#f9f7f7;}.bj{fill:url(#d);}.bk{fill:#88819e;}.bk,.ah{opacity:.9;}.bl{fill:#3b2318;}.aa{fill:#dddce2;}.bm{fill:#462c2a;}.ab{fill:#342d30;}.av{fill:#cda5a4;}.ac{stroke:#432918;}.ad{fill:#494449;}.bn{fill:#3b251a;}.af{fill:#514b50;}.bo{fill:#dadbe0;}.bp{fill:#e8afb9;opacity:.5;}.bq{fill:#93515d;}</style><linearGradient id="d" x1="371.91" y1="188.84" x2="496.5" y2="188.84" gradientTransform="matrix(1, 0, 0, 1, 0, 0)" gradientUnits="userSpaceOnUse"><stop offset="0" stop-color="#161412" stop-opacity="0"/><stop offset=".02" stop-color="#1a1717" stop-opacity=".11"/><stop offset=".11" stop-color="#272226" stop-opacity=".43"/><stop offset=".21" stop-color="#322a33" stop-opacity=".69"/><stop offset=".34" stop-color="#39303b" stop-opacity=".87"/><stop offset=".51" stop-color="#3d3440" stop-opacity=".97"/><stop offset="1" stop-color="#3f3542"/></linearGradient><linearGradient id="e" x1="304.13" y1="334.6" x2="345.49" y2="334.6" gradientTransform="matrix(1, 0, 0, 1, 0, 0)" gradientUnits="userSpaceOnUse"><stop offset="0" stop-color="#161412" stop-opacity="0"/><stop offset=".19" stop-color="#161412" stop-opacity=".6"/><stop offset="1" stop-color="#161412"/></linearGradient></defs><g id="a"/><g id="b"><g id="c"><image transform="translate(2.53 1.06) scale(.97)" xlink:href="../선영-과제/일러스트/유메코.jpg"/><g><g><g><polygon class="bo" points="334.49 387.18 356 465.71 181.99 472.34 177.69 446.8 177.69 416.02 334.49 387.18"/><path class="ba" d="M320.56,425.63l-30.11,42.95s-75.21,3.98-74.81,1.27,3.26-6.03,3.26-6.03v-5.66l101.67-32.52Z"/><polygon class="bi" points="322.47 421.74 308.93 469.18 290.74 468.96 322.47 421.74"/><polygon class="bb" points="180.08 430.82 180.49 468.19 174.87 466.27 173.72 418.26 180.08 430.82"/></g><line class="q" x1="2.41" y1="475.08" x2=".24" y2="475.13"/><path class="q" d="M.24,475.13s11.95-45.7,18.7-65.5c6.75-19.8,10.91-43.16,10.91-45.7s6.23-12.9,7.27-14.32c1.04-1.42-2.6-63.49,22.86-108.11,0,0,95.59-41.02,100.78-39.52l54.55,82.7-37.92,186.37L2.41,475.08"/><path class="w" d="M207.63,248.81l4.94,47.22s-40.1,136.78-29.64,175.32H118.41s-16.27-64.21-11.04-75.74c0,0,43.01-11.53,57.54-21.5,0,0-30.22,19.53-52.31,12.65l72.07-167.46,22.96,29.51Z"/><path class="m" d="M438.11,.54c-.26,3.77,33.29,152.45,53.42,198.11,20.13,45.66,58.46,159.73,58.46,189.66v75.35s-11.17-105.54-30.08-161.55l-17.55-51.98s38.19,119.08,39.23,213.53l-138.84,2.31s89.81-164.89,80.52-181.41c-9.29-16.52-61.4-182.1-60.75-221.87,.64-39.77-.86-60.99-.86-60.99l16.45-1.18Z"/><g><g><path class="bf" d="M196.36,250.57c.52,.26,50.97,36.77,65.16,38.84,14.19,2.06,18.06-.9,29.68-7.48,11.61-6.58,43.74-35.48,43.74-35.48l-62.45,83.35-46.97-7.35-29.16-71.87Z"/><polygon class="bh" points="194.88 293.43 190.23 332.23 232.04 388.65 312.36 385.94 325.71 296.33 252.36 318.98 197.59 284.14 192.17 287.43 194.88 293.43"/><g><path class="o" d="M239.52,316.81s7.29,31.94,6.26,40.26l5.16,8.52h6.97l7.74-12.19s.19-21.29-2.32-27.48-4.45-11.23-4.45-11.23l-19.35-2.52v4.65Z"/><path class="y" d="M257.97,329.8c0,2.95-2.01,5.35-4.97,5.35s-5.48-2.03-5.48-4.98,2.11-5.71,5.07-5.71,5.39,2.39,5.39,5.35Z"/></g><path class="h" d="M231.88,335.58l19.06,30h6.58s13.26-19.84,16.16-21.19,6.77,8.03,6.77,8.03l-24.29,24.68-21.68-.39-10.74-20.81-2.81-17.03,10.94-3.29Z"/><path class="aa" d="M259.13,317.85s-6.94-6.15-17.81-3.48c-6.06,1.49-24.52,70.84-24.52,70.84l-19.87-56.65s3.74-37.16-4.97-79.74l15.48,10.45s15.48,29.61,21.1,35.61c5.61,6,22.45,11.48,30.58,22.97Z"/><path class="aa" d="M254.62,312.48s26.32,.65,63.23-51.23l33.29-38.45,11.74,53.03-33.42,126.19s-31.23,3.74-31.23,2.84-16.77-50.32-16.77-50.32c0,0-17.42-34.45-26.84-42.06Z"/></g><path class="aq" d="M210.88,262.46s31.03,28,43.23,31.68c12.19,3.68,24.39,4.95,37.94-8.65s17.81-19.22,17.81-19.22c0,0-29.42,22.37-43.16,19.22s-55.81-23.03-55.81-23.03Z"/><path class="b`" d="M206.14,336.83c.19,.22,46.84,28.7,76.06-11.94,6.93-9.64,44.32-53.34,51.1-80.44,6.77-27.1-97.16,6.77-97.16,6.77l-67.67-45.55-19.01,4.97v69.71l56.69,56.47Z"/></g><polygon class="bj" points="399.4 63.77 432.16 63.77 496.5 313.9 389.46 304.53 371.91 169.67 399.4 63.77"/><path class="q" d="M389.93,197.89s112.33,88.59,126.65,92.91c7.76,2.34,16.95,23.85,16.48,42.09s-19.77,138.43-19.77,138.43h-177.5v-27.13l54.15-246.3Z"/><path class="af" d="M397.32,212.42s1.03,192.77,0,196.9l-32.52-9.24-39.74-6.76,10.84-48s14.45-46.97,15.48-57.29c1.03-10.32,45.94-75.61,45.94-75.61Z"/><path class="ad" d="M334.86,372.17s28.9,35.6,55.23,46.44c0,0-36.65,47.48-36.13,51.1s-37.16,0-37.16,0c0,0,10.84-15.48,11.87-33.03,1.03-17.55-6.19-36.6-6.19-36.6l12.39-27.91Z"/><polygon class="aw" points="132.34 188.06 147.76 220.22 168.47 205.68 159.87 183.7 132.34 188.06"/><path class="ar" d="M84.59,1.72s-35.1,196.67-13.94,237.05l1.81-1.82s-10.32-88.08,5.68-120.61C94.14,83.8,84.59,1.72,84.59,1.72Z"/><path class="ab" d="M85.88,1.72s-25.81,170.6,7.23,227.37l4.39-1.69s-10.91-22.28-9.84-28.75c0,0,8.04,20.73,13.71,26.55l12.39-1.5L92.85,1.72h-6.97Z"/><path class="x" d="M142.66,159.8s26.82,67.23,43.74,82.06c17.23,15.1,34.26,28.06,50.32,36.58,16.06,8.52,20.13,12,29.23,11.42,9.1-.58,17.61-2.71,26.71-10.06,9.1-7.35,26.9-18.77,37.74-30.39s17.81-18.77,23.03-27.87c5.23-9.1,24.19-66.97,24.19-66.97l22.45-115.94-53.81-24.77L216.21,31.86l-62.71-1.94-45.29,56.9,34.45,72.97Z"/><path class="as" d="M229.37,124.07l2.48,.25v-7.55l2.85,7.02,11.56,.53,.39-8.47s3.05,9.15,3,9.29,20.42,.34,20.42,.34c0,0,.77-12.63,.77-12.77s2.37,11.66,2.37,11.66l11.82,.26,12.9-15.87,75.1-4.13-12.58-81.87-248.32,12.58,30.97,93.87,15.1-.77,50.71-25.55,20.45,21.19Z"/><path class="aj" d="M157.56,122.08s29.71-43.93,71.87,1.61l-17.94,13.42s-14,7.86-33.29,0c-9.24-3.77-20.65-15.03-20.65-15.03Z"/><path class="aj" d="M363.2,107.67s-38.17-39.71-73.64,11.21l18.58,9.32s19.37,7.22,37.39-3.23c8.64-5.01,17.67-17.31,17.67-17.31Z"/><path class="v" d="M159.87,198.65c-1.24,0-12.15-4.84-13.8-7.55s-3.09-32.32-3.09-32.32l16.89,39.87Z"/><path class="bm" d="M155.63,122.91c.52,.9,13.81,13.16,18.71,14.71s-15.35-9.94-13.42-15.74"/><path class="bn" d="M157.56,127.04s7.61,9.45,13.29,10.72c0,0-10.45-1.17-13.29-10.72Z"/><path class="bl" d="M178.21,137.76s24.52,4.24,33.29-.66c0,0-14.97,10.09-33.29,.66Z"/><ellipse class="f" cx="193.69" cy="120.07" rx="18.58" ry="17.03"/><circle class="i" cx="193.24" cy="120.52" r="13.01"/><circle class="bg" cx="193.24" cy="120.52" r="3.74"/><path class="am" d="M346.38,124.98s12.27-9.48,11.29-17.29l4.75,.43s-3.22,9.19-16.05,16.86Z"/><path class="al" d="M361.05,113.49s-4.77,8-10.06,11.48c0,0,9.42-2.58,10.06-11.48Z"/><path class="bd" d="M308.14,128.2s22.71,2.32,32.65-1.16c0,0-9.68,8.9-32.65,1.16Z"/><circle class="f" cx="324.47" cy="107.43" r="18.07"/><circle class="i" cx="325.17" cy="107.88" r="13.01"/><circle class="bg" cx="325.17" cy="107.88" r="3.87"/><path class="ax" d="M255.37,195.04s4.65,1.68,4.77,3.61,2.32-4.65-4.77-3.61Z"/><path class="ax" d="M270.08,196.97s1.94-2.01,4-1.92-4.26-1.6-4,1.92Z"/><path class="u" d="M226.08,228.07c-1.27-.08,22.46-.64,26.97-4.65,2.32-2.06,8.39,.39,14.19,1.16s11.1-6.06,17.29-3.35c6.19,2.71,20.9,3.35,23.61-.13s-15.61,18.84-40,19.87c-.1,0-.19,0-.28,.01-23.02,2.22-24.04-11.76-41.78-12.91Z"/><path class="bq" d="M248.48,236.88s13.71-11.19,39.78-2.19c0,0-3.85,2.24-7.61,3.35-8.17,2.41-22.27,3.73-32.16-1.17Z"/><path class="ax" d="M285.63,81.17s47.31-27.1,76.2-18.58c0,0-21.88-7.94-36.66-3.48-14.77,4.45-39.55,22.06-39.55,22.06Z"/><path class="ah" d="M291.63,98.39s35.42-31.68,72.19-4.52"/><path class="t" d="M292.4,105.36s39.48-31.55,72.77-5.61"/><path class="ax" d="M142.98,85.04s34.65-21.48,79.16-1.16c0,0-30.97-26.71-79.16,1.16Z"/><path class="ah" d="M225.82,105.36s-30.97-23.39-74.9-7.92"/><path class="t" d="M226.98,112.72s-25.74-24.88-72.77-.34"/><path class="av" d="M255.37,251.68c.65,0,18.26,3.29,28.13-1.55,0,0,1.08,8.07-11.22,10.06-14.32,2.32-16.91-8.52-16.91-8.52Z"/><path class="au" d="M334.79,218.2s10.88-12.8,19.62-32.9,11.93-32.32,11.93-32.32l-2.52,46.65-11.05,22.56s-23.89,32.57-32.26,35.68c0,0,28.79-40.43,32.27-56.89,0,0-7.94,11.23-18,17.23Z"/><path class="at" d="M167.65,206.31s11.22,15.81,18.07,20.69c0,0-39.5-59.59-37.73-66.79s-9.45-6.41-9.45-6.41c0,0,32.47,70.64,45.34,84.81,12.87,14.16,42.41,36.32,73.35,50.24,2.32,1.04,10.86-.82,9.81-.72s-63.91-28.05-78.91-51.29l-20.48-30.52Z"/><path class="a`" d="M250.64,226.63c2.97,.01,17.57,.19,37.89-2.08,.31-.03,.96-1.02,.99-1.33,0,0-.84-.14-1.16-.21-.63-.14-1.74-.42-2.93-.85-1.84-.68-3.58-2.08-9,.27s-5.25,2.73-9.07,2.73c-.44,0-8.9-1.83-10.11-1.94-1.3-.12-2.83-.33-4.11,.77-1.19,1.02-3.39,1.6-3.39,1.6,0,0,.55,1.04,.9,1.04Z"/><path class="be" d="M147.76,122.65l13.16-.77s9.57-13.92,18.58-15.61c8.9-1.68,28.13-4,49.94,17.42,0,0-14.58-23.74-39.87-22.58s-34.19,17.16-34.19,17.16l-7.61,4.39Z"/><path class="bc" d="M289.56,118.14c21.55-31.74,32.52-29.94,47.61-29.55s27.74,16.39,27.74,16.39l8.13,4.13-15.61-1.42s.9-4.9-18.71-12.26-49.16,23.45-49.16,23.45"/><path class="ay" d="M273.32,173.63c.03-1.27-.59-2.11-1.44-2.54,0-.1,0-.2,.01-.31,.22-3.23-3.86-3.71-5.42-1.57-.57-.68-1.42-1.13-2.32-1.13-1.19,0-2.16,.7-2.66,1.69-.51,.25-.96,.64-1.31,1.13-.71,.06-1.41,.33-1.94,.82-1.41,1.28-1.7,3.19-1.07,4.74-.41,.64-.61,1.41-.45,2.22,.05,.24,.07,.46,.1,.69-.1,.17-.18,.36-.24,.57h0c-.04,.16-.08,.32-.1,.48-.01,.06-.03,.12-.04,.18-.04,.32-.03,.61,0,.9,0,.59,0,1.17,0,1.76,0,1.08,.47,1.85,1.15,2.32,.11,1.32,.61,2.52,1.68,3.46,.14,.31,.35,.6,.64,.85,1.2,1.03,2.59,1.61,3.99,1.78l.43,.16c.83,.31,1.72,.08,2.44-.42,1.52-.46,2.92-1.41,3.96-2.85,.66-.91,.6-1.9,.15-2.72,.19-.26,.35-.56,.46-.9,1.19-3.68,1.82-7.44,1.97-11.31Z"/><path class="bp" d="M225.63,228.42s6.28,2.66,13.3,7.28c6.33,4.17,10.81,9.9,17.23,11.54,3.95,1.01,11.23,1.35,17.68,0,6.87-1.43,14.38-6.18,16.65-8.01,0,0,15.7-13.88,18.02-17.82,2.32-3.94-.56,2.17-17.39,13.14,0,0-20.14,12.08-40.19,4.71-3.16-1.16-7.43-4.04-8.07-4.59-.78-.67-10.28-6.49-17.22-6.55"/><path class="bp" d="M226.03,227.4c4.22-.97,19.58-5.68,22.45-6.81s8.16-4.34,18.74-1.13c1.49,.45,6.83-6.64,21.55-.39,5.81,2.46,19.29,1.18,19.29,1.18,0,0-.39,3.41-15.23,2.37-5.17-.36-9.94-2.87-11.26-2.58s-1.04-.36-7.97,2.48c-4.32,1.77-4.71,2.08-8.29,1.17s-8.78-1.61-9.78-1.51-.99-.22-3.09,.98c-1.35,.77-2.39,2-22.13,4.23h-4.29Z"/><ellipse class="ai" cx="182.56" cy="129.82" rx="5.64" ry="4.06"/><ellipse class="ai" cx="210.78" cy="127.04" rx="4.54" ry="3.14"/><ellipse class="ai" cx="312.17" cy="118.88" rx="5.65" ry="3.9"/><ellipse class="ai" cx="341.85" cy="112.37" rx="4.54" ry="3.14"/><path class="ak" d="M289.86,238.45c.91,.89-6.34,3.03-6.34,1.76s1.1-3.26,3.17-3.26,2.58,.93,3.17,1.5Z"/><g><polygon class="ap" points="37.89 465.8 37.89 428.77 53.89 465.98 37.89 465.8"/><path class="ap" d="M37.89,359.81s-3.61,12.93-2.06,24.87,25.81,83.51,25.81,83.51c0,0-20.13-83.27-23.74-108.38Z"/><path class="ap" d="M81.63,449.62s-20.13-59.52-13.16-87.48c0,0,9.68,58.64,13.16,62.57,0,0,10.31-77.27,24.7-85.83l-24.7,123.65v-12.9Z"/><path class="k" d="M71.56,253.53s6.92,115.29,14.11,146.16"/><path class="ap" d="M400.27,231.19s1.23,87.58-2.52,103.41l-4.34-97.66,7.05-15.63-.19,9.87Z"/><path class="ap" d="M412.98,279.53s2.06,82.88-12.71,125.47h-4.9l-1.16,5.24-30.39-6.77,26.27,15.14-21.84,29.07,18.6-16.34-3.68,34.46h11.61s2.52-53.35,15.87-95c13.35-41.65,13.94-65.53,12.39-72.56-1.55-7.02-.58-8.13-10.06-18.71Z"/><path class="ap" d="M431.76,329.8s-3.48,23.06,0,25.63,22.26-19.03,22.26-19.03c0,0-40.84,60.88-46.45,89.24,0,0,21.87-100.41,24.19-95.83Z"/><path class="k" d="M404.47,465.8s17.81-101.7,84.39-148.79"/><path class="k" d="M506.27,309.6s8.71-2.23,13.94,2.56"/><path class="ap" d="M415.89,464.83c0,.39,92.24-79.73,89.23-102.19-.97-7.21-66,62.52-77.03,89.42l-12.19,12.77Z"/><polyline class="s" points="324.47 395.6 329.09 396.82 348.34 465.98"/></g><g><path class="bc" d="M323.78,91.22s4.23-.61,1.94-8.5l2.29,7.89s9.86,1.64,8.19-11.26c0,0,1.68,9.29,.9,10.58s-13.32,1.29-13.32,1.29Z"/><path class="bd" d="M314.61,130.1c-.31-.02-.59,.16-.7,.45-.36,.86-1.24,2.6-2.59,2.68-1.81,.11,2.97,.24,4.39-1.18,1.07-1.07,2.03-.08,2.33,1.2,.12,.51,.74,.72,1.14,.38,.86-.7,1.95-1.58,1.99-1.58,.08,0,1.63-.47,1.76,1.18,0,0,1.03-1.72,.84-2.16-.16-.38-7.16-.84-9.15-.97Z"/><path class="bd" d="M331.3,133.14c.39,.25,.32-.07,.45-.53l.23-.83c.09-.33,.38-.54,.71-.52,.48,.02,1.92,.42,2.55,.67,.52,.21,.25,0,.22-1.12h0c-.08-.47,.27-.88,.72-.86,1.24,.05,3.44,.28,3.99,1.25s-.14-.54-.56-1.42c-.15-.31-.59-.87-.92-.79l-8.78,2.27c-.66,.16,1.28,1.82,1.39,1.89Z"/><path class="bl" d="M181.47,139.14c-.62,1.19,26.7,1.4,26.84-.13,0,0,1.31,1.93,3.96,1.58,2.65-.34-3.42,1.53-4.84,.66,0,0,.26,2.93,1.03,2.83s-.77,.09-.77,.09c0,0-2.33-3.92-4.02-3.07-1.94,.97-1.35,2.37-1.69,3.87-.32-.64-5.19-5.2-7.74-3.63-1.11,.69-1.71,4.46-1.26,4.02-1.24-1.07-2.94-8.2-7.26-.97,0,0,.6-3.2-1.08-3.52s-4.45,1.35-4.45,1.35c0,0,2.33-5.09,1.29-3.1Z"/><path class="be" d="M157.31,117.9s-4.47,.78-9.48,0c0,0,10.84-.59,11.13-1.31s.39-4.2-2.9-4.4c0,0,5.42,1.28,5.61,2.14l-4.35,3.57Z"/><path class="be" d="M187.04,101.86c1.55,.06,1.43-2.77-2.22-4.58s6.36,3.1,6.32,5.03l3.09-.45s1.71-3.94-.45-5.68,5.39,3.16,3.32,6.13l-1.71,.96h-7.39l-.97-1.41Z"/><path class="be" d="M212.04,107.32c3.16,1.1,5.23,1.61,4.52-2.39-.71-4-.52-3.48-.52-3.48,0,0,2.06,4.39,1.61,6.45-.45,2.06-1.61,1.87-1.61,1.87l-4-2.45Z"/><path class="bc" d="M300.31,103.02s-7.41,5.32-11,5.6c0,0,10.48-2.14,11-2.8s6.84-4.67,6.84-4.67c0,0-6.19,2.16-3.87-14.4,0,0-4.2,14.44-2.97,16.27Z"/><path class="bc" d="M356.85,97.9c.9,0,4.39,2.97,9.48,2.58l-6.13,.7-3.35-3.28Z"/></g><path class="n" d="M140.54,115.51l13.4-2.6,1.69-86.51,1.94,84.77,10.07-4.13V35.3l1.83,70.77,14.81-5.01s2.12-79.33,6.58-71.01l1.68,71.01,21.29,2.94-2.32-61.35s5.83,68.36,7.35,70.84c1.52,2.47-3.68-54,3.29-83.42,0,0-4.45,45.1,10.45,80.13l11.03,2.17s-6.77-35.85-4.26-62.17c0,0-.77,47.7,7.35,62.17l23.35-1.01s3.75-18.97,3.36-28.65c0,0,3.48,16.65,1.94,30l4.55,.77s4.15-43.35,2.8-60.19l-1.94,56.19,13.29-.58s4.77-85.81,0-92.19c0,0,10.83,74.6,10.67,82.59l1.65-.72s-.45-41.03-.84-46.06c-.39-5.03,4,46.64,3.68,48.54s13.35-10.6,13.35-10.6c0,0-.39-52.26-2.71-59.81l8.13,60.39,11.23-.19-1.74-71.42,6.19,72.19,17.35,7.55s-4.44-83.19-6.64-82.73,12.9,87.21,12.9,87.21c0,0-1.94-89.65-8.9-99.52,0,0,27.1,137.42-17.61,198.97,0,0,39.48-48.19,42.39-120.39,0,0-23.35,107.55-32.19,142.23l-10.19,43-9.48,42.39,21.29-14.13,12.58-48.97-5.23,41.67s14-6.84,13.1-8.19,19.42-81.68,18.26-79.74l-1.16,1.94-12.58,73.35s7.55-6.19,7.74-6.97,16.26-64.84,16.26-64.84l-12.97,61.74S436.01,101.68,424.79,1.72H88.4s-8.9,177.97,34.84,278.23c0,0-23.61-103.45-20.13-123.92,0,0,3.48,93.85,34.84,132.88,0,0-14.32-49.08-12.39-68.31,0,0,5.03,51.61,17.42,76.38l39.48,30.19s-43.35-132.39-39.48-173.81l-24.77-59.48s29.77,81.46,68.52,129.12c0,0-66.34-103.76-52.02-175.4,0,0-8.6,43.38,5.84,67.91Z"/><g><path class="ae" d="M291.17,433.83s-.97-4.86,0-8.14"/><g><g><path class="r" d="M307.23,351.36l1.74-14.32s0,1.16,3.29-26.52c0,0,7.97-33.48,22.65-36.19,5.23-.97,18.9-4.95,13.55,16.45-4.84,19.35-7.74,17.23-9.29,31.94-1.55,14.71-.39,48.58-.39,49.16s.19,4.84-1.35,10.06c-1.55,5.23-5.61,11.42-6.39,15.87s-2.13,6.39-3.48,18.39c-1.35,12-15.32,20.52-20.53,21.68s-11.4,8.9-12.76,13.55c-1.35,4.65-5.23,9.1-12.77,9.48s-26.13,10.26-26.9,15.1c-.77,4.84-16.84-7.24-28.26-7.88s-28.05-10.03-50.9-28.32c-6.77-5.42-15.87-52.45-15.87-55.55s7.55-6,7.55-6c0,0-4.95-16.29-6.84-28.23-.41-2.61-.68-5.01-.71-6.99-.19-11.03,4.65-4.84,4.65-4.84,0,0-.19-16.65,1.94-15.1s-1.35-30-1.35-30c0,0,17.42,2.9,27.87,20.32,10.45,17.42,18,25.55,19.55,32.52,0,0,26.13,20.9,29.61,35.03,0,0,11.61-12.19,27.87-9.29,0,0,18.77-20.9,37.55-20.32Z"/><path class="j" d="M321.55,401.3s-2.13-9.68-11.03-10.45c0,0-.77-12.58-21.1-9.87,0,0-4.84-6-18.58-8.71-13.74-2.71-37.71,6.28-35.23,22.65,.97,6.39,14.9,5.61,14.9,5.61,0,0,4.06,5.25,8.71,7.16,3.29,1.35,7.35,4.26,7.35,4.26,0,0,2.9,5.81,5.81,6.58,2.9,.77,6.77,1.55,10.26,1.16,0,0,.39,3.29,7.55,4.65l7.16,1.35"/><path class="ag" d="M320.01,382.72s-9.29-9.48-24.58-5.03c0,0-2.13-.8-6.58,1.92"/><path class="an" d="M176.45,437.3s2.26-11.15,19.13-5.67c0,0,6.23-17.75,23.45-13.3,17.23,4.45-1.16-.72-1.16-.72,0,0-14.52-24.77-13.74-24.22s16.51,21.01,16.51,21.01c0,0-12.11-21.07,15.01-26.38,0,0-1.33,3.78-.36,6.49s16.84-4.65,17.81-7.74c.97-3.1,23.61-9.03,35.42,6.61,0,0,19.25,.63,30,10.61,2.71,2.52-1.55-20.71-1.55-20.71,0,0-1.56-6.72-.58-8.41s-9.29-16.95-8.52-20.04c0,0,13.3,15.22,12.58,12-.39-1.74,.03-19.55,.03-19.55l-11.83-10.65s5.23-21.71,7.74-22.66c0,0,18.39-5.59,26.13-15.85,7.74-10.26,2.45,3.02,2.45,3.02,0,0-10.39,15.56-6.52,70.34,0,0,.26,7.26-2.65,13.55-2.91,6.29-7.27,13.61-9.28,34.09-.89,9.07-19.11,18.17-19.11,18.17,0,0-7.02-1.31-15.19,17.44-3.7,8.5-11.89,4.35-16.41,6.95s-19.4,6.65-21.83,14.59-2.89-.28-30.56-8.82c-17.45-5.39-23.74-8.39-48.33-28.04l1.35-2.13Z"/><path class="l" d="M237.36,395.68s8.52,1.35,16.06-8.52c0,0,16.65-1.18,17.61,1.25s-8.71,10.94-20.52,12.11c-11.81,1.16-14.54-4.43-14.54-4.43l1.38-.41Z"/></g><path class="p" d="M160.33,363.33c-.58,0-5.23-2.88-1.94,13.08,3.29,15.96,5.81,15.57,8.13,15.57s2.71-3.24,2.71-3.24l-6.97-24.58-1.94-.83Z"/><path class="p" d="M180.92,327.87c-.7,1.07-1.88,1.81-3.17,1.81-4.97,.02-12.62-1.82-19.78-23.92-4.51-13.9,6.47-19.73,16.68-.93,8.34,15.36,7.93,20.5,6.28,23.03Z"/><path class="p" d="M161.72,349.63c.86,1.47,2.27,2.51,3.89,2.82,3.71,.69,9.2-.82,3.74-18.96-7.38-24.55-15.29-17.71-15.29-17.71,0,0-10.18,3.26,7.65,33.86Z"/></g><path class="g" d="M310.41,324.09s-2.76,10.03,9.13,12.39c9.44,1.87,22.61,.64,19.15-7.07l.35-2.93s4.63-.06,5.24,1.87,5.98,12.99-12.17,16.26c-14,2.52-24.88-5.1-26.77-9.21-1.65-3.58-2.84-10.34,5.07-11.31Z"/><g><path class="ac" d="M307.23,356.41c0,1.94,8.52,19.96,13.55,20.04"/><path class="ac" d="M169.4,328.29c.35,.77,16.35,39.52,20.22,43.5s26.49,37.16,31.02,42.63c4.53,5.47,34.79,35.94,35.05,36.19"/><path class="ac" d="M227.04,463.51s-21.59-18.73-28.39-25.81c-6.8-7.07-10.32-22.45-16.77-31.74-6.45-9.29-11.61-13.99-11.61-13.99,0,0-7.47-18.52-8.87-31.17"/></g></g></g><g class="ao"><path class="bk" d="M85.61,.66s-2.32,31.39,0,44.03c0,0-1.29-28.39,0-28.39s2.58,.52,2.58,.52l.52-3.61,1.76-.26,2.89-.39,1.42-11.9-8.65,.29-.52-.29Z"/><polygon class="bk" points="98.13 8.82 98.13 15.53 99.68 15.53 100.19 8.82 98.13 8.82"/><rect class="bk" x="102.9" y="8.82" width="1.42" height="6.71"/><polygon class="bk" points="117.48 12.18 116.97 20.88 120.97 20.88 120.97 12.7 117.48 12.18"/><path class="bk" d="M124.97,12.18l-.9,4.35h-1.03v10.1s1.81,.9,1.94,2.06,0,10.45,0,10.45c0,0,.26,10.32,1.03,10.71s0-9.94,0-9.94l3.48-23.39,1.94-15.32h-1.55l-.52,5.42-2.13,.52s-.97,2.19-1.1,2.71-1.42,.26-1.42,.26l.26,2.06Z"/><polygon class="bk" points="159.16 9.47 158.26 15.53 157.22 16.53 157.22 41.47 159.16 41.47 159.16 33.6 160.32 33.99 160.32 31.66 162.13 31.66 162.13 23.53 162.13 18.5 160.71 18.63 161.1 10.12 159.16 9.47"/><polygon class="bk" points="164.06 23.41 164.06 30.6 166.26 30.6 166.26 22.68 164.06 23.41"/><polygon class="bk" points="172.19 22.68 172.19 30.19 174 30.12 174 23.79 172.19 22.68"/><path class="bk" d="M191.16,18.76s-1.68,9.68-.9,12.77h2.65v-6.39h1.22v-6.77l-2.97,.39Z"/><polygon class="bk" points="197.87 25.54 194.9 25.54 194.9 32.44 197.22 32.44 197.87 25.54"/><polygon class="bk" points="200.97 24.95 200.19 32.44 201.48 32.44 200.97 24.95"/><path class="bk" d="M227.29,14.89l-1.03-.65s-.13-2.05-.52-2.25-3.31,0-3.31,0l1.25,19.54h2.71s-.39-2.9,.13-2.55,1.16,0,1.16,0l-.39-14.1Z"/><polygon class="bk" points="237.22 18.37 234.26 18.37 234.26 21.72 234.26 27.66 236.32 27.66 237.22 18.37"/><polygon class="bk" points="250.64 17.47 248.71 18.37 248.71 25.54 250.64 26.43 250.64 17.47"/><polygon class="bk" points="260.32 16.53 257.87 16.53 258.51 24.95 260.32 24.18 260.32 16.53"/><path class="bk" d="M270.51,11.9l-1.68-.89-1.94,1.16s-.13,3.8,0,4.35,1.03,.81,1.16,.94,.62,4.63,.62,4.63l3,.58-1.16-10.78Z"/><path class="bk" d="M279.03,4.82h-1.16V1.21h-2.84V5.47s-2.32,.27-2.32,.59v7.93h2.45l.71,4.39,1.61,2.37s-.26,5.24-.26,5.69,2.19,.21,2.19,.21c0,0,1.24,4.12,1.65,4.89s1.7,12.13,1.7,12.13V18.37l-3.74-13.55Z"/><path class="bk" d="M315.93,1.21l.52,1.81v2.45s1.55-.65,1.55,0v2.45l2.62,.9,2.55,18.84h-2.55l-1.45-8.39h-1.82l-1.23-3.74,1.36-1.1-.9-2.26-.39-4-.9-2.84V1.21h.65Z"/><path class="bk" d="M341.87,11.02l-.77,1.29h1.31v2.13l-3.24,1.35-1.18-4.39s-.41-2.84,0-2.84,1.57-1.29,1.44,0,1.55,1.81,1.55,1.81l.9,.65Z"/><path class="bk" d="M345.61,8.57s-1.81-1.02-1.81-.57v4.96h1.81v-4.39Z"/><path class="bk" d="M366.13,1.21V7.28s1.81-1.28,1.81,.72,.56,5.73,.56,5.73c0,0,.6,.65,.99,2.06s1.55,1.06,1.55,1.06l1.03,6.17,1.03,3.62V7.88l-1.94-1.12-.26-3.35-1.29-2.74-3.48,.55Z"/><path class="bk" d="M376.58,4.95s-1.03-2.71-1.42-2.71-1.68-.26-2.06,.9,0,3.35,0,3.35c0,0,.9-.26,.9,0s1.55,2.45,1.55,2.45l2.84-.96-1.81-3.04Z"/><path class="bk" d="M392.06,1.21l.77,2.06s1.68-.9,1.16,.77,1.52,2.06,1.52,2.06c0,0-.28,1.94,0,2.32s1.7,0,1.7,0V2.63l-1.7-1.42h-3.46Z"/><polygon class="bk" points="402 1.21 402 5.59 402.77 7.99 407.03 7.99 407.03 1.73 402 1.21"/><polygon class="bk" points="410.43 .66 410.26 5.59 411.93 5.59 411.1 9.47 414.26 9.47 414.26 32.05 415.03 32.05 415.8 1.21 410.43 .66"/></g></g></g></g></svg>