<svg xmlns="http://www.w3.org/2000/svg" viewBox="0 0 299.08 356.08"><defs><style>.cls-1{fill:#f7e55c;}</style></defs><g id="Layer_2" data-name="Layer 2"><g id="Layer_1-2" data-name="Layer 1"><path class="cls-1" d="M208.55,8.32h0c11.13,2.62,22.35,6.51,30.75,14.27C246.12,28.9,250.61,37.35,254,46c6.13,15.52,9.24,32.45,7.24,49-2.17,18-10.28,35.7-7.53,53.65,3.19,20.78,20.21,36.87,26.22,57,3.68,12.35,3,25.51,3.76,38.38a173.45,173.45,0,0,0,7.74,42.11c2,6.39,4.44,12.79,4.71,19.5.62,14.88-9.64,28.45-22.27,36.35-26.6,16.64-61.45,12.43-90.74,1.15s-55.95-28.87-85.81-38.52c-19-6.13-39.76-9.32-55.28-21.87-10.1-8.17-17-19.63-22.4-31.46-20.7-45.44-21-98.51-7.21-146.52,7.31-25.54,20-51.72,43.37-64.29C68.58,33.67,83.09,30.94,96,24.38c10.15-5.15,19.29-12.63,30.24-16.12C151.53.21,183.18,2.37,208.55,8.32Z"/><path d="M207.75,11.22c7.83,1.83,15.62,4.24,22.55,8.4a45.56,45.56,0,0,1,16.44,17.74,102.27,102.27,0,0,1,9.15,24.16,94.35,94.35,0,0,1,2.89,27.34c-.84,18.32-9.21,35.6-8.57,54.06.58,16.49,9.67,30.14,17.7,43.94,3.9,6.7,7.55,13.59,9.58,21.12,2.39,8.91,2.59,18.18,2.88,27.34A208.13,208.13,0,0,0,283,264a203.87,203.87,0,0,0,7.12,27.83c1.38,4.31,2.75,8.73,3,13.27a30.21,30.21,0,0,1-1.3,10.68c-2.19,7.13-6.81,13.34-12.3,18.31-11.47,10.39-27.24,15.17-42.46,15.94-34.75,1.77-66-14.78-96.18-29.8-15.89-7.92-32-15.36-49.08-20.35-15.61-4.56-32.19-8-45.63-17.64S24.8,256.93,18.92,241.93A187.55,187.55,0,0,1,7,191.86a222.53,222.53,0,0,1,1.14-52.41,226.14,226.14,0,0,1,12-48.36c5.23-13.85,12.53-27.36,23.26-37.73A65.65,65.65,0,0,1,62.21,40.72c8.17-3.7,16.86-6.11,25.23-9.34s15.82-7.58,23.43-12.2a107.37,107.37,0,0,1,11-6,64.71,64.71,0,0,1,11.45-3.75C150,5.31,167.5,5.29,184.42,7.17a198.23,198.23,0,0,1,23.33,4.05c3.76.87,5.36-4.91,1.6-5.79A194.3,194.3,0,0,0,157.21.15a129.4,129.4,0,0,0-26,3.58c-8.64,2.17-16.31,5.95-23.88,10.56C103.6,16.58,99.89,18.93,96,21a100.11,100.11,0,0,1-12.42,5.45C75,29.62,66.13,32.23,57.81,36.17,43.51,42.94,32.47,54.53,24.47,68,16.23,81.91,11,97.46,7.16,113.07A243.5,243.5,0,0,0,0,166.74a210.27,210.27,0,0,0,5.6,52.91,182.23,182.23,0,0,0,8.14,25.5,133.72,133.72,0,0,0,11.8,23.41,70,70,0,0,0,17.59,18.81c6.84,4.92,14.67,8.31,22.61,11s16.29,4.83,24.44,7.21A212.68,212.68,0,0,1,115,314.54c32.86,14.21,63.6,34.9,99.66,40.2,16.38,2.4,33.59,1.91,49.13-4.28,14.74-5.87,28.34-16.74,33.57-32.19,2.89-8.55,1.92-17.19-.66-25.68-2.86-9.4-5.78-18.65-7.54-28.34a195,195,0,0,1-2.75-28.93c-.3-9.58-.55-19.31-3-28.63-4.15-15.73-14.69-28.48-21.6-42.94a52.69,52.69,0,0,1-5.57-23.55c.13-9.33,2.55-18.43,4.7-27.46,2.2-9.28,4-18.61,4-28.19a104.16,104.16,0,0,0-4.16-28.22c-4.81-16.8-12.78-33.66-28.57-42.58-7.07-4-14.92-6.47-22.79-8.32C205.59,4.55,204,10.33,207.75,11.22Z"/></g></g></svg>