<svg xmlns="http://www.w3.org/2000/svg" viewBox="0 0 160.03 134.81"><defs><style>.cls-1{fill:#4f4fc9;}</style></defs><g id="Layer_2" data-name="Layer 2"><g id="Layer_1-2" data-name="Layer 1"><path class="cls-1" d="M30,99.58h0c4.66,18.53,25.28,28,44.06,31.5,4,.74,8.13,1.32,11.93,0,8.83-3,11.41-13.86,15-22.45a54.5,54.5,0,0,1,34.62-30.73c4.69-1.35,9.72-2.12,13.7-4.93,5.47-3.86,7.91-11,7.73-17.66S154.51,42.23,152,36c-4.63-11.34-11.32-23.76-23.24-26.58-11.7-2.77-22.83-.92-34.8-4.3-10.67-3-20-2.38-30.87-1.07-14.73,1.77-32.2,3-44.91,11.56C6,23.79,1.34,38.08,3.51,52.37,5.59,66.12,12.56,65.32,21.1,73.44,28.8,80.74,27.57,89.91,30,99.58Z"/><path d="M27.11,100.38c3.5,13.91,15.5,23,28.14,28.29a85.63,85.63,0,0,0,20.46,5.72c4.57.68,9.08.72,13.32-1.32a19.66,19.66,0,0,0,7.52-7c3.78-5.71,5.41-12.7,8.31-18.61a51.89,51.89,0,0,1,13.31-16.87,50.31,50.31,0,0,1,18.89-9.92c4.08-1.13,8.27-2,12-4a19.66,19.66,0,0,0,8.13-8.42c4-7.9,3.24-16.9.59-25.11a95.07,95.07,0,0,0-9.7-21.57c-3.88-6.15-9-11.56-15.94-14.19C128,5.81,123.39,5.37,119,5s-9-.46-13.56-.86A63.41,63.41,0,0,1,99,3.28c-2.39-.46-4.7-1.19-7.07-1.73A63.26,63.26,0,0,0,78.35,0c-8.5-.06-17,1.24-25.43,2.28C37.58,4.18,20,7.09,9.31,19.49a39.12,39.12,0,0,0-9,20.7,43.86,43.86,0,0,0,0,11,29.43,29.43,0,0,0,3,10.6c2.74,5,7.77,7.58,12.2,10.83a36,36,0,0,1,3.31,2.78,18,18,0,0,1,3.4,4.27,29.55,29.55,0,0,1,2.95,9.76c.6,3.64,1,7.32,1.91,10.91.93,3.75,6.72,2.16,5.79-1.59-1.73-7-1.66-14.4-4.87-21-3-6.08-8.62-9.77-14-13.46-.45-.31-.9-.62-1.34-.95-.17-.12-.73-.56-.28-.2l-.75-.62Q11,62,10.4,61.41c-.17-.18-.34-.36-.5-.55s-.21-.25-.32-.38c.18.21.17.25,0,0a17.17,17.17,0,0,1-1-1.56c-.16-.29-.3-.59-.45-.88a2.64,2.64,0,0,1-.29-.66A27.3,27.3,0,0,1,6.57,52.6,38,38,0,0,1,8.36,32.5a30.77,30.77,0,0,1,12.46-15c6.32-3.95,13.56-6.05,20.83-7.47S56.55,7.85,64,7c8.43-1,17-1.62,25.4.16,2.21.46,4.36,1.14,6.57,1.63a68.69,68.69,0,0,0,7.13,1.14c4.36.5,8.75.62,13.13.89a62.06,62.06,0,0,1,12.36,1.72,20.39,20.39,0,0,1,7.74,4.19c5,4.38,8.33,10.3,11.12,16.4,3.2,7,6.7,15.13,6.62,23.16-.07,6.67-3,13.23-9.51,15.94-3.52,1.47-7.35,2.05-11,3.2a56.66,56.66,0,0,0-10.14,4.33,57.9,57.9,0,0,0-22.83,22.85,81.19,81.19,0,0,0-4.25,9.7,67.48,67.48,0,0,1-3.66,8.46,25.32,25.32,0,0,1-2.32,3.6c-.45.52-.91,1-1.4,1.5-.27.25-.54.49-.83.72,0,0-.32.24-.65.46-2.85,1.86-6.35,2.09-10,1.61a79.13,79.13,0,0,1-10.31-2.2,68.81,68.81,0,0,1-18.08-7.52A38.17,38.17,0,0,1,36.2,106.64a26.25,26.25,0,0,1-3.3-7.85C32,95,26.17,96.63,27.11,100.38Z"/></g></g></svg>