<svg xmlns="http://www.w3.org/2000/svg" viewBox="0 0 281.82 317.21"><defs><style>.cls-1{fill:#87d147;}</style></defs><g id="Layer_2" data-name="Layer 2"><g id="Layer_1-2" data-name="Layer 1"><path class="cls-1" d="M5.31,105.77c-8.26,28.9,6,62.62,32.5,76.81,11.09,5.94,23.59,8.6,35.53,12.56,22.37,7.41,43.35,19.78,59.2,37.23,15,16.52,25,37,39.44,54s35.86,31,57.85,27.22c19.28-3.33,34.22-20,40.67-38.43s5.82-38.61,4-58.09-4.61-39.1-2.28-58.53c1.7-14.19,6.13-28,6.57-42.35C280.08,75.61,249.29,41,216,17.66,203.91,9.13,189.76,1.12,175.09,3.32h0c-18,2.7-29.29,18.73-43.6,28.22C116.22,41.67,96.1,48.08,78.36,52.36,47.3,59.85,15.14,71.38,5.31,105.77Z"/><path d="M2.42,105C-5,131.14,5,161.13,26,178.24A72.52,72.52,0,0,0,45.7,189.43c8.06,3.16,16.46,5.28,24.7,7.9a146.76,146.76,0,0,1,42,21c13.09,9.53,23.41,21.66,32.51,35,9.42,13.77,18,28.44,29.69,40.47,10.6,10.89,24.24,20.23,39.48,22.79a47.41,47.41,0,0,0,22.23-1.37,52,52,0,0,0,18.18-10.47c11.23-9.79,18.33-23.55,21.58-37.94,3.9-17.29,2.89-35.17,1.22-52.67-1.79-18.69-4.31-37.6-1.89-56.35,2.21-17.21,7.84-33.87,6.13-51.42-2.91-29.92-21.67-55.51-43.48-75A218.32,218.32,0,0,0,220.3,17c-6.62-4.8-13.5-9.37-21-12.63-7.74-3.35-16-5.23-24.45-4a45.06,45.06,0,0,0-19,7.89c-5.88,4-11.12,8.88-16.53,13.51a97.22,97.22,0,0,1-17.66,12.16C107.4,41.44,91.87,46,76.34,49.76c-24.53,6-50.89,15-65.6,37A65.3,65.3,0,0,0,2.42,105c-1.08,3.71,4.71,5.3,5.78,1.59A59.31,59.31,0,0,1,28.7,76.19c9.56-7.52,21-12.35,32.52-16,13.59-4.32,27.63-6.94,41.13-11.59a156.45,156.45,0,0,0,22.27-9.48,100.63,100.63,0,0,0,17.84-12.22c9.93-8.4,19.89-18.8,33.42-20.66C191.4,4.08,206,14,217.86,22.63,240.51,39.15,262.11,61,271.41,88a80.41,80.41,0,0,1,4.25,20.16A96.4,96.4,0,0,1,274,132.3c-1.59,8.76-3.63,17.43-4.69,26.27a154.92,154.92,0,0,0-.51,27.41c1,17.83,3.94,35.53,4,53.41,0,15.75-2.14,32-10.14,45.85-6.47,11.19-16.56,20.88-29.2,24.49-14.11,4-28.61-.57-40.49-8.43-27.08-17.93-38.45-50.43-60.36-73.3a134.52,134.52,0,0,0-37.31-27.07,161.51,161.51,0,0,0-21.65-8.86c-8-2.64-16.26-4.7-24.21-7.63a66.64,66.64,0,0,1-18.8-10.17A64.2,64.2,0,0,1,17.83,160.5,67.66,67.66,0,0,1,6,125,60.1,60.1,0,0,1,8.2,106.57C9.25,102.85,3.46,101.26,2.42,105Z"/></g></g></svg>