<svg xmlns="http://www.w3.org/2000/svg" viewBox="0 0 452.84 341.86"><defs><style>.cls-1{fill:#f9c932;}</style></defs><g id="Layer_2" data-name="Layer 2"><g id="Layer_1-2" data-name="Layer 1"><path class="cls-1" d="M131.8,41.38h0C116.69,37.11,103.29,27.84,88,24.24,56.51,16.81,22.21,37.14,9.43,66.88s-5.78,65.77,13.5,91.78,49.33,42.63,80.76,50.39c12.49,3.08,25.5,5,36.92,10.87,22,11.41,34,35.29,45.83,57.08s27.22,44.71,51.23,50.92c34.91,9,72.85-21.4,106.15-7.57,11.36,4.72,20.54,14.21,32.43,17.37,19.84,5.28,39.85-8.79,52.26-25.15,13.49-17.78,22.18-39.81,21.24-62.11-1.73-41.33-30.36-54.13-62.93-69.17-34-15.7-27.12-53.11-31.08-85.13-7.09-57.45-31.77-98.75-96-92.54C214,8.05,179.86,55,131.8,41.38Z"/><path d="M132.59,38.49C120.29,35,109.25,28.28,97.28,23.92a65.79,65.79,0,0,0-32.77-3.4C43.66,23.69,24.64,36.7,13,54.1.11,73.32-2.57,97.8,2.22,120.08c5,23.16,18,43.78,35.83,59.26s39.68,26,62.47,32c12.53,3.27,25.79,4.86,37.52,10.64,10,5,18.25,12.78,24.93,21.66,13.66,18.16,21.74,39.75,35.26,58,6.54,8.82,14.17,17,23.59,22.74A57.36,57.36,0,0,0,253,332.61c22.36-.39,43-10.72,65.11-12.64,11.09-1,21.51.85,31.18,6.5,10.34,6,19.65,13.85,32,15.18,11.54,1.25,23-3.43,32.22-10.1,9.93-7.2,17.84-16.69,24.2-27.12,12.64-20.72,18.88-46.22,12.82-70.14a59.91,59.91,0,0,0-12.31-24c-5.69-6.74-12.86-12.14-20.37-16.7a253.65,253.65,0,0,0-25.44-13c-8.77-4.06-16.75-8.65-22.12-17-10-15.5-9.31-35.59-10.33-53.3-1.07-18.6-4-37.43-10.43-55-5.6-15.2-14.15-29.59-27.08-39.66C308.52,4.82,291.25.28,273.82,0a101,101,0,0,0-30.6,3.89c-9.61,2.88-18.75,7.19-27.63,11.81-17.47,9.1-34.64,20.22-54.27,24a63,63,0,0,1-28.73-1.2c-3.72-1-5.31,4.75-1.59,5.78a69.63,69.63,0,0,0,30.22,1.51c9.43-1.58,18.44-5,27.08-9,17.68-8.24,34-19.4,52.56-25.78C258.54,4.87,279,4,297,9.3a65.66,65.66,0,0,1,35.66,25.88c9.63,13.92,14.77,30.45,17.92,46.94a213.31,213.31,0,0,1,3.36,27.6c.55,9.28.78,18.59,1.94,27.82,1.14,9,3.09,17.92,7.4,26a46.65,46.65,0,0,0,19.22,19c8.39,4.48,17.3,8,25.69,12.49,7.53,4.06,14.86,8.65,21.08,14.56,33.21,31.57,15.33,89.53-16.57,115.16-8.68,7-19.69,12.17-31.06,11-11.66-1.19-20.72-9.6-30.54-15.11a55.42,55.42,0,0,0-30.75-6.78c-10.79.63-21.31,3.4-31.72,6.15-20.54,5.45-42.67,11.37-62.38.05-18.74-10.77-29.79-30.86-39.74-49.25-10.39-19.2-21.61-39.79-40.86-51.46-10.91-6.61-23.47-9.1-35.74-11.87A176,176,0,0,1,76.71,196.7c-20.86-9.35-40.14-23.41-53.21-42.38C10.69,135.72,4.06,112.68,6.44,90.11a72.3,72.3,0,0,1,31.7-52.8,69,69,0,0,1,28-11c10.78-1.61,21.29.17,31.38,4.07C108.77,34.74,119.3,41,131,44.27,134.72,45.32,136.31,39.54,132.59,38.49Z"/></g></g></svg>