<svg xmlns="http://www.w3.org/2000/svg" viewBox="0 0 483.6 420.5"><defs><style>.cls-1{fill:#ed777f;}</style></defs><g id="Layer_2" data-name="Layer 2"><g id="Layer_1-2" data-name="Layer 1"><path class="cls-1" d="M229.4,3.06h0c-31.79-1-63.66,11.52-88.44,34C131.12,46,122.29,56.54,116,68.91,104.91,90.78,102.35,117,92.18,139.45c-12.23,27-34.25,46.22-53.38,67.49S2,255.16,3,285.46c.6,18,7.86,35,17.49,49.4C45.89,372.72,89.15,394.32,131,390c46.1-4.73,89.31-38.23,135.12-30.75,38.44,6.27,68.72,40,105.38,54.52a48.2,48.2,0,0,0,15,3.76c7.47.37,14.85-2.08,21.75-5.33C443.61,395.58,469.53,356,473.24,313c2.56-29.59-4.63-59-7.92-88.47a337.43,337.43,0,0,1,8.82-122.07c5.05-19.29,11.33-42.05.33-57.86-6.23-9-16.42-12.86-26-16.32-29.95-10.78-64.42-21-91.22-2.51-21.93,15.16-30.75,29.4-52.57,8.75A114.25,114.25,0,0,0,229.4,3.06Z"/><path d="M229.4.06C178.17-1.54,125.94,31.66,108,80c-4.69,12.61-7.61,25.79-11.45,38.67-3.79,12.69-8.8,24.69-16.11,35.78-14.11,21.43-33.91,38.1-50.14,57.79C14.23,231.7.8,254.93,0,280.74-.75,306.91,12.25,331.88,29.26,351a128.45,128.45,0,0,0,58.68,37.73,113.56,113.56,0,0,0,33.46,4.81c12.47-.12,24.81-2.58,36.74-6.07,24.35-7.12,47.38-18.52,72.27-23.82,12-2.55,24.55-3.46,36.71-1.2,11.66,2.17,22.59,6.9,32.93,12.62,21.18,11.73,40.05,27.35,62,37.79,5.94,2.83,12.16,5.58,18.63,6.9a40.08,40.08,0,0,0,21.12-1.67c11-3.74,21.1-10.07,30-17.47,17.8-14.84,30.82-35.19,38.17-57.08a133,133,0,0,0,6.7-36.05c.71-14.93-.88-29.83-2.91-44.59-2.09-15.16-4.72-30.25-6.09-45.5a337.9,337.9,0,0,1-1.06-43.74,331.26,331.26,0,0,1,4.63-43.53c2.41-13.83,6.27-27.24,9.37-40.91,2.64-11.63,4.67-24.31,1.27-36S469.47,33.73,458.5,29a244.92,244.92,0,0,0-36-12.12c-12-3.08-24.52-5.13-36.9-4C373,13.93,362,18.52,351.74,26c-4.71,3.45-9.23,7.15-14.06,10.44-3.48,2.36-7.34,4.78-11.61,5.31-4.46.56-8.63-1.25-12.28-3.65-5.62-3.68-10.18-8.84-15.47-13A117,117,0,0,0,229.4.06c-3.86-.14-3.86,5.86,0,6a112,112,0,0,1,68.37,26.3c8,6.77,16.26,16.3,27.81,15.42,9.66-.73,17.53-7.82,24.9-13.41,4.94-3.74,9.9-7.54,15.5-10.26a55.43,55.43,0,0,1,16.81-5c12-1.64,24.21.11,35.87,2.95a265.58,265.58,0,0,1,34.91,11.3c5.4,2.14,10.8,4.84,15,8.92a29.12,29.12,0,0,1,8,14.54c2.67,11.6-.07,24-2.86,35.3-3.28,13.27-6.69,26.41-8.9,39.92a340.73,340.73,0,0,0-3.19,85.35c2.62,29.29,10,58.25,9.09,87.8a127.66,127.66,0,0,1-21.25,66.63,114.83,114.83,0,0,1-22,24.55c-8.65,7.22-18.92,13.6-29.81,16.72a34.19,34.19,0,0,1-20.44-.46,108.2,108.2,0,0,1-16.78-7.24c-10.56-5.47-20.49-12.05-30.4-18.61C310.66,374,290.39,360.19,267,356.37c-24.46-4-48.48,3.3-71.25,11.59s-46.16,18.46-70.86,19.5c-22.52,1-44.86-5.63-63.93-17.5A124.49,124.49,0,0,1,14,317.16c-5.49-11.87-8.55-24.87-7.88-38,.62-12.3,4.46-24.27,10-35.19,11.35-22.25,29.22-39.51,46-57.59,8.62-9.28,17-18.93,23.88-29.57a136.52,136.52,0,0,0,15.81-35c3.84-12.61,6.7-25.51,11.09-37.95a104.09,104.09,0,0,1,19.14-33.45,130,130,0,0,1,62.63-40.08A115,115,0,0,1,229.4,6.06C233.26,6.18,233.26.18,229.4.06Z"/></g></g></svg>