<svg xmlns="http://www.w3.org/2000/svg" viewBox="0 0 238.79 245.56"><defs><style>.cls-1{fill:#cee585;}</style></defs><g id="Layer_2" data-name="Layer 2"><g id="Layer_1-2" data-name="Layer 1"><path class="cls-1" d="M119.33,229.74c25.55-16.44,42.4-43.38,55.51-70.79,3.95-8.26,7.73-16.79,13.85-23.6h0c14.92-16.61,37.21-21.84,44.58-45.1,6.31-19.91.56-41.94-13-57.4-24-27.27-73.76-37.15-107.51-24C85.43,19.57,71.88,47.61,59,72c-8.74,16.5-17.44,33-27.62,48.68C19,139.71-.68,156.83,3.5,181.58,12.87,237.09,74.41,258.64,119.33,229.74Z"/><path d="M120.85,232.33c23.08-14.92,39.22-38,51.69-62,3.23-6.23,6.09-12.64,9.27-18.89A62.22,62.22,0,0,1,193.18,135c7.81-7.76,17.41-13.1,26.06-20.16A57.57,57.57,0,0,0,230.36,103a47.31,47.31,0,0,0,7.13-17A62.9,62.9,0,0,0,232.7,46.5c-10.23-22.08-32.33-35.72-55.09-42-22.06-6.15-47.19-6.53-68.46,2.7C86.26,17.09,72.8,39.57,61.57,60.67,54.74,73.49,48.09,86.42,40.91,99.06c-3.91,6.9-8,13.73-12.32,20.37-3.34,5.11-7.09,9.94-10.75,14.82-7.2,9.59-14.54,19.84-17,31.83-2.4,11.74.57,23.89,5.22,34.71a74.3,74.3,0,0,0,42.29,39.83A81.08,81.08,0,0,0,107,239.48a86.94,86.94,0,0,0,13.82-7.15,3.06,3.06,0,0,0,1.07-4.11,3,3,0,0,0-4.1-1.07,76.91,76.91,0,0,1-27.5,11.08q-1.77.35-3.54.6l-.73.11-.24,0-2.06.23q-3.68.36-7.36.37c-2.34,0-4.68-.08-7-.29-1.15-.1-2.31-.22-3.46-.37.64.08-.31,0-.36-.06l-.57-.08-2-.34a69.94,69.94,0,0,1-25.66-9.91c-.89-.56-1.76-1.14-2.63-1.74-.47-.33-.94-.66-1.4-1l-.7-.52c-.08-.06-1-.73-.53-.4q-2.73-2.15-5.24-4.53a65.31,65.31,0,0,1-9-10.57,70.84,70.84,0,0,1-11.25-28,37.67,37.67,0,0,1,.63-16.51,56.37,56.37,0,0,1,7-15.39c6.32-10.2,14.33-19.23,20.81-29.34,8.43-13.16,15.89-26.92,23.22-40.72C64,69,69.46,58,75.88,47.53c6.09-9.94,13-19.26,22.17-26.66,8.48-6.86,18.76-11,29.57-13.12a93.51,93.51,0,0,1,16.13-1.64A113.51,113.51,0,0,1,160.54,7C181.63,9.8,203.75,18.66,218.1,35a59.31,59.31,0,0,1,14.53,33.8c1,11.63-1.68,24.09-8.74,33-6.65,8.39-15.42,13.54-24,19.82a89.3,89.3,0,0,0-12.66,10.88c-4.79,5.15-8.32,11.22-11.43,17.48s-5.87,12.35-9.05,18.41c-3,5.79-6.25,11.48-9.73,17a150.62,150.62,0,0,1-24.64,30.41,107.19,107.19,0,0,1-14.6,11.39,3,3,0,1,0,3,5.18Z"/></g></g></svg>