<svg xmlns="http://www.w3.org/2000/svg" viewBox="0 0 399.83 328.53"><defs><style>.cls-1{fill:#cbf7cc;}</style></defs><g id="Layer_2" data-name="Layer 2"><g id="Layer_1-2" data-name="Layer 1"><path class="cls-1" d="M72.1,142.11C63.22,157.33,45.55,164.72,29,170.68c-5.24,1.88-10.61,3.79-14.89,7.35C8,183.08,4.89,190.92,3.67,198.72c-4.31,27.6,12.82,54.56,34.48,72.18,18.34,14.93,42.6,25.52,65.46,19.51,20.26-5.32,36.41-22.82,57.26-24.92,9.1-.91,18.23,1.26,27,3.95a227.29,227.29,0,0,1,63.64,31.13c8.73,6.12,17.09,12.89,26.58,17.76,26.1,13.37,62.66,8.22,78.52-16.45,10.12-15.76,10.38-35.8,8.67-54.45s-5-37.65-.91-55.92,15.35-34.15,23.73-51h0c18.84-37.82,7.23-72.35-34.73-83-36.91-9.35-73-6.71-108.26-23.93C223.35,23,203.49,6.87,178.85,3.69,150.14,0,101,11,82.83,35,59.1,66.44,91.35,109.1,72.1,142.11Z"/><path d="M69.51,140.6c-4.88,8.24-12.53,14.07-20.88,18.52-8.92,4.76-18.56,7.52-27.8,11.49a31.33,31.33,0,0,0-12.61,9.21,37,37,0,0,0-6.6,13.92,61,61,0,0,0,.67,30.44c5.42,20.09,19.29,37.56,35.48,50.23,16.5,12.92,37.61,22.94,59.07,20.3,10.28-1.26,19.53-5.54,28.45-10.6,8.52-4.83,16.86-10.37,26.21-13.49,11.08-3.69,22.11-2.23,33.13,1a217.82,217.82,0,0,1,32.28,12.31,227.06,227.06,0,0,1,29.68,16.91c9.68,6.53,18.69,14.13,29,19.6a71.18,71.18,0,0,0,51.27,5.71,58.84,58.84,0,0,0,22.62-11.69A52.81,52.81,0,0,0,365.05,291c7.44-21.79,2.6-45,.87-67.28-.95-12.18-.92-24.5,2.59-36.31,3.21-10.83,8.73-20.74,14.19-30.56,8.95-16.11,17.74-32.82,17.1-51.8A50.2,50.2,0,0,0,379.26,66a71,71,0,0,0-24-11.08c-11.36-3-23-4.81-34.67-6.41-23-3.16-46.42-5.65-68-14.77-20-8.47-37.36-22.41-58.09-29.44C177.83-1.34,160-.76,142.81,2.2c-16.94,2.92-34.32,8.44-48.59,18.26C87.58,25,81.61,30.64,77.48,37.63c-4.56,7.71-6.5,16.56-6.76,25.44-.54,18,5.09,35.49,4.83,53.46-.12,8.43-1.81,16.7-6,24.07-1.93,3.35,3.25,6.38,5.18,3,9.19-16,7.15-34.43,4.65-51.89C77,75.47,73.63,57.27,81.87,42.06c7.56-14,22.88-22.19,37.29-27.43A140.36,140.36,0,0,1,168,6a79.48,79.48,0,0,1,25.48,4.31c10,3.46,19.22,8.67,28.33,13.92,9.29,5.34,18.52,10.81,28.4,15a164.7,164.7,0,0,0,33,9.74c22.54,4.39,45.59,5.64,67.93,11.13,15.26,3.74,30.12,11.42,37.71,25.79,7.09,13.41,5.76,29.29.87,43.18-3.37,9.56-8.65,18.33-13.54,27.17-5.3,9.59-10.49,19.39-13.57,29.95-6.76,23.13-.83,46.82.26,70.24.91,19.43-1.91,40.52-17.62,53.8-12.33,10.42-29.75,13.86-45.48,11.75a65.53,65.53,0,0,1-24.47-8.57c-10-5.85-18.88-13.32-28.55-19.63a227.6,227.6,0,0,0-60.89-28C175,262.58,163.74,261,152.66,264c-9.42,2.58-17.9,7.67-26.27,12.55s-17,9.77-26.65,11.68c-9.93,2-20.23.58-29.76-2.62-19.17-6.43-36.56-20.12-48.52-36.3C9.88,233.63,2.12,213,7.89,193.56a28,28,0,0,1,7-12.2c3.79-3.67,8.83-5.59,13.7-7.35,9-3.27,18.1-6.65,26.39-11.55,7.94-4.69,15-10.84,19.75-18.83C76.66,140.3,71.48,137.27,69.51,140.6Z"/></g></g></svg>