<svg xmlns="http://www.w3.org/2000/svg" viewBox="0 0 461.91 434.13"><defs><style>.cls-1{fill:#ef4545;}.cls-2{fill:#f9f9f9;}.cls-3{fill:#eae4dc;}.cls-4{fill:none;stroke:#000;stroke-linecap:round;stroke-miterlimit:10;stroke-width:4px;}.cls-5{fill:#f9cbcd;}</style></defs><g id="Layer_2" data-name="Layer 2"><g id="Layer_1-2" data-name="Layer 1"><path class="cls-1" d="M256.65,52.86c-1.58-6.61-3.23-13.45-7-19.19a24.15,24.15,0,0,0-15.4-10c-5.83-1.27-13.32-1.65-16.82,4.16a17.75,17.75,0,0,0-2.25,7.7c-.22,2.76.42,6-1.32,8.44-1,1.41-2.59,1.61-3.9,2.57a3.64,3.64,0,0,0-1.33,2.89c-.13,3.21,1.35,7.44,4.23,8.22,17.81,4.85,39.15,10.82,44.1,12.55,6.86,0,27.41.51,52.71,1,1.62,0,.84-3.18.52-4.77-.36-1.79-1.36-2.9-2.29-4.39-2.1-3.36.67-6,2.11-8.94A13.9,13.9,0,0,0,307.28,37c-4.83-4.67-11.88-4.19-18-3.18A39.82,39.82,0,0,0,271.65,41a36.86,36.86,0,0,0-11,13.35c-.66,1.34-2.33.74-2.69-.38A1.31,1.31,0,0,1,256.65,52.86Z"/><path d="M257.67,70.44l-1.63-.1C257.94,70.73,258.38,70.73,257.67,70.44Z"/><path d="M256.92,70.16c-5-1.73-26.29-7.7-44.1-12.55-2.88-.78-4.36-5-4.23-8.22a3.64,3.64,0,0,1,1.33-2.89c1.31-1,2.88-1.16,3.9-2.57,1.74-2.4,1.1-5.68,1.32-8.44a17.75,17.75,0,0,1,2.25-7.7c3.5-5.81,11-5.43,16.82-4.16a24.15,24.15,0,0,1,15.4,10c3.81,5.74,5.46,12.58,7,19.19A1.31,1.31,0,0,0,258,53.93a1.47,1.47,0,0,1,.1-1.13c.34-.71.72-1.41,1.11-2.09-1.46-6.07-3.12-12.23-6.4-17.59a26.81,26.81,0,0,0-16.19-12c-6.38-1.73-14.91-2.54-19.93,2.67a16.56,16.56,0,0,0-4,8.08,27.22,27.22,0,0,0-.58,4.68,20.8,20.8,0,0,1-.26,4.67c-.56,2-2.88,2.05-4.23,3.31a6.74,6.74,0,0,0-2,4.35c-.4,4,.94,9.31,4.6,10.24,26,6.58,39.55,9.88,44.93,11Z"/><path d="M256,70.34l-.88-.18C254.05,70.18,254.27,70.23,256,70.34Z"/><path d="M310.86,36.46a16.61,16.61,0,0,0-7.29-5.28c-3.39-1.25-7.14-1.16-10.69-.85a45.25,45.25,0,0,0-20.51,6.5,39.85,39.85,0,0,0-13.16,13.88l.33,1.35A1.53,1.53,0,0,1,258,53.93c.36,1.12,2,1.72,2.69.38a36.86,36.86,0,0,1,11-13.35,39.82,39.82,0,0,1,17.59-7.18c6.16-1,13.21-1.49,18,3.18A13.9,13.9,0,0,1,310,53.07c-1.44,2.9-4.21,5.58-2.11,8.94.93,1.49,1.93,2.6,2.29,4.39.32,1.59,1.1,4.8-.52,4.77-25.3-.5-45.85-1-52.71-1,.32.11.57.2.75.28,6.5.34,23.37,1,54.55,2.25,3.24.12,1.44-6.27.1-9.26a10.84,10.84,0,0,0-1.16-2,3.94,3.94,0,0,1-1.11-2c-.05-1.57,1.63-3.19,2.33-4.49A17.07,17.07,0,0,0,310.86,36.46Z"/><path d="M258,53.93a1.53,1.53,0,0,0,1.54-1.87l-.33-1.35c-.39.68-.77,1.38-1.11,2.09A1.47,1.47,0,0,0,258,53.93Z"/><path d="M255.16,70.16l.88.18,1.63.1c-.18-.08-.43-.17-.75-.28Z"/><path class="cls-2" d="M120,272.76c-5.86,6.29-10.7,13.41-15.65,20.41-9.19,13-19.54,26.87-35.71,31.15-8.6,2.27-17.65,1.77-26.44,1.4-8.56-.35-17.62-.9-25.79,2.15-7.8,2.92-18.25,12.95-11.07,21.5,2.81,3.35,7.28,5,11.4,6.05a113,113,0,0,0,14.15,2.41c17.59,2.11,37,2.9,49.72,17,5.85,6.46,9.93,14.39,16.17,20.51,7.59,7.43,17.61,9,27.75,6.94,19.84-4,39.81-20.59,60.67-12,8.36,3.45,14.68,10.19,20.78,16.63,6.33,6.69,12.82,12.8,21.1,17a68,68,0,0,0,51.86,3.76c9.06-3,16.67-8.28,23.87-14.46s14.31-13,23.13-16.92c19.64-8.71,40.65-.32,61-.85,8.35-.22,17.07-1.77,24.26-6.24,8.26-5.13,12.08-13.67,12.63-23.17.58-10.07-1.35-20.15.25-30.17,1.26-7.94,4.74-15.37,8.78-22.24,8.12-13.83,20-26.52,23.9-42.42,2.25-9.11.47-17.73-3.1-26.25-4-9.5-8.41-18.49-8.47-29,0-10.21,3-20.12,6.14-29.72,1.64-5,3.35-10,4.77-15.12s2.81-10.25,2.85-15.44c0-5.91-3.18-9.65-8.61-11.59a28.79,28.79,0,0,0-14-1.25c-9.48,1.43-18.15,6.67-24.6,13.65-14.24,15.43-18.86,36.75-27.87,55.16-4.36,8.93-9.89,17.48-17.51,24A60.56,60.56,0,0,1,342.55,248a59.65,59.65,0,0,1-26.84.92c-10.43-2.07-67.15-10.94-78-10.84-8.72,1.54-88.07,15.24-96,19.2S126.09,266.17,120,272.76Z"/><path d="M455.42,183.26c1.73-5.26,3.44-10.53,4.71-15.92,1.1-4.67,2.24-9.74,1.6-14.56-1.32-9.77-12.09-13.27-20.71-13.29-20.55,0-35.36,16.51-43.84,33.52-9.42,18.87-14,41.05-28.92,56.7a57.46,57.46,0,0,1-53.11,16.06c-10.2-2.3-66.74-10.76-77.42-10.66a1.71,1.71,0,0,0-.47.08c1.65,0,2.26,2.6.47,2.92,10.83-.1,67.55,8.77,78,10.84a59.65,59.65,0,0,0,26.84-.92,60.56,60.56,0,0,0,23.81-12.4c7.62-6.51,13.15-15.06,17.51-24,9-18.41,13.63-39.73,27.87-55.16,6.45-7,15.12-12.22,24.6-13.65a28.79,28.79,0,0,1,14,1.25c5.43,1.94,8.65,5.68,8.61,11.59,0,5.19-1.47,10.47-2.85,15.44s-3.13,10.09-4.77,15.12c-3.14,9.6-6.19,19.51-6.14,29.72.06,10.53,4.5,19.52,8.47,29,3.57,8.52,5.35,17.14,3.1,26.25-3.93,15.9-15.78,28.59-23.9,42.42-4,6.87-7.52,14.3-8.78,22.24-1.6,10,.33,20.1-.25,30.17-.55,9.5-4.37,18-12.63,23.17-7.19,4.47-15.91,6-24.26,6.24-20.35.53-41.36-7.86-61,.85-8.82,3.92-15.9,10.7-23.13,16.92S288,424.65,278.9,427.69A68,68,0,0,1,227,423.93c-8.28-4.23-14.77-10.34-21.1-17-6.1-6.44-12.42-13.18-20.78-16.63-20.86-8.6-40.83,8-60.67,12-10.14,2-20.16.49-27.75-6.94-6.24-6.12-10.32-14.05-16.17-20.51-12.74-14.08-32.13-14.87-49.72-17a113,113,0,0,1-14.15-2.41c-4.12-1-8.59-2.7-11.4-6.05-7.18-8.55,3.27-18.58,11.07-21.5,8.17-3.05,17.23-2.5,25.79-2.15,8.79.37,17.84.87,26.44-1.4,16.17-4.28,26.52-18.16,35.71-31.15,5-7,9.79-14.12,15.65-20.41,6.13-6.59,13.8-11.44,21.8-15.45s87.25-17.66,96-19.2a1.51,1.51,0,0,1-.47-2.92,1.73,1.73,0,0,0-.32,0c-9.09,1.61-88.8,15.52-97,19.66-8,4-15.71,9-21.87,15.53-11.88,12.65-19.52,28.83-32.28,40.68a42.3,42.3,0,0,1-22.45,11.26c-9.23,1.42-18.64.31-27.91.15-8.36-.14-17.22.37-24.6,4.72-7.11,4.19-13.66,13-9.52,21.47,3.88,7.92,14.3,9.86,22.12,11.12,9.58,1.54,19.32,2,28.85,3.82,9.33,1.8,18.33,5.16,25.08,12.11,6.32,6.51,10.45,14.79,16.83,21.25a30.85,30.85,0,0,0,25.41,9c10.94-1,20.79-5.74,30.86-9.71,10.43-4.11,22.15-7.68,33.12-3.44,9,3.46,15.48,11.19,21.94,18s13.16,12.46,21.51,16.45a71.21,71.21,0,0,0,52.06,3.54c8.82-2.85,16.49-7.63,23.58-13.54,7.69-6.42,14.89-13.8,24.11-18.05,10.44-4.82,22.23-4.28,33.38-3.06,17.7,1.94,38,5.75,53.77-5.14,7.49-5.16,11.58-13,12.63-22,1.23-10.56-1.2-21.22.3-31.76,2.41-16.94,14.42-30.58,23.21-44.6,4.23-6.74,8.11-13.94,9.82-21.76,2-9,.4-17.6-3.06-26-2.06-5-4.5-9.91-6.26-15.06a44,44,0,0,1-2.38-15.39C448.43,203.69,452.1,193.36,455.42,183.26Z"/><path d="M237.73,238.11c1.79-.32,1.18-2.89-.47-2.92A1.51,1.51,0,0,0,237.73,238.11Z"/><path class="cls-3" d="M357.14,156.09a9.52,9.52,0,0,0-6.69-5.07,13.63,13.63,0,0,0-9.13,1.9c-5.67,3.32-8.72,9.77-11.51,15.43-.85,1.73-3.44.21-2.59-1.51,3.24-6.57,7-13.67,13.68-17.07a135.32,135.32,0,0,0-1.08-18.22,96.44,96.44,0,0,0-9.9-32.4,76.89,76.89,0,0,0-19-23.46,82.48,82.48,0,0,0-26.25-14.31,112.35,112.35,0,0,0-32.27-5.54c-12.92-.41-26,.81-38.33,4.73a84.47,84.47,0,0,0-30,16.67,86.51,86.51,0,0,0-19.11,24,92.1,92.1,0,0,0-9.37,25.87,71.44,71.44,0,0,0-1.39,17.69,94.54,94.54,0,0,0,3.42,19.08,130.16,130.16,0,0,1,3.87,17.76,51.76,51.76,0,0,1,.27,9.56c-.11,1.53-.3,3-.4,4.56a66.32,66.32,0,0,0,1.1,17.21,56.12,56.12,0,0,0,8.46,20.68,53.72,53.72,0,0,0,20.69,17.62c11.61,5.77,24.68,7.84,37.5,8.7A124.78,124.78,0,0,0,265,257.52a91.77,91.77,0,0,0,26.49-10.38,84.61,84.61,0,0,0,18.21-14.48,86.36,86.36,0,0,0,11.41-14.94c1.29-2.12,2.48-4.29,3.59-6.51.46-.93.9-1.87,1.32-2.81.2-.43.38-.86.57-1.29l.07-.17.07-.16.22-.54a44,44,0,0,0,1.7-4.75,1.52,1.52,0,0,1,2.2-.9c7.39,3.5,14.73-2.54,19.32-7.76a50.14,50.14,0,0,0,6.45-8.49,24.38,24.38,0,0,0,2.73-10,61,61,0,0,0-.08-9.93A21.9,21.9,0,0,0,357.14,156.09Z"/><path class="cls-3" d="M147.82,169.82c-3.33,2.31-3.92,7.06-3.82,10.8a13.28,13.28,0,0,0,1.28,5.68,16.48,16.48,0,0,0,4.13,4.83,57.92,57.92,0,0,0,9,5.91c.23-5.15.73-10.28.12-15.43a75.53,75.53,0,0,0-1.83-9.55s0,0,0-.05C154.42,169.46,150.88,167.7,147.82,169.82Z"/><path d="M360.48,156.21A13.15,13.15,0,0,0,354,149a14.51,14.51,0,0,0-10.06-.45,120.37,120.37,0,0,0-5.12-35.74,85.6,85.6,0,0,0-15.24-28.67A79.38,79.38,0,0,0,300,64.77a98.17,98.17,0,0,0-30.31-10.22,132.12,132.12,0,0,0-36.29-1,97.1,97.1,0,0,0-37,11.43A85.78,85.78,0,0,0,171.2,86.39a93.93,93.93,0,0,0-14.69,26.37A82.51,82.51,0,0,0,151.17,144a93.93,93.93,0,0,0,3.31,19.69c.31,1.16.62,2.32.92,3.48a13.11,13.11,0,0,1,3.34,2.73c1.24,1.43-.8,3.52-2.07,2.17a75.53,75.53,0,0,1,1.83,9.55c.61,5.15.11,10.28-.12,15.43l1.21.72a1.51,1.51,0,0,1-1.31,2.69c0,1.21,0,2.41.07,3.62a65.23,65.23,0,0,0,4.46,20.59,54.47,54.47,0,0,0,14.67,20.79c8.45,7.34,18.92,11.9,29.75,14.45a135.51,135.51,0,0,0,21.14,3,139.49,139.49,0,0,0,19.82.08,106.78,106.78,0,0,0,31.95-7,90,90,0,0,0,23.1-13.36,90.22,90.22,0,0,0,24.05-30,72.74,72.74,0,0,0,3.73-8.83c6.77,2.19,13.74-1.32,18.65-6.13a71,71,0,0,0,7.68-9,25.46,25.46,0,0,0,4.58-10.93,54.31,54.31,0,0,0,.43-11.68A30.22,30.22,0,0,0,360.48,156.21Zm-1.15,18.16a24.38,24.38,0,0,1-2.73,10,50.14,50.14,0,0,1-6.45,8.49c-4.59,5.22-11.93,11.26-19.32,7.76a1.52,1.52,0,0,0-2.2.9,44,44,0,0,1-1.7,4.75l-.22.54-.07.16-.07.17c-.19.43-.37.86-.57,1.29-.42.94-.86,1.88-1.32,2.81-1.11,2.22-2.3,4.39-3.59,6.51a86.36,86.36,0,0,1-11.41,14.94,84.61,84.61,0,0,1-18.21,14.48A91.77,91.77,0,0,1,265,257.52a124.78,124.78,0,0,1-35.86,2.42c-12.82-.86-25.89-2.93-37.5-8.7a53.72,53.72,0,0,1-20.69-17.62,56.12,56.12,0,0,1-8.46-20.68,66.32,66.32,0,0,1-1.1-17.21c.1-1.52.29-3,.4-4.56a51.76,51.76,0,0,0-.27-9.56,130.16,130.16,0,0,0-3.87-17.76,94.54,94.54,0,0,1-3.42-19.08,71.44,71.44,0,0,1,1.39-17.69A92.1,92.1,0,0,1,165,101.21a86.51,86.51,0,0,1,19.11-24,84.47,84.47,0,0,1,30-16.67c12.36-3.92,25.41-5.14,38.33-4.73a112.35,112.35,0,0,1,32.27,5.54,82.48,82.48,0,0,1,26.25,14.31,76.89,76.89,0,0,1,19,23.46,96.44,96.44,0,0,1,9.9,32.4,135.32,135.32,0,0,1,1.08,18.22c-6.68,3.4-10.44,10.5-13.68,17.07-.85,1.72,1.74,3.24,2.59,1.51,2.79-5.66,5.84-12.11,11.51-15.43a13.63,13.63,0,0,1,9.13-1.9,9.52,9.52,0,0,1,6.69,5.07,21.9,21.9,0,0,1,2.11,8.35A61,61,0,0,1,359.33,174.37Z"/><path d="M149.41,191.13a16.48,16.48,0,0,1-4.13-4.83,13.28,13.28,0,0,1-1.28-5.68c-.1-3.74.49-8.49,3.82-10.8,3.06-2.12,6.6-.36,8.8,2.19,0,0,0,0,0,.05-.4-1.64-.83-3.27-1.27-4.9a8.9,8.9,0,0,0-5.05-1.36c-3.72.31-6.61,3.08-8,6.42a21.12,21.12,0,0,0-1.07,11.3c.66,3.95,2.9,7,5.85,9.59,3.3,2.92,7.21,5,10.94,7.24a1,1,0,0,0,.21.1c0-1.14,0-2.27.1-3.41A57.92,57.92,0,0,1,149.41,191.13Z"/><path d="M158.74,169.89a13.11,13.11,0,0,0-3.34-2.73c.44,1.63.87,3.26,1.27,4.9C157.94,173.41,160,171.32,158.74,169.89Z"/><path d="M159.59,197.76l-1.21-.72c-.06,1.14-.09,2.27-.1,3.41A1.51,1.51,0,0,0,159.59,197.76Z"/><ellipse cx="192.36" cy="164.52" rx="11.57" ry="20.58"/><ellipse cx="263.46" cy="164.52" rx="11.57" ry="20.58"/><path d="M231,181.22a9,9,0,0,0-5.48.84,9.61,9.61,0,0,0-4.13,3.1,6.21,6.21,0,0,0-1.08,4.92,5.88,5.88,0,0,0,3,3.72,9.67,9.67,0,0,0,6.16.7,1.52,1.52,0,0,0,1-1.85,1.55,1.55,0,0,0-1.85-1.05,6.18,6.18,0,0,1-4.3-.67,2.54,2.54,0,0,1-1.1-2.77,4.74,4.74,0,0,1,2.54-2.92,10.7,10.7,0,0,1,2-.84,4.66,4.66,0,0,1,2.42-.29,1.53,1.53,0,0,0,1.84-1.05,1.51,1.51,0,0,0-1.05-1.84Z"/><path class="cls-4" d="M193.78,210.91s5.94,25.29,34.78,26.28,39.57-28.25,39.57-28.25"/><path class="cls-4" d="M266.17,198.61s-2.71,14.3,13.55,12"/><path d="M258.23,53c1.34-6.52-.93-13.13.8-19.62,1.54-5.74,5.09-10.71,8.91-15.16,4.09-4.77,8.36-10,14.35-12.4A41.19,41.19,0,0,1,300,3.09a41.82,41.82,0,0,1,19.26,6.13c1.65,1,3.16-1.58,1.52-2.59A45.15,45.15,0,0,0,283.91,2,27.07,27.07,0,0,0,275,6.52a67.52,67.52,0,0,0-7.13,7.22c-4.2,4.62-8.19,9.6-10.58,15.44a26.6,26.6,0,0,0-2,10.31c0,4.22.93,8.48.06,12.67-.38,1.88,2.51,2.69,2.9.79Z"/><path d="M261.57,50.87c-.17-3.77,1.78-7,4.11-9.85a87.91,87.91,0,0,1,8.1-8.39,30.11,30.11,0,0,1,9.93-6.43,34.27,34.27,0,0,1,11.45-1.86,89.2,89.2,0,0,1,13.35,1.14c1.89.28,2.71-2.61.8-2.89-8.42-1.22-17.35-2.27-25.6.44a32,32,0,0,0-10.92,6.46,83.67,83.67,0,0,0-9.1,9.25c-2.89,3.44-5.33,7.48-5.12,12.13.08,1.92,3.09,1.93,3,0Z"/><ellipse class="cls-5" cx="184.96" cy="204.73" rx="18.97" ry="8.05"/><ellipse class="cls-5" cx="288.38" cy="198.81" rx="18.97" ry="8.05"/></g></g></svg>